G75*
G70*
%OFA0B0*%
%FSLAX24Y24*%
%IPPOS*%
%LPD*%
%AMOC8*
5,1,8,0,0,1.08239X$1,22.5*
%
%ADD10C,0.0000*%
%ADD11C,0.0453*%
%ADD12C,0.0728*%
%ADD13C,0.0571*%
%ADD14R,0.0740X0.0740*%
%ADD15OC8,0.1004*%
%ADD16OC8,0.0537*%
%ADD17C,0.0394*%
%ADD18C,0.0472*%
%ADD19C,0.0050*%
%ADD20C,0.0335*%
%ADD21C,0.0118*%
D10*
X000159Y000473D02*
X039529Y000473D01*
X039529Y027245D01*
X000159Y027245D01*
X000159Y000473D01*
X008428Y002544D02*
X008430Y002594D01*
X008436Y002644D01*
X008446Y002693D01*
X008460Y002741D01*
X008477Y002788D01*
X008498Y002833D01*
X008523Y002877D01*
X008551Y002918D01*
X008583Y002957D01*
X008617Y002994D01*
X008654Y003028D01*
X008694Y003058D01*
X008736Y003085D01*
X008780Y003109D01*
X008826Y003130D01*
X008873Y003146D01*
X008921Y003159D01*
X008971Y003168D01*
X009020Y003173D01*
X009071Y003174D01*
X009121Y003171D01*
X009170Y003164D01*
X009219Y003153D01*
X009267Y003138D01*
X009313Y003120D01*
X009358Y003098D01*
X009401Y003072D01*
X009442Y003043D01*
X009481Y003011D01*
X009517Y002976D01*
X009549Y002938D01*
X009579Y002898D01*
X009606Y002855D01*
X009629Y002811D01*
X009648Y002765D01*
X009664Y002717D01*
X009676Y002668D01*
X009684Y002619D01*
X009688Y002569D01*
X009688Y002519D01*
X009684Y002469D01*
X009676Y002420D01*
X009664Y002371D01*
X009648Y002323D01*
X009629Y002277D01*
X009606Y002233D01*
X009579Y002190D01*
X009549Y002150D01*
X009517Y002112D01*
X009481Y002077D01*
X009442Y002045D01*
X009401Y002016D01*
X009358Y001990D01*
X009313Y001968D01*
X009267Y001950D01*
X009219Y001935D01*
X009170Y001924D01*
X009121Y001917D01*
X009071Y001914D01*
X009020Y001915D01*
X008971Y001920D01*
X008921Y001929D01*
X008873Y001942D01*
X008826Y001958D01*
X008780Y001979D01*
X008736Y002003D01*
X008694Y002030D01*
X008654Y002060D01*
X008617Y002094D01*
X008583Y002131D01*
X008551Y002170D01*
X008523Y002211D01*
X008498Y002255D01*
X008477Y002300D01*
X008460Y002347D01*
X008446Y002395D01*
X008436Y002444D01*
X008430Y002494D01*
X008428Y002544D01*
X002226Y009434D02*
X002228Y009468D01*
X002234Y009502D01*
X002244Y009535D01*
X002257Y009566D01*
X002275Y009596D01*
X002295Y009624D01*
X002319Y009649D01*
X002345Y009671D01*
X002373Y009689D01*
X002404Y009705D01*
X002436Y009717D01*
X002470Y009725D01*
X002504Y009729D01*
X002538Y009729D01*
X002572Y009725D01*
X002606Y009717D01*
X002638Y009705D01*
X002668Y009689D01*
X002697Y009671D01*
X002723Y009649D01*
X002747Y009624D01*
X002767Y009596D01*
X002785Y009566D01*
X002798Y009535D01*
X002808Y009502D01*
X002814Y009468D01*
X002816Y009434D01*
X002814Y009400D01*
X002808Y009366D01*
X002798Y009333D01*
X002785Y009302D01*
X002767Y009272D01*
X002747Y009244D01*
X002723Y009219D01*
X002697Y009197D01*
X002669Y009179D01*
X002638Y009163D01*
X002606Y009151D01*
X002572Y009143D01*
X002538Y009139D01*
X002504Y009139D01*
X002470Y009143D01*
X002436Y009151D01*
X002404Y009163D01*
X002373Y009179D01*
X002345Y009197D01*
X002319Y009219D01*
X002295Y009244D01*
X002275Y009272D01*
X002257Y009302D01*
X002244Y009333D01*
X002234Y009366D01*
X002228Y009400D01*
X002226Y009434D01*
X002221Y015134D02*
X002223Y015168D01*
X002229Y015202D01*
X002238Y015235D01*
X002252Y015266D01*
X002269Y015296D01*
X002289Y015324D01*
X002312Y015349D01*
X002338Y015372D01*
X002366Y015391D01*
X002396Y015407D01*
X002428Y015419D01*
X002461Y015428D01*
X002495Y015433D01*
X002530Y015434D01*
X002564Y015431D01*
X002597Y015424D01*
X002630Y015414D01*
X002661Y015399D01*
X002690Y015382D01*
X002717Y015361D01*
X002742Y015337D01*
X002764Y015310D01*
X002782Y015282D01*
X002797Y015251D01*
X002809Y015219D01*
X002817Y015185D01*
X002821Y015151D01*
X002821Y015117D01*
X002817Y015083D01*
X002809Y015049D01*
X002797Y015017D01*
X002782Y014986D01*
X002764Y014958D01*
X002742Y014931D01*
X002717Y014907D01*
X002690Y014886D01*
X002661Y014869D01*
X002630Y014854D01*
X002597Y014844D01*
X002564Y014837D01*
X002530Y014834D01*
X002495Y014835D01*
X002461Y014840D01*
X002428Y014849D01*
X002396Y014861D01*
X002366Y014877D01*
X002338Y014896D01*
X002312Y014919D01*
X002289Y014944D01*
X002269Y014972D01*
X002252Y015002D01*
X002238Y015033D01*
X002229Y015066D01*
X002223Y015100D01*
X002221Y015134D01*
X007806Y017751D02*
X007808Y017777D01*
X007814Y017803D01*
X007824Y017828D01*
X007837Y017851D01*
X007853Y017871D01*
X007873Y017889D01*
X007895Y017904D01*
X007918Y017916D01*
X007944Y017924D01*
X007970Y017928D01*
X007996Y017928D01*
X008022Y017924D01*
X008048Y017916D01*
X008072Y017904D01*
X008093Y017889D01*
X008113Y017871D01*
X008129Y017851D01*
X008142Y017828D01*
X008152Y017803D01*
X008158Y017777D01*
X008160Y017751D01*
X008158Y017725D01*
X008152Y017699D01*
X008142Y017674D01*
X008129Y017651D01*
X008113Y017631D01*
X008093Y017613D01*
X008071Y017598D01*
X008048Y017586D01*
X008022Y017578D01*
X007996Y017574D01*
X007970Y017574D01*
X007944Y017578D01*
X007918Y017586D01*
X007894Y017598D01*
X007873Y017613D01*
X007853Y017631D01*
X007837Y017651D01*
X007824Y017674D01*
X007814Y017699D01*
X007808Y017725D01*
X007806Y017751D01*
X008428Y015142D02*
X008430Y015192D01*
X008436Y015242D01*
X008446Y015291D01*
X008460Y015339D01*
X008477Y015386D01*
X008498Y015431D01*
X008523Y015475D01*
X008551Y015516D01*
X008583Y015555D01*
X008617Y015592D01*
X008654Y015626D01*
X008694Y015656D01*
X008736Y015683D01*
X008780Y015707D01*
X008826Y015728D01*
X008873Y015744D01*
X008921Y015757D01*
X008971Y015766D01*
X009020Y015771D01*
X009071Y015772D01*
X009121Y015769D01*
X009170Y015762D01*
X009219Y015751D01*
X009267Y015736D01*
X009313Y015718D01*
X009358Y015696D01*
X009401Y015670D01*
X009442Y015641D01*
X009481Y015609D01*
X009517Y015574D01*
X009549Y015536D01*
X009579Y015496D01*
X009606Y015453D01*
X009629Y015409D01*
X009648Y015363D01*
X009664Y015315D01*
X009676Y015266D01*
X009684Y015217D01*
X009688Y015167D01*
X009688Y015117D01*
X009684Y015067D01*
X009676Y015018D01*
X009664Y014969D01*
X009648Y014921D01*
X009629Y014875D01*
X009606Y014831D01*
X009579Y014788D01*
X009549Y014748D01*
X009517Y014710D01*
X009481Y014675D01*
X009442Y014643D01*
X009401Y014614D01*
X009358Y014588D01*
X009313Y014566D01*
X009267Y014548D01*
X009219Y014533D01*
X009170Y014522D01*
X009121Y014515D01*
X009071Y014512D01*
X009020Y014513D01*
X008971Y014518D01*
X008921Y014527D01*
X008873Y014540D01*
X008826Y014556D01*
X008780Y014577D01*
X008736Y014601D01*
X008694Y014628D01*
X008654Y014658D01*
X008617Y014692D01*
X008583Y014729D01*
X008551Y014768D01*
X008523Y014809D01*
X008498Y014853D01*
X008477Y014898D01*
X008460Y014945D01*
X008446Y014993D01*
X008436Y015042D01*
X008430Y015092D01*
X008428Y015142D01*
X021420Y015142D02*
X021422Y015192D01*
X021428Y015242D01*
X021438Y015291D01*
X021452Y015339D01*
X021469Y015386D01*
X021490Y015431D01*
X021515Y015475D01*
X021543Y015516D01*
X021575Y015555D01*
X021609Y015592D01*
X021646Y015626D01*
X021686Y015656D01*
X021728Y015683D01*
X021772Y015707D01*
X021818Y015728D01*
X021865Y015744D01*
X021913Y015757D01*
X021963Y015766D01*
X022012Y015771D01*
X022063Y015772D01*
X022113Y015769D01*
X022162Y015762D01*
X022211Y015751D01*
X022259Y015736D01*
X022305Y015718D01*
X022350Y015696D01*
X022393Y015670D01*
X022434Y015641D01*
X022473Y015609D01*
X022509Y015574D01*
X022541Y015536D01*
X022571Y015496D01*
X022598Y015453D01*
X022621Y015409D01*
X022640Y015363D01*
X022656Y015315D01*
X022668Y015266D01*
X022676Y015217D01*
X022680Y015167D01*
X022680Y015117D01*
X022676Y015067D01*
X022668Y015018D01*
X022656Y014969D01*
X022640Y014921D01*
X022621Y014875D01*
X022598Y014831D01*
X022571Y014788D01*
X022541Y014748D01*
X022509Y014710D01*
X022473Y014675D01*
X022434Y014643D01*
X022393Y014614D01*
X022350Y014588D01*
X022305Y014566D01*
X022259Y014548D01*
X022211Y014533D01*
X022162Y014522D01*
X022113Y014515D01*
X022063Y014512D01*
X022012Y014513D01*
X021963Y014518D01*
X021913Y014527D01*
X021865Y014540D01*
X021818Y014556D01*
X021772Y014577D01*
X021728Y014601D01*
X021686Y014628D01*
X021646Y014658D01*
X021609Y014692D01*
X021575Y014729D01*
X021543Y014768D01*
X021515Y014809D01*
X021490Y014853D01*
X021469Y014898D01*
X021452Y014945D01*
X021438Y014993D01*
X021428Y015042D01*
X021422Y015092D01*
X021420Y015142D01*
X023633Y017751D02*
X023635Y017777D01*
X023641Y017803D01*
X023651Y017828D01*
X023664Y017851D01*
X023680Y017871D01*
X023700Y017889D01*
X023722Y017904D01*
X023745Y017916D01*
X023771Y017924D01*
X023797Y017928D01*
X023823Y017928D01*
X023849Y017924D01*
X023875Y017916D01*
X023899Y017904D01*
X023920Y017889D01*
X023940Y017871D01*
X023956Y017851D01*
X023969Y017828D01*
X023979Y017803D01*
X023985Y017777D01*
X023987Y017751D01*
X023985Y017725D01*
X023979Y017699D01*
X023969Y017674D01*
X023956Y017651D01*
X023940Y017631D01*
X023920Y017613D01*
X023898Y017598D01*
X023875Y017586D01*
X023849Y017578D01*
X023823Y017574D01*
X023797Y017574D01*
X023771Y017578D01*
X023745Y017586D01*
X023721Y017598D01*
X023700Y017613D01*
X023680Y017631D01*
X023664Y017651D01*
X023651Y017674D01*
X023641Y017699D01*
X023635Y017725D01*
X023633Y017751D01*
X023633Y026845D02*
X023635Y026871D01*
X023641Y026897D01*
X023651Y026922D01*
X023664Y026945D01*
X023680Y026965D01*
X023700Y026983D01*
X023722Y026998D01*
X023745Y027010D01*
X023771Y027018D01*
X023797Y027022D01*
X023823Y027022D01*
X023849Y027018D01*
X023875Y027010D01*
X023899Y026998D01*
X023920Y026983D01*
X023940Y026965D01*
X023956Y026945D01*
X023969Y026922D01*
X023979Y026897D01*
X023985Y026871D01*
X023987Y026845D01*
X023985Y026819D01*
X023979Y026793D01*
X023969Y026768D01*
X023956Y026745D01*
X023940Y026725D01*
X023920Y026707D01*
X023898Y026692D01*
X023875Y026680D01*
X023849Y026672D01*
X023823Y026668D01*
X023797Y026668D01*
X023771Y026672D01*
X023745Y026680D01*
X023721Y026692D01*
X023700Y026707D01*
X023680Y026725D01*
X023664Y026745D01*
X023651Y026768D01*
X023641Y026793D01*
X023635Y026819D01*
X023633Y026845D01*
X007806Y026845D02*
X007808Y026871D01*
X007814Y026897D01*
X007824Y026922D01*
X007837Y026945D01*
X007853Y026965D01*
X007873Y026983D01*
X007895Y026998D01*
X007918Y027010D01*
X007944Y027018D01*
X007970Y027022D01*
X007996Y027022D01*
X008022Y027018D01*
X008048Y027010D01*
X008072Y026998D01*
X008093Y026983D01*
X008113Y026965D01*
X008129Y026945D01*
X008142Y026922D01*
X008152Y026897D01*
X008158Y026871D01*
X008160Y026845D01*
X008158Y026819D01*
X008152Y026793D01*
X008142Y026768D01*
X008129Y026745D01*
X008113Y026725D01*
X008093Y026707D01*
X008071Y026692D01*
X008048Y026680D01*
X008022Y026672D01*
X007996Y026668D01*
X007970Y026668D01*
X007944Y026672D01*
X007918Y026680D01*
X007894Y026692D01*
X007873Y026707D01*
X007853Y026725D01*
X007837Y026745D01*
X007824Y026768D01*
X007814Y026793D01*
X007808Y026819D01*
X007806Y026845D01*
X036867Y015134D02*
X036869Y015168D01*
X036875Y015202D01*
X036884Y015235D01*
X036898Y015266D01*
X036915Y015296D01*
X036935Y015324D01*
X036958Y015349D01*
X036984Y015372D01*
X037012Y015391D01*
X037042Y015407D01*
X037074Y015419D01*
X037107Y015428D01*
X037141Y015433D01*
X037176Y015434D01*
X037210Y015431D01*
X037243Y015424D01*
X037276Y015414D01*
X037307Y015399D01*
X037336Y015382D01*
X037363Y015361D01*
X037388Y015337D01*
X037410Y015310D01*
X037428Y015282D01*
X037443Y015251D01*
X037455Y015219D01*
X037463Y015185D01*
X037467Y015151D01*
X037467Y015117D01*
X037463Y015083D01*
X037455Y015049D01*
X037443Y015017D01*
X037428Y014986D01*
X037410Y014958D01*
X037388Y014931D01*
X037363Y014907D01*
X037336Y014886D01*
X037307Y014869D01*
X037276Y014854D01*
X037243Y014844D01*
X037210Y014837D01*
X037176Y014834D01*
X037141Y014835D01*
X037107Y014840D01*
X037074Y014849D01*
X037042Y014861D01*
X037012Y014877D01*
X036984Y014896D01*
X036958Y014919D01*
X036935Y014944D01*
X036915Y014972D01*
X036898Y015002D01*
X036884Y015033D01*
X036875Y015066D01*
X036869Y015100D01*
X036867Y015134D01*
X036872Y009434D02*
X036874Y009468D01*
X036880Y009502D01*
X036890Y009535D01*
X036903Y009566D01*
X036921Y009596D01*
X036941Y009624D01*
X036965Y009649D01*
X036991Y009671D01*
X037019Y009689D01*
X037050Y009705D01*
X037082Y009717D01*
X037116Y009725D01*
X037150Y009729D01*
X037184Y009729D01*
X037218Y009725D01*
X037252Y009717D01*
X037284Y009705D01*
X037314Y009689D01*
X037343Y009671D01*
X037369Y009649D01*
X037393Y009624D01*
X037413Y009596D01*
X037431Y009566D01*
X037444Y009535D01*
X037454Y009502D01*
X037460Y009468D01*
X037462Y009434D01*
X037460Y009400D01*
X037454Y009366D01*
X037444Y009333D01*
X037431Y009302D01*
X037413Y009272D01*
X037393Y009244D01*
X037369Y009219D01*
X037343Y009197D01*
X037315Y009179D01*
X037284Y009163D01*
X037252Y009151D01*
X037218Y009143D01*
X037184Y009139D01*
X037150Y009139D01*
X037116Y009143D01*
X037082Y009151D01*
X037050Y009163D01*
X037019Y009179D01*
X036991Y009197D01*
X036965Y009219D01*
X036941Y009244D01*
X036921Y009272D01*
X036903Y009302D01*
X036890Y009333D01*
X036880Y009366D01*
X036874Y009400D01*
X036872Y009434D01*
X021420Y002544D02*
X021422Y002594D01*
X021428Y002644D01*
X021438Y002693D01*
X021452Y002741D01*
X021469Y002788D01*
X021490Y002833D01*
X021515Y002877D01*
X021543Y002918D01*
X021575Y002957D01*
X021609Y002994D01*
X021646Y003028D01*
X021686Y003058D01*
X021728Y003085D01*
X021772Y003109D01*
X021818Y003130D01*
X021865Y003146D01*
X021913Y003159D01*
X021963Y003168D01*
X022012Y003173D01*
X022063Y003174D01*
X022113Y003171D01*
X022162Y003164D01*
X022211Y003153D01*
X022259Y003138D01*
X022305Y003120D01*
X022350Y003098D01*
X022393Y003072D01*
X022434Y003043D01*
X022473Y003011D01*
X022509Y002976D01*
X022541Y002938D01*
X022571Y002898D01*
X022598Y002855D01*
X022621Y002811D01*
X022640Y002765D01*
X022656Y002717D01*
X022668Y002668D01*
X022676Y002619D01*
X022680Y002569D01*
X022680Y002519D01*
X022676Y002469D01*
X022668Y002420D01*
X022656Y002371D01*
X022640Y002323D01*
X022621Y002277D01*
X022598Y002233D01*
X022571Y002190D01*
X022541Y002150D01*
X022509Y002112D01*
X022473Y002077D01*
X022434Y002045D01*
X022393Y002016D01*
X022350Y001990D01*
X022305Y001968D01*
X022259Y001950D01*
X022211Y001935D01*
X022162Y001924D01*
X022113Y001917D01*
X022063Y001914D01*
X022012Y001915D01*
X021963Y001920D01*
X021913Y001929D01*
X021865Y001942D01*
X021818Y001958D01*
X021772Y001979D01*
X021728Y002003D01*
X021686Y002030D01*
X021646Y002060D01*
X021609Y002094D01*
X021575Y002131D01*
X021543Y002170D01*
X021515Y002211D01*
X021490Y002255D01*
X021469Y002300D01*
X021452Y002347D01*
X021438Y002395D01*
X021428Y002444D01*
X021422Y002494D01*
X021420Y002544D01*
D11*
X020621Y017751D03*
X020030Y017751D03*
X019440Y017751D03*
X018849Y017751D03*
X018259Y017751D03*
X017668Y017751D03*
X017078Y017751D03*
X016487Y017751D03*
X015896Y017751D03*
X015306Y017751D03*
X014715Y017751D03*
X014125Y017751D03*
X013534Y017751D03*
X012944Y017751D03*
X012353Y017751D03*
X011763Y017751D03*
X011172Y017751D03*
D12*
X009085Y018519D03*
X022707Y018519D03*
D13*
X017054Y015843D03*
X014054Y015843D03*
X014054Y011843D03*
X012054Y010843D03*
X013554Y010343D03*
X017054Y011843D03*
X017554Y010343D03*
X019054Y010843D03*
X022054Y010843D03*
X017554Y007343D03*
X019054Y006843D03*
X017054Y005843D03*
X014054Y005843D03*
X013554Y007343D03*
X012054Y006843D03*
X009054Y006843D03*
X009054Y010843D03*
X014054Y001843D03*
X017054Y001843D03*
X022054Y006843D03*
D14*
X031964Y007834D03*
X031964Y008819D03*
X031964Y009803D03*
X032014Y012886D03*
X032014Y013870D03*
X032014Y014854D03*
X032014Y017991D03*
X032014Y018975D03*
X032014Y019959D03*
X032061Y023092D03*
X032061Y024076D03*
X032061Y025061D03*
X031911Y004795D03*
X031911Y003811D03*
X031911Y002826D03*
D15*
X029155Y002078D03*
X029155Y005543D03*
X029208Y007086D03*
X029208Y010551D03*
X029258Y012138D03*
X029258Y015602D03*
X029258Y017243D03*
X029258Y020707D03*
X029305Y022344D03*
X029305Y025809D03*
D16*
X026050Y025933D03*
X025050Y025933D03*
X025050Y023933D03*
X026050Y023933D03*
X026050Y021933D03*
X025050Y021933D03*
X025050Y019933D03*
X026050Y019933D03*
X026050Y017933D03*
X025050Y017933D03*
D17*
X038734Y026465D03*
X038734Y001269D03*
X000939Y001269D03*
X000939Y026465D03*
D18*
X004844Y014528D03*
X004844Y013544D03*
X004883Y012520D03*
X004883Y011536D03*
X004844Y010513D03*
X006773Y011812D03*
X005822Y006851D03*
X005789Y004804D03*
X005789Y003820D03*
X005789Y001300D03*
D19*
X023175Y004153D02*
X023615Y003633D01*
X024815Y002233D01*
X024815Y003993D01*
X028135Y001113D01*
X028135Y008033D01*
X027735Y008433D01*
X027415Y008633D01*
X027055Y008753D01*
X026855Y008793D01*
X026735Y008713D01*
X026655Y008553D01*
X026655Y006513D01*
X026415Y006513D01*
X026175Y007073D01*
X025935Y007593D01*
X025775Y007873D01*
X025535Y008193D01*
X025335Y008433D01*
X025095Y008673D01*
X024815Y008833D01*
X024535Y008953D01*
X024215Y008993D01*
X023895Y008953D01*
X023615Y008793D01*
X023415Y008513D01*
X023295Y008233D01*
X023215Y007873D01*
X023175Y007153D01*
X023175Y004153D01*
X023175Y004159D02*
X023615Y004159D01*
X023780Y004159D01*
X023821Y004111D02*
X023615Y004111D01*
X023211Y004111D01*
X023252Y004062D02*
X023615Y004062D01*
X023862Y004062D01*
X023904Y004014D02*
X023615Y004014D01*
X023293Y004014D01*
X023334Y003965D02*
X023615Y003965D01*
X023945Y003965D01*
X023986Y003917D02*
X023615Y003917D01*
X023375Y003917D01*
X023416Y003868D02*
X023615Y003868D01*
X024028Y003868D01*
X024069Y003820D02*
X023615Y003820D01*
X023457Y003820D01*
X023498Y003771D02*
X023615Y003771D01*
X024110Y003771D01*
X024152Y003723D02*
X023615Y003723D01*
X023539Y003723D01*
X023580Y003674D02*
X023615Y003674D01*
X024193Y003674D01*
X024234Y003626D02*
X023621Y003626D01*
X023615Y003633D02*
X023615Y004353D01*
X023175Y004353D01*
X023175Y004305D02*
X023615Y004305D01*
X023656Y004305D01*
X023615Y004353D02*
X024535Y003273D01*
X024535Y006673D01*
X024615Y006873D01*
X024775Y006913D01*
X024935Y006873D01*
X025175Y006673D01*
X025375Y006393D01*
X025575Y005833D01*
X025775Y005193D01*
X024695Y006073D01*
X024695Y004673D01*
X027775Y002033D01*
X027775Y003313D01*
X026295Y004713D01*
X027535Y004713D01*
X027775Y004913D01*
X027775Y007913D01*
X027455Y008273D01*
X027175Y008393D01*
X027055Y008353D01*
X027055Y006233D01*
X026975Y006153D01*
X026255Y006153D01*
X025975Y006913D01*
X025695Y007473D01*
X025375Y007953D01*
X025175Y008233D01*
X024855Y008513D01*
X024575Y008673D01*
X024335Y008713D01*
X024055Y008633D01*
X023855Y008473D01*
X023695Y008233D01*
X023655Y007913D01*
X023615Y006873D01*
X023615Y003633D01*
X023663Y003577D02*
X024276Y003577D01*
X024317Y003529D02*
X023704Y003529D01*
X023746Y003480D02*
X024358Y003480D01*
X024400Y003432D02*
X023787Y003432D01*
X023829Y003383D02*
X024441Y003383D01*
X024482Y003335D02*
X023870Y003335D01*
X023912Y003286D02*
X024523Y003286D01*
X024535Y003286D02*
X024815Y003286D01*
X024815Y003238D02*
X023954Y003238D01*
X023995Y003189D02*
X024815Y003189D01*
X024815Y003141D02*
X024037Y003141D01*
X024078Y003092D02*
X024815Y003092D01*
X024815Y003044D02*
X024120Y003044D01*
X024161Y002995D02*
X024815Y002995D01*
X024815Y002947D02*
X024203Y002947D01*
X024245Y002898D02*
X024815Y002898D01*
X024815Y002850D02*
X024286Y002850D01*
X024328Y002801D02*
X024815Y002801D01*
X024815Y002753D02*
X024369Y002753D01*
X024411Y002704D02*
X024815Y002704D01*
X024815Y002656D02*
X024452Y002656D01*
X024494Y002607D02*
X024815Y002607D01*
X024815Y002559D02*
X024536Y002559D01*
X024577Y002510D02*
X024815Y002510D01*
X024815Y002462D02*
X024619Y002462D01*
X024660Y002413D02*
X024815Y002413D01*
X024815Y002365D02*
X024702Y002365D01*
X024743Y002316D02*
X024815Y002316D01*
X024815Y002268D02*
X024785Y002268D01*
X025629Y003286D02*
X026313Y003286D01*
X026369Y003238D02*
X025685Y003238D01*
X025741Y003189D02*
X026426Y003189D01*
X026482Y003141D02*
X025797Y003141D01*
X025853Y003092D02*
X026539Y003092D01*
X026595Y003044D02*
X025909Y003044D01*
X025965Y002995D02*
X026652Y002995D01*
X026709Y002947D02*
X026021Y002947D01*
X026077Y002898D02*
X026765Y002898D01*
X026822Y002850D02*
X026133Y002850D01*
X026188Y002801D02*
X026878Y002801D01*
X026935Y002753D02*
X026244Y002753D01*
X026300Y002704D02*
X026992Y002704D01*
X027048Y002656D02*
X026356Y002656D01*
X026412Y002607D02*
X027105Y002607D01*
X027161Y002559D02*
X026468Y002559D01*
X026524Y002510D02*
X027218Y002510D01*
X027274Y002462D02*
X026580Y002462D01*
X026636Y002413D02*
X027331Y002413D01*
X027388Y002365D02*
X026692Y002365D01*
X026748Y002316D02*
X027444Y002316D01*
X027501Y002268D02*
X026803Y002268D01*
X026859Y002219D02*
X027557Y002219D01*
X027614Y002171D02*
X026915Y002171D01*
X026971Y002122D02*
X027671Y002122D01*
X027727Y002074D02*
X027027Y002074D01*
X027083Y002025D02*
X028135Y002025D01*
X028135Y001977D02*
X027139Y001977D01*
X027195Y001928D02*
X028135Y001928D01*
X028135Y001880D02*
X027251Y001880D01*
X027307Y001831D02*
X028135Y001831D01*
X028135Y001783D02*
X027363Y001783D01*
X027419Y001734D02*
X028135Y001734D01*
X028135Y001686D02*
X027474Y001686D01*
X027530Y001637D02*
X028135Y001637D01*
X028135Y001589D02*
X027586Y001589D01*
X027642Y001540D02*
X028135Y001540D01*
X028135Y001492D02*
X027698Y001492D01*
X027754Y001443D02*
X028135Y001443D01*
X028135Y001395D02*
X027810Y001395D01*
X027866Y001346D02*
X028135Y001346D01*
X028135Y001298D02*
X027922Y001298D01*
X027978Y001249D02*
X028135Y001249D01*
X028135Y001201D02*
X028034Y001201D01*
X028089Y001152D02*
X028135Y001152D01*
X028135Y002074D02*
X027775Y002074D01*
X027775Y002122D02*
X028135Y002122D01*
X028135Y002171D02*
X027775Y002171D01*
X027775Y002219D02*
X028135Y002219D01*
X028135Y002268D02*
X027775Y002268D01*
X027775Y002316D02*
X028135Y002316D01*
X028135Y002365D02*
X027775Y002365D01*
X027775Y002413D02*
X028135Y002413D01*
X028135Y002462D02*
X027775Y002462D01*
X027775Y002510D02*
X028135Y002510D01*
X028135Y002559D02*
X027775Y002559D01*
X027775Y002607D02*
X028135Y002607D01*
X028135Y002656D02*
X027775Y002656D01*
X027775Y002704D02*
X028135Y002704D01*
X028135Y002753D02*
X027775Y002753D01*
X027775Y002801D02*
X028135Y002801D01*
X028135Y002850D02*
X027775Y002850D01*
X027775Y002898D02*
X028135Y002898D01*
X028135Y002947D02*
X027775Y002947D01*
X027775Y002995D02*
X028135Y002995D01*
X028135Y003044D02*
X027775Y003044D01*
X027775Y003092D02*
X028135Y003092D01*
X028135Y003141D02*
X027775Y003141D01*
X027775Y003189D02*
X028135Y003189D01*
X028135Y003238D02*
X027775Y003238D01*
X027775Y003286D02*
X028135Y003286D01*
X028135Y003335D02*
X027752Y003335D01*
X027700Y003383D02*
X028135Y003383D01*
X028135Y003432D02*
X027649Y003432D01*
X027598Y003480D02*
X028135Y003480D01*
X028135Y003529D02*
X027547Y003529D01*
X027495Y003577D02*
X028135Y003577D01*
X028135Y003626D02*
X027444Y003626D01*
X027393Y003674D02*
X028135Y003674D01*
X028135Y003723D02*
X027342Y003723D01*
X027290Y003771D02*
X028135Y003771D01*
X028135Y003820D02*
X027239Y003820D01*
X027188Y003868D02*
X028135Y003868D01*
X028135Y003917D02*
X027136Y003917D01*
X027085Y003965D02*
X028135Y003965D01*
X028135Y004014D02*
X027034Y004014D01*
X026983Y004062D02*
X028135Y004062D01*
X028135Y004111D02*
X026931Y004111D01*
X026880Y004159D02*
X028135Y004159D01*
X028135Y004208D02*
X026829Y004208D01*
X026778Y004256D02*
X028135Y004256D01*
X028135Y004305D02*
X026726Y004305D01*
X026675Y004353D02*
X028135Y004353D01*
X028135Y004402D02*
X026624Y004402D01*
X026572Y004450D02*
X028135Y004450D01*
X028135Y004499D02*
X026521Y004499D01*
X026470Y004547D02*
X028135Y004547D01*
X028135Y004596D02*
X026419Y004596D01*
X026367Y004644D02*
X028135Y004644D01*
X028135Y004693D02*
X026316Y004693D01*
X025765Y005226D02*
X025734Y005226D01*
X025749Y005275D02*
X025674Y005275D01*
X025615Y005323D02*
X025734Y005323D01*
X025719Y005372D02*
X025555Y005372D01*
X025496Y005420D02*
X025704Y005420D01*
X025689Y005469D02*
X025436Y005469D01*
X025377Y005517D02*
X025674Y005517D01*
X025659Y005566D02*
X025317Y005566D01*
X025258Y005614D02*
X025643Y005614D01*
X025628Y005663D02*
X025198Y005663D01*
X025139Y005711D02*
X025613Y005711D01*
X025598Y005760D02*
X025079Y005760D01*
X025020Y005808D02*
X025583Y005808D01*
X025566Y005857D02*
X024960Y005857D01*
X024900Y005905D02*
X025549Y005905D01*
X025532Y005954D02*
X024841Y005954D01*
X024781Y006002D02*
X025515Y006002D01*
X025497Y006051D02*
X024722Y006051D01*
X024695Y006051D02*
X024535Y006051D01*
X024535Y006099D02*
X025480Y006099D01*
X025463Y006148D02*
X024535Y006148D01*
X024535Y006196D02*
X025445Y006196D01*
X025428Y006245D02*
X024535Y006245D01*
X024535Y006293D02*
X025411Y006293D01*
X025393Y006342D02*
X024535Y006342D01*
X024535Y006390D02*
X025376Y006390D01*
X025342Y006439D02*
X024535Y006439D01*
X024535Y006487D02*
X025308Y006487D01*
X025273Y006536D02*
X024535Y006536D01*
X024535Y006584D02*
X025238Y006584D01*
X025204Y006633D02*
X024535Y006633D01*
X024539Y006681D02*
X025165Y006681D01*
X025107Y006730D02*
X024558Y006730D01*
X024577Y006778D02*
X025048Y006778D01*
X024990Y006827D02*
X024597Y006827D01*
X024626Y006875D02*
X024924Y006875D01*
X025776Y007312D02*
X026065Y007312D01*
X026042Y007360D02*
X025751Y007360D01*
X025727Y007409D02*
X026020Y007409D01*
X025998Y007457D02*
X025703Y007457D01*
X025673Y007506D02*
X025975Y007506D01*
X025953Y007554D02*
X025641Y007554D01*
X025608Y007603D02*
X025929Y007603D01*
X025902Y007651D02*
X025576Y007651D01*
X025544Y007700D02*
X025874Y007700D01*
X025846Y007748D02*
X025511Y007748D01*
X025479Y007797D02*
X025818Y007797D01*
X025791Y007845D02*
X025447Y007845D01*
X025414Y007894D02*
X025759Y007894D01*
X025723Y007942D02*
X025382Y007942D01*
X025348Y007991D02*
X025686Y007991D01*
X025650Y008039D02*
X025313Y008039D01*
X025279Y008088D02*
X025614Y008088D01*
X025577Y008136D02*
X025244Y008136D01*
X025209Y008185D02*
X025541Y008185D01*
X025501Y008233D02*
X025174Y008233D01*
X025119Y008282D02*
X025461Y008282D01*
X025420Y008330D02*
X025063Y008330D01*
X025008Y008379D02*
X025380Y008379D01*
X025340Y008427D02*
X024953Y008427D01*
X024897Y008476D02*
X025292Y008476D01*
X025243Y008524D02*
X024835Y008524D01*
X024750Y008573D02*
X025195Y008573D01*
X025146Y008621D02*
X024665Y008621D01*
X024580Y008670D02*
X025098Y008670D01*
X025015Y008718D02*
X023562Y008718D01*
X023527Y008670D02*
X024185Y008670D01*
X024041Y008621D02*
X023493Y008621D01*
X023458Y008573D02*
X023980Y008573D01*
X023920Y008524D02*
X023423Y008524D01*
X023399Y008476D02*
X023859Y008476D01*
X023825Y008427D02*
X023379Y008427D01*
X023358Y008379D02*
X023793Y008379D01*
X023760Y008330D02*
X023337Y008330D01*
X023316Y008282D02*
X023728Y008282D01*
X023696Y008233D02*
X023295Y008233D01*
X023284Y008185D02*
X023689Y008185D01*
X023683Y008136D02*
X023274Y008136D01*
X023263Y008088D02*
X023677Y008088D01*
X023671Y008039D02*
X023252Y008039D01*
X023241Y007991D02*
X023665Y007991D01*
X023659Y007942D02*
X023231Y007942D01*
X023220Y007894D02*
X023654Y007894D01*
X023653Y007845D02*
X023214Y007845D01*
X023211Y007797D02*
X023651Y007797D01*
X023649Y007748D02*
X023208Y007748D01*
X023206Y007700D02*
X023647Y007700D01*
X023645Y007651D02*
X023203Y007651D01*
X023200Y007603D02*
X023643Y007603D01*
X023641Y007554D02*
X023197Y007554D01*
X023195Y007506D02*
X023639Y007506D01*
X023638Y007457D02*
X023192Y007457D01*
X023189Y007409D02*
X023636Y007409D01*
X023634Y007360D02*
X023187Y007360D01*
X023184Y007312D02*
X023632Y007312D01*
X023630Y007263D02*
X023181Y007263D01*
X023179Y007215D02*
X023628Y007215D01*
X023626Y007166D02*
X023176Y007166D01*
X023175Y007118D02*
X023625Y007118D01*
X023623Y007069D02*
X023175Y007069D01*
X023175Y007021D02*
X023621Y007021D01*
X023619Y006972D02*
X023175Y006972D01*
X023175Y006924D02*
X023617Y006924D01*
X023615Y006875D02*
X023175Y006875D01*
X023175Y006827D02*
X023615Y006827D01*
X023615Y006778D02*
X023175Y006778D01*
X023175Y006730D02*
X023615Y006730D01*
X023615Y006681D02*
X023175Y006681D01*
X023175Y006633D02*
X023615Y006633D01*
X023615Y006584D02*
X023175Y006584D01*
X023175Y006536D02*
X023615Y006536D01*
X023615Y006487D02*
X023175Y006487D01*
X023175Y006439D02*
X023615Y006439D01*
X023615Y006390D02*
X023175Y006390D01*
X023175Y006342D02*
X023615Y006342D01*
X023615Y006293D02*
X023175Y006293D01*
X023175Y006245D02*
X023615Y006245D01*
X023615Y006196D02*
X023175Y006196D01*
X023175Y006148D02*
X023615Y006148D01*
X023615Y006099D02*
X023175Y006099D01*
X023175Y006051D02*
X023615Y006051D01*
X023615Y006002D02*
X023175Y006002D01*
X023175Y005954D02*
X023615Y005954D01*
X023615Y005905D02*
X023175Y005905D01*
X023175Y005857D02*
X023615Y005857D01*
X023615Y005808D02*
X023175Y005808D01*
X023175Y005760D02*
X023615Y005760D01*
X023615Y005711D02*
X023175Y005711D01*
X023175Y005663D02*
X023615Y005663D01*
X023615Y005614D02*
X023175Y005614D01*
X023175Y005566D02*
X023615Y005566D01*
X023615Y005517D02*
X023175Y005517D01*
X023175Y005469D02*
X023615Y005469D01*
X023615Y005420D02*
X023175Y005420D01*
X023175Y005372D02*
X023615Y005372D01*
X023615Y005323D02*
X023175Y005323D01*
X023175Y005275D02*
X023615Y005275D01*
X023615Y005226D02*
X023175Y005226D01*
X023175Y005178D02*
X023615Y005178D01*
X023615Y005129D02*
X023175Y005129D01*
X023175Y005081D02*
X023615Y005081D01*
X023615Y005032D02*
X023175Y005032D01*
X023175Y004984D02*
X023615Y004984D01*
X023615Y004935D02*
X023175Y004935D01*
X023175Y004887D02*
X023615Y004887D01*
X023615Y004838D02*
X023175Y004838D01*
X023175Y004790D02*
X023615Y004790D01*
X023615Y004741D02*
X023175Y004741D01*
X023175Y004693D02*
X023615Y004693D01*
X023615Y004644D02*
X023175Y004644D01*
X023175Y004596D02*
X023615Y004596D01*
X023615Y004547D02*
X023175Y004547D01*
X023175Y004499D02*
X023615Y004499D01*
X023615Y004450D02*
X023175Y004450D01*
X023175Y004402D02*
X023615Y004402D01*
X023615Y004256D02*
X023175Y004256D01*
X023175Y004208D02*
X023615Y004208D01*
X023739Y004208D01*
X023697Y004256D02*
X023615Y004256D01*
X024535Y004256D02*
X025181Y004256D01*
X025237Y004208D02*
X024535Y004208D01*
X024535Y004159D02*
X025294Y004159D01*
X025351Y004111D02*
X024535Y004111D01*
X024535Y004062D02*
X025407Y004062D01*
X025464Y004014D02*
X024535Y004014D01*
X024535Y003965D02*
X024815Y003965D01*
X024847Y003965D02*
X025520Y003965D01*
X025577Y003917D02*
X024903Y003917D01*
X024958Y003868D02*
X025634Y003868D01*
X025690Y003820D02*
X025014Y003820D01*
X025070Y003771D02*
X025747Y003771D01*
X025803Y003723D02*
X025126Y003723D01*
X025182Y003674D02*
X025860Y003674D01*
X025916Y003626D02*
X025238Y003626D01*
X025294Y003577D02*
X025973Y003577D01*
X026030Y003529D02*
X025350Y003529D01*
X025406Y003480D02*
X026086Y003480D01*
X026143Y003432D02*
X025462Y003432D01*
X025518Y003383D02*
X026199Y003383D01*
X026256Y003335D02*
X025573Y003335D01*
X024815Y003335D02*
X024535Y003335D01*
X024535Y003383D02*
X024815Y003383D01*
X024815Y003432D02*
X024535Y003432D01*
X024535Y003480D02*
X024815Y003480D01*
X024815Y003529D02*
X024535Y003529D01*
X024535Y003577D02*
X024815Y003577D01*
X024815Y003626D02*
X024535Y003626D01*
X024535Y003674D02*
X024815Y003674D01*
X024815Y003723D02*
X024535Y003723D01*
X024535Y003771D02*
X024815Y003771D01*
X024815Y003820D02*
X024535Y003820D01*
X024535Y003868D02*
X024815Y003868D01*
X024815Y003917D02*
X024535Y003917D01*
X024535Y004305D02*
X025124Y004305D01*
X025068Y004353D02*
X024535Y004353D01*
X024535Y004402D02*
X025011Y004402D01*
X024955Y004450D02*
X024535Y004450D01*
X024535Y004499D02*
X024898Y004499D01*
X024841Y004547D02*
X024535Y004547D01*
X024535Y004596D02*
X024785Y004596D01*
X024728Y004644D02*
X024535Y004644D01*
X024535Y004693D02*
X024695Y004693D01*
X024695Y004741D02*
X024535Y004741D01*
X024535Y004790D02*
X024695Y004790D01*
X024695Y004838D02*
X024535Y004838D01*
X024535Y004887D02*
X024695Y004887D01*
X024695Y004935D02*
X024535Y004935D01*
X024535Y004984D02*
X024695Y004984D01*
X024695Y005032D02*
X024535Y005032D01*
X024535Y005081D02*
X024695Y005081D01*
X024695Y005129D02*
X024535Y005129D01*
X024535Y005178D02*
X024695Y005178D01*
X024695Y005226D02*
X024535Y005226D01*
X024535Y005275D02*
X024695Y005275D01*
X024695Y005323D02*
X024535Y005323D01*
X024535Y005372D02*
X024695Y005372D01*
X024695Y005420D02*
X024535Y005420D01*
X024535Y005469D02*
X024695Y005469D01*
X024695Y005517D02*
X024535Y005517D01*
X024535Y005566D02*
X024695Y005566D01*
X024695Y005614D02*
X024535Y005614D01*
X024535Y005663D02*
X024695Y005663D01*
X024695Y005711D02*
X024535Y005711D01*
X024535Y005760D02*
X024695Y005760D01*
X024695Y005808D02*
X024535Y005808D01*
X024535Y005857D02*
X024695Y005857D01*
X024695Y005905D02*
X024535Y005905D01*
X024535Y005954D02*
X024695Y005954D01*
X024695Y006002D02*
X024535Y006002D01*
X026096Y006584D02*
X026384Y006584D01*
X026405Y006536D02*
X026114Y006536D01*
X026132Y006487D02*
X027055Y006487D01*
X027055Y006439D02*
X026150Y006439D01*
X026168Y006390D02*
X027055Y006390D01*
X027055Y006342D02*
X026185Y006342D01*
X026203Y006293D02*
X027055Y006293D01*
X027055Y006245D02*
X026221Y006245D01*
X026239Y006196D02*
X027019Y006196D01*
X027055Y006536D02*
X026655Y006536D01*
X026655Y006584D02*
X027055Y006584D01*
X027055Y006633D02*
X026655Y006633D01*
X026655Y006681D02*
X027055Y006681D01*
X027055Y006730D02*
X026655Y006730D01*
X026655Y006778D02*
X027055Y006778D01*
X027055Y006827D02*
X026655Y006827D01*
X026655Y006875D02*
X027055Y006875D01*
X027055Y006924D02*
X026655Y006924D01*
X026655Y006972D02*
X027055Y006972D01*
X027055Y007021D02*
X026655Y007021D01*
X026655Y007069D02*
X027055Y007069D01*
X027055Y007118D02*
X026655Y007118D01*
X026655Y007166D02*
X027055Y007166D01*
X027055Y007215D02*
X026655Y007215D01*
X026655Y007263D02*
X027055Y007263D01*
X027055Y007312D02*
X026655Y007312D01*
X026655Y007360D02*
X027055Y007360D01*
X027055Y007409D02*
X026655Y007409D01*
X026655Y007457D02*
X027055Y007457D01*
X027055Y007506D02*
X026655Y007506D01*
X026655Y007554D02*
X027055Y007554D01*
X027055Y007603D02*
X026655Y007603D01*
X026655Y007651D02*
X027055Y007651D01*
X027055Y007700D02*
X026655Y007700D01*
X026655Y007748D02*
X027055Y007748D01*
X027055Y007797D02*
X026655Y007797D01*
X026655Y007845D02*
X027055Y007845D01*
X027055Y007894D02*
X026655Y007894D01*
X026655Y007942D02*
X027055Y007942D01*
X027055Y007991D02*
X026655Y007991D01*
X026655Y008039D02*
X027055Y008039D01*
X027055Y008088D02*
X026655Y008088D01*
X026655Y008136D02*
X027055Y008136D01*
X027055Y008185D02*
X026655Y008185D01*
X026655Y008233D02*
X027055Y008233D01*
X027055Y008282D02*
X026655Y008282D01*
X026655Y008330D02*
X027055Y008330D01*
X027134Y008379D02*
X026655Y008379D01*
X026655Y008427D02*
X027740Y008427D01*
X027789Y008379D02*
X027207Y008379D01*
X027321Y008330D02*
X027837Y008330D01*
X027886Y008282D02*
X027434Y008282D01*
X027490Y008233D02*
X027934Y008233D01*
X027983Y008185D02*
X027533Y008185D01*
X027576Y008136D02*
X028031Y008136D01*
X028080Y008088D02*
X027619Y008088D01*
X027663Y008039D02*
X028128Y008039D01*
X028135Y007991D02*
X027706Y007991D01*
X027749Y007942D02*
X028135Y007942D01*
X028135Y007894D02*
X027775Y007894D01*
X027775Y007845D02*
X028135Y007845D01*
X028135Y007797D02*
X027775Y007797D01*
X027775Y007748D02*
X028135Y007748D01*
X028135Y007700D02*
X027775Y007700D01*
X027775Y007651D02*
X028135Y007651D01*
X028135Y007603D02*
X027775Y007603D01*
X027775Y007554D02*
X028135Y007554D01*
X028135Y007506D02*
X027775Y007506D01*
X027775Y007457D02*
X028135Y007457D01*
X028135Y007409D02*
X027775Y007409D01*
X027775Y007360D02*
X028135Y007360D01*
X028135Y007312D02*
X027775Y007312D01*
X027775Y007263D02*
X028135Y007263D01*
X028135Y007215D02*
X027775Y007215D01*
X027775Y007166D02*
X028135Y007166D01*
X028135Y007118D02*
X027775Y007118D01*
X027775Y007069D02*
X028135Y007069D01*
X028135Y007021D02*
X027775Y007021D01*
X027775Y006972D02*
X028135Y006972D01*
X028135Y006924D02*
X027775Y006924D01*
X027775Y006875D02*
X028135Y006875D01*
X028135Y006827D02*
X027775Y006827D01*
X027775Y006778D02*
X028135Y006778D01*
X028135Y006730D02*
X027775Y006730D01*
X027775Y006681D02*
X028135Y006681D01*
X028135Y006633D02*
X027775Y006633D01*
X027775Y006584D02*
X028135Y006584D01*
X028135Y006536D02*
X027775Y006536D01*
X027775Y006487D02*
X028135Y006487D01*
X028135Y006439D02*
X027775Y006439D01*
X027775Y006390D02*
X028135Y006390D01*
X028135Y006342D02*
X027775Y006342D01*
X027775Y006293D02*
X028135Y006293D01*
X028135Y006245D02*
X027775Y006245D01*
X027775Y006196D02*
X028135Y006196D01*
X028135Y006148D02*
X027775Y006148D01*
X027775Y006099D02*
X028135Y006099D01*
X028135Y006051D02*
X027775Y006051D01*
X027775Y006002D02*
X028135Y006002D01*
X028135Y005954D02*
X027775Y005954D01*
X027775Y005905D02*
X028135Y005905D01*
X028135Y005857D02*
X027775Y005857D01*
X027775Y005808D02*
X028135Y005808D01*
X028135Y005760D02*
X027775Y005760D01*
X027775Y005711D02*
X028135Y005711D01*
X028135Y005663D02*
X027775Y005663D01*
X027775Y005614D02*
X028135Y005614D01*
X028135Y005566D02*
X027775Y005566D01*
X027775Y005517D02*
X028135Y005517D01*
X028135Y005469D02*
X027775Y005469D01*
X027775Y005420D02*
X028135Y005420D01*
X028135Y005372D02*
X027775Y005372D01*
X027775Y005323D02*
X028135Y005323D01*
X028135Y005275D02*
X027775Y005275D01*
X027775Y005226D02*
X028135Y005226D01*
X028135Y005178D02*
X027775Y005178D01*
X027775Y005129D02*
X028135Y005129D01*
X028135Y005081D02*
X027775Y005081D01*
X027775Y005032D02*
X028135Y005032D01*
X028135Y004984D02*
X027775Y004984D01*
X027775Y004935D02*
X028135Y004935D01*
X028135Y004887D02*
X027744Y004887D01*
X027686Y004838D02*
X028135Y004838D01*
X028135Y004790D02*
X027628Y004790D01*
X027570Y004741D02*
X028135Y004741D01*
X026364Y006633D02*
X026078Y006633D01*
X026060Y006681D02*
X026343Y006681D01*
X026322Y006730D02*
X026042Y006730D01*
X026025Y006778D02*
X026301Y006778D01*
X026280Y006827D02*
X026007Y006827D01*
X025989Y006875D02*
X026260Y006875D01*
X026239Y006924D02*
X025970Y006924D01*
X025945Y006972D02*
X026218Y006972D01*
X026197Y007021D02*
X025921Y007021D01*
X025897Y007069D02*
X026177Y007069D01*
X026154Y007118D02*
X025873Y007118D01*
X025848Y007166D02*
X026132Y007166D01*
X026110Y007215D02*
X025824Y007215D01*
X025800Y007263D02*
X026087Y007263D01*
X026655Y008476D02*
X027666Y008476D01*
X027588Y008524D02*
X026655Y008524D01*
X026665Y008573D02*
X027511Y008573D01*
X027433Y008621D02*
X026689Y008621D01*
X026714Y008670D02*
X027304Y008670D01*
X027158Y008718D02*
X026744Y008718D01*
X026816Y008767D02*
X026984Y008767D01*
X024930Y008767D02*
X023597Y008767D01*
X023655Y008815D02*
X024845Y008815D01*
X024742Y008864D02*
X023740Y008864D01*
X023825Y008912D02*
X024629Y008912D01*
X024470Y008961D02*
X023961Y008961D01*
D20*
X021813Y005198D03*
X017167Y003545D03*
X011813Y005158D03*
X015828Y008032D03*
X017285Y008702D03*
X015710Y010198D03*
X012009Y009450D03*
X017206Y013505D03*
X012915Y016379D03*
X011734Y016418D03*
X011813Y019646D03*
X004293Y014528D03*
X004293Y013544D03*
X004293Y012540D03*
X004293Y011536D03*
X004296Y010534D03*
X001104Y010513D03*
X001104Y011024D03*
X001104Y011536D03*
X001104Y012048D03*
X001104Y012560D03*
X001104Y013544D03*
X001104Y014568D03*
X001616Y020237D03*
X001970Y020591D03*
X003112Y020946D03*
X003506Y021300D03*
X003860Y021733D03*
X030435Y012048D03*
X033072Y011654D03*
X033466Y012678D03*
X033899Y013072D03*
X034805Y013702D03*
X035198Y014213D03*
X035671Y015001D03*
X034372Y015709D03*
X033072Y016891D03*
X037757Y015001D03*
X038565Y014056D03*
X038584Y013544D03*
X038584Y013072D03*
X038584Y012520D03*
X038565Y012048D03*
X038584Y011536D03*
X038584Y011024D03*
X038584Y010552D03*
X037757Y009568D03*
X036537Y009568D03*
X035317Y008308D03*
X034883Y008741D03*
X035828Y007875D03*
X034332Y005985D03*
X032876Y008347D03*
X033309Y008898D03*
X034332Y010355D03*
X038781Y020316D03*
X038387Y021457D03*
X035661Y023199D03*
X035198Y022284D03*
X033466Y022206D03*
X034805Y020946D03*
X033899Y023977D03*
D21*
X033899Y013072D01*
X034135Y013323D02*
X034135Y013336D01*
X034135Y013328D01*
X034200Y013264D01*
X034450Y012982D01*
X034450Y012974D01*
X034515Y012910D01*
X034575Y012842D01*
X034583Y012841D01*
X034589Y012835D01*
X034680Y012835D01*
X034770Y012830D01*
X034776Y012835D01*
X038333Y012835D01*
X038373Y012796D01*
X038333Y012757D01*
X034982Y012757D01*
X034786Y012560D01*
X034647Y012421D01*
X034647Y010495D01*
X034624Y010550D01*
X034527Y010647D01*
X034401Y010700D01*
X034264Y010700D01*
X034137Y010647D01*
X034040Y010550D01*
X033988Y010424D01*
X033988Y010287D01*
X034040Y010160D01*
X034096Y010104D01*
X034096Y006236D01*
X034040Y006180D01*
X033988Y006054D01*
X033988Y005917D01*
X034040Y005790D01*
X034137Y005693D01*
X034264Y005641D01*
X034401Y005641D01*
X034527Y005693D01*
X034624Y005790D01*
X034677Y005917D01*
X034677Y006054D01*
X034624Y006180D01*
X034569Y006236D01*
X034569Y008601D01*
X034591Y008546D01*
X034688Y008449D01*
X034815Y008396D01*
X034952Y008396D01*
X034986Y008411D01*
X034972Y008376D01*
X034972Y008239D01*
X035024Y008113D01*
X035121Y008016D01*
X035248Y007963D01*
X035385Y007963D01*
X035512Y008016D01*
X035515Y008020D01*
X035484Y007943D01*
X035484Y007806D01*
X035536Y007680D01*
X035633Y007583D01*
X035760Y007530D01*
X035897Y007530D01*
X036023Y007583D01*
X036120Y007680D01*
X036173Y007806D01*
X036173Y007943D01*
X036120Y008070D01*
X036065Y008126D01*
X036065Y011281D01*
X036123Y011339D01*
X038294Y011339D01*
X038353Y011280D01*
X038292Y011220D01*
X038240Y011093D01*
X038240Y010956D01*
X038292Y010829D01*
X038333Y010788D01*
X038292Y010747D01*
X038240Y010620D01*
X038240Y010483D01*
X038292Y010357D01*
X038389Y010260D01*
X038516Y010207D01*
X038653Y010207D01*
X038779Y010260D01*
X038876Y010357D01*
X038929Y010483D01*
X038929Y010620D01*
X038876Y010747D01*
X038835Y010788D01*
X038876Y010829D01*
X038929Y010956D01*
X038929Y011093D01*
X038876Y011220D01*
X038816Y011280D01*
X038876Y011341D01*
X038929Y011468D01*
X038929Y011605D01*
X038876Y011731D01*
X038806Y011802D01*
X038857Y011853D01*
X038909Y011980D01*
X038909Y012117D01*
X038857Y012243D01*
X038825Y012274D01*
X038876Y012325D01*
X038929Y012452D01*
X038929Y012589D01*
X038876Y012716D01*
X038796Y012796D01*
X038876Y012877D01*
X038929Y013003D01*
X038929Y013140D01*
X038876Y013267D01*
X038835Y013308D01*
X038876Y013349D01*
X038929Y013476D01*
X038929Y013536D01*
X039069Y013662D01*
X039076Y013662D01*
X039141Y013727D01*
X039209Y013788D01*
X039209Y013795D01*
X039214Y013801D01*
X039214Y013892D01*
X039219Y013984D01*
X039214Y013989D01*
X039214Y020217D01*
X039126Y020305D01*
X039126Y020384D01*
X039073Y020511D01*
X038976Y020608D01*
X038850Y020660D01*
X038713Y020660D01*
X038624Y020623D01*
X038624Y021207D01*
X038679Y021262D01*
X038732Y021389D01*
X038732Y021526D01*
X038679Y021653D01*
X038583Y021750D01*
X038456Y021802D01*
X038319Y021802D01*
X038192Y021750D01*
X038095Y021653D01*
X038043Y021526D01*
X038043Y021389D01*
X038095Y021262D01*
X038151Y021207D01*
X038151Y019982D01*
X038290Y019843D01*
X038348Y019785D01*
X038348Y014327D01*
X038273Y014251D01*
X038220Y014124D01*
X038220Y013987D01*
X038273Y013861D01*
X038343Y013790D01*
X038292Y013739D01*
X038240Y013613D01*
X038240Y013476D01*
X038292Y013349D01*
X038333Y013308D01*
X034793Y013308D01*
X034749Y013357D01*
X034873Y013357D01*
X035000Y013410D01*
X035097Y013506D01*
X035149Y013633D01*
X035149Y013770D01*
X035104Y013880D01*
X035130Y013869D01*
X035267Y013869D01*
X035394Y013921D01*
X035490Y014018D01*
X035543Y014145D01*
X035543Y014282D01*
X035490Y014409D01*
X035435Y014464D01*
X035435Y014750D01*
X035476Y014709D01*
X035602Y014656D01*
X035739Y014656D01*
X035866Y014709D01*
X035963Y014806D01*
X036015Y014932D01*
X036015Y015069D01*
X035963Y015196D01*
X035898Y015261D01*
X035898Y022948D01*
X035953Y023004D01*
X036006Y023131D01*
X036006Y023268D01*
X035953Y023394D01*
X035857Y023491D01*
X035730Y023544D01*
X035593Y023544D01*
X035466Y023491D01*
X035369Y023394D01*
X035317Y023268D01*
X035317Y023131D01*
X035369Y023004D01*
X035425Y022948D01*
X035425Y022545D01*
X035394Y022576D01*
X035267Y022629D01*
X035130Y022629D01*
X035003Y022576D01*
X034906Y022479D01*
X034854Y022353D01*
X034854Y022216D01*
X034906Y022089D01*
X034962Y022033D01*
X034962Y021253D01*
X034873Y021290D01*
X034736Y021290D01*
X034610Y021238D01*
X034513Y021141D01*
X034460Y021014D01*
X034460Y020877D01*
X034513Y020751D01*
X034569Y020695D01*
X034569Y016000D01*
X034567Y016001D01*
X034440Y016054D01*
X034303Y016054D01*
X034177Y016001D01*
X034135Y015960D01*
X034135Y023726D01*
X034191Y023782D01*
X034244Y023909D01*
X034244Y024046D01*
X034191Y024172D01*
X034094Y024269D01*
X033968Y024322D01*
X033831Y024322D01*
X033704Y024269D01*
X033607Y024172D01*
X033555Y024046D01*
X033555Y023909D01*
X033607Y023782D01*
X033663Y023726D01*
X033663Y022496D01*
X033661Y022498D01*
X033535Y022550D01*
X033398Y022550D01*
X033271Y022498D01*
X033269Y022496D01*
X033269Y023012D01*
X033131Y023150D01*
X032953Y023328D01*
X032608Y023328D01*
X032608Y023536D01*
X032559Y023584D01*
X032608Y023633D01*
X032608Y024520D01*
X032559Y024569D01*
X032608Y024617D01*
X032608Y025504D01*
X032504Y025608D01*
X031618Y025608D01*
X031514Y025504D01*
X031514Y024617D01*
X031563Y024569D01*
X031514Y024520D01*
X031514Y023633D01*
X031563Y023584D01*
X031514Y023536D01*
X031514Y022649D01*
X031618Y022545D01*
X032504Y022545D01*
X032608Y022649D01*
X032608Y022856D01*
X032757Y022856D01*
X032797Y022816D01*
X032797Y018288D01*
X032738Y018229D01*
X032561Y018229D01*
X032561Y018434D01*
X032513Y018483D01*
X032561Y018531D01*
X032561Y019418D01*
X032513Y019467D01*
X032561Y019516D01*
X032561Y020402D01*
X032458Y020506D01*
X031571Y020506D01*
X031467Y020402D01*
X031467Y019516D01*
X031516Y019467D01*
X031467Y019418D01*
X031467Y019240D01*
X030612Y019240D01*
X030474Y019102D01*
X030198Y018826D01*
X030198Y012299D01*
X030143Y012243D01*
X030090Y012117D01*
X030090Y011980D01*
X030143Y011853D01*
X030240Y011756D01*
X030366Y011704D01*
X030503Y011704D01*
X030630Y011756D01*
X030727Y011853D01*
X030779Y011980D01*
X030779Y012117D01*
X030727Y012243D01*
X030671Y012299D01*
X030671Y018630D01*
X030808Y018768D01*
X031467Y018768D01*
X031467Y018531D01*
X031516Y018483D01*
X031467Y018434D01*
X031467Y018227D01*
X031201Y018227D01*
X030927Y017954D01*
X030789Y017815D01*
X030789Y002977D01*
X030774Y002904D01*
X030789Y002882D01*
X030789Y002856D01*
X030842Y002803D01*
X030868Y002764D01*
X030868Y002738D01*
X030920Y002685D01*
X030962Y002623D01*
X030987Y002618D01*
X031006Y002599D01*
X031081Y002599D01*
X031154Y002585D01*
X031175Y002599D01*
X031364Y002599D01*
X031364Y002383D01*
X031468Y002279D01*
X032354Y002279D01*
X032458Y002383D01*
X032458Y003270D01*
X032409Y003319D01*
X032458Y003367D01*
X032458Y004254D01*
X032409Y004303D01*
X032458Y004351D01*
X032458Y005238D01*
X032354Y005342D01*
X031468Y005342D01*
X031364Y005238D01*
X031364Y004351D01*
X031413Y004303D01*
X031364Y004254D01*
X031364Y003367D01*
X031413Y003319D01*
X031364Y003270D01*
X031364Y003072D01*
X031261Y003072D01*
X031261Y007639D01*
X031417Y007639D01*
X031417Y007391D01*
X031521Y007287D01*
X032408Y007287D01*
X032511Y007391D01*
X032511Y008278D01*
X032463Y008326D01*
X032511Y008375D01*
X032511Y009262D01*
X032463Y009311D01*
X032511Y009359D01*
X032511Y010246D01*
X032408Y010350D01*
X031521Y010350D01*
X031417Y010246D01*
X031417Y009359D01*
X031466Y009311D01*
X031417Y009262D01*
X031417Y008375D01*
X031466Y008326D01*
X031417Y008278D01*
X031417Y008111D01*
X031261Y008111D01*
X031261Y017619D01*
X031396Y017754D01*
X031467Y017754D01*
X031467Y017547D01*
X031571Y017443D01*
X032458Y017443D01*
X032561Y017547D01*
X032561Y017757D01*
X032934Y017757D01*
X033072Y017895D01*
X033230Y018053D01*
X033230Y017198D01*
X033141Y017235D01*
X033004Y017235D01*
X032877Y017183D01*
X032780Y017086D01*
X032728Y016959D01*
X032728Y016822D01*
X032780Y016695D01*
X032836Y016640D01*
X032836Y013990D01*
X032731Y014095D01*
X032561Y014095D01*
X032561Y014313D01*
X032513Y014362D01*
X032561Y014411D01*
X032561Y015298D01*
X032458Y015401D01*
X031571Y015401D01*
X031467Y015298D01*
X031467Y014411D01*
X031516Y014362D01*
X031467Y014313D01*
X031467Y013427D01*
X031516Y013378D01*
X031467Y013329D01*
X031467Y012442D01*
X031571Y012339D01*
X031773Y012339D01*
X031773Y011045D01*
X031912Y010906D01*
X032639Y010179D01*
X032639Y008598D01*
X032584Y008542D01*
X032531Y008416D01*
X032531Y008279D01*
X032584Y008152D01*
X032680Y008055D01*
X032807Y008003D01*
X032944Y008003D01*
X033071Y008055D01*
X033168Y008152D01*
X033220Y008279D01*
X033220Y008416D01*
X033168Y008542D01*
X033112Y008598D01*
X033112Y008608D01*
X033114Y008606D01*
X033240Y008554D01*
X033377Y008554D01*
X033504Y008606D01*
X033601Y008703D01*
X033653Y008830D01*
X033653Y008967D01*
X033601Y009094D01*
X033545Y009149D01*
X033545Y010571D01*
X032954Y011162D01*
X032954Y011330D01*
X033004Y011310D01*
X033141Y011310D01*
X033268Y011362D01*
X033364Y011459D01*
X033417Y011586D01*
X033417Y011723D01*
X033364Y011849D01*
X033309Y011905D01*
X033309Y012370D01*
X033398Y012333D01*
X033535Y012333D01*
X033661Y012386D01*
X033758Y012483D01*
X033811Y012609D01*
X033811Y012735D01*
X033831Y012727D01*
X033968Y012727D01*
X034094Y012780D01*
X034191Y012877D01*
X034244Y013003D01*
X034244Y013140D01*
X034191Y013267D01*
X034135Y013323D01*
X034135Y013336D02*
X034135Y013336D01*
X034158Y013300D02*
X034163Y013300D01*
X034226Y013184D02*
X034271Y013184D01*
X034244Y013067D02*
X034375Y013067D01*
X034474Y012951D02*
X034222Y012951D01*
X034149Y012834D02*
X034705Y012834D01*
X034775Y012834D02*
X038335Y012834D01*
X038584Y013072D02*
X034687Y013072D01*
X034372Y013426D01*
X034372Y015709D01*
X034157Y015982D02*
X034135Y015982D01*
X034135Y016099D02*
X034569Y016099D01*
X034569Y016216D02*
X034135Y016216D01*
X034135Y016332D02*
X034569Y016332D01*
X034569Y016449D02*
X034135Y016449D01*
X034135Y016565D02*
X034569Y016565D01*
X034569Y016682D02*
X034135Y016682D01*
X034135Y016799D02*
X034569Y016799D01*
X034569Y016915D02*
X034135Y016915D01*
X034135Y017032D02*
X034569Y017032D01*
X034569Y017149D02*
X034135Y017149D01*
X034135Y017265D02*
X034569Y017265D01*
X034569Y017382D02*
X034135Y017382D01*
X034135Y017498D02*
X034569Y017498D01*
X034569Y017615D02*
X034135Y017615D01*
X034135Y017732D02*
X034569Y017732D01*
X034569Y017848D02*
X034135Y017848D01*
X034135Y017965D02*
X034569Y017965D01*
X034569Y018081D02*
X034135Y018081D01*
X034135Y018198D02*
X034569Y018198D01*
X034569Y018315D02*
X034135Y018315D01*
X034135Y018431D02*
X034569Y018431D01*
X034569Y018548D02*
X034135Y018548D01*
X034135Y018664D02*
X034569Y018664D01*
X034569Y018781D02*
X034135Y018781D01*
X034135Y018898D02*
X034569Y018898D01*
X034569Y019014D02*
X034135Y019014D01*
X034135Y019131D02*
X034569Y019131D01*
X034569Y019248D02*
X034135Y019248D01*
X034135Y019364D02*
X034569Y019364D01*
X034569Y019481D02*
X034135Y019481D01*
X034135Y019597D02*
X034569Y019597D01*
X034569Y019714D02*
X034135Y019714D01*
X034135Y019831D02*
X034569Y019831D01*
X034569Y019947D02*
X034135Y019947D01*
X034135Y020064D02*
X034569Y020064D01*
X034569Y020180D02*
X034135Y020180D01*
X034135Y020297D02*
X034569Y020297D01*
X034569Y020414D02*
X034135Y020414D01*
X034135Y020530D02*
X034569Y020530D01*
X034569Y020647D02*
X034135Y020647D01*
X034135Y020763D02*
X034507Y020763D01*
X034460Y020880D02*
X034135Y020880D01*
X034135Y020997D02*
X034460Y020997D01*
X034501Y021113D02*
X034135Y021113D01*
X034135Y021230D02*
X034602Y021230D01*
X034805Y020946D02*
X034805Y013702D01*
X035108Y013534D02*
X038240Y013534D01*
X038255Y013650D02*
X035149Y013650D01*
X035149Y013767D02*
X038320Y013767D01*
X038263Y013883D02*
X035302Y013883D01*
X035472Y014000D02*
X038220Y014000D01*
X038220Y014117D02*
X035531Y014117D01*
X035543Y014233D02*
X038265Y014233D01*
X038348Y014350D02*
X035515Y014350D01*
X035435Y014466D02*
X038348Y014466D01*
X038348Y014583D02*
X035435Y014583D01*
X035435Y014700D02*
X035498Y014700D01*
X035661Y014961D02*
X035671Y015001D01*
X035661Y014961D02*
X035661Y023199D01*
X035342Y023329D02*
X034135Y023329D01*
X034135Y023445D02*
X035421Y023445D01*
X035317Y023212D02*
X034135Y023212D01*
X034135Y023096D02*
X035331Y023096D01*
X035394Y022979D02*
X034135Y022979D01*
X034135Y022862D02*
X035425Y022862D01*
X035425Y022746D02*
X034135Y022746D01*
X034135Y022629D02*
X035425Y022629D01*
X035198Y022284D02*
X035198Y014213D01*
X035844Y014700D02*
X036969Y014700D01*
X036897Y014730D02*
X037072Y014657D01*
X037262Y014657D01*
X037437Y014730D01*
X037571Y014864D01*
X037644Y015039D01*
X037644Y015229D01*
X037571Y015405D01*
X037437Y015539D01*
X037262Y015611D01*
X037072Y015611D01*
X036897Y015539D01*
X036762Y015405D01*
X036690Y015229D01*
X036690Y015039D01*
X036762Y014864D01*
X036897Y014730D01*
X036810Y014816D02*
X035967Y014816D01*
X036015Y014933D02*
X036734Y014933D01*
X036690Y015050D02*
X036015Y015050D01*
X035975Y015166D02*
X036690Y015166D01*
X036712Y015283D02*
X035898Y015283D01*
X035898Y015399D02*
X036760Y015399D01*
X036874Y015516D02*
X035898Y015516D01*
X035898Y015633D02*
X038348Y015633D01*
X038348Y015749D02*
X035898Y015749D01*
X035898Y015866D02*
X038348Y015866D01*
X038348Y015982D02*
X035898Y015982D01*
X035898Y016099D02*
X038348Y016099D01*
X038348Y016216D02*
X035898Y016216D01*
X035898Y016332D02*
X038348Y016332D01*
X038348Y016449D02*
X035898Y016449D01*
X035898Y016565D02*
X038348Y016565D01*
X038348Y016682D02*
X035898Y016682D01*
X035898Y016799D02*
X038348Y016799D01*
X038348Y016915D02*
X035898Y016915D01*
X035898Y017032D02*
X038348Y017032D01*
X038348Y017149D02*
X035898Y017149D01*
X035898Y017265D02*
X038348Y017265D01*
X038348Y017382D02*
X035898Y017382D01*
X035898Y017498D02*
X038348Y017498D01*
X038348Y017615D02*
X035898Y017615D01*
X035898Y017732D02*
X038348Y017732D01*
X038348Y017848D02*
X035898Y017848D01*
X035898Y017965D02*
X038348Y017965D01*
X038348Y018081D02*
X035898Y018081D01*
X035898Y018198D02*
X038348Y018198D01*
X038348Y018315D02*
X035898Y018315D01*
X035898Y018431D02*
X038348Y018431D01*
X038348Y018548D02*
X035898Y018548D01*
X035898Y018664D02*
X038348Y018664D01*
X038348Y018781D02*
X035898Y018781D01*
X035898Y018898D02*
X038348Y018898D01*
X038348Y019014D02*
X035898Y019014D01*
X035898Y019131D02*
X038348Y019131D01*
X038348Y019248D02*
X035898Y019248D01*
X035898Y019364D02*
X038348Y019364D01*
X038348Y019481D02*
X035898Y019481D01*
X035898Y019597D02*
X038348Y019597D01*
X038348Y019714D02*
X035898Y019714D01*
X035898Y019831D02*
X038302Y019831D01*
X038290Y019843D02*
X038290Y019843D01*
X038186Y019947D02*
X035898Y019947D01*
X035898Y020064D02*
X038151Y020064D01*
X038151Y020180D02*
X035898Y020180D01*
X035898Y020297D02*
X038151Y020297D01*
X038151Y020414D02*
X035898Y020414D01*
X035898Y020530D02*
X038151Y020530D01*
X038151Y020647D02*
X035898Y020647D01*
X035898Y020763D02*
X038151Y020763D01*
X038151Y020880D02*
X035898Y020880D01*
X035898Y020997D02*
X038151Y020997D01*
X038151Y021113D02*
X035898Y021113D01*
X035898Y021230D02*
X038128Y021230D01*
X038060Y021347D02*
X035898Y021347D01*
X035898Y021463D02*
X038043Y021463D01*
X038065Y021580D02*
X035898Y021580D01*
X035898Y021696D02*
X038139Y021696D01*
X038387Y021457D02*
X038387Y020080D01*
X038584Y019883D01*
X038584Y014036D01*
X038565Y014056D01*
X038978Y013898D02*
X038978Y020119D01*
X038781Y020316D01*
X038680Y020647D02*
X038624Y020647D01*
X038624Y020763D02*
X039352Y020763D01*
X039352Y020647D02*
X038882Y020647D01*
X039054Y020530D02*
X039352Y020530D01*
X039352Y020414D02*
X039113Y020414D01*
X039134Y020297D02*
X039352Y020297D01*
X039352Y020180D02*
X039214Y020180D01*
X039214Y020064D02*
X039352Y020064D01*
X039352Y019947D02*
X039214Y019947D01*
X039214Y019831D02*
X039352Y019831D01*
X039352Y019714D02*
X039214Y019714D01*
X039214Y019597D02*
X039352Y019597D01*
X039352Y019481D02*
X039214Y019481D01*
X039214Y019364D02*
X039352Y019364D01*
X039352Y019248D02*
X039214Y019248D01*
X039214Y019131D02*
X039352Y019131D01*
X039352Y019014D02*
X039214Y019014D01*
X039214Y018898D02*
X039352Y018898D01*
X039352Y018781D02*
X039214Y018781D01*
X039214Y018664D02*
X039352Y018664D01*
X039352Y018548D02*
X039214Y018548D01*
X039214Y018431D02*
X039352Y018431D01*
X039352Y018315D02*
X039214Y018315D01*
X039214Y018198D02*
X039352Y018198D01*
X039352Y018081D02*
X039214Y018081D01*
X039214Y017965D02*
X039352Y017965D01*
X039352Y017848D02*
X039214Y017848D01*
X039214Y017732D02*
X039352Y017732D01*
X039352Y017615D02*
X039214Y017615D01*
X039214Y017498D02*
X039352Y017498D01*
X039352Y017382D02*
X039214Y017382D01*
X039214Y017265D02*
X039352Y017265D01*
X039352Y017149D02*
X039214Y017149D01*
X039214Y017032D02*
X039352Y017032D01*
X039352Y016915D02*
X039214Y016915D01*
X039214Y016799D02*
X039352Y016799D01*
X039352Y016682D02*
X039214Y016682D01*
X039214Y016565D02*
X039352Y016565D01*
X039352Y016449D02*
X039214Y016449D01*
X039214Y016332D02*
X039352Y016332D01*
X039352Y016216D02*
X039214Y016216D01*
X039214Y016099D02*
X039352Y016099D01*
X039352Y015982D02*
X039214Y015982D01*
X039214Y015866D02*
X039352Y015866D01*
X039352Y015749D02*
X039214Y015749D01*
X039214Y015633D02*
X039352Y015633D01*
X039352Y015516D02*
X039214Y015516D01*
X039214Y015399D02*
X039352Y015399D01*
X039352Y015283D02*
X039214Y015283D01*
X039214Y015166D02*
X039352Y015166D01*
X039352Y015050D02*
X039214Y015050D01*
X039214Y014933D02*
X039352Y014933D01*
X039352Y014816D02*
X039214Y014816D01*
X039214Y014700D02*
X039352Y014700D01*
X039352Y014583D02*
X039214Y014583D01*
X039214Y014466D02*
X039352Y014466D01*
X039352Y014350D02*
X039214Y014350D01*
X039214Y014233D02*
X039352Y014233D01*
X039352Y014117D02*
X039214Y014117D01*
X039214Y014000D02*
X039352Y014000D01*
X039352Y013883D02*
X039214Y013883D01*
X039185Y013767D02*
X039352Y013767D01*
X039352Y013650D02*
X039055Y013650D01*
X038929Y013534D02*
X039352Y013534D01*
X039352Y013417D02*
X038904Y013417D01*
X038843Y013300D02*
X039352Y013300D01*
X039352Y013184D02*
X038911Y013184D01*
X038929Y013067D02*
X039352Y013067D01*
X039352Y012951D02*
X038907Y012951D01*
X038834Y012834D02*
X039352Y012834D01*
X039352Y012717D02*
X038875Y012717D01*
X038924Y012601D02*
X039352Y012601D01*
X039352Y012484D02*
X038929Y012484D01*
X038894Y012367D02*
X039352Y012367D01*
X039352Y012251D02*
X038849Y012251D01*
X038902Y012134D02*
X039352Y012134D01*
X039352Y012018D02*
X038909Y012018D01*
X038877Y011901D02*
X039352Y011901D01*
X039352Y011784D02*
X038823Y011784D01*
X038903Y011668D02*
X039352Y011668D01*
X039352Y011551D02*
X038929Y011551D01*
X038915Y011435D02*
X039352Y011435D01*
X039352Y011318D02*
X038853Y011318D01*
X038884Y011201D02*
X039352Y011201D01*
X039352Y011085D02*
X038929Y011085D01*
X038929Y010968D02*
X039352Y010968D01*
X039352Y010852D02*
X038886Y010852D01*
X038881Y010735D02*
X039352Y010735D01*
X039352Y010618D02*
X038929Y010618D01*
X038929Y010502D02*
X039352Y010502D01*
X039352Y010385D02*
X038888Y010385D01*
X038788Y010269D02*
X039352Y010269D01*
X039352Y010152D02*
X036065Y010152D01*
X036065Y010269D02*
X038381Y010269D01*
X038280Y010385D02*
X036065Y010385D01*
X036065Y010502D02*
X038240Y010502D01*
X038240Y010618D02*
X036065Y010618D01*
X036065Y010735D02*
X038287Y010735D01*
X038283Y010852D02*
X036065Y010852D01*
X036065Y010968D02*
X038240Y010968D01*
X038240Y011085D02*
X036065Y011085D01*
X036065Y011201D02*
X038285Y011201D01*
X038315Y011318D02*
X036102Y011318D01*
X036025Y011576D02*
X035828Y011379D01*
X035828Y007875D01*
X035527Y007703D02*
X034569Y007703D01*
X034569Y007586D02*
X035630Y007586D01*
X035484Y007820D02*
X034569Y007820D01*
X034569Y007936D02*
X035484Y007936D01*
X035084Y008053D02*
X034569Y008053D01*
X034569Y008170D02*
X035001Y008170D01*
X034972Y008286D02*
X034569Y008286D01*
X034569Y008403D02*
X034800Y008403D01*
X034967Y008403D02*
X034983Y008403D01*
X035317Y008308D02*
X035317Y011694D01*
X035671Y012048D01*
X038565Y012048D01*
X038506Y011576D02*
X036025Y011576D01*
X035080Y012520D02*
X034883Y012324D01*
X034883Y008741D01*
X034618Y008519D02*
X034569Y008519D01*
X034096Y008519D02*
X033177Y008519D01*
X033220Y008403D02*
X034096Y008403D01*
X034096Y008286D02*
X033220Y008286D01*
X033175Y008170D02*
X034096Y008170D01*
X034096Y008053D02*
X033065Y008053D01*
X032876Y008347D02*
X032876Y010276D01*
X032009Y011143D01*
X032009Y012881D01*
X032014Y012886D01*
X032025Y012875D01*
X031467Y012834D02*
X031261Y012834D01*
X031261Y012951D02*
X031467Y012951D01*
X031467Y013067D02*
X031261Y013067D01*
X031261Y013184D02*
X031467Y013184D01*
X031467Y013300D02*
X031261Y013300D01*
X031261Y013417D02*
X031477Y013417D01*
X031467Y013534D02*
X031261Y013534D01*
X031261Y013650D02*
X031467Y013650D01*
X031467Y013767D02*
X031261Y013767D01*
X031261Y013883D02*
X031467Y013883D01*
X031467Y014000D02*
X031261Y014000D01*
X031261Y014117D02*
X031467Y014117D01*
X031467Y014233D02*
X031261Y014233D01*
X031261Y014350D02*
X031503Y014350D01*
X031467Y014466D02*
X031261Y014466D01*
X031261Y014583D02*
X031467Y014583D01*
X031467Y014700D02*
X031261Y014700D01*
X031261Y014816D02*
X031467Y014816D01*
X031467Y014933D02*
X031261Y014933D01*
X031261Y015050D02*
X031467Y015050D01*
X031467Y015166D02*
X031261Y015166D01*
X031261Y015283D02*
X031467Y015283D01*
X031569Y015399D02*
X031261Y015399D01*
X031261Y015516D02*
X032836Y015516D01*
X032836Y015633D02*
X031261Y015633D01*
X031261Y015749D02*
X032836Y015749D01*
X032836Y015866D02*
X031261Y015866D01*
X031261Y015982D02*
X032836Y015982D01*
X032836Y016099D02*
X031261Y016099D01*
X031261Y016216D02*
X032836Y016216D01*
X032836Y016332D02*
X031261Y016332D01*
X031261Y016449D02*
X032836Y016449D01*
X032836Y016565D02*
X031261Y016565D01*
X031261Y016682D02*
X032794Y016682D01*
X032738Y016799D02*
X031261Y016799D01*
X031261Y016915D02*
X032728Y016915D01*
X032758Y017032D02*
X031261Y017032D01*
X031261Y017149D02*
X032843Y017149D01*
X033072Y016891D02*
X033072Y011654D01*
X033391Y011784D02*
X034647Y011784D01*
X034647Y011668D02*
X033417Y011668D01*
X033403Y011551D02*
X034647Y011551D01*
X034647Y011435D02*
X033340Y011435D01*
X033161Y011318D02*
X034647Y011318D01*
X034647Y011201D02*
X032954Y011201D01*
X032954Y011318D02*
X032984Y011318D01*
X033031Y011085D02*
X034647Y011085D01*
X034647Y010968D02*
X033148Y010968D01*
X033264Y010852D02*
X034647Y010852D01*
X034647Y010735D02*
X033381Y010735D01*
X033498Y010618D02*
X034108Y010618D01*
X034020Y010502D02*
X033545Y010502D01*
X033545Y010385D02*
X033988Y010385D01*
X033995Y010269D02*
X033545Y010269D01*
X033545Y010152D02*
X034048Y010152D01*
X034096Y010035D02*
X033545Y010035D01*
X033545Y009919D02*
X034096Y009919D01*
X034096Y009802D02*
X033545Y009802D01*
X033545Y009685D02*
X034096Y009685D01*
X034096Y009569D02*
X033545Y009569D01*
X033545Y009452D02*
X034096Y009452D01*
X034096Y009336D02*
X033545Y009336D01*
X033545Y009219D02*
X034096Y009219D01*
X034096Y009102D02*
X033592Y009102D01*
X033645Y008986D02*
X034096Y008986D01*
X034096Y008869D02*
X033653Y008869D01*
X033621Y008753D02*
X034096Y008753D01*
X034096Y008636D02*
X033533Y008636D01*
X033309Y008898D02*
X033309Y010473D01*
X032718Y011064D01*
X032718Y013774D01*
X032633Y013859D01*
X032025Y013859D01*
X032014Y013870D01*
X032561Y014117D02*
X032836Y014117D01*
X032836Y014233D02*
X032561Y014233D01*
X032525Y014350D02*
X032836Y014350D01*
X032836Y014466D02*
X032561Y014466D01*
X032561Y014583D02*
X032836Y014583D01*
X032836Y014700D02*
X032561Y014700D01*
X032561Y014816D02*
X032836Y014816D01*
X032836Y014933D02*
X032561Y014933D01*
X032561Y015050D02*
X032836Y015050D01*
X032836Y015166D02*
X032561Y015166D01*
X032561Y015283D02*
X032836Y015283D01*
X032836Y015399D02*
X032460Y015399D01*
X030789Y015399D02*
X030671Y015399D01*
X030671Y015283D02*
X030789Y015283D01*
X030789Y015166D02*
X030671Y015166D01*
X030671Y015050D02*
X030789Y015050D01*
X030789Y014933D02*
X030671Y014933D01*
X030671Y014816D02*
X030789Y014816D01*
X030789Y014700D02*
X030671Y014700D01*
X030671Y014583D02*
X030789Y014583D01*
X030789Y014466D02*
X030671Y014466D01*
X030671Y014350D02*
X030789Y014350D01*
X030789Y014233D02*
X030671Y014233D01*
X030671Y014117D02*
X030789Y014117D01*
X030789Y014000D02*
X030671Y014000D01*
X030671Y013883D02*
X030789Y013883D01*
X030789Y013767D02*
X030671Y013767D01*
X030671Y013650D02*
X030789Y013650D01*
X030789Y013534D02*
X030671Y013534D01*
X030671Y013417D02*
X030789Y013417D01*
X030789Y013300D02*
X030671Y013300D01*
X030671Y013184D02*
X030789Y013184D01*
X030789Y013067D02*
X030671Y013067D01*
X030671Y012951D02*
X030789Y012951D01*
X030789Y012834D02*
X030671Y012834D01*
X030671Y012717D02*
X030789Y012717D01*
X030789Y012601D02*
X030671Y012601D01*
X030671Y012484D02*
X030789Y012484D01*
X030789Y012367D02*
X030671Y012367D01*
X030719Y012251D02*
X030789Y012251D01*
X030789Y012134D02*
X030772Y012134D01*
X030779Y012018D02*
X030789Y012018D01*
X030789Y011901D02*
X030747Y011901D01*
X030789Y011784D02*
X030658Y011784D01*
X030789Y011668D02*
X029749Y011668D01*
X029865Y011784D02*
X030211Y011784D01*
X030123Y011901D02*
X029937Y011901D01*
X029937Y011856D02*
X029540Y011459D01*
X028977Y011459D01*
X028579Y011856D01*
X028579Y012419D01*
X028977Y012817D01*
X029540Y012817D01*
X029937Y012419D01*
X029937Y011856D01*
X029937Y012018D02*
X030090Y012018D01*
X030097Y012134D02*
X029937Y012134D01*
X029937Y012251D02*
X030150Y012251D01*
X030198Y012367D02*
X029937Y012367D01*
X029872Y012484D02*
X030198Y012484D01*
X030198Y012601D02*
X029756Y012601D01*
X029639Y012717D02*
X030198Y012717D01*
X030198Y012834D02*
X005155Y012834D01*
X005118Y012871D02*
X004966Y012934D01*
X004801Y012934D01*
X004649Y012871D01*
X004555Y012777D01*
X004544Y012777D01*
X004488Y012833D01*
X004361Y012885D01*
X004224Y012885D01*
X004098Y012833D01*
X004096Y012831D01*
X004096Y013254D01*
X004098Y013252D01*
X004224Y013200D01*
X004361Y013200D01*
X004488Y013252D01*
X004520Y013284D01*
X004610Y013194D01*
X004762Y013131D01*
X004926Y013131D01*
X005078Y013194D01*
X005195Y013310D01*
X005257Y013462D01*
X005257Y013626D01*
X005195Y013778D01*
X005078Y013895D01*
X004926Y013957D01*
X004762Y013957D01*
X004610Y013895D01*
X004520Y013804D01*
X004488Y013836D01*
X004361Y013889D01*
X004224Y013889D01*
X004098Y013836D01*
X004096Y013834D01*
X004096Y014238D01*
X004098Y014236D01*
X004224Y014184D01*
X004361Y014184D01*
X004488Y014236D01*
X004520Y014268D01*
X004610Y014178D01*
X004762Y014115D01*
X004926Y014115D01*
X005078Y014178D01*
X005195Y014294D01*
X005257Y014446D01*
X005257Y014611D01*
X005195Y014763D01*
X005078Y014879D01*
X004926Y014942D01*
X004762Y014942D01*
X004610Y014879D01*
X004520Y014789D01*
X004488Y014820D01*
X004361Y014873D01*
X004224Y014873D01*
X004098Y014820D01*
X004096Y014819D01*
X004096Y021482D01*
X004152Y021538D01*
X004204Y021665D01*
X004204Y021802D01*
X004152Y021928D01*
X004055Y022025D01*
X003928Y022078D01*
X003791Y022078D01*
X003665Y022025D01*
X003568Y021928D01*
X003515Y021802D01*
X003515Y021665D01*
X003524Y021644D01*
X003437Y021644D01*
X003310Y021592D01*
X003213Y021495D01*
X003161Y021369D01*
X003161Y021290D01*
X003043Y021290D01*
X002917Y021238D01*
X002820Y021141D01*
X002767Y021014D01*
X002767Y020877D01*
X002820Y020751D01*
X002876Y020695D01*
X002876Y015455D01*
X002792Y015539D01*
X002616Y015611D01*
X002426Y015611D01*
X002251Y015539D01*
X002206Y015494D01*
X002206Y020340D01*
X002262Y020396D01*
X002315Y020523D01*
X002315Y020660D01*
X002262Y020786D01*
X002165Y020883D01*
X002039Y020936D01*
X001902Y020936D01*
X001775Y020883D01*
X001678Y020786D01*
X001626Y020660D01*
X001626Y020581D01*
X001547Y020581D01*
X001421Y020529D01*
X001324Y020432D01*
X001271Y020306D01*
X001271Y020168D01*
X001324Y020042D01*
X001380Y019986D01*
X001380Y012796D01*
X001355Y012796D01*
X001299Y012852D01*
X001172Y012904D01*
X001035Y012904D01*
X000909Y012852D01*
X000812Y012755D01*
X000759Y012628D01*
X000759Y012491D01*
X000812Y012365D01*
X000873Y012304D01*
X000812Y012243D01*
X000759Y012117D01*
X000759Y011980D01*
X000812Y011853D01*
X000873Y011792D01*
X000812Y011731D01*
X000759Y011605D01*
X000759Y011468D01*
X000812Y011341D01*
X000873Y011280D01*
X000812Y011220D01*
X000759Y011093D01*
X000759Y010956D01*
X000812Y010829D01*
X000873Y010769D01*
X000812Y010708D01*
X000759Y010581D01*
X000759Y010444D01*
X000812Y010317D01*
X000909Y010221D01*
X001035Y010168D01*
X001172Y010168D01*
X001299Y010221D01*
X001355Y010276D01*
X003918Y010276D01*
X003958Y010316D01*
X003997Y010355D01*
X004004Y010339D01*
X004100Y010242D01*
X004227Y010190D01*
X004364Y010190D01*
X004491Y010242D01*
X004510Y010262D01*
X004610Y010162D01*
X004762Y010099D01*
X004926Y010099D01*
X005078Y010162D01*
X005195Y010278D01*
X005257Y010430D01*
X005257Y010595D01*
X005195Y010747D01*
X005078Y010863D01*
X004926Y010926D01*
X004762Y010926D01*
X004610Y010863D01*
X004532Y010785D01*
X004491Y010826D01*
X004364Y010879D01*
X004227Y010879D01*
X004100Y010826D01*
X004096Y010822D01*
X004096Y011246D01*
X004098Y011244D01*
X004224Y011192D01*
X004361Y011192D01*
X004488Y011244D01*
X004539Y011296D01*
X004649Y011186D01*
X004801Y011123D01*
X004966Y011123D01*
X005118Y011186D01*
X005234Y011302D01*
X005297Y011454D01*
X005297Y011618D01*
X005234Y011770D01*
X005118Y011887D01*
X004966Y011950D01*
X004801Y011950D01*
X004649Y011887D01*
X004539Y011777D01*
X004488Y011828D01*
X004361Y011881D01*
X004224Y011881D01*
X004098Y011828D01*
X004096Y011827D01*
X004096Y012250D01*
X004098Y012248D01*
X004224Y012196D01*
X004361Y012196D01*
X004488Y012248D01*
X004531Y012291D01*
X004533Y012286D01*
X004649Y012170D01*
X004801Y012107D01*
X004966Y012107D01*
X005118Y012170D01*
X005234Y012286D01*
X005297Y012438D01*
X005297Y012603D01*
X005234Y012755D01*
X005118Y012871D01*
X005249Y012717D02*
X028877Y012717D01*
X028761Y012601D02*
X005297Y012601D01*
X005297Y012484D02*
X028644Y012484D01*
X028579Y012367D02*
X005268Y012367D01*
X005198Y012251D02*
X013830Y012251D01*
X013792Y012235D02*
X013662Y012105D01*
X013651Y012079D01*
X007091Y012079D01*
X007007Y012162D01*
X006855Y012225D01*
X006691Y012225D01*
X006539Y012162D01*
X006423Y012046D01*
X006360Y011894D01*
X006360Y011730D01*
X006423Y011578D01*
X006539Y011461D01*
X006691Y011398D01*
X006855Y011398D01*
X007007Y011461D01*
X007124Y011578D01*
X007136Y011607D01*
X013651Y011607D01*
X013662Y011581D01*
X013792Y011451D01*
X013962Y011380D01*
X014146Y011380D01*
X014316Y011451D01*
X014447Y011581D01*
X014517Y011751D01*
X014517Y011935D01*
X014447Y012105D01*
X014316Y012235D01*
X014146Y012306D01*
X013962Y012306D01*
X013792Y012235D01*
X013691Y012134D02*
X007035Y012134D01*
X006804Y011843D02*
X006773Y011812D01*
X006804Y011843D02*
X014054Y011843D01*
X014483Y012018D02*
X016626Y012018D01*
X016592Y011935D02*
X016592Y011751D01*
X016662Y011581D01*
X016792Y011451D01*
X016962Y011380D01*
X017146Y011380D01*
X017316Y011451D01*
X017447Y011581D01*
X017517Y011751D01*
X017517Y011935D01*
X017447Y012105D01*
X017316Y012235D01*
X017146Y012306D01*
X016962Y012306D01*
X016792Y012235D01*
X016662Y012105D01*
X016592Y011935D01*
X016592Y011901D02*
X014517Y011901D01*
X014517Y011784D02*
X016592Y011784D01*
X016626Y011668D02*
X014483Y011668D01*
X014417Y011551D02*
X016692Y011551D01*
X016831Y011435D02*
X014277Y011435D01*
X013831Y011435D02*
X006943Y011435D01*
X007097Y011551D02*
X013692Y011551D01*
X014278Y012251D02*
X016830Y012251D01*
X016691Y012134D02*
X014417Y012134D01*
X013816Y010735D02*
X013646Y010806D01*
X013462Y010806D01*
X013292Y010735D01*
X012510Y010735D01*
X012517Y010751D02*
X012447Y010581D01*
X012316Y010451D01*
X012146Y010380D01*
X011962Y010380D01*
X011792Y010451D01*
X011662Y010581D01*
X011592Y010751D01*
X011592Y010935D01*
X011662Y011105D01*
X011792Y011235D01*
X011962Y011306D01*
X012146Y011306D01*
X012316Y011235D01*
X012447Y011105D01*
X012517Y010935D01*
X012517Y010751D01*
X012517Y010852D02*
X018592Y010852D01*
X018592Y010935D02*
X018592Y010751D01*
X018662Y010581D01*
X018792Y010451D01*
X018962Y010380D01*
X019146Y010380D01*
X019316Y010451D01*
X019447Y010581D01*
X019517Y010751D01*
X019517Y010935D01*
X019447Y011105D01*
X019316Y011235D01*
X019146Y011306D01*
X018962Y011306D01*
X018792Y011235D01*
X018662Y011105D01*
X018592Y010935D01*
X018606Y010968D02*
X012503Y010968D01*
X012455Y011085D02*
X018654Y011085D01*
X018759Y011201D02*
X012350Y011201D01*
X011759Y011201D02*
X009350Y011201D01*
X009316Y011235D02*
X009146Y011306D01*
X008962Y011306D01*
X008792Y011235D01*
X008662Y011105D01*
X008592Y010935D01*
X008592Y010751D01*
X008662Y010581D01*
X008792Y010451D01*
X008962Y010380D01*
X009146Y010380D01*
X009316Y010451D01*
X009447Y010581D01*
X009517Y010751D01*
X009517Y010935D01*
X009447Y011105D01*
X009316Y011235D01*
X009455Y011085D02*
X011654Y011085D01*
X011606Y010968D02*
X009503Y010968D01*
X009517Y010852D02*
X011592Y010852D01*
X011598Y010735D02*
X009510Y010735D01*
X009462Y010618D02*
X011647Y010618D01*
X011741Y010502D02*
X009367Y010502D01*
X009158Y010385D02*
X011951Y010385D01*
X012158Y010385D02*
X013092Y010385D01*
X013092Y010435D02*
X013092Y010251D01*
X013162Y010081D01*
X013292Y009951D01*
X013462Y009880D01*
X013646Y009880D01*
X013816Y009951D01*
X013947Y010081D01*
X014017Y010251D01*
X014017Y010435D01*
X013947Y010605D01*
X013816Y010735D01*
X013817Y010735D02*
X017292Y010735D01*
X017162Y010605D01*
X017092Y010435D01*
X017092Y010251D01*
X017162Y010081D01*
X017292Y009951D01*
X017462Y009880D01*
X017646Y009880D01*
X017816Y009951D01*
X017947Y010081D01*
X018017Y010251D01*
X018017Y010435D01*
X017947Y010605D01*
X017816Y010735D01*
X017646Y010806D01*
X017462Y010806D01*
X017292Y010735D01*
X017176Y010618D02*
X013933Y010618D01*
X013989Y010502D02*
X015544Y010502D01*
X015515Y010490D02*
X015418Y010393D01*
X015366Y010266D01*
X015366Y010129D01*
X015418Y010003D01*
X015474Y009947D01*
X015474Y008053D01*
X012246Y008053D01*
X012246Y008170D02*
X015474Y008170D01*
X015474Y008286D02*
X012246Y008286D01*
X012246Y008403D02*
X015474Y008403D01*
X015474Y008519D02*
X012246Y008519D01*
X012246Y008636D02*
X015474Y008636D01*
X015474Y008753D02*
X012246Y008753D01*
X012246Y008869D02*
X015474Y008869D01*
X015474Y008986D02*
X012246Y008986D01*
X012246Y009102D02*
X015474Y009102D01*
X015474Y009219D02*
X012266Y009219D01*
X012246Y009199D02*
X012301Y009254D01*
X012354Y009381D01*
X012354Y009518D01*
X012301Y009645D01*
X012205Y009742D01*
X012078Y009794D01*
X011941Y009794D01*
X011814Y009742D01*
X011717Y009645D01*
X011665Y009518D01*
X011665Y009381D01*
X011717Y009254D01*
X011773Y009199D01*
X011773Y007216D01*
X011662Y007105D01*
X011592Y006935D01*
X011592Y006751D01*
X011662Y006581D01*
X011792Y006451D01*
X011962Y006380D01*
X012146Y006380D01*
X012316Y006451D01*
X012447Y006581D01*
X012517Y006751D01*
X012517Y006935D01*
X012447Y007105D01*
X012316Y007235D01*
X012246Y007264D01*
X012246Y009199D01*
X012335Y009336D02*
X015474Y009336D01*
X015474Y009452D02*
X012354Y009452D01*
X012333Y009569D02*
X015474Y009569D01*
X015474Y009685D02*
X012261Y009685D01*
X012009Y009450D02*
X012009Y006888D01*
X012054Y006843D01*
X011632Y006654D02*
X009477Y006654D01*
X009447Y006581D02*
X009517Y006751D01*
X009517Y006935D01*
X009447Y007105D01*
X009316Y007235D01*
X009146Y007306D01*
X008962Y007306D01*
X008792Y007235D01*
X008662Y007105D01*
X008651Y007079D01*
X006175Y007079D01*
X006172Y007085D01*
X006056Y007202D01*
X005904Y007265D01*
X005740Y007265D01*
X005588Y007202D01*
X005472Y007085D01*
X005409Y006933D01*
X005409Y006769D01*
X005472Y006617D01*
X005588Y006501D01*
X005740Y006438D01*
X005904Y006438D01*
X006056Y006501D01*
X006162Y006607D01*
X008651Y006607D01*
X008662Y006581D01*
X008792Y006451D01*
X008962Y006380D01*
X009146Y006380D01*
X009316Y006451D01*
X009447Y006581D01*
X009403Y006537D02*
X011706Y006537D01*
X011866Y006420D02*
X009243Y006420D01*
X008866Y006420D02*
X000336Y006420D01*
X000336Y006304D02*
X013958Y006304D01*
X013962Y006306D02*
X013792Y006235D01*
X013662Y006105D01*
X013592Y005935D01*
X013592Y005751D01*
X013662Y005581D01*
X013792Y005451D01*
X013962Y005380D01*
X014146Y005380D01*
X014316Y005451D01*
X014447Y005581D01*
X014517Y005751D01*
X014517Y005935D01*
X014447Y006105D01*
X014316Y006235D01*
X014146Y006306D01*
X013962Y006306D01*
X014151Y006304D02*
X015301Y006304D01*
X015418Y006420D02*
X012243Y006420D01*
X012403Y006537D02*
X015534Y006537D01*
X015651Y006654D02*
X012477Y006654D01*
X012517Y006770D02*
X015768Y006770D01*
X015884Y006887D02*
X013662Y006887D01*
X013646Y006880D02*
X013816Y006951D01*
X013947Y007081D01*
X014017Y007251D01*
X014017Y007435D01*
X013947Y007605D01*
X013816Y007735D01*
X013646Y007806D01*
X013462Y007806D01*
X013292Y007735D01*
X013162Y007605D01*
X013092Y007435D01*
X013092Y007251D01*
X013162Y007081D01*
X013292Y006951D01*
X013462Y006880D01*
X013646Y006880D01*
X013447Y006887D02*
X012517Y006887D01*
X012489Y007003D02*
X013240Y007003D01*
X013146Y007120D02*
X012431Y007120D01*
X012313Y007237D02*
X013098Y007237D01*
X013092Y007353D02*
X012246Y007353D01*
X012246Y007470D02*
X013106Y007470D01*
X013155Y007586D02*
X012246Y007586D01*
X012246Y007703D02*
X013260Y007703D01*
X013848Y007703D02*
X015723Y007703D01*
X015760Y007688D02*
X015897Y007688D01*
X016023Y007740D01*
X016120Y007837D01*
X016173Y007964D01*
X016173Y008101D01*
X016120Y008227D01*
X016023Y008324D01*
X015946Y008356D01*
X015946Y009947D01*
X016002Y010003D01*
X016055Y010129D01*
X016055Y010266D01*
X016002Y010393D01*
X015905Y010490D01*
X015779Y010542D01*
X015642Y010542D01*
X015515Y010490D01*
X015415Y010385D02*
X014017Y010385D01*
X014017Y010269D02*
X015367Y010269D01*
X015366Y010152D02*
X013976Y010152D01*
X013901Y010035D02*
X015405Y010035D01*
X015474Y009919D02*
X013739Y009919D01*
X013370Y009919D02*
X000336Y009919D01*
X000336Y010035D02*
X013208Y010035D01*
X013133Y010152D02*
X005054Y010152D01*
X005185Y010269D02*
X013092Y010269D01*
X013092Y010435D02*
X013162Y010605D01*
X013292Y010735D01*
X013176Y010618D02*
X012462Y010618D01*
X012367Y010502D02*
X013119Y010502D01*
X011758Y009685D02*
X002929Y009685D01*
X002922Y009702D02*
X002789Y009835D01*
X002615Y009907D01*
X002427Y009907D01*
X002254Y009835D01*
X002121Y009702D01*
X002049Y009528D01*
X002049Y009340D01*
X002121Y009167D01*
X002254Y009034D01*
X002427Y008962D01*
X002615Y008962D01*
X002789Y009034D01*
X002922Y009167D01*
X002994Y009340D01*
X002994Y009528D01*
X002922Y009702D01*
X002822Y009802D02*
X015474Y009802D01*
X015710Y010198D02*
X015710Y008150D01*
X015828Y008032D01*
X015750Y008111D01*
X015484Y008043D02*
X015484Y007964D01*
X015536Y007837D01*
X015633Y007740D01*
X015760Y007688D01*
X015934Y007703D02*
X017260Y007703D01*
X017292Y007735D02*
X017162Y007605D01*
X017151Y007579D01*
X016577Y007579D01*
X014038Y005040D01*
X006137Y005040D01*
X006023Y005154D01*
X005871Y005217D01*
X005707Y005217D01*
X005555Y005154D01*
X005439Y005038D01*
X005376Y004886D01*
X005376Y004722D01*
X005439Y004570D01*
X005555Y004453D01*
X005707Y004391D01*
X005871Y004391D01*
X006023Y004453D01*
X006137Y004568D01*
X014233Y004568D01*
X014372Y004706D01*
X016772Y007107D01*
X017151Y007107D01*
X017162Y007081D01*
X017292Y006951D01*
X017462Y006880D01*
X017646Y006880D01*
X017816Y006951D01*
X017947Y007081D01*
X018017Y007251D01*
X018017Y007435D01*
X017947Y007605D01*
X017816Y007735D01*
X017646Y007806D01*
X017462Y007806D01*
X017292Y007735D01*
X017155Y007586D02*
X013954Y007586D01*
X014002Y007470D02*
X016467Y007470D01*
X016351Y007353D02*
X014017Y007353D01*
X014011Y007237D02*
X016234Y007237D01*
X016117Y007120D02*
X013963Y007120D01*
X013869Y007003D02*
X016001Y007003D01*
X016319Y006654D02*
X018632Y006654D01*
X018635Y006646D02*
X016045Y004056D01*
X006137Y004056D01*
X006023Y004170D01*
X005871Y004233D01*
X005707Y004233D01*
X005555Y004170D01*
X005439Y004054D01*
X005376Y003902D01*
X005376Y003737D01*
X005439Y003586D01*
X005555Y003469D01*
X005707Y003406D01*
X005871Y003406D01*
X006023Y003469D01*
X006137Y003583D01*
X016241Y003583D01*
X016380Y003722D01*
X019038Y006380D01*
X019146Y006380D01*
X019316Y006451D01*
X019447Y006581D01*
X019517Y006751D01*
X019517Y006935D01*
X019447Y007105D01*
X019316Y007235D01*
X019146Y007306D01*
X018962Y007306D01*
X018792Y007235D01*
X018662Y007105D01*
X018592Y006935D01*
X018592Y006751D01*
X018635Y006646D01*
X018592Y006770D02*
X016436Y006770D01*
X016552Y006887D02*
X017447Y006887D01*
X017662Y006887D02*
X018592Y006887D01*
X018620Y007003D02*
X017869Y007003D01*
X017963Y007120D02*
X018677Y007120D01*
X018796Y007237D02*
X018011Y007237D01*
X018017Y007353D02*
X022984Y007353D01*
X022978Y007241D02*
X022973Y007236D01*
X022973Y007158D01*
X022969Y007080D01*
X022973Y007075D01*
X022973Y004161D01*
X022967Y004086D01*
X022973Y004079D01*
X022973Y004069D01*
X023026Y004016D01*
X023407Y003565D01*
X023407Y003565D01*
X023413Y003558D01*
X023413Y003549D01*
X023466Y003496D01*
X023515Y003438D01*
X023516Y003438D01*
X024613Y002158D01*
X024613Y002149D01*
X024667Y002095D01*
X024716Y002037D01*
X024725Y002037D01*
X024731Y002030D01*
X024807Y002030D01*
X024883Y002025D01*
X024890Y002030D01*
X024899Y002030D01*
X024953Y002084D01*
X025010Y002134D01*
X025011Y002143D01*
X025017Y002149D01*
X025017Y002225D01*
X025023Y002301D01*
X025017Y002307D01*
X025017Y003550D01*
X027997Y000965D01*
X028051Y000910D01*
X028060Y000910D01*
X028066Y000905D01*
X028142Y000910D01*
X028219Y000910D01*
X028225Y000916D01*
X028233Y000917D01*
X028283Y000975D01*
X028337Y001029D01*
X028337Y001037D01*
X028343Y001043D01*
X028337Y001120D01*
X028337Y008116D01*
X027919Y008535D01*
X027913Y008560D01*
X027862Y008592D01*
X027819Y008635D01*
X027793Y008635D01*
X027571Y008774D01*
X027558Y008798D01*
X027502Y008817D01*
X027451Y008848D01*
X027425Y008842D01*
X027185Y008922D01*
X027177Y008934D01*
X027107Y008948D01*
X027040Y008971D01*
X027027Y008964D01*
X026977Y008974D01*
X026977Y008974D01*
X026813Y009007D01*
X026802Y009000D01*
X026673Y008914D01*
X026646Y008896D01*
X026592Y008878D01*
X026578Y008851D01*
X026553Y008834D01*
X026542Y008779D01*
X026489Y008672D01*
X026453Y008636D01*
X025418Y008636D01*
X025426Y008627D02*
X025276Y008778D01*
X025268Y008807D01*
X025219Y008835D01*
X025179Y008875D01*
X025149Y008875D01*
X024977Y008973D01*
X024972Y008985D01*
X024905Y009014D01*
X024843Y009050D01*
X024830Y009046D01*
X024663Y009118D01*
X024643Y009143D01*
X024589Y009150D01*
X024538Y009171D01*
X024508Y009160D01*
X024295Y009186D01*
X024273Y009204D01*
X024215Y009196D01*
X024157Y009204D01*
X024135Y009186D01*
X023910Y009158D01*
X023868Y009170D01*
X023830Y009148D01*
X023787Y009143D01*
X023760Y009108D01*
X023546Y008986D01*
X023499Y008978D01*
X023476Y008946D01*
X023442Y008927D01*
X023430Y008881D01*
X023285Y008678D01*
X023262Y008669D01*
X023238Y008612D01*
X023202Y008562D01*
X023206Y008538D01*
X023134Y008370D01*
X023116Y008358D01*
X023102Y008295D01*
X023076Y008235D01*
X023084Y008215D01*
X023032Y007980D01*
X023018Y007967D01*
X023014Y007900D01*
X023000Y007835D01*
X023010Y007819D01*
X022978Y007241D01*
X022973Y007237D02*
X022313Y007237D01*
X022316Y007235D02*
X022146Y007306D01*
X021962Y007306D01*
X021792Y007235D01*
X021662Y007105D01*
X021592Y006935D01*
X021592Y006751D01*
X021662Y006581D01*
X021792Y006451D01*
X021962Y006380D01*
X022146Y006380D01*
X022316Y006451D01*
X022447Y006581D01*
X022517Y006751D01*
X022517Y006935D01*
X022447Y007105D01*
X022316Y007235D01*
X022431Y007120D02*
X022971Y007120D01*
X022973Y007003D02*
X022489Y007003D01*
X022517Y006887D02*
X022973Y006887D01*
X022973Y006770D02*
X022517Y006770D01*
X022477Y006654D02*
X022973Y006654D01*
X022973Y006537D02*
X022403Y006537D01*
X022243Y006420D02*
X022973Y006420D01*
X022973Y006304D02*
X018961Y006304D01*
X018845Y006187D02*
X022973Y006187D01*
X022973Y006071D02*
X018728Y006071D01*
X018612Y005954D02*
X022973Y005954D01*
X022973Y005837D02*
X018495Y005837D01*
X018378Y005721D02*
X022973Y005721D01*
X022973Y005604D02*
X018262Y005604D01*
X018145Y005487D02*
X022973Y005487D01*
X022973Y005371D02*
X018029Y005371D01*
X017912Y005254D02*
X022973Y005254D01*
X022973Y005138D02*
X017795Y005138D01*
X017679Y005021D02*
X022973Y005021D01*
X022973Y004904D02*
X017562Y004904D01*
X017446Y004788D02*
X022973Y004788D01*
X022973Y004671D02*
X017329Y004671D01*
X017212Y004555D02*
X022973Y004555D01*
X022973Y004438D02*
X017096Y004438D01*
X016979Y004321D02*
X022973Y004321D01*
X022973Y004205D02*
X016862Y004205D01*
X016746Y004088D02*
X022967Y004088D01*
X023063Y003972D02*
X016629Y003972D01*
X016513Y003855D02*
X023162Y003855D01*
X023261Y003738D02*
X016396Y003738D01*
X016279Y003622D02*
X023360Y003622D01*
X023457Y003505D02*
X006059Y003505D01*
X005789Y003820D02*
X016143Y003820D01*
X019054Y006731D01*
X019054Y006843D01*
X019243Y006420D02*
X021866Y006420D01*
X021706Y006537D02*
X019403Y006537D01*
X019477Y006654D02*
X021632Y006654D01*
X021592Y006770D02*
X019517Y006770D01*
X019517Y006887D02*
X021592Y006887D01*
X021620Y007003D02*
X019489Y007003D01*
X019431Y007120D02*
X021677Y007120D01*
X021796Y007237D02*
X019313Y007237D01*
X018527Y006537D02*
X016203Y006537D01*
X016086Y006420D02*
X018410Y006420D01*
X018293Y006304D02*
X017151Y006304D01*
X017146Y006306D02*
X016962Y006306D01*
X016792Y006235D01*
X016662Y006105D01*
X016592Y005935D01*
X016592Y005751D01*
X016662Y005581D01*
X016792Y005451D01*
X016962Y005380D01*
X017146Y005380D01*
X017316Y005451D01*
X017447Y005581D01*
X017517Y005751D01*
X017517Y005935D01*
X017447Y006105D01*
X017316Y006235D01*
X017146Y006306D01*
X016958Y006304D02*
X015969Y006304D01*
X015853Y006187D02*
X016744Y006187D01*
X016648Y006071D02*
X015736Y006071D01*
X015619Y005954D02*
X016600Y005954D01*
X016592Y005837D02*
X015503Y005837D01*
X015386Y005721D02*
X016604Y005721D01*
X016653Y005604D02*
X015270Y005604D01*
X015153Y005487D02*
X016756Y005487D01*
X017244Y005254D02*
X014920Y005254D01*
X014803Y005138D02*
X017127Y005138D01*
X017011Y005021D02*
X014687Y005021D01*
X014570Y004904D02*
X016894Y004904D01*
X016777Y004788D02*
X014453Y004788D01*
X014337Y004671D02*
X016661Y004671D01*
X016544Y004555D02*
X006124Y004555D01*
X005986Y004438D02*
X016428Y004438D01*
X016311Y004321D02*
X000336Y004321D01*
X000336Y004205D02*
X005638Y004205D01*
X005473Y004088D02*
X000336Y004088D01*
X000336Y003972D02*
X005404Y003972D01*
X005376Y003855D02*
X000336Y003855D01*
X000336Y003738D02*
X005376Y003738D01*
X005424Y003622D02*
X000336Y003622D01*
X000336Y003505D02*
X005519Y003505D01*
X006105Y004088D02*
X016078Y004088D01*
X016194Y004205D02*
X005940Y004205D01*
X005592Y004438D02*
X000336Y004438D01*
X000336Y004555D02*
X005454Y004555D01*
X005397Y004671D02*
X000336Y004671D01*
X000336Y004788D02*
X005376Y004788D01*
X005383Y004904D02*
X000336Y004904D01*
X000336Y005021D02*
X005431Y005021D01*
X005538Y005138D02*
X000336Y005138D01*
X000336Y005254D02*
X014252Y005254D01*
X014368Y005371D02*
X000336Y005371D01*
X000336Y005487D02*
X013756Y005487D01*
X013653Y005604D02*
X000336Y005604D01*
X000336Y005721D02*
X013604Y005721D01*
X013592Y005837D02*
X000336Y005837D01*
X000336Y005954D02*
X013600Y005954D01*
X013648Y006071D02*
X000336Y006071D01*
X000336Y006187D02*
X013744Y006187D01*
X014364Y006187D02*
X015185Y006187D01*
X015068Y006071D02*
X014461Y006071D01*
X014509Y005954D02*
X014951Y005954D01*
X014835Y005837D02*
X014517Y005837D01*
X014504Y005721D02*
X014718Y005721D01*
X014602Y005604D02*
X014456Y005604D01*
X014485Y005487D02*
X014353Y005487D01*
X015036Y005371D02*
X017360Y005371D01*
X017353Y005487D02*
X017477Y005487D01*
X017456Y005604D02*
X017594Y005604D01*
X017504Y005721D02*
X017710Y005721D01*
X017827Y005837D02*
X017517Y005837D01*
X017509Y005954D02*
X017943Y005954D01*
X018060Y006071D02*
X017461Y006071D01*
X017364Y006187D02*
X018177Y006187D01*
X017240Y007003D02*
X016669Y007003D01*
X016674Y007343D02*
X014135Y004804D01*
X005789Y004804D01*
X006040Y005138D02*
X014135Y005138D01*
X011592Y006770D02*
X009517Y006770D01*
X009517Y006887D02*
X011592Y006887D01*
X011620Y007003D02*
X009489Y007003D01*
X009431Y007120D02*
X011677Y007120D01*
X011773Y007237D02*
X009313Y007237D01*
X008796Y007237D02*
X005972Y007237D01*
X006138Y007120D02*
X008677Y007120D01*
X009054Y006843D02*
X005830Y006843D01*
X005822Y006851D01*
X005438Y007003D02*
X000336Y007003D01*
X000336Y006887D02*
X005409Y006887D01*
X005409Y006770D02*
X000336Y006770D01*
X000336Y006654D02*
X005456Y006654D01*
X005552Y006537D02*
X000336Y006537D01*
X000336Y007120D02*
X005506Y007120D01*
X005672Y007237D02*
X000336Y007237D01*
X000336Y007353D02*
X011773Y007353D01*
X011773Y007470D02*
X000336Y007470D01*
X000336Y007586D02*
X011773Y007586D01*
X011773Y007703D02*
X000336Y007703D01*
X000336Y007820D02*
X011773Y007820D01*
X011773Y007936D02*
X000336Y007936D01*
X000336Y008053D02*
X011773Y008053D01*
X011773Y008170D02*
X000336Y008170D01*
X000336Y008286D02*
X011773Y008286D01*
X011773Y008403D02*
X000336Y008403D01*
X000336Y008519D02*
X011773Y008519D01*
X011773Y008636D02*
X000336Y008636D01*
X000336Y008753D02*
X011773Y008753D01*
X011773Y008869D02*
X000336Y008869D01*
X000336Y008986D02*
X002369Y008986D01*
X002185Y009102D02*
X000336Y009102D01*
X000336Y009219D02*
X002099Y009219D01*
X002051Y009336D02*
X000336Y009336D01*
X000336Y009452D02*
X002049Y009452D01*
X002066Y009569D02*
X000336Y009569D01*
X000336Y009685D02*
X002114Y009685D01*
X002221Y009802D02*
X000336Y009802D01*
X000336Y010152D02*
X004635Y010152D01*
X004744Y010534D02*
X004296Y010534D01*
X004430Y010852D02*
X004598Y010852D01*
X004744Y010534D02*
X004844Y010513D01*
X005257Y010502D02*
X008741Y010502D01*
X008647Y010618D02*
X005248Y010618D01*
X005199Y010735D02*
X008598Y010735D01*
X008592Y010852D02*
X005090Y010852D01*
X005133Y011201D02*
X008759Y011201D01*
X008654Y011085D02*
X004096Y011085D01*
X004096Y011201D02*
X004201Y011201D01*
X004385Y011201D02*
X004634Y011201D01*
X004096Y010968D02*
X008606Y010968D01*
X008951Y010385D02*
X005239Y010385D01*
X004074Y010269D02*
X001347Y010269D01*
X001104Y010513D02*
X003820Y010513D01*
X003860Y010552D01*
X003860Y021733D01*
X004004Y022046D02*
X024622Y022046D01*
X024622Y022110D02*
X024622Y021954D01*
X025029Y021954D01*
X025029Y022360D01*
X024873Y022360D01*
X024622Y022110D01*
X024675Y022163D02*
X000336Y022163D01*
X000336Y022279D02*
X024792Y022279D01*
X025029Y022279D02*
X025071Y022279D01*
X025071Y022360D02*
X025227Y022360D01*
X025477Y022110D01*
X025477Y021954D01*
X025071Y021954D01*
X025071Y021912D01*
X025477Y021912D01*
X025477Y021756D01*
X025227Y021505D01*
X025071Y021505D01*
X025071Y021912D01*
X025029Y021912D01*
X025029Y021505D01*
X024873Y021505D01*
X024622Y021756D01*
X024622Y021912D01*
X025029Y021912D01*
X025029Y021954D01*
X025071Y021954D01*
X025071Y022360D01*
X025071Y022163D02*
X025029Y022163D01*
X025029Y022046D02*
X025071Y022046D01*
X025071Y021930D02*
X025604Y021930D01*
X025604Y022046D02*
X025477Y022046D01*
X025424Y022163D02*
X025650Y022163D01*
X025604Y022117D02*
X025604Y021748D01*
X025865Y021487D01*
X026234Y021487D01*
X026495Y021748D01*
X026495Y022117D01*
X026234Y022378D01*
X025865Y022378D01*
X025604Y022117D01*
X025766Y022279D02*
X025307Y022279D01*
X025029Y021930D02*
X004151Y021930D01*
X004200Y021813D02*
X024622Y021813D01*
X024682Y021696D02*
X004204Y021696D01*
X004169Y021580D02*
X024798Y021580D01*
X025029Y021580D02*
X025071Y021580D01*
X025071Y021696D02*
X025029Y021696D01*
X025029Y021813D02*
X025071Y021813D01*
X025301Y021580D02*
X025773Y021580D01*
X025656Y021696D02*
X025418Y021696D01*
X025477Y021813D02*
X025604Y021813D01*
X026327Y021580D02*
X032797Y021580D01*
X032797Y021696D02*
X029618Y021696D01*
X029586Y021665D02*
X029984Y022063D01*
X029984Y022625D01*
X029586Y023023D01*
X029024Y023023D01*
X028626Y022625D01*
X028626Y022063D01*
X029024Y021665D01*
X029586Y021665D01*
X029734Y021813D02*
X032797Y021813D01*
X032797Y021930D02*
X029851Y021930D01*
X029968Y022046D02*
X032797Y022046D01*
X032797Y022163D02*
X029984Y022163D01*
X029984Y022279D02*
X032797Y022279D01*
X032797Y022396D02*
X029984Y022396D01*
X029984Y022513D02*
X032797Y022513D01*
X032797Y022629D02*
X032589Y022629D01*
X032608Y022746D02*
X032797Y022746D01*
X033033Y022914D02*
X032855Y023092D01*
X032061Y023092D01*
X031514Y023096D02*
X000336Y023096D01*
X000336Y023212D02*
X031514Y023212D01*
X031514Y023329D02*
X000336Y023329D01*
X000336Y023445D02*
X031514Y023445D01*
X031540Y023562D02*
X026309Y023562D01*
X026234Y023487D02*
X026495Y023748D01*
X026495Y024117D01*
X026234Y024378D01*
X025865Y024378D01*
X025604Y024117D01*
X025604Y023748D01*
X025865Y023487D01*
X026234Y023487D01*
X026426Y023679D02*
X031514Y023679D01*
X031514Y023795D02*
X026495Y023795D01*
X026495Y023912D02*
X031514Y023912D01*
X031514Y024029D02*
X026495Y024029D01*
X026467Y024145D02*
X031514Y024145D01*
X031514Y024262D02*
X026350Y024262D01*
X025749Y024262D02*
X025325Y024262D01*
X025227Y024360D02*
X025071Y024360D01*
X025071Y023954D01*
X025477Y023954D01*
X025477Y024110D01*
X025227Y024360D01*
X025071Y024262D02*
X025029Y024262D01*
X025029Y024360D02*
X024873Y024360D01*
X024622Y024110D01*
X024622Y023954D01*
X025029Y023954D01*
X025029Y024360D01*
X025029Y024145D02*
X025071Y024145D01*
X025071Y024029D02*
X025029Y024029D01*
X025029Y023954D02*
X025071Y023954D01*
X025071Y023912D01*
X025604Y023912D01*
X025604Y024029D02*
X025477Y024029D01*
X025477Y023912D02*
X025071Y023912D01*
X025071Y023505D01*
X025227Y023505D01*
X025477Y023756D01*
X025477Y023912D01*
X025477Y023795D02*
X025604Y023795D01*
X025674Y023679D02*
X025400Y023679D01*
X025283Y023562D02*
X025790Y023562D01*
X025071Y023562D02*
X025029Y023562D01*
X025029Y023505D02*
X025029Y023912D01*
X000336Y023912D01*
X000336Y024029D02*
X024622Y024029D01*
X024622Y023912D02*
X024622Y023756D01*
X024873Y023505D01*
X025029Y023505D01*
X025029Y023679D02*
X025071Y023679D01*
X025071Y023795D02*
X025029Y023795D01*
X025029Y023912D02*
X025071Y023912D01*
X025029Y023912D02*
X024622Y023912D01*
X024622Y023795D02*
X000336Y023795D01*
X000336Y023679D02*
X024699Y023679D01*
X024816Y023562D02*
X000336Y023562D01*
X000336Y022979D02*
X028980Y022979D01*
X028863Y022862D02*
X000336Y022862D01*
X000336Y022746D02*
X028746Y022746D01*
X028630Y022629D02*
X000336Y022629D01*
X000336Y022513D02*
X028626Y022513D01*
X028626Y022396D02*
X000336Y022396D01*
X000336Y022046D02*
X003716Y022046D01*
X003569Y021930D02*
X000336Y021930D01*
X000336Y021813D02*
X003520Y021813D01*
X003515Y021696D02*
X000336Y021696D01*
X000336Y021580D02*
X003298Y021580D01*
X003200Y021463D02*
X000336Y021463D01*
X000336Y021347D02*
X003161Y021347D01*
X002909Y021230D02*
X000336Y021230D01*
X000336Y021113D02*
X002808Y021113D01*
X002767Y020997D02*
X000336Y020997D01*
X000336Y020880D02*
X001772Y020880D01*
X001668Y020763D02*
X000336Y020763D01*
X000336Y020647D02*
X001626Y020647D01*
X001423Y020530D02*
X000336Y020530D01*
X000336Y020414D02*
X001316Y020414D01*
X001271Y020297D02*
X000336Y020297D01*
X000336Y020180D02*
X001271Y020180D01*
X001315Y020064D02*
X000336Y020064D01*
X000336Y019947D02*
X001380Y019947D01*
X001380Y019831D02*
X000336Y019831D01*
X000336Y019714D02*
X001380Y019714D01*
X001380Y019597D02*
X000336Y019597D01*
X000336Y019481D02*
X001380Y019481D01*
X001380Y019364D02*
X000336Y019364D01*
X000336Y019248D02*
X001380Y019248D01*
X001380Y019131D02*
X000336Y019131D01*
X000336Y019014D02*
X001380Y019014D01*
X001380Y018898D02*
X000336Y018898D01*
X000336Y018781D02*
X001380Y018781D01*
X001380Y018664D02*
X000336Y018664D01*
X000336Y018548D02*
X001380Y018548D01*
X001380Y018431D02*
X000336Y018431D01*
X000336Y018315D02*
X001380Y018315D01*
X001380Y018198D02*
X000336Y018198D01*
X000336Y018081D02*
X001380Y018081D01*
X001380Y017965D02*
X000336Y017965D01*
X000336Y017848D02*
X001380Y017848D01*
X001380Y017732D02*
X000336Y017732D01*
X000336Y017615D02*
X001380Y017615D01*
X001380Y017498D02*
X000336Y017498D01*
X000336Y017382D02*
X001380Y017382D01*
X001380Y017265D02*
X000336Y017265D01*
X000336Y017149D02*
X001380Y017149D01*
X001380Y017032D02*
X000336Y017032D01*
X000336Y016915D02*
X001380Y016915D01*
X001380Y016799D02*
X000336Y016799D01*
X000336Y016682D02*
X001380Y016682D01*
X001380Y016565D02*
X000336Y016565D01*
X000336Y016449D02*
X001380Y016449D01*
X001380Y016332D02*
X000336Y016332D01*
X000336Y016216D02*
X001380Y016216D01*
X001380Y016099D02*
X000336Y016099D01*
X000336Y015982D02*
X001380Y015982D01*
X001380Y015866D02*
X000336Y015866D01*
X000336Y015749D02*
X001380Y015749D01*
X001380Y015633D02*
X000336Y015633D01*
X000336Y015516D02*
X001380Y015516D01*
X001380Y015399D02*
X000336Y015399D01*
X000336Y015283D02*
X001380Y015283D01*
X001380Y015166D02*
X000336Y015166D01*
X000336Y015050D02*
X001380Y015050D01*
X001380Y014933D02*
X000336Y014933D01*
X000336Y014816D02*
X001380Y014816D01*
X001380Y014700D02*
X000336Y014700D01*
X000336Y014583D02*
X001380Y014583D01*
X001380Y014466D02*
X000336Y014466D01*
X000336Y014350D02*
X001380Y014350D01*
X001380Y014233D02*
X000336Y014233D01*
X000336Y014117D02*
X001380Y014117D01*
X001380Y014000D02*
X000336Y014000D01*
X000336Y013883D02*
X001380Y013883D01*
X001380Y013767D02*
X000336Y013767D01*
X000336Y013650D02*
X001380Y013650D01*
X001380Y013534D02*
X000336Y013534D01*
X000336Y013417D02*
X001380Y013417D01*
X001380Y013300D02*
X000336Y013300D01*
X000336Y013184D02*
X001380Y013184D01*
X001380Y013067D02*
X000336Y013067D01*
X000336Y012951D02*
X001380Y012951D01*
X001380Y012834D02*
X001317Y012834D01*
X001104Y012560D02*
X001537Y012560D01*
X001616Y012639D01*
X001616Y020237D01*
X002206Y020180D02*
X002876Y020180D01*
X002876Y020064D02*
X002206Y020064D01*
X002206Y019947D02*
X002876Y019947D01*
X002876Y019831D02*
X002206Y019831D01*
X002206Y019714D02*
X002876Y019714D01*
X002876Y019597D02*
X002206Y019597D01*
X002206Y019481D02*
X002876Y019481D01*
X002876Y019364D02*
X002206Y019364D01*
X002206Y019248D02*
X002876Y019248D01*
X002876Y019131D02*
X002206Y019131D01*
X002206Y019014D02*
X002876Y019014D01*
X002876Y018898D02*
X002206Y018898D01*
X002206Y018781D02*
X002876Y018781D01*
X002876Y018664D02*
X002206Y018664D01*
X002206Y018548D02*
X002876Y018548D01*
X002876Y018431D02*
X002206Y018431D01*
X002206Y018315D02*
X002876Y018315D01*
X002876Y018198D02*
X002206Y018198D01*
X002206Y018081D02*
X002876Y018081D01*
X002876Y017965D02*
X002206Y017965D01*
X002206Y017848D02*
X002876Y017848D01*
X002876Y017732D02*
X002206Y017732D01*
X002206Y017615D02*
X002876Y017615D01*
X002876Y017498D02*
X002206Y017498D01*
X002206Y017382D02*
X002876Y017382D01*
X002876Y017265D02*
X002206Y017265D01*
X002206Y017149D02*
X002876Y017149D01*
X002876Y017032D02*
X002206Y017032D01*
X002206Y016915D02*
X002876Y016915D01*
X002876Y016799D02*
X002206Y016799D01*
X002206Y016682D02*
X002876Y016682D01*
X002876Y016565D02*
X002206Y016565D01*
X002206Y016449D02*
X002876Y016449D01*
X002876Y016332D02*
X002206Y016332D01*
X002206Y016216D02*
X002876Y016216D01*
X002876Y016099D02*
X002206Y016099D01*
X002206Y015982D02*
X002876Y015982D01*
X002876Y015866D02*
X002206Y015866D01*
X002206Y015749D02*
X002876Y015749D01*
X002876Y015633D02*
X002206Y015633D01*
X002206Y015516D02*
X002228Y015516D01*
X002814Y015516D02*
X002876Y015516D01*
X004096Y015516D02*
X008340Y015516D01*
X008374Y015599D02*
X008251Y015303D01*
X008251Y014982D01*
X008374Y014685D01*
X008601Y014458D01*
X008898Y014335D01*
X009219Y014335D01*
X009515Y014458D01*
X009742Y014685D01*
X009865Y014982D01*
X009865Y015303D01*
X009742Y015599D01*
X009515Y015826D01*
X009219Y015949D01*
X008898Y015949D01*
X008601Y015826D01*
X008374Y015599D01*
X008407Y015633D02*
X004096Y015633D01*
X004096Y015749D02*
X008524Y015749D01*
X008696Y015866D02*
X004096Y015866D01*
X004096Y015982D02*
X013611Y015982D01*
X013592Y015935D02*
X013592Y015751D01*
X013662Y015581D01*
X013792Y015451D01*
X013962Y015380D01*
X014146Y015380D01*
X014316Y015451D01*
X014447Y015581D01*
X014517Y015751D01*
X014517Y015935D01*
X014447Y016105D01*
X014316Y016235D01*
X014146Y016306D01*
X013962Y016306D01*
X013792Y016235D01*
X013662Y016105D01*
X013592Y015935D01*
X013592Y015866D02*
X009420Y015866D01*
X009593Y015749D02*
X013592Y015749D01*
X013641Y015633D02*
X009709Y015633D01*
X009777Y015516D02*
X013727Y015516D01*
X013916Y015399D02*
X009825Y015399D01*
X009865Y015283D02*
X021243Y015283D01*
X021243Y015303D02*
X021243Y014982D01*
X021366Y014685D01*
X021593Y014458D01*
X021890Y014335D01*
X022211Y014335D01*
X022508Y014458D01*
X022735Y014685D01*
X022857Y014982D01*
X022857Y015303D01*
X022735Y015599D01*
X022508Y015826D01*
X022211Y015949D01*
X021890Y015949D01*
X021593Y015826D01*
X021366Y015599D01*
X021243Y015303D01*
X021283Y015399D02*
X017192Y015399D01*
X017146Y015380D02*
X017316Y015451D01*
X017447Y015581D01*
X017517Y015751D01*
X017517Y015935D01*
X017447Y016105D01*
X017316Y016235D01*
X017146Y016306D01*
X016962Y016306D01*
X016792Y016235D01*
X016662Y016105D01*
X016592Y015935D01*
X016592Y015751D01*
X016662Y015581D01*
X016792Y015451D01*
X016962Y015380D01*
X017146Y015380D01*
X016916Y015399D02*
X014192Y015399D01*
X014382Y015516D02*
X016727Y015516D01*
X016641Y015633D02*
X014468Y015633D01*
X014516Y015749D02*
X016592Y015749D01*
X016592Y015866D02*
X014517Y015866D01*
X014497Y015982D02*
X016611Y015982D01*
X016660Y016099D02*
X014449Y016099D01*
X014336Y016216D02*
X016773Y016216D01*
X017336Y016216D02*
X028911Y016216D01*
X028977Y016281D02*
X028579Y015884D01*
X028579Y015321D01*
X028977Y014923D01*
X029540Y014923D01*
X029937Y015321D01*
X029937Y015884D01*
X029540Y016281D01*
X028977Y016281D01*
X028794Y016099D02*
X017449Y016099D01*
X017497Y015982D02*
X028678Y015982D01*
X028579Y015866D02*
X022412Y015866D01*
X022585Y015749D02*
X028579Y015749D01*
X028579Y015633D02*
X022701Y015633D01*
X022769Y015516D02*
X028579Y015516D01*
X028579Y015399D02*
X022817Y015399D01*
X022857Y015283D02*
X028617Y015283D01*
X028734Y015166D02*
X022857Y015166D01*
X022857Y015050D02*
X028851Y015050D01*
X028967Y014933D02*
X022837Y014933D01*
X022789Y014816D02*
X030198Y014816D01*
X030198Y014700D02*
X022741Y014700D01*
X022633Y014583D02*
X030198Y014583D01*
X030198Y014466D02*
X022516Y014466D01*
X022247Y014350D02*
X030198Y014350D01*
X030198Y014233D02*
X005134Y014233D01*
X005218Y014350D02*
X008862Y014350D01*
X008593Y014466D02*
X005257Y014466D01*
X005257Y014583D02*
X008476Y014583D01*
X008368Y014700D02*
X005221Y014700D01*
X005141Y014816D02*
X008320Y014816D01*
X008271Y014933D02*
X004948Y014933D01*
X004741Y014933D02*
X004096Y014933D01*
X004096Y015050D02*
X008251Y015050D01*
X008251Y015166D02*
X004096Y015166D01*
X004096Y015283D02*
X008251Y015283D01*
X008291Y015399D02*
X004096Y015399D01*
X004096Y016099D02*
X011604Y016099D01*
X011665Y016074D02*
X011802Y016074D01*
X011929Y016126D01*
X012026Y016223D01*
X012078Y016350D01*
X012078Y016487D01*
X012026Y016613D01*
X011929Y016710D01*
X011802Y016763D01*
X011665Y016763D01*
X011539Y016710D01*
X011442Y016613D01*
X011389Y016487D01*
X011389Y016350D01*
X011442Y016223D01*
X011539Y016126D01*
X011665Y016074D01*
X011864Y016099D02*
X012707Y016099D01*
X012720Y016087D02*
X012846Y016034D01*
X012983Y016034D01*
X013110Y016087D01*
X013207Y016184D01*
X013259Y016310D01*
X013259Y016447D01*
X013207Y016574D01*
X013110Y016671D01*
X012983Y016723D01*
X012846Y016723D01*
X012720Y016671D01*
X012623Y016574D01*
X012570Y016447D01*
X012570Y016310D01*
X012623Y016184D01*
X012720Y016087D01*
X012610Y016216D02*
X012019Y016216D01*
X012071Y016332D02*
X012570Y016332D01*
X012571Y016449D02*
X012078Y016449D01*
X012046Y016565D02*
X012619Y016565D01*
X012747Y016682D02*
X011957Y016682D01*
X011511Y016682D02*
X004096Y016682D01*
X004096Y016565D02*
X011422Y016565D01*
X011389Y016449D02*
X004096Y016449D01*
X004096Y016332D02*
X011397Y016332D01*
X011449Y016216D02*
X004096Y016216D01*
X004096Y016799D02*
X028742Y016799D01*
X028858Y016682D02*
X013083Y016682D01*
X013210Y016565D02*
X028975Y016565D01*
X028977Y016563D02*
X029540Y016563D01*
X029937Y016961D01*
X029937Y017524D01*
X029540Y017922D01*
X028977Y017922D01*
X028579Y017524D01*
X028579Y016961D01*
X028977Y016563D01*
X028625Y016915D02*
X004096Y016915D01*
X004096Y017032D02*
X028579Y017032D01*
X028579Y017149D02*
X004096Y017149D01*
X004096Y017265D02*
X028579Y017265D01*
X028579Y017382D02*
X020784Y017382D01*
X020849Y017409D02*
X020963Y017522D01*
X021024Y017671D01*
X021024Y017831D01*
X020963Y017979D01*
X020849Y018093D01*
X020701Y018154D01*
X020541Y018154D01*
X020392Y018093D01*
X020326Y018026D01*
X020259Y018093D01*
X020111Y018154D01*
X019950Y018154D01*
X019802Y018093D01*
X019735Y018026D01*
X019668Y018093D01*
X019520Y018154D01*
X019359Y018154D01*
X019211Y018093D01*
X019144Y018026D01*
X019078Y018093D01*
X018929Y018154D01*
X018769Y018154D01*
X018621Y018093D01*
X018554Y018026D01*
X018487Y018093D01*
X018339Y018154D01*
X018178Y018154D01*
X018030Y018093D01*
X017951Y018013D01*
X017914Y018050D01*
X017851Y018092D01*
X017781Y018121D01*
X017706Y018136D01*
X017668Y018136D01*
X017630Y018136D01*
X017556Y018121D01*
X017486Y018092D01*
X017422Y018050D01*
X017386Y018013D01*
X017306Y018093D01*
X017158Y018154D01*
X016997Y018154D01*
X016849Y018093D01*
X016782Y018026D01*
X016716Y018093D01*
X016567Y018154D01*
X016407Y018154D01*
X016258Y018093D01*
X016192Y018026D01*
X016125Y018093D01*
X015977Y018154D01*
X015816Y018154D01*
X015668Y018093D01*
X015601Y018026D01*
X015534Y018093D01*
X015386Y018154D01*
X015226Y018154D01*
X015077Y018093D01*
X015011Y018026D01*
X014944Y018093D01*
X014796Y018154D01*
X014635Y018154D01*
X014487Y018093D01*
X014420Y018026D01*
X014353Y018093D01*
X014205Y018154D01*
X014045Y018154D01*
X013896Y018093D01*
X013830Y018026D01*
X013763Y018093D01*
X013615Y018154D01*
X013454Y018154D01*
X013306Y018093D01*
X013239Y018026D01*
X013172Y018093D01*
X013024Y018154D01*
X012863Y018154D01*
X012715Y018093D01*
X012648Y018026D01*
X012582Y018093D01*
X012433Y018154D01*
X012273Y018154D01*
X012125Y018093D01*
X012058Y018026D01*
X011991Y018093D01*
X011843Y018154D01*
X011682Y018154D01*
X011534Y018093D01*
X011467Y018026D01*
X011401Y018093D01*
X011252Y018154D01*
X011092Y018154D01*
X010943Y018093D01*
X010830Y017979D01*
X010769Y017831D01*
X010769Y017671D01*
X010830Y017522D01*
X010943Y017409D01*
X011092Y017347D01*
X011252Y017347D01*
X011401Y017409D01*
X011467Y017475D01*
X011534Y017409D01*
X011682Y017347D01*
X011843Y017347D01*
X011991Y017409D01*
X012058Y017475D01*
X012125Y017409D01*
X012273Y017347D01*
X012433Y017347D01*
X012582Y017409D01*
X012648Y017475D01*
X012715Y017409D01*
X012863Y017347D01*
X013024Y017347D01*
X013172Y017409D01*
X013239Y017475D01*
X013306Y017409D01*
X013454Y017347D01*
X013615Y017347D01*
X013763Y017409D01*
X013830Y017475D01*
X013896Y017409D01*
X014045Y017347D01*
X014205Y017347D01*
X014353Y017409D01*
X014420Y017475D01*
X014487Y017409D01*
X014635Y017347D01*
X014796Y017347D01*
X014944Y017409D01*
X015011Y017475D01*
X015077Y017409D01*
X015226Y017347D01*
X015386Y017347D01*
X015534Y017409D01*
X015601Y017475D01*
X015668Y017409D01*
X015816Y017347D01*
X015977Y017347D01*
X016125Y017409D01*
X016192Y017475D01*
X016258Y017409D01*
X016407Y017347D01*
X016567Y017347D01*
X016716Y017409D01*
X016782Y017475D01*
X016849Y017409D01*
X016997Y017347D01*
X017158Y017347D01*
X017306Y017409D01*
X017386Y017488D01*
X017422Y017451D01*
X017486Y017409D01*
X017556Y017380D01*
X017630Y017365D01*
X017668Y017365D01*
X017668Y017751D01*
X017668Y018136D01*
X017668Y017751D01*
X017668Y017751D01*
X017668Y017751D01*
X017668Y017365D01*
X017706Y017365D01*
X017781Y017380D01*
X017851Y017409D01*
X017914Y017451D01*
X017951Y017488D01*
X018030Y017409D01*
X018178Y017347D01*
X018339Y017347D01*
X018487Y017409D01*
X018554Y017475D01*
X018621Y017409D01*
X018769Y017347D01*
X018929Y017347D01*
X019078Y017409D01*
X019144Y017475D01*
X019211Y017409D01*
X019359Y017347D01*
X019520Y017347D01*
X019668Y017409D01*
X019735Y017475D01*
X019802Y017409D01*
X019950Y017347D01*
X020111Y017347D01*
X020259Y017409D01*
X020326Y017475D01*
X020392Y017409D01*
X020541Y017347D01*
X020701Y017347D01*
X020849Y017409D01*
X020939Y017498D02*
X023561Y017498D01*
X023609Y017450D02*
X023739Y017396D01*
X023880Y017396D01*
X024011Y017450D01*
X024110Y017550D01*
X024164Y017680D01*
X024164Y017821D01*
X024110Y017951D01*
X024011Y018051D01*
X023880Y018105D01*
X023739Y018105D01*
X023609Y018051D01*
X023509Y017951D01*
X023456Y017821D01*
X023456Y017680D01*
X023509Y017550D01*
X023609Y017450D01*
X023483Y017615D02*
X021001Y017615D01*
X021024Y017732D02*
X023456Y017732D01*
X023467Y017848D02*
X021017Y017848D01*
X020969Y017965D02*
X023523Y017965D01*
X023682Y018081D02*
X023036Y018081D01*
X023014Y018060D02*
X023166Y018212D01*
X023249Y018411D01*
X023249Y018626D01*
X023166Y018825D01*
X023014Y018977D01*
X022815Y019060D01*
X022600Y019060D01*
X022401Y018977D01*
X022249Y018825D01*
X022166Y018626D01*
X022166Y018411D01*
X022249Y018212D01*
X022401Y018060D01*
X022600Y017977D01*
X022815Y017977D01*
X023014Y018060D01*
X023153Y018198D02*
X024711Y018198D01*
X024622Y018110D02*
X024622Y017954D01*
X025029Y017954D01*
X025029Y018360D01*
X024873Y018360D01*
X024622Y018110D01*
X024622Y018081D02*
X023938Y018081D01*
X024097Y017965D02*
X024622Y017965D01*
X024622Y017912D02*
X024622Y017756D01*
X024873Y017505D01*
X025029Y017505D01*
X025029Y017912D01*
X025071Y017912D01*
X025071Y017954D01*
X025477Y017954D01*
X025477Y018110D01*
X025227Y018360D01*
X025071Y018360D01*
X025071Y017954D01*
X025029Y017954D01*
X025029Y017912D01*
X024622Y017912D01*
X024622Y017848D02*
X024153Y017848D01*
X024164Y017732D02*
X024646Y017732D01*
X024763Y017615D02*
X024137Y017615D01*
X024059Y017498D02*
X025854Y017498D01*
X025865Y017487D02*
X026234Y017487D01*
X026495Y017748D01*
X026495Y018117D01*
X026234Y018378D01*
X025865Y018378D01*
X025604Y018117D01*
X025604Y017748D01*
X025865Y017487D01*
X025737Y017615D02*
X025336Y017615D01*
X025227Y017505D02*
X025477Y017756D01*
X025477Y017912D01*
X025071Y017912D01*
X025071Y017505D01*
X025227Y017505D01*
X025071Y017615D02*
X025029Y017615D01*
X025029Y017732D02*
X025071Y017732D01*
X025071Y017848D02*
X025029Y017848D01*
X025029Y017965D02*
X025071Y017965D01*
X025071Y018081D02*
X025029Y018081D01*
X025029Y018198D02*
X025071Y018198D01*
X025071Y018315D02*
X025029Y018315D01*
X024827Y018315D02*
X023209Y018315D01*
X023249Y018431D02*
X030198Y018431D01*
X030198Y018315D02*
X026298Y018315D01*
X026414Y018198D02*
X030198Y018198D01*
X030198Y018081D02*
X026495Y018081D01*
X026495Y017965D02*
X030198Y017965D01*
X030198Y017848D02*
X029613Y017848D01*
X029730Y017732D02*
X030198Y017732D01*
X030198Y017615D02*
X029846Y017615D01*
X029937Y017498D02*
X030198Y017498D01*
X030198Y017382D02*
X029937Y017382D01*
X029937Y017265D02*
X030198Y017265D01*
X030198Y017149D02*
X029937Y017149D01*
X029937Y017032D02*
X030198Y017032D01*
X030198Y016915D02*
X029891Y016915D01*
X029775Y016799D02*
X030198Y016799D01*
X030198Y016682D02*
X029658Y016682D01*
X029542Y016565D02*
X030198Y016565D01*
X030198Y016449D02*
X013259Y016449D01*
X013259Y016332D02*
X030198Y016332D01*
X030198Y016216D02*
X029605Y016216D01*
X029722Y016099D02*
X030198Y016099D01*
X030198Y015982D02*
X029839Y015982D01*
X029937Y015866D02*
X030198Y015866D01*
X030198Y015749D02*
X029937Y015749D01*
X029937Y015633D02*
X030198Y015633D01*
X030198Y015516D02*
X029937Y015516D01*
X029937Y015399D02*
X030198Y015399D01*
X030198Y015283D02*
X029899Y015283D01*
X029782Y015166D02*
X030198Y015166D01*
X030198Y015050D02*
X029666Y015050D01*
X029549Y014933D02*
X030198Y014933D01*
X030671Y015516D02*
X030789Y015516D01*
X030789Y015633D02*
X030671Y015633D01*
X030671Y015749D02*
X030789Y015749D01*
X030789Y015866D02*
X030671Y015866D01*
X030671Y015982D02*
X030789Y015982D01*
X030789Y016099D02*
X030671Y016099D01*
X030671Y016216D02*
X030789Y016216D01*
X030789Y016332D02*
X030671Y016332D01*
X030671Y016449D02*
X030789Y016449D01*
X030789Y016565D02*
X030671Y016565D01*
X030671Y016682D02*
X030789Y016682D01*
X030789Y016799D02*
X030671Y016799D01*
X030671Y016915D02*
X030789Y016915D01*
X030789Y017032D02*
X030671Y017032D01*
X030671Y017149D02*
X030789Y017149D01*
X030789Y017265D02*
X030671Y017265D01*
X030671Y017382D02*
X030789Y017382D01*
X030789Y017498D02*
X030671Y017498D01*
X030671Y017615D02*
X030789Y017615D01*
X030789Y017732D02*
X030671Y017732D01*
X030671Y017848D02*
X030822Y017848D01*
X030939Y017965D02*
X030671Y017965D01*
X030671Y018081D02*
X031055Y018081D01*
X031172Y018198D02*
X030671Y018198D01*
X030671Y018315D02*
X031467Y018315D01*
X031467Y018431D02*
X030671Y018431D01*
X030671Y018548D02*
X031467Y018548D01*
X031467Y018664D02*
X030705Y018664D01*
X030435Y018728D02*
X030710Y019004D01*
X031985Y019004D01*
X032014Y018975D01*
X031467Y019248D02*
X004096Y019248D01*
X004096Y019364D02*
X011608Y019364D01*
X011617Y019354D02*
X011744Y019302D01*
X011881Y019302D01*
X012008Y019354D01*
X012105Y019451D01*
X012157Y019578D01*
X012157Y019715D01*
X012105Y019842D01*
X012008Y019938D01*
X011881Y019991D01*
X011744Y019991D01*
X011617Y019938D01*
X011521Y019842D01*
X011468Y019715D01*
X011468Y019578D01*
X011521Y019451D01*
X011617Y019354D01*
X011508Y019481D02*
X004096Y019481D01*
X004096Y019597D02*
X011468Y019597D01*
X011468Y019714D02*
X004096Y019714D01*
X004096Y019831D02*
X011516Y019831D01*
X011638Y019947D02*
X004096Y019947D01*
X004096Y020064D02*
X024622Y020064D01*
X024622Y020110D02*
X024622Y019954D01*
X025029Y019954D01*
X025029Y020360D01*
X024873Y020360D01*
X024622Y020110D01*
X024693Y020180D02*
X004096Y020180D01*
X004096Y020297D02*
X024810Y020297D01*
X025029Y020297D02*
X025071Y020297D01*
X025071Y020360D02*
X025227Y020360D01*
X025477Y020110D01*
X025477Y019954D01*
X025071Y019954D01*
X025071Y019912D01*
X025477Y019912D01*
X025477Y019756D01*
X025227Y019505D01*
X025071Y019505D01*
X025071Y019912D01*
X025029Y019912D01*
X025029Y019505D01*
X024873Y019505D01*
X024622Y019756D01*
X024622Y019912D01*
X025029Y019912D01*
X025029Y019954D01*
X025071Y019954D01*
X025071Y020360D01*
X025071Y020180D02*
X025029Y020180D01*
X025029Y020064D02*
X025071Y020064D01*
X025071Y019947D02*
X025604Y019947D01*
X025604Y019831D02*
X025477Y019831D01*
X025435Y019714D02*
X025638Y019714D01*
X025604Y019748D02*
X025865Y019487D01*
X026234Y019487D01*
X026495Y019748D01*
X026495Y020117D01*
X026234Y020378D01*
X025865Y020378D01*
X025604Y020117D01*
X025604Y019748D01*
X025755Y019597D02*
X025319Y019597D01*
X025071Y019597D02*
X025029Y019597D01*
X025029Y019714D02*
X025071Y019714D01*
X025071Y019831D02*
X025029Y019831D01*
X025029Y019947D02*
X011987Y019947D01*
X012109Y019831D02*
X024622Y019831D01*
X024664Y019714D02*
X012157Y019714D01*
X012157Y019597D02*
X024781Y019597D01*
X025477Y020064D02*
X025604Y020064D01*
X025667Y020180D02*
X025406Y020180D01*
X025290Y020297D02*
X025784Y020297D01*
X026315Y020297D02*
X028708Y020297D01*
X028825Y020180D02*
X026432Y020180D01*
X026495Y020064D02*
X028941Y020064D01*
X028977Y020028D02*
X028579Y020426D01*
X028579Y020988D01*
X028977Y021386D01*
X029540Y021386D01*
X029937Y020988D01*
X029937Y020426D01*
X029540Y020028D01*
X028977Y020028D01*
X028591Y020414D02*
X004096Y020414D01*
X004096Y020530D02*
X028579Y020530D01*
X028579Y020647D02*
X004096Y020647D01*
X004096Y020763D02*
X028579Y020763D01*
X028579Y020880D02*
X004096Y020880D01*
X004096Y020997D02*
X028587Y020997D01*
X028704Y021113D02*
X004096Y021113D01*
X004096Y021230D02*
X028821Y021230D01*
X028937Y021347D02*
X004096Y021347D01*
X004096Y021463D02*
X032797Y021463D01*
X032797Y021347D02*
X029579Y021347D01*
X029696Y021230D02*
X032797Y021230D01*
X032797Y021113D02*
X029813Y021113D01*
X029929Y020997D02*
X032797Y020997D01*
X032797Y020880D02*
X029937Y020880D01*
X029937Y020763D02*
X032797Y020763D01*
X032797Y020647D02*
X029937Y020647D01*
X029937Y020530D02*
X032797Y020530D01*
X032797Y020414D02*
X032550Y020414D01*
X032561Y020297D02*
X032797Y020297D01*
X032797Y020180D02*
X032561Y020180D01*
X032561Y020064D02*
X032797Y020064D01*
X032797Y019947D02*
X032561Y019947D01*
X032561Y019831D02*
X032797Y019831D01*
X032797Y019714D02*
X032561Y019714D01*
X032561Y019597D02*
X032797Y019597D01*
X032797Y019481D02*
X032526Y019481D01*
X032561Y019364D02*
X032797Y019364D01*
X032797Y019248D02*
X032561Y019248D01*
X032561Y019131D02*
X032797Y019131D01*
X032797Y019014D02*
X032561Y019014D01*
X032561Y018898D02*
X032797Y018898D01*
X032797Y018781D02*
X032561Y018781D01*
X032561Y018664D02*
X032797Y018664D01*
X032797Y018548D02*
X032561Y018548D01*
X032561Y018431D02*
X032797Y018431D01*
X032797Y018315D02*
X032561Y018315D01*
X032836Y017993D02*
X032017Y017993D01*
X032014Y017991D01*
X031298Y017991D01*
X031025Y017717D01*
X031025Y007875D01*
X031025Y002954D01*
X031104Y002835D01*
X031891Y002835D01*
X031900Y002826D01*
X031911Y002826D01*
X032458Y002805D02*
X039352Y002805D01*
X039352Y002689D02*
X032458Y002689D01*
X032458Y002572D02*
X039352Y002572D01*
X039352Y002456D02*
X032458Y002456D01*
X032414Y002339D02*
X039352Y002339D01*
X039352Y002222D02*
X029834Y002222D01*
X029834Y002106D02*
X039352Y002106D01*
X039352Y001989D02*
X029834Y001989D01*
X029834Y001873D02*
X039352Y001873D01*
X039352Y001756D02*
X029793Y001756D01*
X029834Y001797D02*
X029436Y001399D01*
X028874Y001399D01*
X028476Y001797D01*
X028476Y002360D01*
X028874Y002757D01*
X029436Y002757D01*
X029834Y002360D01*
X029834Y001797D01*
X029677Y001639D02*
X038652Y001639D01*
X038659Y001643D02*
X038522Y001586D01*
X038417Y001480D01*
X038360Y001343D01*
X038360Y001194D01*
X038417Y001057D01*
X038522Y000951D01*
X038659Y000894D01*
X038808Y000894D01*
X038946Y000951D01*
X039051Y001057D01*
X039108Y001194D01*
X039108Y001343D01*
X039051Y001480D01*
X038946Y001586D01*
X038808Y001643D01*
X038659Y001643D01*
X038816Y001639D02*
X039352Y001639D01*
X039352Y001523D02*
X039009Y001523D01*
X039082Y001406D02*
X039352Y001406D01*
X039352Y001290D02*
X039108Y001290D01*
X039099Y001173D02*
X039352Y001173D01*
X039352Y001056D02*
X039051Y001056D01*
X038917Y000940D02*
X039352Y000940D01*
X039352Y000823D02*
X000336Y000823D01*
X000336Y000706D02*
X039352Y000706D01*
X039352Y000650D02*
X000336Y000650D01*
X000336Y027068D01*
X007704Y027068D01*
X007683Y027046D01*
X007629Y026916D01*
X007629Y026775D01*
X007683Y026645D01*
X007782Y026545D01*
X007913Y026491D01*
X008054Y026491D01*
X008184Y026545D01*
X008283Y026645D01*
X008337Y026775D01*
X008337Y026916D01*
X008283Y027046D01*
X008262Y027068D01*
X023531Y027068D01*
X023509Y027046D01*
X023456Y026916D01*
X023456Y026775D01*
X023509Y026645D01*
X023609Y026545D01*
X023739Y026491D01*
X023880Y026491D01*
X024011Y026545D01*
X024110Y026645D01*
X024164Y026775D01*
X024164Y026916D01*
X024110Y027046D01*
X024088Y027068D01*
X039352Y027068D01*
X039352Y000650D01*
X038550Y000940D02*
X028253Y000940D01*
X028342Y001056D02*
X038417Y001056D01*
X038369Y001173D02*
X028337Y001173D01*
X028337Y001290D02*
X038360Y001290D01*
X038386Y001406D02*
X029443Y001406D01*
X029560Y001523D02*
X038459Y001523D01*
X039352Y002922D02*
X032458Y002922D01*
X032458Y003039D02*
X039352Y003039D01*
X039352Y003155D02*
X032458Y003155D01*
X032456Y003272D02*
X039352Y003272D01*
X039352Y003388D02*
X032458Y003388D01*
X032458Y003505D02*
X039352Y003505D01*
X039352Y003622D02*
X032458Y003622D01*
X032458Y003738D02*
X039352Y003738D01*
X039352Y003855D02*
X032458Y003855D01*
X032458Y003972D02*
X039352Y003972D01*
X039352Y004088D02*
X032458Y004088D01*
X032458Y004205D02*
X039352Y004205D01*
X039352Y004321D02*
X032428Y004321D01*
X032458Y004438D02*
X039352Y004438D01*
X039352Y004555D02*
X032458Y004555D01*
X032458Y004671D02*
X039352Y004671D01*
X039352Y004788D02*
X032458Y004788D01*
X032458Y004904D02*
X039352Y004904D01*
X039352Y005021D02*
X032458Y005021D01*
X032458Y005138D02*
X039352Y005138D01*
X039352Y005254D02*
X032442Y005254D01*
X031380Y005254D02*
X031261Y005254D01*
X031261Y005138D02*
X031364Y005138D01*
X031364Y005021D02*
X031261Y005021D01*
X031261Y004904D02*
X031364Y004904D01*
X031364Y004788D02*
X031261Y004788D01*
X031261Y004671D02*
X031364Y004671D01*
X031364Y004555D02*
X031261Y004555D01*
X031261Y004438D02*
X031364Y004438D01*
X031394Y004321D02*
X031261Y004321D01*
X031261Y004205D02*
X031364Y004205D01*
X031364Y004088D02*
X031261Y004088D01*
X031261Y003972D02*
X031364Y003972D01*
X031364Y003855D02*
X031261Y003855D01*
X031261Y003738D02*
X031364Y003738D01*
X031364Y003622D02*
X031261Y003622D01*
X031261Y003505D02*
X031364Y003505D01*
X031364Y003388D02*
X031261Y003388D01*
X031261Y003272D02*
X031366Y003272D01*
X031364Y003155D02*
X031261Y003155D01*
X030789Y003155D02*
X028337Y003155D01*
X028337Y003039D02*
X030789Y003039D01*
X030778Y002922D02*
X028337Y002922D01*
X028337Y002805D02*
X030839Y002805D01*
X030916Y002689D02*
X029505Y002689D01*
X029622Y002572D02*
X031364Y002572D01*
X031364Y002456D02*
X029738Y002456D01*
X029834Y002339D02*
X031408Y002339D01*
X030789Y003272D02*
X028337Y003272D01*
X028337Y003388D02*
X030789Y003388D01*
X030789Y003505D02*
X028337Y003505D01*
X028337Y003622D02*
X030789Y003622D01*
X030789Y003738D02*
X028337Y003738D01*
X028337Y003855D02*
X030789Y003855D01*
X030789Y003972D02*
X028337Y003972D01*
X028337Y004088D02*
X030789Y004088D01*
X030789Y004205D02*
X028337Y004205D01*
X028337Y004321D02*
X030789Y004321D01*
X030789Y004438D02*
X028337Y004438D01*
X028337Y004555D02*
X030789Y004555D01*
X030789Y004671D02*
X028337Y004671D01*
X028337Y004788D02*
X030789Y004788D01*
X030789Y004904D02*
X029477Y004904D01*
X029436Y004864D02*
X029834Y005262D01*
X029834Y005824D01*
X029436Y006222D01*
X028874Y006222D01*
X028476Y005824D01*
X028476Y005262D01*
X028874Y004864D01*
X029436Y004864D01*
X029594Y005021D02*
X030789Y005021D01*
X030789Y005138D02*
X029710Y005138D01*
X029827Y005254D02*
X030789Y005254D01*
X030789Y005371D02*
X029834Y005371D01*
X029834Y005487D02*
X030789Y005487D01*
X030789Y005604D02*
X029834Y005604D01*
X029834Y005721D02*
X030789Y005721D01*
X030789Y005837D02*
X029821Y005837D01*
X029705Y005954D02*
X030789Y005954D01*
X030789Y006071D02*
X029588Y006071D01*
X029471Y006187D02*
X030789Y006187D01*
X030789Y006304D02*
X028337Y006304D01*
X028337Y006420D02*
X028914Y006420D01*
X028927Y006407D02*
X029490Y006407D01*
X029887Y006805D01*
X029887Y007368D01*
X029490Y007765D01*
X028927Y007765D01*
X028529Y007368D01*
X028529Y006805D01*
X028927Y006407D01*
X028797Y006537D02*
X028337Y006537D01*
X028337Y006654D02*
X028680Y006654D01*
X028564Y006770D02*
X028337Y006770D01*
X028337Y006887D02*
X028529Y006887D01*
X028529Y007003D02*
X028337Y007003D01*
X028337Y007120D02*
X028529Y007120D01*
X028529Y007237D02*
X028337Y007237D01*
X028337Y007353D02*
X028529Y007353D01*
X028631Y007470D02*
X028337Y007470D01*
X028337Y007586D02*
X028748Y007586D01*
X028865Y007703D02*
X028337Y007703D01*
X028337Y007820D02*
X030789Y007820D01*
X030789Y007936D02*
X028337Y007936D01*
X028337Y008053D02*
X030789Y008053D01*
X030789Y008170D02*
X028284Y008170D01*
X028167Y008286D02*
X030789Y008286D01*
X030789Y008403D02*
X028051Y008403D01*
X027934Y008519D02*
X030789Y008519D01*
X030789Y008636D02*
X027791Y008636D01*
X027605Y008753D02*
X030789Y008753D01*
X030789Y008869D02*
X027345Y008869D01*
X026920Y008986D02*
X030789Y008986D01*
X030789Y009102D02*
X024699Y009102D01*
X024971Y008986D02*
X026780Y008986D01*
X026587Y008869D02*
X025184Y008869D01*
X025301Y008753D02*
X026529Y008753D01*
X026453Y008636D02*
X026453Y008600D01*
X026437Y008568D01*
X026453Y008520D01*
X026453Y006938D01*
X026393Y007078D01*
X026394Y007081D01*
X026360Y007155D01*
X026328Y007229D01*
X026325Y007230D01*
X026150Y007610D01*
X026152Y007620D01*
X026115Y007685D01*
X026084Y007753D01*
X026074Y007757D01*
X025985Y007913D01*
X025987Y007927D01*
X025944Y007984D01*
X025909Y008046D01*
X025895Y008049D01*
X025743Y008252D01*
X025744Y008258D01*
X025694Y008318D01*
X025647Y008381D01*
X025641Y008382D01*
X025537Y008506D01*
X025537Y008516D01*
X025485Y008569D01*
X025437Y008626D01*
X025426Y008627D01*
X025534Y008519D02*
X026453Y008519D01*
X026453Y008403D02*
X025623Y008403D01*
X025720Y008286D02*
X026453Y008286D01*
X026453Y008170D02*
X025805Y008170D01*
X025893Y008053D02*
X026453Y008053D01*
X026453Y007936D02*
X025980Y007936D01*
X026038Y007820D02*
X026453Y007820D01*
X026453Y007703D02*
X026107Y007703D01*
X026161Y007586D02*
X026453Y007586D01*
X026453Y007470D02*
X026214Y007470D01*
X026268Y007353D02*
X026453Y007353D01*
X026453Y007237D02*
X026322Y007237D01*
X026376Y007120D02*
X026453Y007120D01*
X026453Y007003D02*
X026425Y007003D01*
X028337Y006187D02*
X028839Y006187D01*
X028722Y006071D02*
X028337Y006071D01*
X028337Y005954D02*
X028606Y005954D01*
X028489Y005837D02*
X028337Y005837D01*
X028337Y005721D02*
X028476Y005721D01*
X028476Y005604D02*
X028337Y005604D01*
X028337Y005487D02*
X028476Y005487D01*
X028476Y005371D02*
X028337Y005371D01*
X028337Y005254D02*
X028483Y005254D01*
X028600Y005138D02*
X028337Y005138D01*
X028337Y005021D02*
X028717Y005021D01*
X028833Y004904D02*
X028337Y004904D01*
X029503Y006420D02*
X030789Y006420D01*
X030789Y006537D02*
X029619Y006537D01*
X029736Y006654D02*
X030789Y006654D01*
X030789Y006770D02*
X029853Y006770D01*
X029887Y006887D02*
X030789Y006887D01*
X030789Y007003D02*
X029887Y007003D01*
X029887Y007120D02*
X030789Y007120D01*
X030789Y007237D02*
X029887Y007237D01*
X029887Y007353D02*
X030789Y007353D01*
X030789Y007470D02*
X029785Y007470D01*
X029668Y007586D02*
X030789Y007586D01*
X030789Y007703D02*
X029552Y007703D01*
X031025Y007875D02*
X031924Y007875D01*
X031964Y007834D01*
X032511Y007820D02*
X034096Y007820D01*
X034096Y007936D02*
X032511Y007936D01*
X032511Y008053D02*
X032686Y008053D01*
X032576Y008170D02*
X032511Y008170D01*
X032503Y008286D02*
X032531Y008286D01*
X032531Y008403D02*
X032511Y008403D01*
X032511Y008519D02*
X032574Y008519D01*
X032511Y008636D02*
X032639Y008636D01*
X032639Y008753D02*
X032511Y008753D01*
X032511Y008869D02*
X032639Y008869D01*
X032639Y008986D02*
X032511Y008986D01*
X032511Y009102D02*
X032639Y009102D01*
X032639Y009219D02*
X032511Y009219D01*
X032488Y009336D02*
X032639Y009336D01*
X032639Y009452D02*
X032511Y009452D01*
X032511Y009569D02*
X032639Y009569D01*
X032639Y009685D02*
X032511Y009685D01*
X032511Y009802D02*
X032639Y009802D01*
X032639Y009919D02*
X032511Y009919D01*
X032511Y010035D02*
X032639Y010035D01*
X032639Y010152D02*
X032511Y010152D01*
X032489Y010269D02*
X032549Y010269D01*
X032433Y010385D02*
X031261Y010385D01*
X031261Y010269D02*
X031439Y010269D01*
X031417Y010152D02*
X031261Y010152D01*
X031261Y010035D02*
X031417Y010035D01*
X031417Y009919D02*
X031261Y009919D01*
X031261Y009802D02*
X031417Y009802D01*
X031417Y009685D02*
X031261Y009685D01*
X031261Y009569D02*
X031417Y009569D01*
X031417Y009452D02*
X031261Y009452D01*
X031261Y009336D02*
X031441Y009336D01*
X031417Y009219D02*
X031261Y009219D01*
X031261Y009102D02*
X031417Y009102D01*
X031417Y008986D02*
X031261Y008986D01*
X031261Y008869D02*
X031417Y008869D01*
X031417Y008753D02*
X031261Y008753D01*
X031261Y008636D02*
X031417Y008636D01*
X031417Y008519D02*
X031261Y008519D01*
X031261Y008403D02*
X031417Y008403D01*
X031426Y008286D02*
X031261Y008286D01*
X031261Y008170D02*
X031417Y008170D01*
X031417Y007586D02*
X031261Y007586D01*
X031261Y007470D02*
X031417Y007470D01*
X031455Y007353D02*
X031261Y007353D01*
X031261Y007237D02*
X034096Y007237D01*
X034096Y007353D02*
X032474Y007353D01*
X032511Y007470D02*
X034096Y007470D01*
X034096Y007586D02*
X032511Y007586D01*
X032511Y007703D02*
X034096Y007703D01*
X034569Y007470D02*
X039352Y007470D01*
X039352Y007586D02*
X036027Y007586D01*
X036130Y007703D02*
X039352Y007703D01*
X039352Y007820D02*
X036173Y007820D01*
X036173Y007936D02*
X039352Y007936D01*
X039352Y008053D02*
X036127Y008053D01*
X036065Y008170D02*
X039352Y008170D01*
X039352Y008286D02*
X036065Y008286D01*
X036065Y008403D02*
X039352Y008403D01*
X039352Y008519D02*
X036065Y008519D01*
X036065Y008636D02*
X039352Y008636D01*
X039352Y008753D02*
X036065Y008753D01*
X036065Y008869D02*
X039352Y008869D01*
X039352Y008986D02*
X037319Y008986D01*
X037261Y008962D02*
X037435Y009034D01*
X037567Y009167D01*
X037605Y009258D01*
X037689Y009223D01*
X037826Y009223D01*
X037953Y009276D01*
X038050Y009373D01*
X038102Y009499D01*
X038102Y009636D01*
X038050Y009763D01*
X037953Y009860D01*
X037826Y009912D01*
X037689Y009912D01*
X037562Y009860D01*
X037486Y009783D01*
X037435Y009835D01*
X037261Y009907D01*
X037073Y009907D01*
X036899Y009835D01*
X036828Y009764D01*
X036732Y009860D01*
X036606Y009912D01*
X036468Y009912D01*
X036342Y009860D01*
X036245Y009763D01*
X036193Y009636D01*
X036193Y009499D01*
X036245Y009373D01*
X036342Y009276D01*
X036468Y009223D01*
X036606Y009223D01*
X036723Y009272D01*
X036766Y009167D01*
X036899Y009034D01*
X037073Y008962D01*
X037261Y008962D01*
X037015Y008986D02*
X036065Y008986D01*
X036065Y009102D02*
X036831Y009102D01*
X036745Y009219D02*
X036065Y009219D01*
X036065Y009336D02*
X036282Y009336D01*
X036212Y009452D02*
X036065Y009452D01*
X036065Y009569D02*
X036193Y009569D01*
X036213Y009685D02*
X036065Y009685D01*
X036065Y009802D02*
X036284Y009802D01*
X036065Y009919D02*
X039352Y009919D01*
X039352Y010035D02*
X036065Y010035D01*
X036790Y009802D02*
X036867Y009802D01*
X037467Y009802D02*
X037505Y009802D01*
X038010Y009802D02*
X039352Y009802D01*
X039352Y009685D02*
X038082Y009685D01*
X038102Y009569D02*
X039352Y009569D01*
X039352Y009452D02*
X038083Y009452D01*
X038013Y009336D02*
X039352Y009336D01*
X039352Y009219D02*
X037589Y009219D01*
X037503Y009102D02*
X039352Y009102D01*
X039352Y007353D02*
X034569Y007353D01*
X034569Y007237D02*
X039352Y007237D01*
X039352Y007120D02*
X034569Y007120D01*
X034569Y007003D02*
X039352Y007003D01*
X039352Y006887D02*
X034569Y006887D01*
X034569Y006770D02*
X039352Y006770D01*
X039352Y006654D02*
X034569Y006654D01*
X034569Y006537D02*
X039352Y006537D01*
X039352Y006420D02*
X034569Y006420D01*
X034569Y006304D02*
X039352Y006304D01*
X039352Y006187D02*
X034617Y006187D01*
X034670Y006071D02*
X039352Y006071D01*
X039352Y005954D02*
X034677Y005954D01*
X034644Y005837D02*
X039352Y005837D01*
X039352Y005721D02*
X034555Y005721D01*
X034332Y005985D02*
X034332Y010355D01*
X034644Y010502D02*
X034647Y010502D01*
X034647Y010618D02*
X034556Y010618D01*
X034647Y011901D02*
X033313Y011901D01*
X033309Y012018D02*
X034647Y012018D01*
X034647Y012134D02*
X033309Y012134D01*
X033309Y012251D02*
X034647Y012251D01*
X034647Y012367D02*
X033617Y012367D01*
X033759Y012484D02*
X034710Y012484D01*
X034826Y012601D02*
X033807Y012601D01*
X033811Y012717D02*
X034943Y012717D01*
X035080Y012520D02*
X038584Y012520D01*
X038333Y013308D02*
X038333Y013308D01*
X038264Y013417D02*
X035007Y013417D01*
X033466Y012678D02*
X033466Y022206D01*
X033307Y022513D02*
X033269Y022513D01*
X033269Y022629D02*
X033663Y022629D01*
X033663Y022513D02*
X033625Y022513D01*
X033663Y022746D02*
X033269Y022746D01*
X033269Y022862D02*
X033663Y022862D01*
X033663Y022979D02*
X033269Y022979D01*
X033186Y023096D02*
X033663Y023096D01*
X033663Y023212D02*
X033069Y023212D01*
X033033Y022914D02*
X033033Y018190D01*
X032836Y017993D01*
X033026Y017848D02*
X033230Y017848D01*
X033230Y017732D02*
X032561Y017732D01*
X032561Y017615D02*
X033230Y017615D01*
X033230Y017498D02*
X032513Y017498D01*
X033230Y017382D02*
X031261Y017382D01*
X031261Y017498D02*
X031516Y017498D01*
X031467Y017615D02*
X031261Y017615D01*
X031374Y017732D02*
X031467Y017732D01*
X031261Y017265D02*
X033230Y017265D01*
X033230Y017965D02*
X033142Y017965D01*
X031467Y019364D02*
X012017Y019364D01*
X012117Y019481D02*
X031502Y019481D01*
X031467Y019597D02*
X026344Y019597D01*
X026461Y019714D02*
X031467Y019714D01*
X031467Y019831D02*
X026495Y019831D01*
X026495Y019947D02*
X031467Y019947D01*
X031467Y020064D02*
X029575Y020064D01*
X029692Y020180D02*
X031467Y020180D01*
X031467Y020297D02*
X029809Y020297D01*
X029925Y020414D02*
X031478Y020414D01*
X030503Y019131D02*
X004096Y019131D01*
X004096Y019014D02*
X008918Y019014D01*
X008885Y019003D02*
X008811Y018966D01*
X008745Y018918D01*
X008686Y018859D01*
X008638Y018793D01*
X008601Y018719D01*
X008575Y018641D01*
X008565Y018578D01*
X009026Y018578D01*
X009026Y019039D01*
X008963Y019029D01*
X008885Y019003D01*
X009026Y019014D02*
X009144Y019014D01*
X009144Y019039D02*
X009208Y019029D01*
X009286Y019003D01*
X009360Y018966D01*
X009426Y018918D01*
X009485Y018859D01*
X009533Y018793D01*
X009570Y018719D01*
X009596Y018641D01*
X009606Y018578D01*
X009144Y018578D01*
X009026Y018578D01*
X009026Y018459D01*
X009144Y018459D01*
X009144Y017998D01*
X009208Y018008D01*
X009286Y018034D01*
X009360Y018071D01*
X009426Y018119D01*
X009485Y018178D01*
X009533Y018244D01*
X009570Y018318D01*
X009596Y018396D01*
X009606Y018459D01*
X009144Y018459D01*
X009144Y018578D01*
X009144Y019039D01*
X009253Y019014D02*
X022490Y019014D01*
X022321Y018898D02*
X009446Y018898D01*
X009539Y018781D02*
X022230Y018781D01*
X022182Y018664D02*
X009588Y018664D01*
X009601Y018431D02*
X022166Y018431D01*
X022166Y018548D02*
X009144Y018548D01*
X009144Y018664D02*
X009026Y018664D01*
X009026Y018548D02*
X004096Y018548D01*
X004096Y018664D02*
X008583Y018664D01*
X008632Y018781D02*
X004096Y018781D01*
X004096Y018898D02*
X008725Y018898D01*
X009026Y018898D02*
X009144Y018898D01*
X009144Y018781D02*
X009026Y018781D01*
X009026Y018459D02*
X008565Y018459D01*
X008575Y018396D01*
X008601Y018318D01*
X008638Y018244D01*
X008686Y018178D01*
X008745Y018119D01*
X008811Y018071D01*
X008885Y018034D01*
X008963Y018008D01*
X009026Y017998D01*
X009026Y018459D01*
X009026Y018431D02*
X009144Y018431D01*
X009144Y018315D02*
X009026Y018315D01*
X009026Y018198D02*
X009144Y018198D01*
X009144Y018081D02*
X009026Y018081D01*
X008797Y018081D02*
X008111Y018081D01*
X008054Y018105D02*
X008184Y018051D01*
X008283Y017951D01*
X008337Y017821D01*
X008337Y017680D01*
X008283Y017550D01*
X008184Y017450D01*
X008054Y017396D01*
X007913Y017396D01*
X007782Y017450D01*
X007683Y017550D01*
X007629Y017680D01*
X007629Y017821D01*
X007683Y017951D01*
X007782Y018051D01*
X007913Y018105D01*
X008054Y018105D01*
X007855Y018081D02*
X004096Y018081D01*
X004096Y017965D02*
X007696Y017965D01*
X007640Y017848D02*
X004096Y017848D01*
X004096Y017732D02*
X007629Y017732D01*
X007656Y017615D02*
X004096Y017615D01*
X004096Y017498D02*
X007734Y017498D01*
X008232Y017498D02*
X010854Y017498D01*
X010792Y017615D02*
X008310Y017615D01*
X008337Y017732D02*
X010769Y017732D01*
X010776Y017848D02*
X008326Y017848D01*
X008270Y017965D02*
X010824Y017965D01*
X010932Y018081D02*
X009374Y018081D01*
X009499Y018198D02*
X022262Y018198D01*
X022206Y018315D02*
X009569Y018315D01*
X008672Y018198D02*
X004096Y018198D01*
X004096Y018315D02*
X008602Y018315D01*
X008570Y018431D02*
X004096Y018431D01*
X004096Y017382D02*
X011008Y017382D01*
X011336Y017382D02*
X011599Y017382D01*
X011926Y017382D02*
X012190Y017382D01*
X012517Y017382D02*
X012780Y017382D01*
X013107Y017382D02*
X013371Y017382D01*
X013698Y017382D02*
X013961Y017382D01*
X014288Y017382D02*
X014552Y017382D01*
X014879Y017382D02*
X015142Y017382D01*
X015469Y017382D02*
X015733Y017382D01*
X016060Y017382D02*
X016323Y017382D01*
X016651Y017382D02*
X016914Y017382D01*
X017241Y017382D02*
X017552Y017382D01*
X017668Y017382D02*
X017668Y017382D01*
X017784Y017382D02*
X018095Y017382D01*
X018422Y017382D02*
X018686Y017382D01*
X019013Y017382D02*
X019276Y017382D01*
X019603Y017382D02*
X019867Y017382D01*
X020194Y017382D02*
X020457Y017382D01*
X020381Y018081D02*
X020270Y018081D01*
X020861Y018081D02*
X022379Y018081D01*
X023249Y018548D02*
X030198Y018548D01*
X030198Y018664D02*
X023233Y018664D01*
X023185Y018781D02*
X030198Y018781D01*
X030270Y018898D02*
X023094Y018898D01*
X022925Y019014D02*
X030387Y019014D01*
X030435Y018728D02*
X030435Y012048D01*
X030789Y011551D02*
X029632Y011551D01*
X029490Y011230D02*
X028927Y011230D01*
X028529Y010832D01*
X028529Y010269D01*
X028927Y009872D01*
X029490Y009872D01*
X029887Y010269D01*
X029887Y010832D01*
X029490Y011230D01*
X029518Y011201D02*
X030789Y011201D01*
X030789Y011085D02*
X029635Y011085D01*
X029751Y010968D02*
X030789Y010968D01*
X030789Y010852D02*
X029868Y010852D01*
X029887Y010735D02*
X030789Y010735D01*
X030789Y010618D02*
X029887Y010618D01*
X029887Y010502D02*
X030789Y010502D01*
X030789Y010385D02*
X029887Y010385D01*
X029886Y010269D02*
X030789Y010269D01*
X030789Y010152D02*
X029770Y010152D01*
X029653Y010035D02*
X030789Y010035D01*
X030789Y009919D02*
X029537Y009919D01*
X028880Y009919D02*
X017739Y009919D01*
X017901Y010035D02*
X028763Y010035D01*
X028647Y010152D02*
X017976Y010152D01*
X018017Y010269D02*
X028530Y010269D01*
X028529Y010385D02*
X022158Y010385D01*
X022146Y010380D02*
X022316Y010451D01*
X022447Y010581D01*
X022517Y010751D01*
X022517Y010935D01*
X022447Y011105D01*
X022316Y011235D01*
X022146Y011306D01*
X021962Y011306D01*
X021792Y011235D01*
X021662Y011105D01*
X021592Y010935D01*
X021592Y010751D01*
X021662Y010581D01*
X021792Y010451D01*
X021962Y010380D01*
X022146Y010380D01*
X021951Y010385D02*
X019158Y010385D01*
X018951Y010385D02*
X018017Y010385D01*
X017989Y010502D02*
X018741Y010502D01*
X018647Y010618D02*
X017933Y010618D01*
X017817Y010735D02*
X018598Y010735D01*
X019367Y010502D02*
X021741Y010502D01*
X021647Y010618D02*
X019462Y010618D01*
X019510Y010735D02*
X021598Y010735D01*
X021592Y010852D02*
X019517Y010852D01*
X019503Y010968D02*
X021606Y010968D01*
X021654Y011085D02*
X019455Y011085D01*
X019350Y011201D02*
X021759Y011201D01*
X022350Y011201D02*
X028898Y011201D01*
X028782Y011085D02*
X022455Y011085D01*
X022503Y010968D02*
X028665Y010968D01*
X028549Y010852D02*
X022517Y010852D01*
X022510Y010735D02*
X028529Y010735D01*
X028529Y010618D02*
X022462Y010618D01*
X022367Y010502D02*
X028529Y010502D01*
X028884Y011551D02*
X017417Y011551D01*
X017483Y011668D02*
X028768Y011668D01*
X028651Y011784D02*
X017517Y011784D01*
X017517Y011901D02*
X028579Y011901D01*
X028579Y012018D02*
X017483Y012018D01*
X017417Y012134D02*
X028579Y012134D01*
X028579Y012251D02*
X017278Y012251D01*
X017277Y011435D02*
X030789Y011435D01*
X030789Y011318D02*
X005241Y011318D01*
X005289Y011435D02*
X006604Y011435D01*
X006449Y011551D02*
X005297Y011551D01*
X005276Y011668D02*
X006385Y011668D01*
X006360Y011784D02*
X005220Y011784D01*
X005083Y011901D02*
X006363Y011901D01*
X006411Y012018D02*
X004096Y012018D01*
X004096Y012134D02*
X004736Y012134D01*
X004568Y012251D02*
X004491Y012251D01*
X004293Y012540D02*
X004706Y012540D01*
X004883Y012520D01*
X005031Y012134D02*
X006511Y012134D01*
X004883Y011536D02*
X004293Y011536D01*
X004532Y011784D02*
X004547Y011784D01*
X004684Y011901D02*
X004096Y011901D01*
X004096Y012834D02*
X004101Y012834D01*
X004096Y012951D02*
X030198Y012951D01*
X030198Y013067D02*
X004096Y013067D01*
X004096Y013184D02*
X004634Y013184D01*
X004844Y013544D02*
X004293Y013544D01*
X004374Y013883D02*
X004599Y013883D01*
X004758Y014117D02*
X004096Y014117D01*
X004096Y014233D02*
X004105Y014233D01*
X004096Y014000D02*
X030198Y014000D01*
X030198Y013883D02*
X005089Y013883D01*
X005199Y013767D02*
X030198Y013767D01*
X030198Y013650D02*
X005248Y013650D01*
X005257Y013534D02*
X030198Y013534D01*
X030198Y013417D02*
X005239Y013417D01*
X005185Y013300D02*
X030198Y013300D01*
X030198Y013184D02*
X005054Y013184D01*
X004612Y012834D02*
X004485Y012834D01*
X004212Y013883D02*
X004096Y013883D01*
X004481Y014233D02*
X004555Y014233D01*
X004930Y014117D02*
X030198Y014117D01*
X031261Y012717D02*
X031467Y012717D01*
X031467Y012601D02*
X031261Y012601D01*
X031261Y012484D02*
X031467Y012484D01*
X031542Y012367D02*
X031261Y012367D01*
X031261Y012251D02*
X031773Y012251D01*
X031773Y012134D02*
X031261Y012134D01*
X031261Y012018D02*
X031773Y012018D01*
X031773Y011901D02*
X031261Y011901D01*
X031261Y011784D02*
X031773Y011784D01*
X031773Y011668D02*
X031261Y011668D01*
X031261Y011551D02*
X031773Y011551D01*
X031773Y011435D02*
X031261Y011435D01*
X031261Y011318D02*
X031773Y011318D01*
X031773Y011201D02*
X031261Y011201D01*
X031261Y011085D02*
X031773Y011085D01*
X031850Y010968D02*
X031261Y010968D01*
X031261Y010852D02*
X031966Y010852D01*
X032083Y010735D02*
X031261Y010735D01*
X031261Y010618D02*
X032200Y010618D01*
X032316Y010502D02*
X031261Y010502D01*
X030789Y009802D02*
X015946Y009802D01*
X015946Y009685D02*
X030789Y009685D01*
X030789Y009569D02*
X015946Y009569D01*
X015946Y009452D02*
X030789Y009452D01*
X030789Y009336D02*
X015946Y009336D01*
X015946Y009219D02*
X030789Y009219D01*
X031261Y007120D02*
X034096Y007120D01*
X034096Y007003D02*
X031261Y007003D01*
X031261Y006887D02*
X034096Y006887D01*
X034096Y006770D02*
X031261Y006770D01*
X031261Y006654D02*
X034096Y006654D01*
X034096Y006537D02*
X031261Y006537D01*
X031261Y006420D02*
X034096Y006420D01*
X034096Y006304D02*
X031261Y006304D01*
X031261Y006187D02*
X034047Y006187D01*
X033995Y006071D02*
X031261Y006071D01*
X031261Y005954D02*
X033988Y005954D01*
X034021Y005837D02*
X031261Y005837D01*
X031261Y005721D02*
X034109Y005721D01*
X031261Y005604D02*
X039352Y005604D01*
X039352Y005487D02*
X031261Y005487D01*
X031261Y005371D02*
X039352Y005371D01*
X038584Y011536D02*
X038506Y011576D01*
X038584Y013544D02*
X038978Y013898D01*
X038348Y014700D02*
X037365Y014700D01*
X037524Y014816D02*
X038348Y014816D01*
X038348Y014933D02*
X037600Y014933D01*
X037644Y015050D02*
X038348Y015050D01*
X038348Y015166D02*
X037644Y015166D01*
X037622Y015283D02*
X038348Y015283D01*
X038348Y015399D02*
X037574Y015399D01*
X037460Y015516D02*
X038348Y015516D01*
X033315Y012367D02*
X033309Y012367D01*
X032836Y014000D02*
X032826Y014000D01*
X028579Y017498D02*
X026245Y017498D01*
X026362Y017615D02*
X028670Y017615D01*
X028787Y017732D02*
X026478Y017732D01*
X026495Y017848D02*
X028903Y017848D01*
X025802Y018315D02*
X025272Y018315D01*
X025389Y018198D02*
X025685Y018198D01*
X025604Y018081D02*
X025477Y018081D01*
X025477Y017965D02*
X025604Y017965D01*
X025604Y017848D02*
X025477Y017848D01*
X025453Y017732D02*
X025621Y017732D01*
X021689Y015866D02*
X017517Y015866D01*
X017516Y015749D02*
X021516Y015749D01*
X021399Y015633D02*
X017468Y015633D01*
X017382Y015516D02*
X021332Y015516D01*
X021243Y015166D02*
X009865Y015166D01*
X009865Y015050D02*
X021243Y015050D01*
X021263Y014933D02*
X009845Y014933D01*
X009797Y014816D02*
X021312Y014816D01*
X021360Y014700D02*
X009749Y014700D01*
X009641Y014583D02*
X021468Y014583D01*
X021585Y014466D02*
X009524Y014466D01*
X009255Y014350D02*
X021854Y014350D01*
X017668Y017498D02*
X017668Y017498D01*
X017668Y017615D02*
X017668Y017615D01*
X017668Y017732D02*
X017668Y017732D01*
X017668Y017848D02*
X017668Y017848D01*
X017668Y017965D02*
X017668Y017965D01*
X017668Y018081D02*
X017668Y018081D01*
X017469Y018081D02*
X017318Y018081D01*
X016837Y018081D02*
X016727Y018081D01*
X016247Y018081D02*
X016137Y018081D01*
X015656Y018081D02*
X015546Y018081D01*
X015066Y018081D02*
X014955Y018081D01*
X014475Y018081D02*
X014365Y018081D01*
X013885Y018081D02*
X013774Y018081D01*
X013294Y018081D02*
X013184Y018081D01*
X012704Y018081D02*
X012593Y018081D01*
X012113Y018081D02*
X012003Y018081D01*
X011523Y018081D02*
X011412Y018081D01*
X013220Y016216D02*
X013773Y016216D01*
X013660Y016099D02*
X013122Y016099D01*
X017867Y018081D02*
X018019Y018081D01*
X018499Y018081D02*
X018609Y018081D01*
X019089Y018081D02*
X019200Y018081D01*
X019680Y018081D02*
X019790Y018081D01*
X026443Y021696D02*
X028992Y021696D01*
X028876Y021813D02*
X026495Y021813D01*
X026495Y021930D02*
X028759Y021930D01*
X028643Y022046D02*
X026495Y022046D01*
X026449Y022163D02*
X028626Y022163D01*
X028626Y022279D02*
X026333Y022279D01*
X025029Y023912D02*
X025029Y023954D01*
X024774Y024262D02*
X000336Y024262D01*
X000336Y024378D02*
X031514Y024378D01*
X031514Y024495D02*
X000336Y024495D01*
X000336Y024612D02*
X031520Y024612D01*
X031514Y024728D02*
X000336Y024728D01*
X000336Y024845D02*
X031514Y024845D01*
X031514Y024961D02*
X000336Y024961D01*
X000336Y025078D02*
X031514Y025078D01*
X031514Y025195D02*
X029652Y025195D01*
X029586Y025130D02*
X029984Y025527D01*
X029984Y026090D01*
X029586Y026488D01*
X029024Y026488D01*
X028626Y026090D01*
X028626Y025527D01*
X029024Y025130D01*
X029586Y025130D01*
X029768Y025311D02*
X031514Y025311D01*
X031514Y025428D02*
X029885Y025428D01*
X029984Y025544D02*
X031554Y025544D01*
X032568Y025544D02*
X039352Y025544D01*
X039352Y025428D02*
X032608Y025428D01*
X032608Y025311D02*
X039352Y025311D01*
X039352Y025195D02*
X032608Y025195D01*
X032608Y025078D02*
X039352Y025078D01*
X039352Y024961D02*
X032608Y024961D01*
X032608Y024845D02*
X039352Y024845D01*
X039352Y024728D02*
X032608Y024728D01*
X032603Y024612D02*
X039352Y024612D01*
X039352Y024495D02*
X032608Y024495D01*
X032608Y024378D02*
X039352Y024378D01*
X039352Y024262D02*
X034102Y024262D01*
X034203Y024145D02*
X039352Y024145D01*
X039352Y024029D02*
X034244Y024029D01*
X034244Y023912D02*
X039352Y023912D01*
X039352Y023795D02*
X034197Y023795D01*
X034135Y023679D02*
X039352Y023679D01*
X039352Y023562D02*
X034135Y023562D01*
X033663Y023562D02*
X032582Y023562D01*
X032608Y023445D02*
X033663Y023445D01*
X033663Y023329D02*
X032608Y023329D01*
X032608Y023679D02*
X033663Y023679D01*
X033602Y023795D02*
X032608Y023795D01*
X032608Y023912D02*
X033555Y023912D01*
X033555Y024029D02*
X032608Y024029D01*
X032608Y024145D02*
X033596Y024145D01*
X033697Y024262D02*
X032608Y024262D01*
X031514Y022979D02*
X029631Y022979D01*
X029747Y022862D02*
X031514Y022862D01*
X031514Y022746D02*
X029864Y022746D01*
X029980Y022629D02*
X031533Y022629D01*
X034135Y022513D02*
X034940Y022513D01*
X034872Y022396D02*
X034135Y022396D01*
X034135Y022279D02*
X034854Y022279D01*
X034876Y022163D02*
X034135Y022163D01*
X034135Y022046D02*
X034949Y022046D01*
X034962Y021930D02*
X034135Y021930D01*
X034135Y021813D02*
X034962Y021813D01*
X034962Y021696D02*
X034135Y021696D01*
X034135Y021580D02*
X034962Y021580D01*
X034962Y021463D02*
X034135Y021463D01*
X034135Y021347D02*
X034962Y021347D01*
X035898Y021813D02*
X039352Y021813D01*
X039352Y021930D02*
X035898Y021930D01*
X035898Y022046D02*
X039352Y022046D01*
X039352Y022163D02*
X035898Y022163D01*
X035898Y022279D02*
X039352Y022279D01*
X039352Y022396D02*
X035898Y022396D01*
X035898Y022513D02*
X039352Y022513D01*
X039352Y022629D02*
X035898Y022629D01*
X035898Y022746D02*
X039352Y022746D01*
X039352Y022862D02*
X035898Y022862D01*
X035928Y022979D02*
X039352Y022979D01*
X039352Y023096D02*
X035991Y023096D01*
X036006Y023212D02*
X039352Y023212D01*
X039352Y023329D02*
X035981Y023329D01*
X035902Y023445D02*
X039352Y023445D01*
X039352Y021696D02*
X038636Y021696D01*
X038710Y021580D02*
X039352Y021580D01*
X039352Y021463D02*
X038732Y021463D01*
X038714Y021347D02*
X039352Y021347D01*
X039352Y021230D02*
X038647Y021230D01*
X038624Y021113D02*
X039352Y021113D01*
X039352Y020997D02*
X038624Y020997D01*
X038624Y020880D02*
X039352Y020880D01*
X039352Y025661D02*
X029984Y025661D01*
X029984Y025778D02*
X039352Y025778D01*
X039352Y025894D02*
X029984Y025894D01*
X029984Y026011D02*
X039352Y026011D01*
X039352Y026128D02*
X038896Y026128D01*
X038946Y026148D02*
X039051Y026253D01*
X039108Y026391D01*
X039108Y026540D01*
X039051Y026677D01*
X038946Y026782D01*
X038808Y026839D01*
X038659Y026839D01*
X038522Y026782D01*
X038417Y026677D01*
X038360Y026540D01*
X038360Y026391D01*
X038417Y026253D01*
X038522Y026148D01*
X038659Y026091D01*
X038808Y026091D01*
X038946Y026148D01*
X039042Y026244D02*
X039352Y026244D01*
X039352Y026361D02*
X039095Y026361D01*
X039108Y026477D02*
X039352Y026477D01*
X039352Y026594D02*
X039085Y026594D01*
X039018Y026711D02*
X039352Y026711D01*
X039352Y026827D02*
X038838Y026827D01*
X038630Y026827D02*
X024164Y026827D01*
X024153Y026944D02*
X039352Y026944D01*
X039352Y027060D02*
X024096Y027060D01*
X024138Y026711D02*
X038450Y026711D01*
X038382Y026594D02*
X024060Y026594D01*
X023560Y026594D02*
X008233Y026594D01*
X008311Y026711D02*
X023482Y026711D01*
X023456Y026827D02*
X008337Y026827D01*
X008326Y026944D02*
X023467Y026944D01*
X023524Y027060D02*
X008269Y027060D01*
X007697Y027060D02*
X000336Y027060D01*
X000336Y026944D02*
X007640Y026944D01*
X007629Y026827D02*
X001042Y026827D01*
X001013Y026839D02*
X000864Y026839D01*
X000727Y026782D01*
X000622Y026677D01*
X000565Y026540D01*
X000565Y026391D01*
X000622Y026253D01*
X000727Y026148D01*
X000864Y026091D01*
X001013Y026091D01*
X001150Y026148D01*
X001256Y026253D01*
X001313Y026391D01*
X001313Y026540D01*
X001256Y026677D01*
X001150Y026782D01*
X001013Y026839D01*
X000835Y026827D02*
X000336Y026827D01*
X000336Y026711D02*
X000655Y026711D01*
X000587Y026594D02*
X000336Y026594D01*
X000336Y026477D02*
X000565Y026477D01*
X000577Y026361D02*
X000336Y026361D01*
X000336Y026244D02*
X000631Y026244D01*
X000777Y026128D02*
X000336Y026128D01*
X000336Y026011D02*
X024622Y026011D01*
X024622Y025954D02*
X025029Y025954D01*
X025029Y026360D01*
X024873Y026360D01*
X024622Y026110D01*
X024622Y025954D01*
X024622Y025912D02*
X024622Y025756D01*
X024873Y025505D01*
X025029Y025505D01*
X025029Y025912D01*
X025071Y025912D01*
X025071Y025954D01*
X025477Y025954D01*
X025477Y026110D01*
X025227Y026360D01*
X025071Y026360D01*
X025071Y025954D01*
X025029Y025954D01*
X025029Y025912D01*
X024622Y025912D01*
X024622Y025894D02*
X000336Y025894D01*
X000336Y025778D02*
X024622Y025778D01*
X024717Y025661D02*
X000336Y025661D01*
X000336Y025544D02*
X024833Y025544D01*
X025029Y025544D02*
X025071Y025544D01*
X025071Y025505D02*
X025227Y025505D01*
X025477Y025756D01*
X025477Y025912D01*
X025071Y025912D01*
X025071Y025505D01*
X025071Y025661D02*
X025029Y025661D01*
X025029Y025778D02*
X025071Y025778D01*
X025071Y025894D02*
X025029Y025894D01*
X025029Y026011D02*
X025071Y026011D01*
X025071Y026128D02*
X025029Y026128D01*
X025029Y026244D02*
X025071Y026244D01*
X025342Y026244D02*
X025731Y026244D01*
X025615Y026128D02*
X025459Y026128D01*
X025477Y026011D02*
X025604Y026011D01*
X025604Y026117D02*
X025604Y025748D01*
X025865Y025487D01*
X026234Y025487D01*
X026495Y025748D01*
X026495Y026117D01*
X026234Y026378D01*
X025865Y026378D01*
X025604Y026117D01*
X025604Y025894D02*
X025477Y025894D01*
X025477Y025778D02*
X025604Y025778D01*
X025691Y025661D02*
X025382Y025661D01*
X025266Y025544D02*
X025808Y025544D01*
X026291Y025544D02*
X028626Y025544D01*
X028626Y025661D02*
X026408Y025661D01*
X026495Y025778D02*
X028626Y025778D01*
X028626Y025894D02*
X026495Y025894D01*
X026495Y026011D02*
X028626Y026011D01*
X028664Y026128D02*
X026485Y026128D01*
X026368Y026244D02*
X028780Y026244D01*
X028897Y026361D02*
X026251Y026361D01*
X025848Y026361D02*
X001300Y026361D01*
X001313Y026477D02*
X029013Y026477D01*
X029597Y026477D02*
X038360Y026477D01*
X038372Y026361D02*
X029713Y026361D01*
X029830Y026244D02*
X038426Y026244D01*
X038572Y026128D02*
X029947Y026128D01*
X028842Y025311D02*
X000336Y025311D01*
X000336Y025195D02*
X028959Y025195D01*
X028725Y025428D02*
X000336Y025428D01*
X001100Y026128D02*
X024640Y026128D01*
X024757Y026244D02*
X001246Y026244D01*
X001290Y026594D02*
X007733Y026594D01*
X007655Y026711D02*
X001222Y026711D01*
X000336Y024145D02*
X024658Y024145D01*
X025441Y024145D02*
X025632Y024145D01*
X017119Y010502D02*
X015876Y010502D01*
X016005Y010385D02*
X017092Y010385D01*
X017092Y010269D02*
X016054Y010269D01*
X016055Y010152D02*
X017133Y010152D01*
X017208Y010035D02*
X016016Y010035D01*
X015946Y009919D02*
X017370Y009919D01*
X015946Y009102D02*
X023750Y009102D01*
X023545Y008986D02*
X015946Y008986D01*
X015946Y008869D02*
X023421Y008869D01*
X023338Y008753D02*
X015946Y008753D01*
X015946Y008636D02*
X023248Y008636D01*
X023198Y008519D02*
X015946Y008519D01*
X015946Y008403D02*
X023148Y008403D01*
X023098Y008286D02*
X016062Y008286D01*
X016144Y008170D02*
X023074Y008170D01*
X023048Y008053D02*
X016173Y008053D01*
X016161Y007936D02*
X023016Y007936D01*
X023009Y007820D02*
X016103Y007820D01*
X015554Y007820D02*
X012246Y007820D01*
X012246Y007936D02*
X015495Y007936D01*
X015484Y008043D02*
X015474Y008053D01*
X016674Y007343D02*
X017554Y007343D01*
X018002Y007470D02*
X022990Y007470D01*
X022997Y007586D02*
X017954Y007586D01*
X017848Y007703D02*
X023003Y007703D01*
X023558Y003388D02*
X000336Y003388D01*
X000336Y003272D02*
X008707Y003272D01*
X008601Y003228D02*
X008374Y003001D01*
X008251Y002704D01*
X008251Y002383D01*
X008374Y002087D01*
X008601Y001859D01*
X008898Y001737D01*
X009219Y001737D01*
X009515Y001859D01*
X009742Y002087D01*
X009865Y002383D01*
X009865Y002704D01*
X009742Y003001D01*
X009515Y003228D01*
X009219Y003351D01*
X008898Y003351D01*
X008601Y003228D01*
X008528Y003155D02*
X000336Y003155D01*
X000336Y003039D02*
X008412Y003039D01*
X008341Y002922D02*
X000336Y002922D01*
X000336Y002805D02*
X008293Y002805D01*
X008251Y002689D02*
X000336Y002689D01*
X000336Y002572D02*
X008251Y002572D01*
X008251Y002456D02*
X000336Y002456D01*
X000336Y002339D02*
X008269Y002339D01*
X008318Y002222D02*
X000336Y002222D01*
X000336Y002106D02*
X008366Y002106D01*
X008471Y001989D02*
X000336Y001989D01*
X000336Y001873D02*
X008588Y001873D01*
X008851Y001756D02*
X000336Y001756D01*
X000336Y001639D02*
X000856Y001639D01*
X000864Y001643D02*
X000727Y001586D01*
X000622Y001480D01*
X000565Y001343D01*
X000565Y001194D01*
X000622Y001057D01*
X000727Y000951D01*
X000864Y000894D01*
X001013Y000894D01*
X001150Y000951D01*
X001256Y001057D01*
X001313Y001194D01*
X001313Y001343D01*
X001256Y001480D01*
X001150Y001586D01*
X001013Y001643D01*
X000864Y001643D01*
X001021Y001639D02*
X005544Y001639D01*
X005555Y001650D02*
X005439Y001534D01*
X005376Y001382D01*
X005376Y001218D01*
X005439Y001066D01*
X005555Y000950D01*
X005707Y000887D01*
X005871Y000887D01*
X006023Y000950D01*
X006137Y001064D01*
X013603Y001064D01*
X013742Y001202D01*
X013932Y001393D01*
X013962Y001380D01*
X014146Y001380D01*
X014316Y001451D01*
X014447Y001581D01*
X014517Y001751D01*
X014517Y001935D01*
X014447Y002105D01*
X014316Y002235D01*
X014146Y002306D01*
X013962Y002306D01*
X013792Y002235D01*
X013662Y002105D01*
X013592Y001935D01*
X013592Y001751D01*
X013601Y001729D01*
X013408Y001536D01*
X006137Y001536D01*
X006023Y001650D01*
X005871Y001713D01*
X005707Y001713D01*
X005555Y001650D01*
X005434Y001523D02*
X001213Y001523D01*
X001286Y001406D02*
X005385Y001406D01*
X005376Y001290D02*
X001313Y001290D01*
X001304Y001173D02*
X005394Y001173D01*
X005448Y001056D02*
X001255Y001056D01*
X001122Y000940D02*
X005579Y000940D01*
X005789Y001300D02*
X013506Y001300D01*
X014054Y001849D01*
X014057Y001851D01*
X014054Y001849D02*
X014054Y001843D01*
X014388Y001523D02*
X016720Y001523D01*
X016662Y001581D02*
X016792Y001451D01*
X016962Y001380D01*
X017146Y001380D01*
X017316Y001451D01*
X017447Y001581D01*
X017517Y001751D01*
X017517Y001935D01*
X017447Y002105D01*
X017316Y002235D01*
X017146Y002306D01*
X016962Y002306D01*
X016792Y002235D01*
X016662Y002105D01*
X016592Y001935D01*
X016592Y001751D01*
X016662Y001581D01*
X016638Y001639D02*
X014471Y001639D01*
X014517Y001756D02*
X016592Y001756D01*
X016592Y001873D02*
X014517Y001873D01*
X014494Y001989D02*
X016614Y001989D01*
X016663Y002106D02*
X014446Y002106D01*
X014329Y002222D02*
X016780Y002222D01*
X017329Y002222D02*
X021310Y002222D01*
X021358Y002106D02*
X017446Y002106D01*
X017494Y001989D02*
X021464Y001989D01*
X021366Y002087D02*
X021243Y002383D01*
X021243Y002704D01*
X021366Y003001D01*
X021593Y003228D01*
X021890Y003351D01*
X022211Y003351D01*
X022508Y003228D01*
X022735Y003001D01*
X022857Y002704D01*
X022857Y002383D01*
X022735Y002087D01*
X022508Y001859D01*
X022211Y001737D01*
X021890Y001737D01*
X021593Y001859D01*
X021366Y002087D01*
X021262Y002339D02*
X009847Y002339D01*
X009865Y002456D02*
X021243Y002456D01*
X021243Y002572D02*
X009865Y002572D01*
X009865Y002689D02*
X021243Y002689D01*
X021285Y002805D02*
X009823Y002805D01*
X009775Y002922D02*
X021334Y002922D01*
X021404Y003039D02*
X009705Y003039D01*
X009588Y003155D02*
X021521Y003155D01*
X021699Y003272D02*
X009409Y003272D01*
X009799Y002222D02*
X013780Y002222D01*
X013663Y002106D02*
X009750Y002106D01*
X009645Y001989D02*
X013614Y001989D01*
X013592Y001873D02*
X009529Y001873D01*
X009265Y001756D02*
X013592Y001756D01*
X013511Y001639D02*
X006034Y001639D01*
X006130Y001056D02*
X027892Y001056D01*
X028022Y000940D02*
X005999Y000940D01*
X000755Y000940D02*
X000336Y000940D01*
X000336Y001056D02*
X000622Y001056D01*
X000573Y001173D02*
X000336Y001173D01*
X000336Y001290D02*
X000565Y001290D01*
X000591Y001406D02*
X000336Y001406D01*
X000336Y001523D02*
X000664Y001523D01*
X006092Y006537D02*
X008706Y006537D01*
X011773Y008986D02*
X002673Y008986D01*
X002858Y009102D02*
X011773Y009102D01*
X011753Y009219D02*
X002943Y009219D01*
X002992Y009336D02*
X011684Y009336D01*
X011665Y009452D02*
X002994Y009452D01*
X002977Y009569D02*
X011686Y009569D01*
X004161Y010852D02*
X004096Y010852D01*
X003506Y011103D02*
X003506Y021300D01*
X003112Y020946D02*
X003112Y011576D01*
X003072Y011536D01*
X001104Y011536D01*
X000786Y011668D02*
X000336Y011668D01*
X000336Y011784D02*
X000865Y011784D01*
X000792Y011901D02*
X000336Y011901D01*
X000336Y012018D02*
X000759Y012018D01*
X000767Y012134D02*
X000336Y012134D01*
X000336Y012251D02*
X000820Y012251D01*
X000811Y012367D02*
X000336Y012367D01*
X000336Y012484D02*
X000762Y012484D01*
X000759Y012601D02*
X000336Y012601D01*
X000336Y012717D02*
X000796Y012717D01*
X000891Y012834D02*
X000336Y012834D01*
X001104Y012048D02*
X001891Y012048D01*
X001970Y012127D01*
X001970Y020591D01*
X002272Y020763D02*
X002814Y020763D01*
X002767Y020880D02*
X002169Y020880D01*
X002315Y020647D02*
X002876Y020647D01*
X002876Y020530D02*
X002315Y020530D01*
X002269Y020414D02*
X002876Y020414D01*
X002876Y020297D02*
X002206Y020297D01*
X004492Y014816D02*
X004547Y014816D01*
X004293Y014528D02*
X004844Y014528D01*
X000759Y011551D02*
X000336Y011551D01*
X000336Y011435D02*
X000773Y011435D01*
X000835Y011318D02*
X000336Y011318D01*
X000336Y011201D02*
X000804Y011201D01*
X000759Y011085D02*
X000336Y011085D01*
X000336Y010968D02*
X000759Y010968D01*
X000803Y010852D02*
X000336Y010852D01*
X000336Y010735D02*
X000839Y010735D01*
X000775Y010618D02*
X000336Y010618D01*
X000336Y010502D02*
X000759Y010502D01*
X000784Y010385D02*
X000336Y010385D01*
X000336Y010269D02*
X000861Y010269D01*
X001104Y011024D02*
X003427Y011024D01*
X003506Y011103D01*
X014209Y001406D02*
X016900Y001406D01*
X017209Y001406D02*
X027488Y001406D01*
X027354Y001523D02*
X017388Y001523D01*
X017471Y001639D02*
X027219Y001639D01*
X027085Y001756D02*
X022258Y001756D01*
X022521Y001873D02*
X026951Y001873D01*
X026816Y001989D02*
X022637Y001989D01*
X022743Y002106D02*
X024656Y002106D01*
X024558Y002222D02*
X022791Y002222D01*
X022839Y002339D02*
X024458Y002339D01*
X024358Y002456D02*
X022857Y002456D01*
X022857Y002572D02*
X024258Y002572D01*
X024158Y002689D02*
X022857Y002689D01*
X022816Y002805D02*
X024058Y002805D01*
X023958Y002922D02*
X022767Y002922D01*
X022697Y003039D02*
X023858Y003039D01*
X023758Y003155D02*
X022580Y003155D01*
X022401Y003272D02*
X023658Y003272D01*
X025017Y003272D02*
X025337Y003272D01*
X025203Y003388D02*
X025017Y003388D01*
X025017Y003505D02*
X025069Y003505D01*
X025017Y003155D02*
X025472Y003155D01*
X025606Y003039D02*
X025017Y003039D01*
X025017Y002922D02*
X025741Y002922D01*
X025875Y002805D02*
X025017Y002805D01*
X025017Y002689D02*
X026010Y002689D01*
X026144Y002572D02*
X025017Y002572D01*
X025017Y002456D02*
X026278Y002456D01*
X026413Y002339D02*
X025017Y002339D01*
X025017Y002222D02*
X026547Y002222D01*
X026682Y002106D02*
X024978Y002106D01*
X027623Y001290D02*
X013829Y001290D01*
X013712Y001173D02*
X027757Y001173D01*
X028337Y001406D02*
X028867Y001406D01*
X028750Y001523D02*
X028337Y001523D01*
X028337Y001639D02*
X028634Y001639D01*
X028517Y001756D02*
X028337Y001756D01*
X028337Y001873D02*
X028476Y001873D01*
X028476Y001989D02*
X028337Y001989D01*
X028337Y002106D02*
X028476Y002106D01*
X028476Y002222D02*
X028337Y002222D01*
X028337Y002339D02*
X028476Y002339D01*
X028572Y002456D02*
X028337Y002456D01*
X028337Y002572D02*
X028689Y002572D01*
X028805Y002689D02*
X028337Y002689D01*
X021843Y001756D02*
X017517Y001756D01*
X017517Y001873D02*
X021580Y001873D01*
M02*
