G75*
G70*
%OFA0B0*%
%FSLAX24Y24*%
%IPPOS*%
%LPD*%
%AMOC8*
5,1,8,0,0,1.08239X$1,22.5*
%
%ADD10C,0.0000*%
%ADD11C,0.0533*%
%ADD12C,0.0808*%
%ADD13C,0.0434*%
%ADD14C,0.0651*%
%ADD15C,0.1340*%
%ADD16R,0.0820X0.0820*%
%ADD17OC8,0.1084*%
%ADD18OC8,0.0617*%
%ADD19C,0.0500*%
%ADD20C,0.0474*%
%ADD21C,0.0671*%
%ADD22C,0.0680*%
%ADD23C,0.0552*%
%ADD24C,0.0415*%
D10*
X000159Y000473D02*
X039529Y000473D01*
X039529Y027245D01*
X000159Y027245D01*
X000159Y000473D01*
X008428Y002544D02*
X008430Y002594D01*
X008436Y002644D01*
X008446Y002693D01*
X008460Y002741D01*
X008477Y002788D01*
X008498Y002833D01*
X008523Y002877D01*
X008551Y002918D01*
X008583Y002957D01*
X008617Y002994D01*
X008654Y003028D01*
X008694Y003058D01*
X008736Y003085D01*
X008780Y003109D01*
X008826Y003130D01*
X008873Y003146D01*
X008921Y003159D01*
X008971Y003168D01*
X009020Y003173D01*
X009071Y003174D01*
X009121Y003171D01*
X009170Y003164D01*
X009219Y003153D01*
X009267Y003138D01*
X009313Y003120D01*
X009358Y003098D01*
X009401Y003072D01*
X009442Y003043D01*
X009481Y003011D01*
X009517Y002976D01*
X009549Y002938D01*
X009579Y002898D01*
X009606Y002855D01*
X009629Y002811D01*
X009648Y002765D01*
X009664Y002717D01*
X009676Y002668D01*
X009684Y002619D01*
X009688Y002569D01*
X009688Y002519D01*
X009684Y002469D01*
X009676Y002420D01*
X009664Y002371D01*
X009648Y002323D01*
X009629Y002277D01*
X009606Y002233D01*
X009579Y002190D01*
X009549Y002150D01*
X009517Y002112D01*
X009481Y002077D01*
X009442Y002045D01*
X009401Y002016D01*
X009358Y001990D01*
X009313Y001968D01*
X009267Y001950D01*
X009219Y001935D01*
X009170Y001924D01*
X009121Y001917D01*
X009071Y001914D01*
X009020Y001915D01*
X008971Y001920D01*
X008921Y001929D01*
X008873Y001942D01*
X008826Y001958D01*
X008780Y001979D01*
X008736Y002003D01*
X008694Y002030D01*
X008654Y002060D01*
X008617Y002094D01*
X008583Y002131D01*
X008551Y002170D01*
X008523Y002211D01*
X008498Y002255D01*
X008477Y002300D01*
X008460Y002347D01*
X008446Y002395D01*
X008436Y002444D01*
X008430Y002494D01*
X008428Y002544D01*
X002226Y009434D02*
X002228Y009468D01*
X002234Y009502D01*
X002244Y009535D01*
X002257Y009566D01*
X002275Y009596D01*
X002295Y009624D01*
X002319Y009649D01*
X002345Y009671D01*
X002373Y009689D01*
X002404Y009705D01*
X002436Y009717D01*
X002470Y009725D01*
X002504Y009729D01*
X002538Y009729D01*
X002572Y009725D01*
X002606Y009717D01*
X002638Y009705D01*
X002668Y009689D01*
X002697Y009671D01*
X002723Y009649D01*
X002747Y009624D01*
X002767Y009596D01*
X002785Y009566D01*
X002798Y009535D01*
X002808Y009502D01*
X002814Y009468D01*
X002816Y009434D01*
X002814Y009400D01*
X002808Y009366D01*
X002798Y009333D01*
X002785Y009302D01*
X002767Y009272D01*
X002747Y009244D01*
X002723Y009219D01*
X002697Y009197D01*
X002669Y009179D01*
X002638Y009163D01*
X002606Y009151D01*
X002572Y009143D01*
X002538Y009139D01*
X002504Y009139D01*
X002470Y009143D01*
X002436Y009151D01*
X002404Y009163D01*
X002373Y009179D01*
X002345Y009197D01*
X002319Y009219D01*
X002295Y009244D01*
X002275Y009272D01*
X002257Y009302D01*
X002244Y009333D01*
X002234Y009366D01*
X002228Y009400D01*
X002226Y009434D01*
X002221Y015134D02*
X002223Y015168D01*
X002229Y015202D01*
X002238Y015235D01*
X002252Y015266D01*
X002269Y015296D01*
X002289Y015324D01*
X002312Y015349D01*
X002338Y015372D01*
X002366Y015391D01*
X002396Y015407D01*
X002428Y015419D01*
X002461Y015428D01*
X002495Y015433D01*
X002530Y015434D01*
X002564Y015431D01*
X002597Y015424D01*
X002630Y015414D01*
X002661Y015399D01*
X002690Y015382D01*
X002717Y015361D01*
X002742Y015337D01*
X002764Y015310D01*
X002782Y015282D01*
X002797Y015251D01*
X002809Y015219D01*
X002817Y015185D01*
X002821Y015151D01*
X002821Y015117D01*
X002817Y015083D01*
X002809Y015049D01*
X002797Y015017D01*
X002782Y014986D01*
X002764Y014958D01*
X002742Y014931D01*
X002717Y014907D01*
X002690Y014886D01*
X002661Y014869D01*
X002630Y014854D01*
X002597Y014844D01*
X002564Y014837D01*
X002530Y014834D01*
X002495Y014835D01*
X002461Y014840D01*
X002428Y014849D01*
X002396Y014861D01*
X002366Y014877D01*
X002338Y014896D01*
X002312Y014919D01*
X002289Y014944D01*
X002269Y014972D01*
X002252Y015002D01*
X002238Y015033D01*
X002229Y015066D01*
X002223Y015100D01*
X002221Y015134D01*
X007806Y017751D02*
X007808Y017777D01*
X007814Y017803D01*
X007824Y017828D01*
X007837Y017851D01*
X007853Y017871D01*
X007873Y017889D01*
X007895Y017904D01*
X007918Y017916D01*
X007944Y017924D01*
X007970Y017928D01*
X007996Y017928D01*
X008022Y017924D01*
X008048Y017916D01*
X008072Y017904D01*
X008093Y017889D01*
X008113Y017871D01*
X008129Y017851D01*
X008142Y017828D01*
X008152Y017803D01*
X008158Y017777D01*
X008160Y017751D01*
X008158Y017725D01*
X008152Y017699D01*
X008142Y017674D01*
X008129Y017651D01*
X008113Y017631D01*
X008093Y017613D01*
X008071Y017598D01*
X008048Y017586D01*
X008022Y017578D01*
X007996Y017574D01*
X007970Y017574D01*
X007944Y017578D01*
X007918Y017586D01*
X007894Y017598D01*
X007873Y017613D01*
X007853Y017631D01*
X007837Y017651D01*
X007824Y017674D01*
X007814Y017699D01*
X007808Y017725D01*
X007806Y017751D01*
X008428Y015142D02*
X008430Y015192D01*
X008436Y015242D01*
X008446Y015291D01*
X008460Y015339D01*
X008477Y015386D01*
X008498Y015431D01*
X008523Y015475D01*
X008551Y015516D01*
X008583Y015555D01*
X008617Y015592D01*
X008654Y015626D01*
X008694Y015656D01*
X008736Y015683D01*
X008780Y015707D01*
X008826Y015728D01*
X008873Y015744D01*
X008921Y015757D01*
X008971Y015766D01*
X009020Y015771D01*
X009071Y015772D01*
X009121Y015769D01*
X009170Y015762D01*
X009219Y015751D01*
X009267Y015736D01*
X009313Y015718D01*
X009358Y015696D01*
X009401Y015670D01*
X009442Y015641D01*
X009481Y015609D01*
X009517Y015574D01*
X009549Y015536D01*
X009579Y015496D01*
X009606Y015453D01*
X009629Y015409D01*
X009648Y015363D01*
X009664Y015315D01*
X009676Y015266D01*
X009684Y015217D01*
X009688Y015167D01*
X009688Y015117D01*
X009684Y015067D01*
X009676Y015018D01*
X009664Y014969D01*
X009648Y014921D01*
X009629Y014875D01*
X009606Y014831D01*
X009579Y014788D01*
X009549Y014748D01*
X009517Y014710D01*
X009481Y014675D01*
X009442Y014643D01*
X009401Y014614D01*
X009358Y014588D01*
X009313Y014566D01*
X009267Y014548D01*
X009219Y014533D01*
X009170Y014522D01*
X009121Y014515D01*
X009071Y014512D01*
X009020Y014513D01*
X008971Y014518D01*
X008921Y014527D01*
X008873Y014540D01*
X008826Y014556D01*
X008780Y014577D01*
X008736Y014601D01*
X008694Y014628D01*
X008654Y014658D01*
X008617Y014692D01*
X008583Y014729D01*
X008551Y014768D01*
X008523Y014809D01*
X008498Y014853D01*
X008477Y014898D01*
X008460Y014945D01*
X008446Y014993D01*
X008436Y015042D01*
X008430Y015092D01*
X008428Y015142D01*
X021420Y015142D02*
X021422Y015192D01*
X021428Y015242D01*
X021438Y015291D01*
X021452Y015339D01*
X021469Y015386D01*
X021490Y015431D01*
X021515Y015475D01*
X021543Y015516D01*
X021575Y015555D01*
X021609Y015592D01*
X021646Y015626D01*
X021686Y015656D01*
X021728Y015683D01*
X021772Y015707D01*
X021818Y015728D01*
X021865Y015744D01*
X021913Y015757D01*
X021963Y015766D01*
X022012Y015771D01*
X022063Y015772D01*
X022113Y015769D01*
X022162Y015762D01*
X022211Y015751D01*
X022259Y015736D01*
X022305Y015718D01*
X022350Y015696D01*
X022393Y015670D01*
X022434Y015641D01*
X022473Y015609D01*
X022509Y015574D01*
X022541Y015536D01*
X022571Y015496D01*
X022598Y015453D01*
X022621Y015409D01*
X022640Y015363D01*
X022656Y015315D01*
X022668Y015266D01*
X022676Y015217D01*
X022680Y015167D01*
X022680Y015117D01*
X022676Y015067D01*
X022668Y015018D01*
X022656Y014969D01*
X022640Y014921D01*
X022621Y014875D01*
X022598Y014831D01*
X022571Y014788D01*
X022541Y014748D01*
X022509Y014710D01*
X022473Y014675D01*
X022434Y014643D01*
X022393Y014614D01*
X022350Y014588D01*
X022305Y014566D01*
X022259Y014548D01*
X022211Y014533D01*
X022162Y014522D01*
X022113Y014515D01*
X022063Y014512D01*
X022012Y014513D01*
X021963Y014518D01*
X021913Y014527D01*
X021865Y014540D01*
X021818Y014556D01*
X021772Y014577D01*
X021728Y014601D01*
X021686Y014628D01*
X021646Y014658D01*
X021609Y014692D01*
X021575Y014729D01*
X021543Y014768D01*
X021515Y014809D01*
X021490Y014853D01*
X021469Y014898D01*
X021452Y014945D01*
X021438Y014993D01*
X021428Y015042D01*
X021422Y015092D01*
X021420Y015142D01*
X023633Y017751D02*
X023635Y017777D01*
X023641Y017803D01*
X023651Y017828D01*
X023664Y017851D01*
X023680Y017871D01*
X023700Y017889D01*
X023722Y017904D01*
X023745Y017916D01*
X023771Y017924D01*
X023797Y017928D01*
X023823Y017928D01*
X023849Y017924D01*
X023875Y017916D01*
X023899Y017904D01*
X023920Y017889D01*
X023940Y017871D01*
X023956Y017851D01*
X023969Y017828D01*
X023979Y017803D01*
X023985Y017777D01*
X023987Y017751D01*
X023985Y017725D01*
X023979Y017699D01*
X023969Y017674D01*
X023956Y017651D01*
X023940Y017631D01*
X023920Y017613D01*
X023898Y017598D01*
X023875Y017586D01*
X023849Y017578D01*
X023823Y017574D01*
X023797Y017574D01*
X023771Y017578D01*
X023745Y017586D01*
X023721Y017598D01*
X023700Y017613D01*
X023680Y017631D01*
X023664Y017651D01*
X023651Y017674D01*
X023641Y017699D01*
X023635Y017725D01*
X023633Y017751D01*
X023633Y026845D02*
X023635Y026871D01*
X023641Y026897D01*
X023651Y026922D01*
X023664Y026945D01*
X023680Y026965D01*
X023700Y026983D01*
X023722Y026998D01*
X023745Y027010D01*
X023771Y027018D01*
X023797Y027022D01*
X023823Y027022D01*
X023849Y027018D01*
X023875Y027010D01*
X023899Y026998D01*
X023920Y026983D01*
X023940Y026965D01*
X023956Y026945D01*
X023969Y026922D01*
X023979Y026897D01*
X023985Y026871D01*
X023987Y026845D01*
X023985Y026819D01*
X023979Y026793D01*
X023969Y026768D01*
X023956Y026745D01*
X023940Y026725D01*
X023920Y026707D01*
X023898Y026692D01*
X023875Y026680D01*
X023849Y026672D01*
X023823Y026668D01*
X023797Y026668D01*
X023771Y026672D01*
X023745Y026680D01*
X023721Y026692D01*
X023700Y026707D01*
X023680Y026725D01*
X023664Y026745D01*
X023651Y026768D01*
X023641Y026793D01*
X023635Y026819D01*
X023633Y026845D01*
X007806Y026845D02*
X007808Y026871D01*
X007814Y026897D01*
X007824Y026922D01*
X007837Y026945D01*
X007853Y026965D01*
X007873Y026983D01*
X007895Y026998D01*
X007918Y027010D01*
X007944Y027018D01*
X007970Y027022D01*
X007996Y027022D01*
X008022Y027018D01*
X008048Y027010D01*
X008072Y026998D01*
X008093Y026983D01*
X008113Y026965D01*
X008129Y026945D01*
X008142Y026922D01*
X008152Y026897D01*
X008158Y026871D01*
X008160Y026845D01*
X008158Y026819D01*
X008152Y026793D01*
X008142Y026768D01*
X008129Y026745D01*
X008113Y026725D01*
X008093Y026707D01*
X008071Y026692D01*
X008048Y026680D01*
X008022Y026672D01*
X007996Y026668D01*
X007970Y026668D01*
X007944Y026672D01*
X007918Y026680D01*
X007894Y026692D01*
X007873Y026707D01*
X007853Y026725D01*
X007837Y026745D01*
X007824Y026768D01*
X007814Y026793D01*
X007808Y026819D01*
X007806Y026845D01*
X036867Y015134D02*
X036869Y015168D01*
X036875Y015202D01*
X036884Y015235D01*
X036898Y015266D01*
X036915Y015296D01*
X036935Y015324D01*
X036958Y015349D01*
X036984Y015372D01*
X037012Y015391D01*
X037042Y015407D01*
X037074Y015419D01*
X037107Y015428D01*
X037141Y015433D01*
X037176Y015434D01*
X037210Y015431D01*
X037243Y015424D01*
X037276Y015414D01*
X037307Y015399D01*
X037336Y015382D01*
X037363Y015361D01*
X037388Y015337D01*
X037410Y015310D01*
X037428Y015282D01*
X037443Y015251D01*
X037455Y015219D01*
X037463Y015185D01*
X037467Y015151D01*
X037467Y015117D01*
X037463Y015083D01*
X037455Y015049D01*
X037443Y015017D01*
X037428Y014986D01*
X037410Y014958D01*
X037388Y014931D01*
X037363Y014907D01*
X037336Y014886D01*
X037307Y014869D01*
X037276Y014854D01*
X037243Y014844D01*
X037210Y014837D01*
X037176Y014834D01*
X037141Y014835D01*
X037107Y014840D01*
X037074Y014849D01*
X037042Y014861D01*
X037012Y014877D01*
X036984Y014896D01*
X036958Y014919D01*
X036935Y014944D01*
X036915Y014972D01*
X036898Y015002D01*
X036884Y015033D01*
X036875Y015066D01*
X036869Y015100D01*
X036867Y015134D01*
X036872Y009434D02*
X036874Y009468D01*
X036880Y009502D01*
X036890Y009535D01*
X036903Y009566D01*
X036921Y009596D01*
X036941Y009624D01*
X036965Y009649D01*
X036991Y009671D01*
X037019Y009689D01*
X037050Y009705D01*
X037082Y009717D01*
X037116Y009725D01*
X037150Y009729D01*
X037184Y009729D01*
X037218Y009725D01*
X037252Y009717D01*
X037284Y009705D01*
X037314Y009689D01*
X037343Y009671D01*
X037369Y009649D01*
X037393Y009624D01*
X037413Y009596D01*
X037431Y009566D01*
X037444Y009535D01*
X037454Y009502D01*
X037460Y009468D01*
X037462Y009434D01*
X037460Y009400D01*
X037454Y009366D01*
X037444Y009333D01*
X037431Y009302D01*
X037413Y009272D01*
X037393Y009244D01*
X037369Y009219D01*
X037343Y009197D01*
X037315Y009179D01*
X037284Y009163D01*
X037252Y009151D01*
X037218Y009143D01*
X037184Y009139D01*
X037150Y009139D01*
X037116Y009143D01*
X037082Y009151D01*
X037050Y009163D01*
X037019Y009179D01*
X036991Y009197D01*
X036965Y009219D01*
X036941Y009244D01*
X036921Y009272D01*
X036903Y009302D01*
X036890Y009333D01*
X036880Y009366D01*
X036874Y009400D01*
X036872Y009434D01*
X021420Y002544D02*
X021422Y002594D01*
X021428Y002644D01*
X021438Y002693D01*
X021452Y002741D01*
X021469Y002788D01*
X021490Y002833D01*
X021515Y002877D01*
X021543Y002918D01*
X021575Y002957D01*
X021609Y002994D01*
X021646Y003028D01*
X021686Y003058D01*
X021728Y003085D01*
X021772Y003109D01*
X021818Y003130D01*
X021865Y003146D01*
X021913Y003159D01*
X021963Y003168D01*
X022012Y003173D01*
X022063Y003174D01*
X022113Y003171D01*
X022162Y003164D01*
X022211Y003153D01*
X022259Y003138D01*
X022305Y003120D01*
X022350Y003098D01*
X022393Y003072D01*
X022434Y003043D01*
X022473Y003011D01*
X022509Y002976D01*
X022541Y002938D01*
X022571Y002898D01*
X022598Y002855D01*
X022621Y002811D01*
X022640Y002765D01*
X022656Y002717D01*
X022668Y002668D01*
X022676Y002619D01*
X022680Y002569D01*
X022680Y002519D01*
X022676Y002469D01*
X022668Y002420D01*
X022656Y002371D01*
X022640Y002323D01*
X022621Y002277D01*
X022598Y002233D01*
X022571Y002190D01*
X022541Y002150D01*
X022509Y002112D01*
X022473Y002077D01*
X022434Y002045D01*
X022393Y002016D01*
X022350Y001990D01*
X022305Y001968D01*
X022259Y001950D01*
X022211Y001935D01*
X022162Y001924D01*
X022113Y001917D01*
X022063Y001914D01*
X022012Y001915D01*
X021963Y001920D01*
X021913Y001929D01*
X021865Y001942D01*
X021818Y001958D01*
X021772Y001979D01*
X021728Y002003D01*
X021686Y002030D01*
X021646Y002060D01*
X021609Y002094D01*
X021575Y002131D01*
X021543Y002170D01*
X021515Y002211D01*
X021490Y002255D01*
X021469Y002300D01*
X021452Y002347D01*
X021438Y002395D01*
X021428Y002444D01*
X021422Y002494D01*
X021420Y002544D01*
D11*
X020621Y017751D03*
X020030Y017751D03*
X019440Y017751D03*
X018849Y017751D03*
X018259Y017751D03*
X017668Y017751D03*
X017078Y017751D03*
X016487Y017751D03*
X015896Y017751D03*
X015306Y017751D03*
X014715Y017751D03*
X014125Y017751D03*
X013534Y017751D03*
X012944Y017751D03*
X012353Y017751D03*
X011763Y017751D03*
X011172Y017751D03*
D12*
X009085Y018519D03*
X022707Y018519D03*
D13*
X023810Y017751D03*
X023810Y026845D03*
X007983Y026845D03*
X007983Y017751D03*
D14*
X014054Y015843D03*
X017054Y015843D03*
X017054Y011843D03*
X017554Y010343D03*
X019054Y010843D03*
X022054Y010843D03*
X017554Y007343D03*
X019054Y006843D03*
X017054Y005843D03*
X014054Y005843D03*
X013554Y007343D03*
X012054Y006843D03*
X009054Y006843D03*
X013554Y010343D03*
X012054Y010843D03*
X014054Y011843D03*
X009054Y010843D03*
X014054Y001843D03*
X017054Y001843D03*
X022054Y006843D03*
D15*
X022050Y002544D03*
X009058Y002544D03*
X009058Y015142D03*
X022050Y015142D03*
D16*
X032014Y014854D03*
X032014Y013870D03*
X032014Y012886D03*
X031964Y009803D03*
X031964Y008819D03*
X031964Y007834D03*
X031911Y004795D03*
X031911Y003811D03*
X031911Y002826D03*
X032014Y017991D03*
X032014Y018975D03*
X032014Y019959D03*
X032061Y023092D03*
X032061Y024076D03*
X032061Y025061D03*
D17*
X029305Y025809D03*
X029305Y022344D03*
X029258Y020707D03*
X029258Y017243D03*
X029258Y015602D03*
X029258Y012138D03*
X029208Y010551D03*
X029208Y007086D03*
X029155Y005543D03*
X029155Y002078D03*
D18*
X026050Y017933D03*
X025050Y017933D03*
X025050Y019933D03*
X026050Y019933D03*
X026050Y021933D03*
X025050Y021933D03*
X025050Y023933D03*
X026050Y023933D03*
X026050Y025933D03*
X025050Y025933D03*
D19*
X038380Y026465D02*
X038382Y026502D01*
X038388Y026539D01*
X038397Y026574D01*
X038411Y026609D01*
X038427Y026642D01*
X038448Y026673D01*
X038471Y026702D01*
X038497Y026728D01*
X038526Y026751D01*
X038557Y026772D01*
X038590Y026788D01*
X038625Y026802D01*
X038660Y026811D01*
X038697Y026817D01*
X038734Y026819D01*
X038771Y026817D01*
X038808Y026811D01*
X038843Y026802D01*
X038878Y026788D01*
X038911Y026772D01*
X038942Y026751D01*
X038971Y026728D01*
X038997Y026702D01*
X039020Y026673D01*
X039041Y026642D01*
X039057Y026609D01*
X039071Y026574D01*
X039080Y026539D01*
X039086Y026502D01*
X039088Y026465D01*
X039086Y026428D01*
X039080Y026391D01*
X039071Y026356D01*
X039057Y026321D01*
X039041Y026288D01*
X039020Y026257D01*
X038997Y026228D01*
X038971Y026202D01*
X038942Y026179D01*
X038911Y026158D01*
X038878Y026142D01*
X038843Y026128D01*
X038808Y026119D01*
X038771Y026113D01*
X038734Y026111D01*
X038697Y026113D01*
X038660Y026119D01*
X038625Y026128D01*
X038590Y026142D01*
X038557Y026158D01*
X038526Y026179D01*
X038497Y026202D01*
X038471Y026228D01*
X038448Y026257D01*
X038427Y026288D01*
X038411Y026321D01*
X038397Y026356D01*
X038388Y026391D01*
X038382Y026428D01*
X038380Y026465D01*
X038380Y001269D02*
X038382Y001306D01*
X038388Y001343D01*
X038397Y001378D01*
X038411Y001413D01*
X038427Y001446D01*
X038448Y001477D01*
X038471Y001506D01*
X038497Y001532D01*
X038526Y001555D01*
X038557Y001576D01*
X038590Y001592D01*
X038625Y001606D01*
X038660Y001615D01*
X038697Y001621D01*
X038734Y001623D01*
X038771Y001621D01*
X038808Y001615D01*
X038843Y001606D01*
X038878Y001592D01*
X038911Y001576D01*
X038942Y001555D01*
X038971Y001532D01*
X038997Y001506D01*
X039020Y001477D01*
X039041Y001446D01*
X039057Y001413D01*
X039071Y001378D01*
X039080Y001343D01*
X039086Y001306D01*
X039088Y001269D01*
X039086Y001232D01*
X039080Y001195D01*
X039071Y001160D01*
X039057Y001125D01*
X039041Y001092D01*
X039020Y001061D01*
X038997Y001032D01*
X038971Y001006D01*
X038942Y000983D01*
X038911Y000962D01*
X038878Y000946D01*
X038843Y000932D01*
X038808Y000923D01*
X038771Y000917D01*
X038734Y000915D01*
X038697Y000917D01*
X038660Y000923D01*
X038625Y000932D01*
X038590Y000946D01*
X038557Y000962D01*
X038526Y000983D01*
X038497Y001006D01*
X038471Y001032D01*
X038448Y001061D01*
X038427Y001092D01*
X038411Y001125D01*
X038397Y001160D01*
X038388Y001195D01*
X038382Y001232D01*
X038380Y001269D01*
X000585Y001269D02*
X000587Y001306D01*
X000593Y001343D01*
X000602Y001378D01*
X000616Y001413D01*
X000632Y001446D01*
X000653Y001477D01*
X000676Y001506D01*
X000702Y001532D01*
X000731Y001555D01*
X000762Y001576D01*
X000795Y001592D01*
X000830Y001606D01*
X000865Y001615D01*
X000902Y001621D01*
X000939Y001623D01*
X000976Y001621D01*
X001013Y001615D01*
X001048Y001606D01*
X001083Y001592D01*
X001116Y001576D01*
X001147Y001555D01*
X001176Y001532D01*
X001202Y001506D01*
X001225Y001477D01*
X001246Y001446D01*
X001262Y001413D01*
X001276Y001378D01*
X001285Y001343D01*
X001291Y001306D01*
X001293Y001269D01*
X001291Y001232D01*
X001285Y001195D01*
X001276Y001160D01*
X001262Y001125D01*
X001246Y001092D01*
X001225Y001061D01*
X001202Y001032D01*
X001176Y001006D01*
X001147Y000983D01*
X001116Y000962D01*
X001083Y000946D01*
X001048Y000932D01*
X001013Y000923D01*
X000976Y000917D01*
X000939Y000915D01*
X000902Y000917D01*
X000865Y000923D01*
X000830Y000932D01*
X000795Y000946D01*
X000762Y000962D01*
X000731Y000983D01*
X000702Y001006D01*
X000676Y001032D01*
X000653Y001061D01*
X000632Y001092D01*
X000616Y001125D01*
X000602Y001160D01*
X000593Y001195D01*
X000587Y001232D01*
X000585Y001269D01*
X000585Y026465D02*
X000587Y026502D01*
X000593Y026539D01*
X000602Y026574D01*
X000616Y026609D01*
X000632Y026642D01*
X000653Y026673D01*
X000676Y026702D01*
X000702Y026728D01*
X000731Y026751D01*
X000762Y026772D01*
X000795Y026788D01*
X000830Y026802D01*
X000865Y026811D01*
X000902Y026817D01*
X000939Y026819D01*
X000976Y026817D01*
X001013Y026811D01*
X001048Y026802D01*
X001083Y026788D01*
X001116Y026772D01*
X001147Y026751D01*
X001176Y026728D01*
X001202Y026702D01*
X001225Y026673D01*
X001246Y026642D01*
X001262Y026609D01*
X001276Y026574D01*
X001285Y026539D01*
X001291Y026502D01*
X001293Y026465D01*
X001291Y026428D01*
X001285Y026391D01*
X001276Y026356D01*
X001262Y026321D01*
X001246Y026288D01*
X001225Y026257D01*
X001202Y026228D01*
X001176Y026202D01*
X001147Y026179D01*
X001116Y026158D01*
X001083Y026142D01*
X001048Y026128D01*
X001013Y026119D01*
X000976Y026113D01*
X000939Y026111D01*
X000902Y026113D01*
X000865Y026119D01*
X000830Y026128D01*
X000795Y026142D01*
X000762Y026158D01*
X000731Y026179D01*
X000702Y026202D01*
X000676Y026228D01*
X000653Y026257D01*
X000632Y026288D01*
X000616Y026321D01*
X000602Y026356D01*
X000593Y026391D01*
X000587Y026428D01*
X000585Y026465D01*
D20*
X000939Y026465D03*
X000939Y001269D03*
X038734Y001269D03*
X038734Y026465D03*
D21*
X037167Y009434D03*
X002521Y009434D03*
D22*
X002521Y015134D03*
X037167Y015134D03*
D23*
X006773Y011812D03*
X004883Y011536D03*
X004883Y012520D03*
X004844Y013544D03*
X004844Y014528D03*
X004844Y010513D03*
X005822Y006851D03*
X005789Y004804D03*
X005789Y003820D03*
X005789Y001300D03*
D24*
X011813Y005158D03*
X015828Y008032D03*
X017285Y008702D03*
X015710Y010198D03*
X012009Y009450D03*
X017206Y013505D03*
X012915Y016379D03*
X011734Y016418D03*
X011813Y019646D03*
X004293Y014528D03*
X004293Y013544D03*
X004293Y012540D03*
X004293Y011536D03*
X004296Y010534D03*
X001104Y010513D03*
X001104Y011024D03*
X001104Y011536D03*
X001104Y012048D03*
X001104Y012560D03*
X001104Y013544D03*
X001104Y014568D03*
X001616Y020237D03*
X001970Y020591D03*
X003112Y020946D03*
X003506Y021300D03*
X003860Y021733D03*
X021813Y005198D03*
X017167Y003545D03*
X030435Y012048D03*
X033072Y011654D03*
X033466Y012678D03*
X033899Y013072D03*
X034805Y013702D03*
X035198Y014213D03*
X035671Y015001D03*
X034372Y015709D03*
X033072Y016891D03*
X037757Y015001D03*
X038565Y014056D03*
X038584Y013544D03*
X038584Y013072D03*
X038584Y012520D03*
X038565Y012048D03*
X038584Y011536D03*
X038584Y011024D03*
X038584Y010552D03*
X037757Y009568D03*
X036537Y009568D03*
X035317Y008308D03*
X034883Y008741D03*
X035828Y007875D03*
X034332Y005985D03*
X032876Y008347D03*
X033309Y008898D03*
X034332Y010355D03*
X038781Y020316D03*
X038387Y021457D03*
X035661Y023199D03*
X035198Y022284D03*
X033466Y022206D03*
X034805Y020946D03*
X033899Y023977D03*
M02*
