G75*
G70*
%OFA0B0*%
%FSLAX24Y24*%
%IPPOS*%
%LPD*%
%AMOC8*
5,1,8,0,0,1.08239X$1,22.5*
%
%ADD10C,0.0000*%
%ADD11C,0.0050*%
D10*
X000159Y000473D02*
X039529Y000473D01*
X039529Y027245D01*
X000159Y027245D01*
X000159Y000473D01*
X008428Y002544D02*
X008430Y002594D01*
X008436Y002644D01*
X008446Y002693D01*
X008460Y002741D01*
X008477Y002788D01*
X008498Y002833D01*
X008523Y002877D01*
X008551Y002918D01*
X008583Y002957D01*
X008617Y002994D01*
X008654Y003028D01*
X008694Y003058D01*
X008736Y003085D01*
X008780Y003109D01*
X008826Y003130D01*
X008873Y003146D01*
X008921Y003159D01*
X008971Y003168D01*
X009020Y003173D01*
X009071Y003174D01*
X009121Y003171D01*
X009170Y003164D01*
X009219Y003153D01*
X009267Y003138D01*
X009313Y003120D01*
X009358Y003098D01*
X009401Y003072D01*
X009442Y003043D01*
X009481Y003011D01*
X009517Y002976D01*
X009549Y002938D01*
X009579Y002898D01*
X009606Y002855D01*
X009629Y002811D01*
X009648Y002765D01*
X009664Y002717D01*
X009676Y002668D01*
X009684Y002619D01*
X009688Y002569D01*
X009688Y002519D01*
X009684Y002469D01*
X009676Y002420D01*
X009664Y002371D01*
X009648Y002323D01*
X009629Y002277D01*
X009606Y002233D01*
X009579Y002190D01*
X009549Y002150D01*
X009517Y002112D01*
X009481Y002077D01*
X009442Y002045D01*
X009401Y002016D01*
X009358Y001990D01*
X009313Y001968D01*
X009267Y001950D01*
X009219Y001935D01*
X009170Y001924D01*
X009121Y001917D01*
X009071Y001914D01*
X009020Y001915D01*
X008971Y001920D01*
X008921Y001929D01*
X008873Y001942D01*
X008826Y001958D01*
X008780Y001979D01*
X008736Y002003D01*
X008694Y002030D01*
X008654Y002060D01*
X008617Y002094D01*
X008583Y002131D01*
X008551Y002170D01*
X008523Y002211D01*
X008498Y002255D01*
X008477Y002300D01*
X008460Y002347D01*
X008446Y002395D01*
X008436Y002444D01*
X008430Y002494D01*
X008428Y002544D01*
X002226Y009434D02*
X002228Y009468D01*
X002234Y009502D01*
X002244Y009535D01*
X002257Y009566D01*
X002275Y009596D01*
X002295Y009624D01*
X002319Y009649D01*
X002345Y009671D01*
X002373Y009689D01*
X002404Y009705D01*
X002436Y009717D01*
X002470Y009725D01*
X002504Y009729D01*
X002538Y009729D01*
X002572Y009725D01*
X002606Y009717D01*
X002638Y009705D01*
X002668Y009689D01*
X002697Y009671D01*
X002723Y009649D01*
X002747Y009624D01*
X002767Y009596D01*
X002785Y009566D01*
X002798Y009535D01*
X002808Y009502D01*
X002814Y009468D01*
X002816Y009434D01*
X002814Y009400D01*
X002808Y009366D01*
X002798Y009333D01*
X002785Y009302D01*
X002767Y009272D01*
X002747Y009244D01*
X002723Y009219D01*
X002697Y009197D01*
X002669Y009179D01*
X002638Y009163D01*
X002606Y009151D01*
X002572Y009143D01*
X002538Y009139D01*
X002504Y009139D01*
X002470Y009143D01*
X002436Y009151D01*
X002404Y009163D01*
X002373Y009179D01*
X002345Y009197D01*
X002319Y009219D01*
X002295Y009244D01*
X002275Y009272D01*
X002257Y009302D01*
X002244Y009333D01*
X002234Y009366D01*
X002228Y009400D01*
X002226Y009434D01*
X002221Y015134D02*
X002223Y015168D01*
X002229Y015202D01*
X002238Y015235D01*
X002252Y015266D01*
X002269Y015296D01*
X002289Y015324D01*
X002312Y015349D01*
X002338Y015372D01*
X002366Y015391D01*
X002396Y015407D01*
X002428Y015419D01*
X002461Y015428D01*
X002495Y015433D01*
X002530Y015434D01*
X002564Y015431D01*
X002597Y015424D01*
X002630Y015414D01*
X002661Y015399D01*
X002690Y015382D01*
X002717Y015361D01*
X002742Y015337D01*
X002764Y015310D01*
X002782Y015282D01*
X002797Y015251D01*
X002809Y015219D01*
X002817Y015185D01*
X002821Y015151D01*
X002821Y015117D01*
X002817Y015083D01*
X002809Y015049D01*
X002797Y015017D01*
X002782Y014986D01*
X002764Y014958D01*
X002742Y014931D01*
X002717Y014907D01*
X002690Y014886D01*
X002661Y014869D01*
X002630Y014854D01*
X002597Y014844D01*
X002564Y014837D01*
X002530Y014834D01*
X002495Y014835D01*
X002461Y014840D01*
X002428Y014849D01*
X002396Y014861D01*
X002366Y014877D01*
X002338Y014896D01*
X002312Y014919D01*
X002289Y014944D01*
X002269Y014972D01*
X002252Y015002D01*
X002238Y015033D01*
X002229Y015066D01*
X002223Y015100D01*
X002221Y015134D01*
X007806Y017751D02*
X007808Y017777D01*
X007814Y017803D01*
X007824Y017828D01*
X007837Y017851D01*
X007853Y017871D01*
X007873Y017889D01*
X007895Y017904D01*
X007918Y017916D01*
X007944Y017924D01*
X007970Y017928D01*
X007996Y017928D01*
X008022Y017924D01*
X008048Y017916D01*
X008072Y017904D01*
X008093Y017889D01*
X008113Y017871D01*
X008129Y017851D01*
X008142Y017828D01*
X008152Y017803D01*
X008158Y017777D01*
X008160Y017751D01*
X008158Y017725D01*
X008152Y017699D01*
X008142Y017674D01*
X008129Y017651D01*
X008113Y017631D01*
X008093Y017613D01*
X008071Y017598D01*
X008048Y017586D01*
X008022Y017578D01*
X007996Y017574D01*
X007970Y017574D01*
X007944Y017578D01*
X007918Y017586D01*
X007894Y017598D01*
X007873Y017613D01*
X007853Y017631D01*
X007837Y017651D01*
X007824Y017674D01*
X007814Y017699D01*
X007808Y017725D01*
X007806Y017751D01*
X008428Y015142D02*
X008430Y015192D01*
X008436Y015242D01*
X008446Y015291D01*
X008460Y015339D01*
X008477Y015386D01*
X008498Y015431D01*
X008523Y015475D01*
X008551Y015516D01*
X008583Y015555D01*
X008617Y015592D01*
X008654Y015626D01*
X008694Y015656D01*
X008736Y015683D01*
X008780Y015707D01*
X008826Y015728D01*
X008873Y015744D01*
X008921Y015757D01*
X008971Y015766D01*
X009020Y015771D01*
X009071Y015772D01*
X009121Y015769D01*
X009170Y015762D01*
X009219Y015751D01*
X009267Y015736D01*
X009313Y015718D01*
X009358Y015696D01*
X009401Y015670D01*
X009442Y015641D01*
X009481Y015609D01*
X009517Y015574D01*
X009549Y015536D01*
X009579Y015496D01*
X009606Y015453D01*
X009629Y015409D01*
X009648Y015363D01*
X009664Y015315D01*
X009676Y015266D01*
X009684Y015217D01*
X009688Y015167D01*
X009688Y015117D01*
X009684Y015067D01*
X009676Y015018D01*
X009664Y014969D01*
X009648Y014921D01*
X009629Y014875D01*
X009606Y014831D01*
X009579Y014788D01*
X009549Y014748D01*
X009517Y014710D01*
X009481Y014675D01*
X009442Y014643D01*
X009401Y014614D01*
X009358Y014588D01*
X009313Y014566D01*
X009267Y014548D01*
X009219Y014533D01*
X009170Y014522D01*
X009121Y014515D01*
X009071Y014512D01*
X009020Y014513D01*
X008971Y014518D01*
X008921Y014527D01*
X008873Y014540D01*
X008826Y014556D01*
X008780Y014577D01*
X008736Y014601D01*
X008694Y014628D01*
X008654Y014658D01*
X008617Y014692D01*
X008583Y014729D01*
X008551Y014768D01*
X008523Y014809D01*
X008498Y014853D01*
X008477Y014898D01*
X008460Y014945D01*
X008446Y014993D01*
X008436Y015042D01*
X008430Y015092D01*
X008428Y015142D01*
X021420Y015142D02*
X021422Y015192D01*
X021428Y015242D01*
X021438Y015291D01*
X021452Y015339D01*
X021469Y015386D01*
X021490Y015431D01*
X021515Y015475D01*
X021543Y015516D01*
X021575Y015555D01*
X021609Y015592D01*
X021646Y015626D01*
X021686Y015656D01*
X021728Y015683D01*
X021772Y015707D01*
X021818Y015728D01*
X021865Y015744D01*
X021913Y015757D01*
X021963Y015766D01*
X022012Y015771D01*
X022063Y015772D01*
X022113Y015769D01*
X022162Y015762D01*
X022211Y015751D01*
X022259Y015736D01*
X022305Y015718D01*
X022350Y015696D01*
X022393Y015670D01*
X022434Y015641D01*
X022473Y015609D01*
X022509Y015574D01*
X022541Y015536D01*
X022571Y015496D01*
X022598Y015453D01*
X022621Y015409D01*
X022640Y015363D01*
X022656Y015315D01*
X022668Y015266D01*
X022676Y015217D01*
X022680Y015167D01*
X022680Y015117D01*
X022676Y015067D01*
X022668Y015018D01*
X022656Y014969D01*
X022640Y014921D01*
X022621Y014875D01*
X022598Y014831D01*
X022571Y014788D01*
X022541Y014748D01*
X022509Y014710D01*
X022473Y014675D01*
X022434Y014643D01*
X022393Y014614D01*
X022350Y014588D01*
X022305Y014566D01*
X022259Y014548D01*
X022211Y014533D01*
X022162Y014522D01*
X022113Y014515D01*
X022063Y014512D01*
X022012Y014513D01*
X021963Y014518D01*
X021913Y014527D01*
X021865Y014540D01*
X021818Y014556D01*
X021772Y014577D01*
X021728Y014601D01*
X021686Y014628D01*
X021646Y014658D01*
X021609Y014692D01*
X021575Y014729D01*
X021543Y014768D01*
X021515Y014809D01*
X021490Y014853D01*
X021469Y014898D01*
X021452Y014945D01*
X021438Y014993D01*
X021428Y015042D01*
X021422Y015092D01*
X021420Y015142D01*
X023633Y017751D02*
X023635Y017777D01*
X023641Y017803D01*
X023651Y017828D01*
X023664Y017851D01*
X023680Y017871D01*
X023700Y017889D01*
X023722Y017904D01*
X023745Y017916D01*
X023771Y017924D01*
X023797Y017928D01*
X023823Y017928D01*
X023849Y017924D01*
X023875Y017916D01*
X023899Y017904D01*
X023920Y017889D01*
X023940Y017871D01*
X023956Y017851D01*
X023969Y017828D01*
X023979Y017803D01*
X023985Y017777D01*
X023987Y017751D01*
X023985Y017725D01*
X023979Y017699D01*
X023969Y017674D01*
X023956Y017651D01*
X023940Y017631D01*
X023920Y017613D01*
X023898Y017598D01*
X023875Y017586D01*
X023849Y017578D01*
X023823Y017574D01*
X023797Y017574D01*
X023771Y017578D01*
X023745Y017586D01*
X023721Y017598D01*
X023700Y017613D01*
X023680Y017631D01*
X023664Y017651D01*
X023651Y017674D01*
X023641Y017699D01*
X023635Y017725D01*
X023633Y017751D01*
X023633Y026845D02*
X023635Y026871D01*
X023641Y026897D01*
X023651Y026922D01*
X023664Y026945D01*
X023680Y026965D01*
X023700Y026983D01*
X023722Y026998D01*
X023745Y027010D01*
X023771Y027018D01*
X023797Y027022D01*
X023823Y027022D01*
X023849Y027018D01*
X023875Y027010D01*
X023899Y026998D01*
X023920Y026983D01*
X023940Y026965D01*
X023956Y026945D01*
X023969Y026922D01*
X023979Y026897D01*
X023985Y026871D01*
X023987Y026845D01*
X023985Y026819D01*
X023979Y026793D01*
X023969Y026768D01*
X023956Y026745D01*
X023940Y026725D01*
X023920Y026707D01*
X023898Y026692D01*
X023875Y026680D01*
X023849Y026672D01*
X023823Y026668D01*
X023797Y026668D01*
X023771Y026672D01*
X023745Y026680D01*
X023721Y026692D01*
X023700Y026707D01*
X023680Y026725D01*
X023664Y026745D01*
X023651Y026768D01*
X023641Y026793D01*
X023635Y026819D01*
X023633Y026845D01*
X007806Y026845D02*
X007808Y026871D01*
X007814Y026897D01*
X007824Y026922D01*
X007837Y026945D01*
X007853Y026965D01*
X007873Y026983D01*
X007895Y026998D01*
X007918Y027010D01*
X007944Y027018D01*
X007970Y027022D01*
X007996Y027022D01*
X008022Y027018D01*
X008048Y027010D01*
X008072Y026998D01*
X008093Y026983D01*
X008113Y026965D01*
X008129Y026945D01*
X008142Y026922D01*
X008152Y026897D01*
X008158Y026871D01*
X008160Y026845D01*
X008158Y026819D01*
X008152Y026793D01*
X008142Y026768D01*
X008129Y026745D01*
X008113Y026725D01*
X008093Y026707D01*
X008071Y026692D01*
X008048Y026680D01*
X008022Y026672D01*
X007996Y026668D01*
X007970Y026668D01*
X007944Y026672D01*
X007918Y026680D01*
X007894Y026692D01*
X007873Y026707D01*
X007853Y026725D01*
X007837Y026745D01*
X007824Y026768D01*
X007814Y026793D01*
X007808Y026819D01*
X007806Y026845D01*
X036867Y015134D02*
X036869Y015168D01*
X036875Y015202D01*
X036884Y015235D01*
X036898Y015266D01*
X036915Y015296D01*
X036935Y015324D01*
X036958Y015349D01*
X036984Y015372D01*
X037012Y015391D01*
X037042Y015407D01*
X037074Y015419D01*
X037107Y015428D01*
X037141Y015433D01*
X037176Y015434D01*
X037210Y015431D01*
X037243Y015424D01*
X037276Y015414D01*
X037307Y015399D01*
X037336Y015382D01*
X037363Y015361D01*
X037388Y015337D01*
X037410Y015310D01*
X037428Y015282D01*
X037443Y015251D01*
X037455Y015219D01*
X037463Y015185D01*
X037467Y015151D01*
X037467Y015117D01*
X037463Y015083D01*
X037455Y015049D01*
X037443Y015017D01*
X037428Y014986D01*
X037410Y014958D01*
X037388Y014931D01*
X037363Y014907D01*
X037336Y014886D01*
X037307Y014869D01*
X037276Y014854D01*
X037243Y014844D01*
X037210Y014837D01*
X037176Y014834D01*
X037141Y014835D01*
X037107Y014840D01*
X037074Y014849D01*
X037042Y014861D01*
X037012Y014877D01*
X036984Y014896D01*
X036958Y014919D01*
X036935Y014944D01*
X036915Y014972D01*
X036898Y015002D01*
X036884Y015033D01*
X036875Y015066D01*
X036869Y015100D01*
X036867Y015134D01*
X036872Y009434D02*
X036874Y009468D01*
X036880Y009502D01*
X036890Y009535D01*
X036903Y009566D01*
X036921Y009596D01*
X036941Y009624D01*
X036965Y009649D01*
X036991Y009671D01*
X037019Y009689D01*
X037050Y009705D01*
X037082Y009717D01*
X037116Y009725D01*
X037150Y009729D01*
X037184Y009729D01*
X037218Y009725D01*
X037252Y009717D01*
X037284Y009705D01*
X037314Y009689D01*
X037343Y009671D01*
X037369Y009649D01*
X037393Y009624D01*
X037413Y009596D01*
X037431Y009566D01*
X037444Y009535D01*
X037454Y009502D01*
X037460Y009468D01*
X037462Y009434D01*
X037460Y009400D01*
X037454Y009366D01*
X037444Y009333D01*
X037431Y009302D01*
X037413Y009272D01*
X037393Y009244D01*
X037369Y009219D01*
X037343Y009197D01*
X037315Y009179D01*
X037284Y009163D01*
X037252Y009151D01*
X037218Y009143D01*
X037184Y009139D01*
X037150Y009139D01*
X037116Y009143D01*
X037082Y009151D01*
X037050Y009163D01*
X037019Y009179D01*
X036991Y009197D01*
X036965Y009219D01*
X036941Y009244D01*
X036921Y009272D01*
X036903Y009302D01*
X036890Y009333D01*
X036880Y009366D01*
X036874Y009400D01*
X036872Y009434D01*
X021420Y002544D02*
X021422Y002594D01*
X021428Y002644D01*
X021438Y002693D01*
X021452Y002741D01*
X021469Y002788D01*
X021490Y002833D01*
X021515Y002877D01*
X021543Y002918D01*
X021575Y002957D01*
X021609Y002994D01*
X021646Y003028D01*
X021686Y003058D01*
X021728Y003085D01*
X021772Y003109D01*
X021818Y003130D01*
X021865Y003146D01*
X021913Y003159D01*
X021963Y003168D01*
X022012Y003173D01*
X022063Y003174D01*
X022113Y003171D01*
X022162Y003164D01*
X022211Y003153D01*
X022259Y003138D01*
X022305Y003120D01*
X022350Y003098D01*
X022393Y003072D01*
X022434Y003043D01*
X022473Y003011D01*
X022509Y002976D01*
X022541Y002938D01*
X022571Y002898D01*
X022598Y002855D01*
X022621Y002811D01*
X022640Y002765D01*
X022656Y002717D01*
X022668Y002668D01*
X022676Y002619D01*
X022680Y002569D01*
X022680Y002519D01*
X022676Y002469D01*
X022668Y002420D01*
X022656Y002371D01*
X022640Y002323D01*
X022621Y002277D01*
X022598Y002233D01*
X022571Y002190D01*
X022541Y002150D01*
X022509Y002112D01*
X022473Y002077D01*
X022434Y002045D01*
X022393Y002016D01*
X022350Y001990D01*
X022305Y001968D01*
X022259Y001950D01*
X022211Y001935D01*
X022162Y001924D01*
X022113Y001917D01*
X022063Y001914D01*
X022012Y001915D01*
X021963Y001920D01*
X021913Y001929D01*
X021865Y001942D01*
X021818Y001958D01*
X021772Y001979D01*
X021728Y002003D01*
X021686Y002030D01*
X021646Y002060D01*
X021609Y002094D01*
X021575Y002131D01*
X021543Y002170D01*
X021515Y002211D01*
X021490Y002255D01*
X021469Y002300D01*
X021452Y002347D01*
X021438Y002395D01*
X021428Y002444D01*
X021422Y002494D01*
X021420Y002544D01*
D11*
X018228Y002634D02*
X017958Y002634D01*
X017958Y002544D02*
X017958Y002724D01*
X018003Y002838D02*
X017958Y002883D01*
X017958Y002973D01*
X018003Y003018D01*
X018048Y003018D01*
X018093Y002973D01*
X018093Y002838D01*
X018003Y002838D01*
X018093Y002838D02*
X018183Y002928D01*
X018228Y003018D01*
X018093Y003133D02*
X018093Y003313D01*
X017958Y003268D02*
X018228Y003268D01*
X018093Y003133D01*
X017958Y003428D02*
X018228Y003608D01*
X018228Y003428D02*
X017958Y003608D01*
X016796Y003300D02*
X016526Y003120D01*
X016526Y003005D02*
X016526Y002825D01*
X016706Y003005D01*
X016751Y003005D01*
X016796Y002960D01*
X016796Y002870D01*
X016751Y002825D01*
X016751Y002711D02*
X016706Y002711D01*
X016661Y002666D01*
X016661Y002575D01*
X016706Y002530D01*
X016751Y002530D01*
X016796Y002575D01*
X016796Y002666D01*
X016751Y002711D01*
X016661Y002666D02*
X016616Y002711D01*
X016571Y002711D01*
X016526Y002666D01*
X016526Y002575D01*
X016571Y002530D01*
X016616Y002530D01*
X016661Y002575D01*
X016661Y002416D02*
X016616Y002371D01*
X016616Y002236D01*
X016616Y002326D02*
X016526Y002416D01*
X016661Y002416D02*
X016751Y002416D01*
X016796Y002371D01*
X016796Y002236D01*
X016526Y002236D01*
X016796Y003120D02*
X016526Y003300D01*
X017958Y002384D02*
X018003Y002429D01*
X017958Y002384D02*
X017958Y002294D01*
X018003Y002249D01*
X018183Y002249D01*
X018228Y002294D01*
X018228Y002384D01*
X018183Y002429D01*
X018138Y002544D02*
X018228Y002634D01*
X021234Y005089D02*
X021505Y005089D01*
X021505Y005224D01*
X021460Y005269D01*
X021369Y005269D01*
X021324Y005224D01*
X021324Y005089D01*
X021324Y005179D02*
X021234Y005269D01*
X021234Y005384D02*
X021279Y005384D01*
X021460Y005564D01*
X021505Y005564D01*
X021505Y005384D01*
X021460Y005679D02*
X021414Y005679D01*
X021369Y005724D01*
X021369Y005859D01*
X021279Y005859D02*
X021460Y005859D01*
X021505Y005814D01*
X021505Y005724D01*
X021460Y005679D01*
X021279Y005679D02*
X021234Y005724D01*
X021234Y005814D01*
X021279Y005859D01*
X021234Y005973D02*
X021505Y006153D01*
X021505Y005973D02*
X021234Y006153D01*
X022619Y006243D02*
X022890Y006424D01*
X022890Y006243D02*
X022619Y006424D01*
X022845Y006129D02*
X022665Y005949D01*
X022619Y005949D01*
X022665Y005834D02*
X022619Y005789D01*
X022619Y005699D01*
X022665Y005654D01*
X022755Y005654D01*
X022755Y005789D01*
X022710Y005834D01*
X022665Y005834D01*
X022845Y005744D02*
X022890Y005834D01*
X022845Y005744D02*
X022755Y005654D01*
X022619Y005540D02*
X022619Y005359D01*
X022619Y005449D02*
X022890Y005449D01*
X022800Y005359D01*
X022845Y005245D02*
X022890Y005200D01*
X022890Y005110D01*
X022845Y005065D01*
X022665Y005065D01*
X022619Y005110D01*
X022619Y005200D01*
X022665Y005245D01*
X022890Y005949D02*
X022890Y006129D01*
X022845Y006129D01*
X018413Y008657D02*
X018368Y008612D01*
X018188Y008612D01*
X018143Y008657D01*
X018143Y008747D01*
X018188Y008792D01*
X018143Y008907D02*
X018143Y009087D01*
X018143Y008997D02*
X018413Y008997D01*
X018323Y008907D01*
X018368Y008792D02*
X018413Y008747D01*
X018413Y008657D01*
X018278Y009201D02*
X018188Y009201D01*
X018143Y009246D01*
X018143Y009336D01*
X018188Y009381D01*
X018233Y009381D01*
X018278Y009336D01*
X018278Y009201D01*
X018368Y009291D01*
X018413Y009381D01*
X018278Y009496D02*
X018278Y009631D01*
X018233Y009676D01*
X018188Y009676D01*
X018143Y009631D01*
X018143Y009541D01*
X018188Y009496D01*
X018278Y009496D01*
X018368Y009586D01*
X018413Y009676D01*
X018413Y009791D02*
X018143Y009971D01*
X018143Y009791D02*
X018413Y009971D01*
X017005Y009653D02*
X016734Y009473D01*
X016779Y009359D02*
X016734Y009314D01*
X016734Y009224D01*
X016779Y009179D01*
X016960Y009359D01*
X016779Y009359D01*
X016779Y009179D02*
X016960Y009179D01*
X017005Y009224D01*
X017005Y009314D01*
X016960Y009359D01*
X017005Y009473D02*
X016734Y009653D01*
X016779Y009064D02*
X016734Y009019D01*
X016734Y008929D01*
X016779Y008884D01*
X016824Y008884D01*
X016869Y008929D01*
X016869Y009019D01*
X016824Y009064D01*
X016779Y009064D01*
X016869Y009019D02*
X016914Y009064D01*
X016960Y009064D01*
X017005Y009019D01*
X017005Y008929D01*
X016960Y008884D01*
X016914Y008884D01*
X016869Y008929D01*
X016869Y008769D02*
X016824Y008724D01*
X016824Y008589D01*
X016734Y008589D02*
X017005Y008589D01*
X017005Y008724D01*
X016960Y008769D01*
X016869Y008769D01*
X016824Y008679D02*
X016734Y008769D01*
X012890Y006405D02*
X012619Y006225D01*
X012665Y006111D02*
X012619Y006066D01*
X012619Y005976D01*
X012665Y005931D01*
X012755Y005931D02*
X012800Y006021D01*
X012800Y006066D01*
X012755Y006111D01*
X012665Y006111D01*
X012755Y005931D02*
X012890Y005931D01*
X012890Y006111D01*
X012890Y006225D02*
X012619Y006405D01*
X012665Y005816D02*
X012710Y005816D01*
X012755Y005771D01*
X012755Y005636D01*
X012665Y005636D01*
X012619Y005681D01*
X012619Y005771D01*
X012665Y005816D01*
X012845Y005726D02*
X012755Y005636D01*
X012845Y005726D02*
X012890Y005816D01*
X012619Y005521D02*
X012619Y005341D01*
X012619Y005431D02*
X012890Y005431D01*
X012800Y005341D01*
X012845Y005227D02*
X012890Y005182D01*
X012890Y005092D01*
X012845Y005047D01*
X012665Y005047D01*
X012619Y005092D01*
X012619Y005182D01*
X012665Y005227D01*
X011505Y005203D02*
X011460Y005248D01*
X011369Y005248D01*
X011324Y005203D01*
X011324Y005068D01*
X011234Y005068D02*
X011505Y005068D01*
X011505Y005203D01*
X011460Y005363D02*
X011414Y005363D01*
X011369Y005408D01*
X011369Y005498D01*
X011324Y005543D01*
X011279Y005543D01*
X011234Y005498D01*
X011234Y005408D01*
X011279Y005363D01*
X011324Y005363D01*
X011369Y005408D01*
X011369Y005498D02*
X011414Y005543D01*
X011460Y005543D01*
X011505Y005498D01*
X011505Y005408D01*
X011460Y005363D01*
X011324Y005158D02*
X011234Y005248D01*
X011234Y005657D02*
X011234Y005838D01*
X011234Y005747D02*
X011505Y005747D01*
X011414Y005657D01*
X011505Y005952D02*
X011234Y006132D01*
X011234Y005952D02*
X011505Y006132D01*
X018019Y012259D02*
X018019Y012349D01*
X018064Y012394D01*
X018019Y012508D02*
X018019Y012688D01*
X018019Y012598D02*
X018289Y012598D01*
X018199Y012508D01*
X018244Y012394D02*
X018289Y012349D01*
X018289Y012259D01*
X018244Y012214D01*
X018064Y012214D01*
X018019Y012259D01*
X018064Y012803D02*
X018019Y012848D01*
X018019Y012938D01*
X018064Y012983D01*
X018109Y012983D01*
X018154Y012938D01*
X018154Y012803D01*
X018064Y012803D01*
X018154Y012803D02*
X018244Y012893D01*
X018289Y012983D01*
X018244Y013098D02*
X018289Y013143D01*
X018289Y013233D01*
X018244Y013278D01*
X018199Y013278D01*
X018154Y013233D01*
X018154Y013143D01*
X018199Y013098D01*
X018244Y013098D01*
X018154Y013143D02*
X018109Y013098D01*
X018064Y013098D01*
X018019Y013143D01*
X018019Y013233D01*
X018064Y013278D01*
X018109Y013278D01*
X018154Y013233D01*
X018289Y013392D02*
X018019Y013572D01*
X018019Y013392D02*
X018289Y013572D01*
X016948Y013138D02*
X016678Y012958D01*
X016678Y012799D02*
X016948Y012799D01*
X016813Y012664D01*
X016813Y012844D01*
X016948Y012958D02*
X016678Y013138D01*
X016678Y012549D02*
X016768Y012459D01*
X016768Y012504D02*
X016768Y012369D01*
X016678Y012369D02*
X016948Y012369D01*
X016948Y012504D01*
X016903Y012549D01*
X016813Y012549D01*
X016768Y012504D01*
X013547Y014703D02*
X013502Y014658D01*
X013322Y014658D01*
X013277Y014703D01*
X013277Y014793D01*
X013322Y014838D01*
X013277Y014952D02*
X013277Y015132D01*
X013277Y015042D02*
X013547Y015042D01*
X013457Y014952D01*
X013502Y014838D02*
X013547Y014793D01*
X013547Y014703D01*
X013412Y015247D02*
X013412Y015382D01*
X013367Y015427D01*
X013322Y015427D01*
X013277Y015382D01*
X013277Y015292D01*
X013322Y015247D01*
X013412Y015247D01*
X013502Y015337D01*
X013547Y015427D01*
X013502Y015542D02*
X013547Y015587D01*
X013547Y015677D01*
X013502Y015722D01*
X013322Y015542D01*
X013277Y015587D01*
X013277Y015677D01*
X013322Y015722D01*
X013502Y015722D01*
X013547Y015836D02*
X013277Y016016D01*
X013277Y015836D02*
X013547Y016016D01*
X013502Y015542D02*
X013322Y015542D01*
X012465Y015587D02*
X012465Y015677D01*
X012420Y015722D01*
X012375Y015722D01*
X012330Y015677D01*
X012330Y015587D01*
X012375Y015542D01*
X012420Y015542D01*
X012465Y015587D01*
X012330Y015587D02*
X012285Y015542D01*
X012240Y015542D01*
X012195Y015587D01*
X012195Y015677D01*
X012240Y015722D01*
X012285Y015722D01*
X012330Y015677D01*
X012195Y015836D02*
X012465Y016016D01*
X012465Y015836D02*
X012195Y016016D01*
X012240Y015427D02*
X012195Y015382D01*
X012195Y015292D01*
X012240Y015247D01*
X012330Y015247D02*
X012375Y015337D01*
X012375Y015382D01*
X012330Y015427D01*
X012240Y015427D01*
X012330Y015247D02*
X012465Y015247D01*
X012465Y015427D01*
X012195Y015132D02*
X012195Y014952D01*
X012195Y015042D02*
X012465Y015042D01*
X012375Y014952D01*
X012420Y014838D02*
X012465Y014793D01*
X012465Y014703D01*
X012420Y014658D01*
X012240Y014658D01*
X012195Y014703D01*
X012195Y014793D01*
X012240Y014838D01*
X011226Y014793D02*
X011226Y014703D01*
X011181Y014658D01*
X011001Y014658D01*
X010956Y014703D01*
X010956Y014793D01*
X011001Y014838D01*
X010956Y014952D02*
X010956Y015132D01*
X010956Y015042D02*
X011226Y015042D01*
X011136Y014952D01*
X011181Y014838D02*
X011226Y014793D01*
X011226Y015247D02*
X011091Y015247D01*
X011136Y015337D01*
X011136Y015382D01*
X011091Y015427D01*
X011001Y015427D01*
X010956Y015382D01*
X010956Y015292D01*
X011001Y015247D01*
X011226Y015247D02*
X011226Y015427D01*
X011091Y015542D02*
X011091Y015677D01*
X011046Y015722D01*
X011001Y015722D01*
X010956Y015677D01*
X010956Y015587D01*
X011001Y015542D01*
X011091Y015542D01*
X011181Y015632D01*
X011226Y015722D01*
X011226Y015836D02*
X010956Y016016D01*
X010956Y015836D02*
X011226Y016016D01*
X012218Y018170D02*
X012173Y018215D01*
X012173Y018305D01*
X012218Y018350D01*
X012173Y018465D02*
X012173Y018645D01*
X012173Y018555D02*
X012443Y018555D01*
X012353Y018465D01*
X012398Y018350D02*
X012443Y018305D01*
X012443Y018215D01*
X012398Y018170D01*
X012218Y018170D01*
X012218Y018760D02*
X012173Y018805D01*
X012173Y018895D01*
X012218Y018940D01*
X012308Y018940D01*
X012353Y018895D01*
X012353Y018850D01*
X012308Y018760D01*
X012443Y018760D01*
X012443Y018940D01*
X012443Y019054D02*
X012443Y019234D01*
X012398Y019234D01*
X012218Y019054D01*
X012173Y019054D01*
X012173Y019349D02*
X012443Y019529D01*
X012443Y019349D02*
X012173Y019529D01*
X013233Y019490D02*
X013503Y019310D01*
X013458Y019195D02*
X013503Y019150D01*
X013503Y019060D01*
X013458Y019015D01*
X013413Y019015D01*
X013368Y019060D01*
X013368Y019195D01*
X013278Y019195D02*
X013458Y019195D01*
X013278Y019195D02*
X013233Y019150D01*
X013233Y019060D01*
X013278Y019015D01*
X013278Y018900D02*
X013233Y018855D01*
X013233Y018765D01*
X013278Y018720D01*
X013368Y018720D02*
X013413Y018810D01*
X013413Y018855D01*
X013368Y018900D01*
X013278Y018900D01*
X013368Y018720D02*
X013503Y018720D01*
X013503Y018900D01*
X013870Y018815D02*
X014050Y019085D01*
X014165Y019040D02*
X014210Y019085D01*
X014300Y019085D01*
X014345Y019040D01*
X014459Y019085D02*
X014550Y019040D01*
X014640Y018950D01*
X014505Y018950D01*
X014459Y018905D01*
X014459Y018860D01*
X014505Y018815D01*
X014595Y018815D01*
X014640Y018860D01*
X014640Y018950D01*
X014754Y018815D02*
X014934Y018815D01*
X014844Y018815D02*
X014844Y019085D01*
X014934Y018995D01*
X015049Y019040D02*
X015094Y019085D01*
X015184Y019085D01*
X015229Y019040D01*
X015229Y018860D01*
X015184Y018815D01*
X015094Y018815D01*
X015049Y018860D01*
X014345Y018815D02*
X014165Y018995D01*
X014165Y019040D01*
X014165Y018815D02*
X014345Y018815D01*
X014050Y018815D02*
X013870Y019085D01*
X013503Y019490D02*
X013233Y019310D01*
X013233Y018606D02*
X013233Y018426D01*
X013233Y018516D02*
X013503Y018516D01*
X013413Y018426D01*
X013458Y018311D02*
X013503Y018266D01*
X013503Y018176D01*
X013458Y018131D01*
X013278Y018131D01*
X013233Y018176D01*
X013233Y018266D01*
X013278Y018311D01*
X015031Y016798D02*
X015211Y016527D01*
X015325Y016527D02*
X015506Y016527D01*
X015416Y016527D02*
X015416Y016798D01*
X015506Y016708D01*
X015620Y016798D02*
X015710Y016753D01*
X015800Y016663D01*
X015665Y016663D01*
X015620Y016618D01*
X015620Y016572D01*
X015665Y016527D01*
X015755Y016527D01*
X015800Y016572D01*
X015800Y016663D01*
X015915Y016527D02*
X016095Y016527D01*
X016005Y016527D02*
X016005Y016798D01*
X016095Y016708D01*
X016209Y016753D02*
X016254Y016798D01*
X016345Y016798D01*
X016390Y016753D01*
X016390Y016572D01*
X016345Y016527D01*
X016254Y016527D01*
X016209Y016572D01*
X015211Y016798D02*
X015031Y016527D01*
X016833Y018315D02*
X016833Y018405D01*
X016878Y018450D01*
X016833Y018565D02*
X016833Y018745D01*
X016833Y018655D02*
X017103Y018655D01*
X017013Y018565D01*
X017058Y018450D02*
X017103Y018405D01*
X017103Y018315D01*
X017058Y018270D01*
X016878Y018270D01*
X016833Y018315D01*
X016878Y018860D02*
X016833Y018905D01*
X016833Y018995D01*
X016878Y019040D01*
X016923Y019040D01*
X016968Y018995D01*
X016968Y018860D01*
X016878Y018860D01*
X016968Y018860D02*
X017058Y018950D01*
X017103Y019040D01*
X017058Y019154D02*
X017103Y019199D01*
X017103Y019289D01*
X017058Y019334D01*
X017013Y019334D01*
X016968Y019289D01*
X016923Y019334D01*
X016878Y019334D01*
X016833Y019289D01*
X016833Y019199D01*
X016878Y019154D01*
X016968Y019244D02*
X016968Y019289D01*
X016833Y019449D02*
X017103Y019629D01*
X017103Y019449D02*
X016833Y019629D01*
X026133Y019203D02*
X026313Y018933D01*
X026428Y018933D02*
X026608Y018933D01*
X026518Y018933D02*
X026518Y019203D01*
X026608Y019113D01*
X026722Y019113D02*
X026722Y019158D01*
X026768Y019203D01*
X026858Y019203D01*
X026903Y019158D01*
X027017Y019158D02*
X027062Y019203D01*
X027152Y019203D01*
X027197Y019158D01*
X027312Y019158D02*
X027312Y019068D01*
X027357Y019023D01*
X027492Y019023D01*
X027402Y019023D02*
X027312Y018933D01*
X027197Y018933D02*
X027017Y019113D01*
X027017Y019158D01*
X027017Y018933D02*
X027197Y018933D01*
X027312Y019158D02*
X027357Y019203D01*
X027492Y019203D01*
X027492Y018933D01*
X026903Y018933D02*
X026722Y019113D01*
X026722Y018933D02*
X026903Y018933D01*
X026313Y019203D02*
X026133Y018933D01*
X026133Y020972D02*
X026313Y021242D01*
X026428Y021197D02*
X026608Y021017D01*
X026563Y020972D01*
X026473Y020972D01*
X026428Y021017D01*
X026428Y021197D01*
X026473Y021242D01*
X026563Y021242D01*
X026608Y021197D01*
X026608Y021017D01*
X026722Y020972D02*
X026903Y020972D01*
X026722Y021152D01*
X026722Y021197D01*
X026768Y021242D01*
X026858Y021242D01*
X026903Y021197D01*
X027017Y021197D02*
X027062Y021242D01*
X027152Y021242D01*
X027197Y021197D01*
X027312Y021197D02*
X027312Y021107D01*
X027357Y021062D01*
X027492Y021062D01*
X027492Y020972D02*
X027492Y021242D01*
X027357Y021242D01*
X027312Y021197D01*
X027402Y021062D02*
X027312Y020972D01*
X027197Y020972D02*
X027017Y021152D01*
X027017Y021197D01*
X027017Y020972D02*
X027197Y020972D01*
X026313Y020972D02*
X026133Y021242D01*
X026133Y022933D02*
X026313Y023203D01*
X026428Y023158D02*
X026473Y023203D01*
X026563Y023203D01*
X026608Y023158D01*
X026608Y023113D01*
X026563Y023068D01*
X026428Y023068D01*
X026428Y022978D02*
X026428Y023158D01*
X026428Y022978D02*
X026473Y022933D01*
X026563Y022933D01*
X026608Y022978D01*
X026722Y022933D02*
X026903Y022933D01*
X026813Y022933D02*
X026813Y023203D01*
X026903Y023113D01*
X027017Y023113D02*
X027197Y022933D01*
X027017Y022933D01*
X027017Y023113D02*
X027017Y023158D01*
X027062Y023203D01*
X027152Y023203D01*
X027197Y023158D01*
X027312Y023158D02*
X027312Y023068D01*
X027357Y023023D01*
X027492Y023023D01*
X027402Y023023D02*
X027312Y022933D01*
X027492Y022933D02*
X027492Y023203D01*
X027357Y023203D01*
X027312Y023158D01*
X026313Y022933D02*
X026133Y023203D01*
X026133Y024893D02*
X026313Y025164D01*
X026428Y025119D02*
X026428Y025073D01*
X026473Y025028D01*
X026563Y025028D01*
X026608Y025073D01*
X026608Y025119D01*
X026563Y025164D01*
X026473Y025164D01*
X026428Y025119D01*
X026473Y025028D02*
X026428Y024983D01*
X026428Y024938D01*
X026473Y024893D01*
X026563Y024893D01*
X026608Y024938D01*
X026608Y024983D01*
X026563Y025028D01*
X026722Y024893D02*
X026903Y024893D01*
X026813Y024893D02*
X026813Y025164D01*
X026903Y025073D01*
X027017Y025073D02*
X027197Y024893D01*
X027017Y024893D01*
X027017Y025073D02*
X027017Y025119D01*
X027062Y025164D01*
X027152Y025164D01*
X027197Y025119D01*
X027312Y025119D02*
X027312Y025028D01*
X027357Y024983D01*
X027492Y024983D01*
X027492Y024893D02*
X027492Y025164D01*
X027357Y025164D01*
X027312Y025119D01*
X027402Y024983D02*
X027312Y024893D01*
X026313Y024893D02*
X026133Y025164D01*
X026487Y026067D02*
X026668Y026337D01*
X026782Y026337D02*
X026782Y026292D01*
X026962Y026112D01*
X026962Y026067D01*
X027077Y026067D02*
X027257Y026067D01*
X027167Y026067D02*
X027167Y026337D01*
X027257Y026247D01*
X027371Y026247D02*
X027371Y026292D01*
X027416Y026337D01*
X027507Y026337D01*
X027552Y026292D01*
X027666Y026292D02*
X027666Y026202D01*
X027711Y026157D01*
X027846Y026157D01*
X027756Y026157D02*
X027666Y026067D01*
X027552Y026067D02*
X027371Y026247D01*
X027371Y026067D02*
X027552Y026067D01*
X027666Y026292D02*
X027711Y026337D01*
X027846Y026337D01*
X027846Y026067D01*
X026962Y026337D02*
X026782Y026337D01*
X026668Y026067D02*
X026487Y026337D01*
X030226Y024405D02*
X030496Y024224D01*
X030451Y024110D02*
X030496Y024065D01*
X030496Y023975D01*
X030451Y023930D01*
X030406Y023930D01*
X030361Y023975D01*
X030361Y024110D01*
X030271Y024110D02*
X030451Y024110D01*
X030271Y024110D02*
X030226Y024065D01*
X030226Y023975D01*
X030271Y023930D01*
X030271Y023815D02*
X030226Y023770D01*
X030226Y023680D01*
X030271Y023635D01*
X030226Y023521D02*
X030226Y023340D01*
X030226Y023431D02*
X030496Y023431D01*
X030406Y023340D01*
X030451Y023226D02*
X030361Y023226D01*
X030316Y023181D01*
X030316Y023046D01*
X030316Y023136D02*
X030226Y023226D01*
X030226Y023046D02*
X030496Y023046D01*
X030496Y023181D01*
X030451Y023226D01*
X030451Y023635D02*
X030496Y023680D01*
X030496Y023770D01*
X030451Y023815D01*
X030406Y023815D01*
X030361Y023770D01*
X030316Y023815D01*
X030271Y023815D01*
X030361Y023770D02*
X030361Y023725D01*
X030226Y024224D02*
X030496Y024405D01*
X030485Y019349D02*
X030215Y019169D01*
X030260Y019054D02*
X030215Y019009D01*
X030215Y018919D01*
X030260Y018874D01*
X030260Y018759D02*
X030215Y018714D01*
X030215Y018624D01*
X030260Y018579D01*
X030215Y018465D02*
X030215Y018285D01*
X030215Y018375D02*
X030485Y018375D01*
X030395Y018285D01*
X030350Y018170D02*
X030305Y018125D01*
X030305Y017990D01*
X030215Y017990D02*
X030485Y017990D01*
X030485Y018125D01*
X030440Y018170D01*
X030350Y018170D01*
X030305Y018080D02*
X030215Y018170D01*
X030440Y018579D02*
X030485Y018624D01*
X030485Y018714D01*
X030440Y018759D01*
X030395Y018759D01*
X030350Y018714D01*
X030305Y018759D01*
X030260Y018759D01*
X030350Y018714D02*
X030350Y018669D01*
X030440Y018874D02*
X030485Y018919D01*
X030485Y019009D01*
X030440Y019054D01*
X030395Y019054D01*
X030350Y019009D01*
X030305Y019054D01*
X030260Y019054D01*
X030350Y019009D02*
X030350Y018964D01*
X030485Y019169D02*
X030215Y019349D01*
X030115Y009679D02*
X030386Y009499D01*
X030341Y009384D02*
X030160Y009204D01*
X030115Y009249D01*
X030115Y009339D01*
X030160Y009384D01*
X030341Y009384D01*
X030386Y009339D01*
X030386Y009249D01*
X030341Y009204D01*
X030160Y009204D01*
X030251Y009090D02*
X030251Y008910D01*
X030386Y009045D01*
X030115Y009045D01*
X030115Y008795D02*
X030115Y008615D01*
X030115Y008705D02*
X030386Y008705D01*
X030296Y008615D01*
X030341Y008500D02*
X030251Y008500D01*
X030206Y008455D01*
X030206Y008320D01*
X030206Y008410D02*
X030115Y008500D01*
X030115Y008320D02*
X030386Y008320D01*
X030386Y008455D01*
X030341Y008500D01*
X030115Y009499D02*
X030386Y009679D01*
X036984Y008907D02*
X036984Y008862D01*
X037165Y008682D01*
X037165Y008637D01*
X037279Y008772D02*
X037324Y008727D01*
X037459Y008727D01*
X037459Y008637D02*
X037459Y008907D01*
X037324Y008907D01*
X037279Y008862D01*
X037279Y008772D01*
X037165Y008907D02*
X036984Y008907D01*
X030293Y004671D02*
X030023Y004491D01*
X030023Y004376D02*
X030023Y004196D01*
X030203Y004376D01*
X030248Y004376D01*
X030293Y004331D01*
X030293Y004241D01*
X030248Y004196D01*
X030158Y004082D02*
X030158Y003902D01*
X030293Y004037D01*
X030023Y004037D01*
X030023Y003787D02*
X030023Y003607D01*
X030023Y003697D02*
X030293Y003697D01*
X030203Y003607D01*
X030158Y003493D02*
X030113Y003447D01*
X030113Y003312D01*
X030023Y003312D02*
X030293Y003312D01*
X030293Y003447D01*
X030248Y003493D01*
X030158Y003493D01*
X030113Y003402D02*
X030023Y003493D01*
X030293Y004491D02*
X030023Y004671D01*
X002774Y008597D02*
X002774Y008867D01*
X002639Y008867D01*
X002594Y008822D01*
X002594Y008732D01*
X002639Y008687D01*
X002774Y008687D01*
X002479Y008642D02*
X002434Y008597D01*
X002344Y008597D01*
X002299Y008642D01*
X002299Y008732D01*
X002344Y008777D01*
X002389Y008777D01*
X002479Y008732D01*
X002479Y008867D01*
X002299Y008867D01*
M02*
