G75*
G70*
%OFA0B0*%
%FSLAX24Y24*%
%IPPOS*%
%LPD*%
%AMOC8*
5,1,8,0,0,1.08239X$1,22.5*
%
%ADD10C,0.0000*%
%ADD11C,0.0080*%
%ADD12C,0.0100*%
%ADD13C,0.0050*%
%ADD14C,0.0060*%
D10*
X000159Y000473D02*
X039529Y000473D01*
X039529Y027245D01*
X000159Y027245D01*
X000159Y000473D01*
X008428Y002544D02*
X008430Y002594D01*
X008436Y002644D01*
X008446Y002693D01*
X008460Y002741D01*
X008477Y002788D01*
X008498Y002833D01*
X008523Y002877D01*
X008551Y002918D01*
X008583Y002957D01*
X008617Y002994D01*
X008654Y003028D01*
X008694Y003058D01*
X008736Y003085D01*
X008780Y003109D01*
X008826Y003130D01*
X008873Y003146D01*
X008921Y003159D01*
X008971Y003168D01*
X009020Y003173D01*
X009071Y003174D01*
X009121Y003171D01*
X009170Y003164D01*
X009219Y003153D01*
X009267Y003138D01*
X009313Y003120D01*
X009358Y003098D01*
X009401Y003072D01*
X009442Y003043D01*
X009481Y003011D01*
X009517Y002976D01*
X009549Y002938D01*
X009579Y002898D01*
X009606Y002855D01*
X009629Y002811D01*
X009648Y002765D01*
X009664Y002717D01*
X009676Y002668D01*
X009684Y002619D01*
X009688Y002569D01*
X009688Y002519D01*
X009684Y002469D01*
X009676Y002420D01*
X009664Y002371D01*
X009648Y002323D01*
X009629Y002277D01*
X009606Y002233D01*
X009579Y002190D01*
X009549Y002150D01*
X009517Y002112D01*
X009481Y002077D01*
X009442Y002045D01*
X009401Y002016D01*
X009358Y001990D01*
X009313Y001968D01*
X009267Y001950D01*
X009219Y001935D01*
X009170Y001924D01*
X009121Y001917D01*
X009071Y001914D01*
X009020Y001915D01*
X008971Y001920D01*
X008921Y001929D01*
X008873Y001942D01*
X008826Y001958D01*
X008780Y001979D01*
X008736Y002003D01*
X008694Y002030D01*
X008654Y002060D01*
X008617Y002094D01*
X008583Y002131D01*
X008551Y002170D01*
X008523Y002211D01*
X008498Y002255D01*
X008477Y002300D01*
X008460Y002347D01*
X008446Y002395D01*
X008436Y002444D01*
X008430Y002494D01*
X008428Y002544D01*
X002226Y009434D02*
X002228Y009468D01*
X002234Y009502D01*
X002244Y009535D01*
X002257Y009566D01*
X002275Y009596D01*
X002295Y009624D01*
X002319Y009649D01*
X002345Y009671D01*
X002373Y009689D01*
X002404Y009705D01*
X002436Y009717D01*
X002470Y009725D01*
X002504Y009729D01*
X002538Y009729D01*
X002572Y009725D01*
X002606Y009717D01*
X002638Y009705D01*
X002668Y009689D01*
X002697Y009671D01*
X002723Y009649D01*
X002747Y009624D01*
X002767Y009596D01*
X002785Y009566D01*
X002798Y009535D01*
X002808Y009502D01*
X002814Y009468D01*
X002816Y009434D01*
X002814Y009400D01*
X002808Y009366D01*
X002798Y009333D01*
X002785Y009302D01*
X002767Y009272D01*
X002747Y009244D01*
X002723Y009219D01*
X002697Y009197D01*
X002669Y009179D01*
X002638Y009163D01*
X002606Y009151D01*
X002572Y009143D01*
X002538Y009139D01*
X002504Y009139D01*
X002470Y009143D01*
X002436Y009151D01*
X002404Y009163D01*
X002373Y009179D01*
X002345Y009197D01*
X002319Y009219D01*
X002295Y009244D01*
X002275Y009272D01*
X002257Y009302D01*
X002244Y009333D01*
X002234Y009366D01*
X002228Y009400D01*
X002226Y009434D01*
X002221Y015134D02*
X002223Y015168D01*
X002229Y015202D01*
X002238Y015235D01*
X002252Y015266D01*
X002269Y015296D01*
X002289Y015324D01*
X002312Y015349D01*
X002338Y015372D01*
X002366Y015391D01*
X002396Y015407D01*
X002428Y015419D01*
X002461Y015428D01*
X002495Y015433D01*
X002530Y015434D01*
X002564Y015431D01*
X002597Y015424D01*
X002630Y015414D01*
X002661Y015399D01*
X002690Y015382D01*
X002717Y015361D01*
X002742Y015337D01*
X002764Y015310D01*
X002782Y015282D01*
X002797Y015251D01*
X002809Y015219D01*
X002817Y015185D01*
X002821Y015151D01*
X002821Y015117D01*
X002817Y015083D01*
X002809Y015049D01*
X002797Y015017D01*
X002782Y014986D01*
X002764Y014958D01*
X002742Y014931D01*
X002717Y014907D01*
X002690Y014886D01*
X002661Y014869D01*
X002630Y014854D01*
X002597Y014844D01*
X002564Y014837D01*
X002530Y014834D01*
X002495Y014835D01*
X002461Y014840D01*
X002428Y014849D01*
X002396Y014861D01*
X002366Y014877D01*
X002338Y014896D01*
X002312Y014919D01*
X002289Y014944D01*
X002269Y014972D01*
X002252Y015002D01*
X002238Y015033D01*
X002229Y015066D01*
X002223Y015100D01*
X002221Y015134D01*
X007806Y017751D02*
X007808Y017777D01*
X007814Y017803D01*
X007824Y017828D01*
X007837Y017851D01*
X007853Y017871D01*
X007873Y017889D01*
X007895Y017904D01*
X007918Y017916D01*
X007944Y017924D01*
X007970Y017928D01*
X007996Y017928D01*
X008022Y017924D01*
X008048Y017916D01*
X008072Y017904D01*
X008093Y017889D01*
X008113Y017871D01*
X008129Y017851D01*
X008142Y017828D01*
X008152Y017803D01*
X008158Y017777D01*
X008160Y017751D01*
X008158Y017725D01*
X008152Y017699D01*
X008142Y017674D01*
X008129Y017651D01*
X008113Y017631D01*
X008093Y017613D01*
X008071Y017598D01*
X008048Y017586D01*
X008022Y017578D01*
X007996Y017574D01*
X007970Y017574D01*
X007944Y017578D01*
X007918Y017586D01*
X007894Y017598D01*
X007873Y017613D01*
X007853Y017631D01*
X007837Y017651D01*
X007824Y017674D01*
X007814Y017699D01*
X007808Y017725D01*
X007806Y017751D01*
X008428Y015142D02*
X008430Y015192D01*
X008436Y015242D01*
X008446Y015291D01*
X008460Y015339D01*
X008477Y015386D01*
X008498Y015431D01*
X008523Y015475D01*
X008551Y015516D01*
X008583Y015555D01*
X008617Y015592D01*
X008654Y015626D01*
X008694Y015656D01*
X008736Y015683D01*
X008780Y015707D01*
X008826Y015728D01*
X008873Y015744D01*
X008921Y015757D01*
X008971Y015766D01*
X009020Y015771D01*
X009071Y015772D01*
X009121Y015769D01*
X009170Y015762D01*
X009219Y015751D01*
X009267Y015736D01*
X009313Y015718D01*
X009358Y015696D01*
X009401Y015670D01*
X009442Y015641D01*
X009481Y015609D01*
X009517Y015574D01*
X009549Y015536D01*
X009579Y015496D01*
X009606Y015453D01*
X009629Y015409D01*
X009648Y015363D01*
X009664Y015315D01*
X009676Y015266D01*
X009684Y015217D01*
X009688Y015167D01*
X009688Y015117D01*
X009684Y015067D01*
X009676Y015018D01*
X009664Y014969D01*
X009648Y014921D01*
X009629Y014875D01*
X009606Y014831D01*
X009579Y014788D01*
X009549Y014748D01*
X009517Y014710D01*
X009481Y014675D01*
X009442Y014643D01*
X009401Y014614D01*
X009358Y014588D01*
X009313Y014566D01*
X009267Y014548D01*
X009219Y014533D01*
X009170Y014522D01*
X009121Y014515D01*
X009071Y014512D01*
X009020Y014513D01*
X008971Y014518D01*
X008921Y014527D01*
X008873Y014540D01*
X008826Y014556D01*
X008780Y014577D01*
X008736Y014601D01*
X008694Y014628D01*
X008654Y014658D01*
X008617Y014692D01*
X008583Y014729D01*
X008551Y014768D01*
X008523Y014809D01*
X008498Y014853D01*
X008477Y014898D01*
X008460Y014945D01*
X008446Y014993D01*
X008436Y015042D01*
X008430Y015092D01*
X008428Y015142D01*
X021420Y015142D02*
X021422Y015192D01*
X021428Y015242D01*
X021438Y015291D01*
X021452Y015339D01*
X021469Y015386D01*
X021490Y015431D01*
X021515Y015475D01*
X021543Y015516D01*
X021575Y015555D01*
X021609Y015592D01*
X021646Y015626D01*
X021686Y015656D01*
X021728Y015683D01*
X021772Y015707D01*
X021818Y015728D01*
X021865Y015744D01*
X021913Y015757D01*
X021963Y015766D01*
X022012Y015771D01*
X022063Y015772D01*
X022113Y015769D01*
X022162Y015762D01*
X022211Y015751D01*
X022259Y015736D01*
X022305Y015718D01*
X022350Y015696D01*
X022393Y015670D01*
X022434Y015641D01*
X022473Y015609D01*
X022509Y015574D01*
X022541Y015536D01*
X022571Y015496D01*
X022598Y015453D01*
X022621Y015409D01*
X022640Y015363D01*
X022656Y015315D01*
X022668Y015266D01*
X022676Y015217D01*
X022680Y015167D01*
X022680Y015117D01*
X022676Y015067D01*
X022668Y015018D01*
X022656Y014969D01*
X022640Y014921D01*
X022621Y014875D01*
X022598Y014831D01*
X022571Y014788D01*
X022541Y014748D01*
X022509Y014710D01*
X022473Y014675D01*
X022434Y014643D01*
X022393Y014614D01*
X022350Y014588D01*
X022305Y014566D01*
X022259Y014548D01*
X022211Y014533D01*
X022162Y014522D01*
X022113Y014515D01*
X022063Y014512D01*
X022012Y014513D01*
X021963Y014518D01*
X021913Y014527D01*
X021865Y014540D01*
X021818Y014556D01*
X021772Y014577D01*
X021728Y014601D01*
X021686Y014628D01*
X021646Y014658D01*
X021609Y014692D01*
X021575Y014729D01*
X021543Y014768D01*
X021515Y014809D01*
X021490Y014853D01*
X021469Y014898D01*
X021452Y014945D01*
X021438Y014993D01*
X021428Y015042D01*
X021422Y015092D01*
X021420Y015142D01*
X023633Y017751D02*
X023635Y017777D01*
X023641Y017803D01*
X023651Y017828D01*
X023664Y017851D01*
X023680Y017871D01*
X023700Y017889D01*
X023722Y017904D01*
X023745Y017916D01*
X023771Y017924D01*
X023797Y017928D01*
X023823Y017928D01*
X023849Y017924D01*
X023875Y017916D01*
X023899Y017904D01*
X023920Y017889D01*
X023940Y017871D01*
X023956Y017851D01*
X023969Y017828D01*
X023979Y017803D01*
X023985Y017777D01*
X023987Y017751D01*
X023985Y017725D01*
X023979Y017699D01*
X023969Y017674D01*
X023956Y017651D01*
X023940Y017631D01*
X023920Y017613D01*
X023898Y017598D01*
X023875Y017586D01*
X023849Y017578D01*
X023823Y017574D01*
X023797Y017574D01*
X023771Y017578D01*
X023745Y017586D01*
X023721Y017598D01*
X023700Y017613D01*
X023680Y017631D01*
X023664Y017651D01*
X023651Y017674D01*
X023641Y017699D01*
X023635Y017725D01*
X023633Y017751D01*
X023633Y026845D02*
X023635Y026871D01*
X023641Y026897D01*
X023651Y026922D01*
X023664Y026945D01*
X023680Y026965D01*
X023700Y026983D01*
X023722Y026998D01*
X023745Y027010D01*
X023771Y027018D01*
X023797Y027022D01*
X023823Y027022D01*
X023849Y027018D01*
X023875Y027010D01*
X023899Y026998D01*
X023920Y026983D01*
X023940Y026965D01*
X023956Y026945D01*
X023969Y026922D01*
X023979Y026897D01*
X023985Y026871D01*
X023987Y026845D01*
X023985Y026819D01*
X023979Y026793D01*
X023969Y026768D01*
X023956Y026745D01*
X023940Y026725D01*
X023920Y026707D01*
X023898Y026692D01*
X023875Y026680D01*
X023849Y026672D01*
X023823Y026668D01*
X023797Y026668D01*
X023771Y026672D01*
X023745Y026680D01*
X023721Y026692D01*
X023700Y026707D01*
X023680Y026725D01*
X023664Y026745D01*
X023651Y026768D01*
X023641Y026793D01*
X023635Y026819D01*
X023633Y026845D01*
X007806Y026845D02*
X007808Y026871D01*
X007814Y026897D01*
X007824Y026922D01*
X007837Y026945D01*
X007853Y026965D01*
X007873Y026983D01*
X007895Y026998D01*
X007918Y027010D01*
X007944Y027018D01*
X007970Y027022D01*
X007996Y027022D01*
X008022Y027018D01*
X008048Y027010D01*
X008072Y026998D01*
X008093Y026983D01*
X008113Y026965D01*
X008129Y026945D01*
X008142Y026922D01*
X008152Y026897D01*
X008158Y026871D01*
X008160Y026845D01*
X008158Y026819D01*
X008152Y026793D01*
X008142Y026768D01*
X008129Y026745D01*
X008113Y026725D01*
X008093Y026707D01*
X008071Y026692D01*
X008048Y026680D01*
X008022Y026672D01*
X007996Y026668D01*
X007970Y026668D01*
X007944Y026672D01*
X007918Y026680D01*
X007894Y026692D01*
X007873Y026707D01*
X007853Y026725D01*
X007837Y026745D01*
X007824Y026768D01*
X007814Y026793D01*
X007808Y026819D01*
X007806Y026845D01*
X036867Y015134D02*
X036869Y015168D01*
X036875Y015202D01*
X036884Y015235D01*
X036898Y015266D01*
X036915Y015296D01*
X036935Y015324D01*
X036958Y015349D01*
X036984Y015372D01*
X037012Y015391D01*
X037042Y015407D01*
X037074Y015419D01*
X037107Y015428D01*
X037141Y015433D01*
X037176Y015434D01*
X037210Y015431D01*
X037243Y015424D01*
X037276Y015414D01*
X037307Y015399D01*
X037336Y015382D01*
X037363Y015361D01*
X037388Y015337D01*
X037410Y015310D01*
X037428Y015282D01*
X037443Y015251D01*
X037455Y015219D01*
X037463Y015185D01*
X037467Y015151D01*
X037467Y015117D01*
X037463Y015083D01*
X037455Y015049D01*
X037443Y015017D01*
X037428Y014986D01*
X037410Y014958D01*
X037388Y014931D01*
X037363Y014907D01*
X037336Y014886D01*
X037307Y014869D01*
X037276Y014854D01*
X037243Y014844D01*
X037210Y014837D01*
X037176Y014834D01*
X037141Y014835D01*
X037107Y014840D01*
X037074Y014849D01*
X037042Y014861D01*
X037012Y014877D01*
X036984Y014896D01*
X036958Y014919D01*
X036935Y014944D01*
X036915Y014972D01*
X036898Y015002D01*
X036884Y015033D01*
X036875Y015066D01*
X036869Y015100D01*
X036867Y015134D01*
X036872Y009434D02*
X036874Y009468D01*
X036880Y009502D01*
X036890Y009535D01*
X036903Y009566D01*
X036921Y009596D01*
X036941Y009624D01*
X036965Y009649D01*
X036991Y009671D01*
X037019Y009689D01*
X037050Y009705D01*
X037082Y009717D01*
X037116Y009725D01*
X037150Y009729D01*
X037184Y009729D01*
X037218Y009725D01*
X037252Y009717D01*
X037284Y009705D01*
X037314Y009689D01*
X037343Y009671D01*
X037369Y009649D01*
X037393Y009624D01*
X037413Y009596D01*
X037431Y009566D01*
X037444Y009535D01*
X037454Y009502D01*
X037460Y009468D01*
X037462Y009434D01*
X037460Y009400D01*
X037454Y009366D01*
X037444Y009333D01*
X037431Y009302D01*
X037413Y009272D01*
X037393Y009244D01*
X037369Y009219D01*
X037343Y009197D01*
X037315Y009179D01*
X037284Y009163D01*
X037252Y009151D01*
X037218Y009143D01*
X037184Y009139D01*
X037150Y009139D01*
X037116Y009143D01*
X037082Y009151D01*
X037050Y009163D01*
X037019Y009179D01*
X036991Y009197D01*
X036965Y009219D01*
X036941Y009244D01*
X036921Y009272D01*
X036903Y009302D01*
X036890Y009333D01*
X036880Y009366D01*
X036874Y009400D01*
X036872Y009434D01*
X021420Y002544D02*
X021422Y002594D01*
X021428Y002644D01*
X021438Y002693D01*
X021452Y002741D01*
X021469Y002788D01*
X021490Y002833D01*
X021515Y002877D01*
X021543Y002918D01*
X021575Y002957D01*
X021609Y002994D01*
X021646Y003028D01*
X021686Y003058D01*
X021728Y003085D01*
X021772Y003109D01*
X021818Y003130D01*
X021865Y003146D01*
X021913Y003159D01*
X021963Y003168D01*
X022012Y003173D01*
X022063Y003174D01*
X022113Y003171D01*
X022162Y003164D01*
X022211Y003153D01*
X022259Y003138D01*
X022305Y003120D01*
X022350Y003098D01*
X022393Y003072D01*
X022434Y003043D01*
X022473Y003011D01*
X022509Y002976D01*
X022541Y002938D01*
X022571Y002898D01*
X022598Y002855D01*
X022621Y002811D01*
X022640Y002765D01*
X022656Y002717D01*
X022668Y002668D01*
X022676Y002619D01*
X022680Y002569D01*
X022680Y002519D01*
X022676Y002469D01*
X022668Y002420D01*
X022656Y002371D01*
X022640Y002323D01*
X022621Y002277D01*
X022598Y002233D01*
X022571Y002190D01*
X022541Y002150D01*
X022509Y002112D01*
X022473Y002077D01*
X022434Y002045D01*
X022393Y002016D01*
X022350Y001990D01*
X022305Y001968D01*
X022259Y001950D01*
X022211Y001935D01*
X022162Y001924D01*
X022113Y001917D01*
X022063Y001914D01*
X022012Y001915D01*
X021963Y001920D01*
X021913Y001929D01*
X021865Y001942D01*
X021818Y001958D01*
X021772Y001979D01*
X021728Y002003D01*
X021686Y002030D01*
X021646Y002060D01*
X021609Y002094D01*
X021575Y002131D01*
X021543Y002170D01*
X021515Y002211D01*
X021490Y002255D01*
X021469Y002300D01*
X021452Y002347D01*
X021438Y002395D01*
X021428Y002444D01*
X021422Y002494D01*
X021420Y002544D01*
D11*
X024046Y017436D02*
X007747Y017436D01*
X007747Y027081D01*
X024046Y027081D01*
X024046Y017436D01*
X025550Y018533D02*
X025597Y018531D01*
X025645Y018525D01*
X025691Y018516D01*
X025737Y018503D01*
X025781Y018487D01*
X025825Y018466D01*
X025866Y018443D01*
X025905Y018417D01*
X025942Y018387D01*
X025977Y018354D01*
X026009Y018319D01*
X026038Y018282D01*
X025550Y017333D02*
X025505Y017335D01*
X025459Y017340D01*
X025415Y017348D01*
X025371Y017360D01*
X025328Y017376D01*
X025286Y017394D01*
X025246Y017416D01*
X025208Y017440D01*
X025172Y017467D01*
X025137Y017497D01*
X025106Y017530D01*
X025076Y017565D01*
X025550Y017333D02*
X025595Y017335D01*
X025641Y017340D01*
X025685Y017348D01*
X025729Y017360D01*
X025772Y017376D01*
X025814Y017394D01*
X025854Y017416D01*
X025892Y017440D01*
X025928Y017467D01*
X025963Y017497D01*
X025994Y017530D01*
X026024Y017565D01*
X025550Y018533D02*
X025504Y018531D01*
X025458Y018526D01*
X025412Y018517D01*
X025367Y018505D01*
X025324Y018489D01*
X025282Y018470D01*
X025241Y018447D01*
X025202Y018422D01*
X025166Y018394D01*
X025131Y018363D01*
X025099Y018329D01*
X025070Y018293D01*
X026038Y020282D02*
X026009Y020319D01*
X025977Y020354D01*
X025942Y020387D01*
X025905Y020417D01*
X025866Y020443D01*
X025825Y020466D01*
X025781Y020487D01*
X025737Y020503D01*
X025691Y020516D01*
X025645Y020525D01*
X025597Y020531D01*
X025550Y020533D01*
X025076Y019565D02*
X025106Y019530D01*
X025137Y019497D01*
X025172Y019467D01*
X025208Y019440D01*
X025246Y019416D01*
X025286Y019394D01*
X025328Y019376D01*
X025371Y019360D01*
X025415Y019348D01*
X025459Y019340D01*
X025505Y019335D01*
X025550Y019333D01*
X025595Y019335D01*
X025641Y019340D01*
X025685Y019348D01*
X025729Y019360D01*
X025772Y019376D01*
X025814Y019394D01*
X025854Y019416D01*
X025892Y019440D01*
X025928Y019467D01*
X025963Y019497D01*
X025994Y019530D01*
X026024Y019565D01*
X025550Y020533D02*
X025504Y020531D01*
X025458Y020526D01*
X025412Y020517D01*
X025367Y020505D01*
X025324Y020489D01*
X025282Y020470D01*
X025241Y020447D01*
X025202Y020422D01*
X025166Y020394D01*
X025131Y020363D01*
X025099Y020329D01*
X025070Y020293D01*
X026038Y022282D02*
X026009Y022319D01*
X025977Y022354D01*
X025942Y022387D01*
X025905Y022417D01*
X025866Y022443D01*
X025825Y022466D01*
X025781Y022487D01*
X025737Y022503D01*
X025691Y022516D01*
X025645Y022525D01*
X025597Y022531D01*
X025550Y022533D01*
X025076Y021565D02*
X025106Y021530D01*
X025137Y021497D01*
X025172Y021467D01*
X025208Y021440D01*
X025246Y021416D01*
X025286Y021394D01*
X025328Y021376D01*
X025371Y021360D01*
X025415Y021348D01*
X025459Y021340D01*
X025505Y021335D01*
X025550Y021333D01*
X025595Y021335D01*
X025641Y021340D01*
X025685Y021348D01*
X025729Y021360D01*
X025772Y021376D01*
X025814Y021394D01*
X025854Y021416D01*
X025892Y021440D01*
X025928Y021467D01*
X025963Y021497D01*
X025994Y021530D01*
X026024Y021565D01*
X025550Y022533D02*
X025504Y022531D01*
X025458Y022526D01*
X025412Y022517D01*
X025367Y022505D01*
X025324Y022489D01*
X025282Y022470D01*
X025241Y022447D01*
X025202Y022422D01*
X025166Y022394D01*
X025131Y022363D01*
X025099Y022329D01*
X025070Y022293D01*
X026038Y024282D02*
X026009Y024319D01*
X025977Y024354D01*
X025942Y024387D01*
X025905Y024417D01*
X025866Y024443D01*
X025825Y024466D01*
X025781Y024487D01*
X025737Y024503D01*
X025691Y024516D01*
X025645Y024525D01*
X025597Y024531D01*
X025550Y024533D01*
X025076Y023565D02*
X025106Y023530D01*
X025137Y023497D01*
X025172Y023467D01*
X025208Y023440D01*
X025246Y023416D01*
X025286Y023394D01*
X025328Y023376D01*
X025371Y023360D01*
X025415Y023348D01*
X025459Y023340D01*
X025505Y023335D01*
X025550Y023333D01*
X025595Y023335D01*
X025641Y023340D01*
X025685Y023348D01*
X025729Y023360D01*
X025772Y023376D01*
X025814Y023394D01*
X025854Y023416D01*
X025892Y023440D01*
X025928Y023467D01*
X025963Y023497D01*
X025994Y023530D01*
X026024Y023565D01*
X025550Y024533D02*
X025504Y024531D01*
X025458Y024526D01*
X025412Y024517D01*
X025367Y024505D01*
X025324Y024489D01*
X025282Y024470D01*
X025241Y024447D01*
X025202Y024422D01*
X025166Y024394D01*
X025131Y024363D01*
X025099Y024329D01*
X025070Y024293D01*
X026038Y026282D02*
X026009Y026319D01*
X025977Y026354D01*
X025942Y026387D01*
X025905Y026417D01*
X025866Y026443D01*
X025825Y026466D01*
X025781Y026487D01*
X025737Y026503D01*
X025691Y026516D01*
X025645Y026525D01*
X025597Y026531D01*
X025550Y026533D01*
X025076Y025565D02*
X025106Y025530D01*
X025137Y025497D01*
X025172Y025467D01*
X025208Y025440D01*
X025246Y025416D01*
X025286Y025394D01*
X025328Y025376D01*
X025371Y025360D01*
X025415Y025348D01*
X025459Y025340D01*
X025505Y025335D01*
X025550Y025333D01*
X025595Y025335D01*
X025641Y025340D01*
X025685Y025348D01*
X025729Y025360D01*
X025772Y025376D01*
X025814Y025394D01*
X025854Y025416D01*
X025892Y025440D01*
X025928Y025467D01*
X025963Y025497D01*
X025994Y025530D01*
X026024Y025565D01*
X025550Y026533D02*
X025504Y026531D01*
X025458Y026526D01*
X025412Y026517D01*
X025367Y026505D01*
X025324Y026489D01*
X025282Y026470D01*
X025241Y026447D01*
X025202Y026422D01*
X025166Y026394D01*
X025131Y026363D01*
X025099Y026329D01*
X025070Y026293D01*
D12*
X024855Y025536D02*
X024885Y025488D01*
X024918Y025443D01*
X024954Y025400D01*
X024992Y025359D01*
X025034Y025322D01*
X025078Y025287D01*
X025124Y025256D01*
X025173Y025227D01*
X025223Y025203D01*
X025275Y025182D01*
X025329Y025164D01*
X025383Y025151D01*
X025438Y025141D01*
X025494Y025135D01*
X025550Y025133D01*
X026165Y026445D02*
X026129Y026485D01*
X026090Y026523D01*
X026049Y026558D01*
X026006Y026590D01*
X025961Y026620D01*
X025914Y026646D01*
X025865Y026668D01*
X025814Y026688D01*
X025763Y026704D01*
X025711Y026717D01*
X025657Y026726D01*
X025604Y026731D01*
X025550Y026733D01*
X026161Y025416D02*
X026125Y025377D01*
X026086Y025339D01*
X026046Y025305D01*
X026003Y025273D01*
X025958Y025245D01*
X025911Y025219D01*
X025862Y025196D01*
X025812Y025177D01*
X025761Y025161D01*
X025709Y025149D01*
X025657Y025140D01*
X025603Y025135D01*
X025550Y025133D01*
X024844Y026309D02*
X024871Y026356D01*
X024901Y026401D01*
X024934Y026444D01*
X024970Y026484D01*
X025009Y026522D01*
X025050Y026557D01*
X025093Y026590D01*
X025138Y026619D01*
X025186Y026645D01*
X025235Y026668D01*
X025285Y026688D01*
X025336Y026704D01*
X025389Y026717D01*
X025442Y026726D01*
X025496Y026731D01*
X025550Y026733D01*
X024855Y023536D02*
X024885Y023488D01*
X024918Y023443D01*
X024954Y023400D01*
X024992Y023359D01*
X025034Y023322D01*
X025078Y023287D01*
X025124Y023256D01*
X025173Y023227D01*
X025223Y023203D01*
X025275Y023182D01*
X025329Y023164D01*
X025383Y023151D01*
X025438Y023141D01*
X025494Y023135D01*
X025550Y023133D01*
X026165Y024445D02*
X026129Y024485D01*
X026090Y024523D01*
X026049Y024558D01*
X026006Y024590D01*
X025961Y024620D01*
X025914Y024646D01*
X025865Y024668D01*
X025814Y024688D01*
X025763Y024704D01*
X025711Y024717D01*
X025657Y024726D01*
X025604Y024731D01*
X025550Y024733D01*
X026161Y023416D02*
X026125Y023377D01*
X026086Y023339D01*
X026046Y023305D01*
X026003Y023273D01*
X025958Y023245D01*
X025911Y023219D01*
X025862Y023196D01*
X025812Y023177D01*
X025761Y023161D01*
X025709Y023149D01*
X025657Y023140D01*
X025603Y023135D01*
X025550Y023133D01*
X024844Y024309D02*
X024871Y024356D01*
X024901Y024401D01*
X024934Y024444D01*
X024970Y024484D01*
X025009Y024522D01*
X025050Y024557D01*
X025093Y024590D01*
X025138Y024619D01*
X025186Y024645D01*
X025235Y024668D01*
X025285Y024688D01*
X025336Y024704D01*
X025389Y024717D01*
X025442Y024726D01*
X025496Y024731D01*
X025550Y024733D01*
X024855Y021536D02*
X024885Y021488D01*
X024918Y021443D01*
X024954Y021400D01*
X024992Y021359D01*
X025034Y021322D01*
X025078Y021287D01*
X025124Y021256D01*
X025173Y021227D01*
X025223Y021203D01*
X025275Y021182D01*
X025329Y021164D01*
X025383Y021151D01*
X025438Y021141D01*
X025494Y021135D01*
X025550Y021133D01*
X026165Y022445D02*
X026129Y022485D01*
X026090Y022523D01*
X026049Y022558D01*
X026006Y022590D01*
X025961Y022620D01*
X025914Y022646D01*
X025865Y022668D01*
X025814Y022688D01*
X025763Y022704D01*
X025711Y022717D01*
X025657Y022726D01*
X025604Y022731D01*
X025550Y022733D01*
X026161Y021416D02*
X026125Y021377D01*
X026086Y021339D01*
X026046Y021305D01*
X026003Y021273D01*
X025958Y021245D01*
X025911Y021219D01*
X025862Y021196D01*
X025812Y021177D01*
X025761Y021161D01*
X025709Y021149D01*
X025657Y021140D01*
X025603Y021135D01*
X025550Y021133D01*
X024844Y022309D02*
X024871Y022356D01*
X024901Y022401D01*
X024934Y022444D01*
X024970Y022484D01*
X025009Y022522D01*
X025050Y022557D01*
X025093Y022590D01*
X025138Y022619D01*
X025186Y022645D01*
X025235Y022668D01*
X025285Y022688D01*
X025336Y022704D01*
X025389Y022717D01*
X025442Y022726D01*
X025496Y022731D01*
X025550Y022733D01*
X024855Y019536D02*
X024885Y019488D01*
X024918Y019443D01*
X024954Y019400D01*
X024992Y019359D01*
X025034Y019322D01*
X025078Y019287D01*
X025124Y019256D01*
X025173Y019227D01*
X025223Y019203D01*
X025275Y019182D01*
X025329Y019164D01*
X025383Y019151D01*
X025438Y019141D01*
X025494Y019135D01*
X025550Y019133D01*
X026165Y020445D02*
X026129Y020485D01*
X026090Y020523D01*
X026049Y020558D01*
X026006Y020590D01*
X025961Y020620D01*
X025914Y020646D01*
X025865Y020668D01*
X025814Y020688D01*
X025763Y020704D01*
X025711Y020717D01*
X025657Y020726D01*
X025604Y020731D01*
X025550Y020733D01*
X026161Y019416D02*
X026125Y019377D01*
X026086Y019339D01*
X026046Y019305D01*
X026003Y019273D01*
X025958Y019245D01*
X025911Y019219D01*
X025862Y019196D01*
X025812Y019177D01*
X025761Y019161D01*
X025709Y019149D01*
X025657Y019140D01*
X025603Y019135D01*
X025550Y019133D01*
X024844Y020309D02*
X024871Y020356D01*
X024901Y020401D01*
X024934Y020444D01*
X024970Y020484D01*
X025009Y020522D01*
X025050Y020557D01*
X025093Y020590D01*
X025138Y020619D01*
X025186Y020645D01*
X025235Y020668D01*
X025285Y020688D01*
X025336Y020704D01*
X025389Y020717D01*
X025442Y020726D01*
X025496Y020731D01*
X025550Y020733D01*
X024855Y017536D02*
X024885Y017488D01*
X024918Y017443D01*
X024954Y017400D01*
X024992Y017359D01*
X025034Y017322D01*
X025078Y017287D01*
X025124Y017256D01*
X025173Y017227D01*
X025223Y017203D01*
X025275Y017182D01*
X025329Y017164D01*
X025383Y017151D01*
X025438Y017141D01*
X025494Y017135D01*
X025550Y017133D01*
X026165Y018445D02*
X026129Y018485D01*
X026090Y018523D01*
X026049Y018558D01*
X026006Y018590D01*
X025961Y018620D01*
X025914Y018646D01*
X025865Y018668D01*
X025814Y018688D01*
X025763Y018704D01*
X025711Y018717D01*
X025657Y018726D01*
X025604Y018731D01*
X025550Y018733D01*
X026161Y017416D02*
X026125Y017377D01*
X026086Y017339D01*
X026046Y017305D01*
X026003Y017273D01*
X025958Y017245D01*
X025911Y017219D01*
X025862Y017196D01*
X025812Y017177D01*
X025761Y017161D01*
X025709Y017149D01*
X025657Y017140D01*
X025603Y017135D01*
X025550Y017133D01*
X024844Y018309D02*
X024871Y018356D01*
X024901Y018401D01*
X024934Y018444D01*
X024970Y018484D01*
X025009Y018522D01*
X025050Y018557D01*
X025093Y018590D01*
X025138Y018619D01*
X025186Y018645D01*
X025235Y018668D01*
X025285Y018688D01*
X025336Y018704D01*
X025389Y018717D01*
X025442Y018726D01*
X025496Y018731D01*
X025550Y018733D01*
D13*
X026443Y018417D02*
X026443Y018147D01*
X026578Y018147D01*
X026623Y018192D01*
X026623Y018372D01*
X026578Y018417D01*
X026443Y018417D01*
X026737Y018372D02*
X026737Y018327D01*
X026782Y018282D01*
X026872Y018282D01*
X026918Y018237D01*
X026918Y018192D01*
X026872Y018147D01*
X026782Y018147D01*
X026737Y018192D01*
X026737Y018237D01*
X026782Y018282D01*
X026872Y018282D02*
X026918Y018327D01*
X026918Y018372D01*
X026872Y018417D01*
X026782Y018417D01*
X026737Y018372D01*
X027032Y018417D02*
X027212Y018147D01*
X027032Y018147D02*
X027212Y018417D01*
X027212Y020147D02*
X027032Y020417D01*
X026918Y020417D02*
X026918Y020372D01*
X026737Y020192D01*
X026737Y020147D01*
X026623Y020192D02*
X026623Y020372D01*
X026578Y020417D01*
X026443Y020417D01*
X026443Y020147D01*
X026578Y020147D01*
X026623Y020192D01*
X026737Y020417D02*
X026918Y020417D01*
X027032Y020147D02*
X027212Y020417D01*
X027212Y022147D02*
X027032Y022417D01*
X026918Y022417D02*
X026827Y022372D01*
X026737Y022282D01*
X026872Y022282D01*
X026918Y022237D01*
X026918Y022192D01*
X026872Y022147D01*
X026782Y022147D01*
X026737Y022192D01*
X026737Y022282D01*
X026623Y022192D02*
X026623Y022372D01*
X026578Y022417D01*
X026443Y022417D01*
X026443Y022147D01*
X026578Y022147D01*
X026623Y022192D01*
X027032Y022147D02*
X027212Y022417D01*
X027252Y024147D02*
X027071Y024417D01*
X026957Y024417D02*
X026777Y024417D01*
X026777Y024282D01*
X026867Y024327D01*
X026912Y024327D01*
X026957Y024282D01*
X026957Y024192D01*
X026912Y024147D01*
X026822Y024147D01*
X026777Y024192D01*
X026662Y024192D02*
X026662Y024372D01*
X026617Y024417D01*
X026482Y024417D01*
X026482Y024147D01*
X026617Y024147D01*
X026662Y024192D01*
X027071Y024147D02*
X027252Y024417D01*
X027252Y026147D02*
X027071Y026417D01*
X026912Y026417D02*
X026777Y026282D01*
X026957Y026282D01*
X026912Y026147D02*
X026912Y026417D01*
X026662Y026372D02*
X026617Y026417D01*
X026482Y026417D01*
X026482Y026147D01*
X026617Y026147D01*
X026662Y026192D01*
X026662Y026372D01*
X027071Y026147D02*
X027252Y026417D01*
X031600Y026024D02*
X031600Y025843D01*
X031690Y025753D01*
X031780Y025843D01*
X031780Y026024D01*
X031895Y026024D02*
X032030Y026024D01*
X032075Y025979D01*
X032075Y025888D01*
X032030Y025843D01*
X031895Y025843D01*
X031895Y025753D02*
X031895Y026024D01*
X031985Y025843D02*
X032075Y025753D01*
X032189Y025798D02*
X032235Y025753D01*
X032325Y025753D01*
X032370Y025798D01*
X032370Y025843D01*
X032325Y025888D01*
X032280Y025888D01*
X032325Y025888D02*
X032370Y025934D01*
X032370Y025979D01*
X032325Y026024D01*
X032235Y026024D01*
X032189Y025979D01*
X032484Y026024D02*
X032664Y025753D01*
X032484Y025753D02*
X032664Y026024D01*
X032586Y020866D02*
X032405Y020596D01*
X032246Y020596D02*
X032246Y020866D01*
X032111Y020731D01*
X032291Y020731D01*
X032405Y020866D02*
X032586Y020596D01*
X031996Y020596D02*
X031906Y020686D01*
X031951Y020686D02*
X031816Y020686D01*
X031816Y020596D02*
X031816Y020866D01*
X031951Y020866D01*
X031996Y020821D01*
X031996Y020731D01*
X031951Y020686D01*
X031702Y020686D02*
X031702Y020866D01*
X031702Y020686D02*
X031612Y020596D01*
X031521Y020686D01*
X031521Y020866D01*
X031600Y015787D02*
X031600Y015607D01*
X031690Y015517D01*
X031780Y015607D01*
X031780Y015787D01*
X031895Y015787D02*
X032030Y015787D01*
X032075Y015742D01*
X032075Y015652D01*
X032030Y015607D01*
X031895Y015607D01*
X031895Y015517D02*
X031895Y015787D01*
X031985Y015607D02*
X032075Y015517D01*
X032189Y015562D02*
X032235Y015517D01*
X032325Y015517D01*
X032370Y015562D01*
X032370Y015652D01*
X032325Y015697D01*
X032280Y015697D01*
X032189Y015652D01*
X032189Y015787D01*
X032370Y015787D01*
X032327Y010669D02*
X032507Y010399D01*
X032327Y010399D02*
X032507Y010669D01*
X032212Y010624D02*
X032167Y010669D01*
X032077Y010669D01*
X032032Y010624D01*
X031918Y010624D02*
X031918Y010534D01*
X031872Y010489D01*
X031737Y010489D01*
X031737Y010399D02*
X031737Y010669D01*
X031872Y010669D01*
X031918Y010624D01*
X031827Y010489D02*
X031918Y010399D01*
X032032Y010399D02*
X032212Y010579D01*
X032212Y010624D01*
X032212Y010399D02*
X032032Y010399D01*
X031623Y010489D02*
X031623Y010669D01*
X031623Y010489D02*
X031533Y010399D01*
X031443Y010489D01*
X031443Y010669D01*
X031443Y005630D02*
X031443Y005450D01*
X031533Y005360D01*
X031623Y005450D01*
X031623Y005630D01*
X031737Y005630D02*
X031872Y005630D01*
X031918Y005585D01*
X031918Y005495D01*
X031872Y005450D01*
X031737Y005450D01*
X031737Y005360D02*
X031737Y005630D01*
X031827Y005450D02*
X031918Y005360D01*
X032032Y005360D02*
X032212Y005360D01*
X032122Y005360D02*
X032122Y005630D01*
X032032Y005540D01*
X032327Y005630D02*
X032507Y005360D01*
X032327Y005360D02*
X032507Y005630D01*
X020588Y008692D02*
X020543Y008647D01*
X020588Y008692D02*
X020588Y008782D01*
X020543Y008827D01*
X020498Y008827D01*
X020452Y008782D01*
X020452Y008692D01*
X020407Y008647D01*
X020362Y008647D01*
X020317Y008692D01*
X020317Y008782D01*
X020362Y008827D01*
X020317Y008941D02*
X020588Y008941D01*
X020498Y009031D01*
X020588Y009121D01*
X020317Y009121D01*
X020452Y009236D02*
X020452Y009416D01*
X020317Y009371D02*
X020452Y009236D01*
X020317Y009371D02*
X020588Y009371D01*
X015047Y008903D02*
X014867Y008903D01*
X014957Y008903D02*
X014957Y009173D01*
X014867Y009083D01*
X014752Y009173D02*
X014752Y008903D01*
X014662Y008993D01*
X014572Y008903D01*
X014572Y009173D01*
X014458Y009128D02*
X014412Y009173D01*
X014322Y009173D01*
X014277Y009128D01*
X014277Y009083D01*
X014322Y009038D01*
X014412Y009038D01*
X014458Y008993D01*
X014458Y008948D01*
X014412Y008903D01*
X014322Y008903D01*
X014277Y008948D01*
X010588Y009003D02*
X010317Y009003D01*
X010362Y009118D02*
X010317Y009163D01*
X010317Y009253D01*
X010362Y009298D01*
X010407Y009298D01*
X010588Y009118D01*
X010588Y009298D01*
X010588Y009003D02*
X010498Y008913D01*
X010588Y008823D01*
X010317Y008823D01*
X010362Y008709D02*
X010317Y008664D01*
X010317Y008574D01*
X010362Y008529D01*
X010407Y008529D01*
X010452Y008574D01*
X010452Y008664D01*
X010498Y008709D01*
X010543Y008709D01*
X010588Y008664D01*
X010588Y008574D01*
X010543Y008529D01*
X006675Y007357D02*
X006495Y007177D01*
X006540Y007132D01*
X006630Y007132D01*
X006675Y007177D01*
X006675Y007357D01*
X006630Y007402D01*
X006540Y007402D01*
X006495Y007357D01*
X006495Y007177D01*
X006380Y007132D02*
X006200Y007132D01*
X006290Y007132D02*
X006290Y007402D01*
X006200Y007312D01*
X006086Y007267D02*
X006041Y007222D01*
X005906Y007222D01*
X005906Y007132D02*
X005906Y007402D01*
X006041Y007402D01*
X006086Y007357D01*
X006086Y007267D01*
X005791Y007402D02*
X005611Y007402D01*
X005701Y007402D02*
X005701Y007132D01*
X005668Y005355D02*
X005668Y005085D01*
X005872Y005085D02*
X005872Y005355D01*
X006008Y005355D01*
X006053Y005310D01*
X006053Y005220D01*
X006008Y005175D01*
X005872Y005175D01*
X005758Y005355D02*
X005578Y005355D01*
X006167Y005265D02*
X006257Y005355D01*
X006257Y005085D01*
X006167Y005085D02*
X006347Y005085D01*
X006462Y005085D02*
X006642Y005085D01*
X006552Y005085D02*
X006552Y005355D01*
X006462Y005265D01*
X006507Y004371D02*
X006462Y004326D01*
X006507Y004371D02*
X006597Y004371D01*
X006642Y004326D01*
X006642Y004281D01*
X006462Y004101D01*
X006642Y004101D01*
X006347Y004101D02*
X006167Y004101D01*
X006257Y004101D02*
X006257Y004371D01*
X006167Y004281D01*
X006053Y004326D02*
X006053Y004236D01*
X006008Y004191D01*
X005872Y004191D01*
X005872Y004101D02*
X005872Y004371D01*
X006008Y004371D01*
X006053Y004326D01*
X005758Y004371D02*
X005578Y004371D01*
X005668Y004371D02*
X005668Y004101D01*
X005668Y001851D02*
X005668Y001581D01*
X005872Y001581D02*
X005872Y001851D01*
X006008Y001851D01*
X006053Y001806D01*
X006053Y001716D01*
X006008Y001671D01*
X005872Y001671D01*
X005758Y001851D02*
X005578Y001851D01*
X006167Y001806D02*
X006167Y001761D01*
X006212Y001716D01*
X006347Y001716D01*
X006347Y001626D02*
X006347Y001806D01*
X006302Y001851D01*
X006212Y001851D01*
X006167Y001806D01*
X006167Y001626D02*
X006212Y001581D01*
X006302Y001581D01*
X006347Y001626D01*
X015239Y003692D02*
X015284Y003647D01*
X015329Y003647D01*
X015374Y003692D01*
X015374Y003782D01*
X015419Y003827D01*
X015464Y003827D01*
X015509Y003782D01*
X015509Y003692D01*
X015464Y003647D01*
X015239Y003692D02*
X015239Y003782D01*
X015284Y003827D01*
X015239Y003941D02*
X015509Y003941D01*
X015419Y004031D01*
X015509Y004121D01*
X015239Y004121D01*
X015239Y004236D02*
X015374Y004236D01*
X015329Y004326D01*
X015329Y004371D01*
X015374Y004416D01*
X015464Y004416D01*
X015509Y004371D01*
X015509Y004281D01*
X015464Y004236D01*
X015239Y004236D02*
X015239Y004416D01*
X005402Y010839D02*
X005357Y010794D01*
X005267Y010794D01*
X005222Y010839D01*
X005312Y010929D02*
X005357Y010929D01*
X005402Y010884D01*
X005402Y010839D01*
X005357Y010929D02*
X005402Y010974D01*
X005402Y011019D01*
X005357Y011064D01*
X005267Y011064D01*
X005222Y011019D01*
X005108Y011019D02*
X005108Y010929D01*
X005063Y010884D01*
X004928Y010884D01*
X004928Y010794D02*
X004928Y011064D01*
X005063Y011064D01*
X005108Y011019D01*
X004813Y011064D02*
X004633Y011064D01*
X004723Y011064D02*
X004723Y010794D01*
X004762Y011817D02*
X004762Y012087D01*
X004672Y012087D02*
X004852Y012087D01*
X004967Y012087D02*
X005102Y012087D01*
X005147Y012042D01*
X005147Y011952D01*
X005102Y011907D01*
X004967Y011907D01*
X004967Y011817D02*
X004967Y012087D01*
X005262Y012087D02*
X005262Y011952D01*
X005352Y011997D01*
X005397Y011997D01*
X005442Y011952D01*
X005442Y011862D01*
X005397Y011817D01*
X005307Y011817D01*
X005262Y011862D01*
X005262Y012087D02*
X005442Y012087D01*
X005397Y012801D02*
X005442Y012846D01*
X005442Y012891D01*
X005397Y012936D01*
X005262Y012936D01*
X005262Y012846D01*
X005307Y012801D01*
X005397Y012801D01*
X005262Y012936D02*
X005352Y013027D01*
X005442Y013072D01*
X005147Y013027D02*
X005147Y012936D01*
X005102Y012891D01*
X004967Y012891D01*
X004967Y012801D02*
X004967Y013072D01*
X005102Y013072D01*
X005147Y013027D01*
X004852Y013072D02*
X004672Y013072D01*
X004762Y013072D02*
X004762Y012801D01*
X004723Y013825D02*
X004723Y014095D01*
X004633Y014095D02*
X004813Y014095D01*
X004928Y014095D02*
X005063Y014095D01*
X005108Y014050D01*
X005108Y013960D01*
X005063Y013915D01*
X004928Y013915D01*
X004928Y013825D02*
X004928Y014095D01*
X005222Y014095D02*
X005402Y014095D01*
X005402Y014050D01*
X005222Y013870D01*
X005222Y013825D01*
X005267Y014809D02*
X005222Y014854D01*
X005222Y014899D01*
X005267Y014944D01*
X005357Y014944D01*
X005402Y014899D01*
X005402Y014854D01*
X005357Y014809D01*
X005267Y014809D01*
X005267Y014944D02*
X005222Y014989D01*
X005222Y015034D01*
X005267Y015079D01*
X005357Y015079D01*
X005402Y015034D01*
X005402Y014989D01*
X005357Y014944D01*
X005108Y014944D02*
X005063Y014899D01*
X004928Y014899D01*
X004928Y014809D02*
X004928Y015079D01*
X005063Y015079D01*
X005108Y015034D01*
X005108Y014944D01*
X004813Y015079D02*
X004633Y015079D01*
X004723Y015079D02*
X004723Y014809D01*
X007899Y017053D02*
X008080Y017053D01*
X008194Y017098D02*
X008239Y017053D01*
X008329Y017053D01*
X008374Y017098D01*
X008489Y017053D02*
X008624Y017053D01*
X008669Y017098D01*
X008669Y017278D01*
X008624Y017323D01*
X008489Y017323D01*
X008489Y017053D01*
X008374Y017278D02*
X008329Y017323D01*
X008239Y017323D01*
X008194Y017278D01*
X008194Y017098D01*
X007899Y017053D02*
X007899Y017323D01*
X008783Y017233D02*
X008873Y017323D01*
X008873Y017053D01*
X008783Y017053D02*
X008964Y017053D01*
X015396Y014410D02*
X015441Y014455D01*
X015486Y014455D01*
X015531Y014410D01*
X015576Y014455D01*
X015621Y014455D01*
X015666Y014410D01*
X015666Y014320D01*
X015621Y014275D01*
X015666Y014161D02*
X015396Y014161D01*
X015441Y014275D02*
X015396Y014320D01*
X015396Y014410D01*
X015531Y014410D02*
X015531Y014365D01*
X015666Y014161D02*
X015576Y014071D01*
X015666Y013981D01*
X015396Y013981D01*
X015441Y013866D02*
X015396Y013821D01*
X015396Y013731D01*
X015441Y013686D01*
X015486Y013686D01*
X015531Y013731D01*
X015531Y013821D01*
X015576Y013866D01*
X015621Y013866D01*
X015666Y013821D01*
X015666Y013731D01*
X015621Y013686D01*
X007626Y012363D02*
X007626Y012318D01*
X007446Y012138D01*
X007446Y012093D01*
X007332Y012093D02*
X007151Y012093D01*
X007241Y012093D02*
X007241Y012363D01*
X007151Y012273D01*
X007037Y012318D02*
X006992Y012363D01*
X006857Y012363D01*
X006857Y012093D01*
X006857Y012183D02*
X006992Y012183D01*
X007037Y012228D01*
X007037Y012318D01*
X006742Y012363D02*
X006562Y012363D01*
X006652Y012363D02*
X006652Y012093D01*
X007446Y012363D02*
X007626Y012363D01*
D14*
X005904Y024784D02*
X005791Y024784D01*
X005734Y024840D01*
X005961Y025067D01*
X005961Y024840D01*
X005904Y024784D01*
X005734Y024840D02*
X005734Y025067D01*
X005791Y025124D01*
X005904Y025124D01*
X005961Y025067D01*
X005607Y024840D02*
X005607Y024784D01*
X005550Y024784D01*
X005550Y024840D01*
X005607Y024840D01*
X005408Y024784D02*
X005182Y024784D01*
X005295Y024784D02*
X005295Y025124D01*
X005182Y025010D01*
X005040Y025010D02*
X004927Y024784D01*
X004813Y025010D01*
X004615Y025384D02*
X004502Y025384D01*
X004445Y025440D01*
X004445Y025554D02*
X004558Y025610D01*
X004615Y025610D01*
X004672Y025554D01*
X004672Y025440D01*
X004615Y025384D01*
X004445Y025554D02*
X004445Y025724D01*
X004672Y025724D01*
X004747Y025984D02*
X004861Y025984D01*
X004917Y026040D01*
X005059Y026040D02*
X005116Y025984D01*
X005229Y025984D01*
X005286Y026040D01*
X005286Y026097D01*
X005229Y026154D01*
X005116Y026154D01*
X005059Y026210D01*
X005059Y026267D01*
X005116Y026324D01*
X005229Y026324D01*
X005286Y026267D01*
X004917Y026267D02*
X004861Y026324D01*
X004747Y026324D01*
X004691Y026267D01*
X004691Y026040D01*
X004747Y025984D01*
X004558Y025984D02*
X004445Y025984D01*
X004502Y025984D02*
X004502Y026324D01*
X004558Y026324D02*
X004445Y026324D01*
X004304Y026324D02*
X004304Y025984D01*
X004077Y026324D01*
X004077Y025984D01*
X003935Y026040D02*
X003935Y026267D01*
X003879Y026324D01*
X003765Y026324D01*
X003708Y026267D01*
X003708Y026040D01*
X003765Y025984D01*
X003879Y025984D01*
X003935Y026040D01*
X003567Y025984D02*
X003340Y025984D01*
X003340Y026040D01*
X003567Y026267D01*
X003567Y026324D01*
X003340Y026324D01*
X003199Y026324D02*
X003199Y026267D01*
X002972Y026040D01*
X002972Y025984D01*
X003199Y025984D01*
X003199Y025724D02*
X002972Y025384D01*
X002972Y025124D02*
X003199Y025124D01*
X003340Y025124D02*
X003567Y024784D01*
X003708Y024954D02*
X003935Y024954D01*
X004077Y025067D02*
X004133Y025124D01*
X004247Y025124D01*
X004304Y025067D01*
X004304Y025010D01*
X004077Y024784D01*
X004304Y024784D01*
X004304Y025384D02*
X004077Y025384D01*
X004190Y025384D02*
X004190Y025724D01*
X004077Y025610D01*
X003935Y025667D02*
X003708Y025440D01*
X003765Y025384D01*
X003879Y025384D01*
X003935Y025440D01*
X003935Y025667D01*
X003879Y025724D01*
X003765Y025724D01*
X003708Y025667D01*
X003708Y025440D01*
X003567Y025384D02*
X003340Y025384D01*
X003567Y025610D01*
X003567Y025667D01*
X003510Y025724D01*
X003397Y025724D01*
X003340Y025667D01*
X002830Y025667D02*
X002603Y025440D01*
X002603Y025384D01*
X002462Y025440D02*
X002405Y025384D01*
X002292Y025384D01*
X002235Y025440D01*
X002462Y025667D01*
X002462Y025440D01*
X002235Y025440D02*
X002235Y025667D01*
X002292Y025724D01*
X002405Y025724D01*
X002462Y025667D01*
X002603Y025724D02*
X002830Y025724D01*
X002830Y025667D01*
X002830Y025984D02*
X002603Y025984D01*
X002603Y026324D01*
X002830Y026324D01*
X002972Y026324D02*
X003199Y026324D01*
X002717Y026154D02*
X002603Y026154D01*
X002462Y026154D02*
X002405Y026097D01*
X002235Y026097D01*
X002235Y025984D02*
X002235Y026324D01*
X002405Y026324D01*
X002462Y026267D01*
X002462Y026154D01*
X002349Y026097D02*
X002462Y025984D01*
X002405Y025124D02*
X002235Y025124D01*
X002235Y024784D01*
X002405Y024784D01*
X002462Y024840D01*
X002462Y025067D01*
X002405Y025124D01*
X002603Y025124D02*
X002717Y025010D01*
X002830Y025124D01*
X002830Y024784D01*
X002972Y024784D02*
X002972Y025124D01*
X002972Y024954D02*
X003085Y024954D01*
X003340Y024784D02*
X003567Y025124D01*
X002603Y025124D02*
X002603Y024784D01*
M02*
