%
M48
M72
T01C0.0138
T02C0.0236
T03C0.0320
T04C0.0354
T05C0.0394
T06C0.0512
T07C0.0591
T08C0.0600
T09C0.0787
T10C0.1260
%
T01
X11813Y5158
X15828Y8032
X17285Y8702
X15710Y10198
X12009Y9450
X17206Y13505
X12915Y16379
X11734Y16418
X11813Y19646
X4293Y14528
X4293Y13544
X4293Y12540
X4293Y11536
X4296Y10534
X1104Y10513
X1104Y11024
X1104Y11536
X1104Y12048
X1104Y12560
X1104Y13544
X1104Y14568
X1616Y20237
X1970Y20591
X3112Y20946
X3506Y21300
X3860Y21733
X21813Y5198
X17167Y3545
X30435Y12048
X33072Y11654
X33466Y12678
X33899Y13072
X34805Y13702
X35198Y14213
X35671Y15001
X34372Y15709
X33072Y16891
X37757Y15001
X38565Y14056
X38584Y13544
X38584Y13072
X38584Y12520
X38565Y12048
X38584Y11536
X38584Y11024
X38584Y10552
X37757Y9568
X36537Y9568
X35317Y8308
X34883Y8741
X35828Y7875
X34332Y5985
X32876Y8347
X33309Y8898
X34332Y10355
X38781Y20316
X38387Y21457
X35661Y23199
X35198Y22284
X33466Y22206
X34805Y20946
X33899Y23977
T02
X20621Y17751
X20030Y17751
X19440Y17751
X18849Y17751
X18259Y17751
X17668Y17751
X17078Y17751
X16487Y17751
X15896Y17751
X15306Y17751
X14715Y17751
X14125Y17751
X13534Y17751
X12944Y17751
X12353Y17751
X11763Y17751
X11172Y17751
T03
X25050Y17933
X26050Y17933
X26050Y19933
X25050Y19933
X25050Y21933
X26050Y21933
X26050Y23933
X25050Y23933
X25050Y25933
X26050Y25933
T04
X23810Y26845
X23810Y17751
X17054Y15843
X14054Y15843
X14054Y11843
X12054Y10843
X13554Y10343
X17054Y11843
X17554Y10343
X19054Y10843
X22054Y10843
X17554Y7343
X19054Y6843
X17054Y5843
X14054Y5843
X13554Y7343
X12054Y6843
X9054Y6843
X9054Y10843
X7983Y17751
X7983Y26845
X22054Y6843
X17054Y1843
X14054Y1843
T05
X31911Y2826
X31911Y3811
X31911Y4795
X31964Y7834
X31964Y8819
X31964Y9803
X32014Y12886
X32014Y13870
X32014Y14854
X32014Y17991
X32014Y18975
X32014Y19959
X32061Y23092
X32061Y24076
X32061Y25061
T06
X22707Y18519
X9085Y18519
T07
X2521Y9434
X37167Y9434
T08
X37167Y15134
X2521Y15134
T09
X29258Y15602
X29258Y17243
X29258Y20707
X29305Y22344
X29305Y25809
X29258Y12138
X29208Y10551
X29208Y7086
X29155Y5543
X29155Y2078
T10
X9058Y2544
X22050Y2544
X22050Y15142
X9058Y15142
M30
