%
M48
M72
T01C0.0059
T02C0.0315
T03C0.0354
T04C0.0394
T05C0.0400
T06C0.0520
T07C0.0551
T08C0.0591
T09C0.0630
T10C0.0709
T11C0.1181
%
T01
X7604Y5574
X9573Y5574
X11541Y5574
X11541Y7542
X9573Y7542
X9573Y9511
X7604Y9511
X7604Y7542
X3667Y9511
X3667Y11479
X3667Y13448
X3667Y15416
X3667Y17385
X3667Y19353
X3667Y21322
X5636Y21322
X5636Y23290
X3667Y23290
X4061Y25928
X5636Y27227
X5636Y29196
X3667Y29196
X3667Y31164
X4061Y32542
X3667Y33133
X5636Y33133
X5636Y31164
X8628Y31007
X8628Y31440
X8628Y31833
X8549Y32424
X9966Y32463
X9848Y31833
X9848Y31440
X9848Y31007
X9848Y30574
X9809Y30140
X8667Y30140
X8667Y30574
X8707Y29707
X8667Y29274
X8667Y28841
X8667Y28408
X9809Y28408
X9809Y28841
X11699Y27975
X11699Y27621
X12092Y26991
X12644Y27857
X13510Y28014
X13510Y27621
X13510Y27266
X14533Y27148
X14533Y26636
X14533Y26125
X14533Y25613
X14258Y25101
X14218Y24589
X14455Y24117
X14415Y23093
X14533Y22581
X14218Y21636
X11541Y21322
X9848Y21794
X9848Y22227
X8667Y22227
X8667Y21794
X8707Y22660
X8707Y23093
X8667Y23526
X8667Y23959
X8667Y24392
X8667Y24825
X8707Y25219
X8549Y25928
X9966Y25928
X9809Y25219
X9809Y24825
X9809Y24392
X9848Y23959
X9809Y23526
X15557Y28369
X15596Y28999
X15911Y28999
X16069Y29353
X16738Y29314
X17053Y29353
X17486Y29353
X17289Y30534
X17014Y30534
X16541Y30534
X16108Y30534
X15793Y30534
X15478Y30534
X15163Y30495
X14770Y30495
X14376Y30534
X13982Y30692
X13785Y30337
X13155Y30062
X13155Y29550
X14061Y29274
X14573Y29314
X14691Y28920
X15163Y29196
X13116Y28644
X12329Y28762
X12840Y30692
X12525Y30888
X12762Y31125
X12762Y31597
X12762Y32070
X12525Y32463
X12762Y32621
X12762Y33093
X12722Y33526
X13903Y33644
X14140Y33841
X13982Y33093
X13982Y32621
X13982Y32070
X13982Y31597
X13982Y31125
X15872Y30928
X15832Y31715
X15832Y32621
X15872Y33408
X15675Y33841
X16699Y33723
X17132Y33762
X17250Y34983
X16817Y34983
X16029Y34944
X14966Y34904
X14927Y35810
X14612Y35810
X13825Y34668
X12998Y35888
X12368Y35574
X12092Y35967
X11659Y36164
X11266Y36322
X11029Y36518
X11462Y37188
X10832Y37385
X10596Y37621
X12250Y37857
X12250Y36951
X14140Y37030
X14927Y37227
X16187Y37424
X17171Y37424
X17880Y37699
X18313Y37699
X18588Y37621
X18825Y37424
X19258Y36931
X18825Y36597
X17840Y36046
X18677Y35672
X18746Y34874
X18785Y34511
X18746Y34077
X18943Y33566
X18746Y33054
X18431Y32857
X18746Y32581
X18588Y32424
X18362Y32090
X18530Y31893
X18352Y31695
X18785Y31991
X18352Y31125
X17299Y31500
X17289Y32424
X18352Y33487
X18352Y34786
X19809Y34471
X20203Y34038
X20360Y34274
X20360Y34944
X20949Y34924
X21620Y34944
X21620Y35259
X21620Y35574
X21620Y35888
X21935Y35888
X21935Y35574
X22250Y35574
X22250Y35888
X22565Y35888
X22565Y35574
X22880Y35888
X22880Y36203
X23195Y36203
X23510Y36203
X23510Y36518
X23195Y36518
X22880Y36518
X22565Y36518
X22565Y36203
X22250Y36203
X21935Y36203
X21620Y36203
X21620Y36518
X21935Y36518
X22250Y36518
X22250Y36833
X22565Y36833
X22880Y36833
X23195Y36833
X23510Y36833
X23588Y37227
X24140Y36833
X24455Y36833
X24770Y36833
X25084Y36833
X25084Y36518
X24770Y36518
X24770Y36203
X25084Y36203
X25084Y35888
X25084Y35574
X25399Y35574
X25399Y35888
X25714Y35888
X25714Y35574
X26029Y35574
X26029Y35888
X26029Y36203
X25714Y36203
X25399Y36203
X25399Y36518
X25399Y36833
X25714Y36833
X25714Y36518
X26029Y36518
X26029Y36833
X25951Y37424
X26266Y37424
X26108Y38290
X25399Y38408
X24809Y38369
X24179Y38369
X23588Y38408
X22998Y38487
X22525Y38448
X22014Y38959
X22407Y39235
X20754Y38920
X20242Y37345
X20636Y36794
X19848Y36223
X20134Y35672
X20399Y35652
X21266Y35652
X21935Y35259
X22250Y35259
X22250Y34944
X21935Y34944
X21935Y34314
X22250Y34314
X22250Y33999
X21935Y33999
X21620Y33999
X21620Y34314
X21226Y33802
X21226Y33408
X21226Y32975
X21620Y33054
X21935Y33054
X21935Y33369
X21935Y33684
X22250Y33684
X22565Y33684
X22565Y33369
X22880Y33369
X23195Y33369
X23195Y33054
X23510Y33054
X23510Y32739
X23510Y32424
X23592Y32176
X23195Y32424
X23195Y32739
X22880Y32739
X22880Y33054
X22565Y33054
X22565Y32739
X22565Y32424
X22880Y32424
X22250Y32424
X22250Y32739
X22250Y33054
X22250Y33369
X21620Y33684
X21620Y32739
X21935Y32739
X21935Y32424
X21620Y32424
X20384Y32975
X20163Y33172
X20384Y33408
X20163Y32581
X20163Y31991
X20203Y31715
X20203Y31361
X20636Y31203
X20636Y30022
X21069Y30062
X21541Y30062
X21935Y30455
X21935Y30810
X22092Y31282
X22801Y31345
X23155Y31302
X23785Y31361
X24297Y31148
X24573Y31345
X24770Y31164
X25006Y31333
X25557Y31322
X26023Y31236
X26305Y31243
X26581Y31558
X26581Y32385
X26029Y32424
X25714Y32424
X25399Y32424
X25084Y32424
X24770Y32424
X24770Y32739
X25084Y32739
X25084Y33054
X24770Y33054
X24770Y33369
X25084Y33369
X25084Y33684
X25399Y33684
X25399Y33999
X25399Y34314
X25714Y33999
X26029Y33684
X26029Y33369
X25714Y33369
X25399Y33369
X25399Y33054
X25399Y32739
X25714Y32739
X25714Y33054
X26029Y33054
X26029Y32739
X27250Y32896
X27250Y33369
X27565Y33448
X27250Y33959
X27250Y34353
X27250Y34786
X27250Y35140
X27644Y35337
X28077Y35692
X28077Y36203
X28628Y36676
X28825Y36912
X29130Y37581
X29637Y37581
X29905Y37585
X30399Y37581
X31187Y37621
X31699Y38014
X32447Y38526
X32053Y38566
X31305Y38841
X30872Y38959
X31738Y39589
X31462Y40534
X30793Y40534
X29258Y41007
X27289Y41007
X25321Y41007
X23825Y39629
X24140Y37739
X24809Y37188
X24455Y36518
X24455Y36203
X24140Y36203
X24140Y35888
X24100Y35574
X24455Y35310
X24100Y35062
X23746Y35062
X23419Y35050
X23195Y35314
X22880Y34995
X22840Y34629
X23392Y34219
X23155Y33999
X23234Y33684
X24140Y33940
X24100Y34196
X23746Y34196
X24455Y33959
X24770Y34251
X24730Y34511
X24730Y34786
X24770Y35003
X25399Y34944
X25399Y35259
X25714Y35259
X26029Y35259
X25714Y34944
X26384Y34786
X26384Y34353
X26384Y33959
X26620Y35416
X26817Y36479
X27407Y37030
X27722Y37030
X27329Y38526
X27781Y38782
X28234Y38762
X28431Y38566
X30636Y36558
X30124Y36164
X29455Y36164
X29140Y36164
X29651Y35259
X30321Y35219
X31462Y35455
X32210Y35888
X31226Y36203
X31620Y37030
X32762Y36873
X33470Y36597
X33980Y36943
X33588Y37385
X33234Y37936
X34651Y37975
X34966Y37975
X35084Y37385
X35518Y37070
X35183Y36518
X35006Y36322
X35163Y36046
X35163Y35613
X35045Y35377
X34966Y34992
X35163Y34629
X35175Y34235
X34887Y34197
X35175Y33329
X34903Y33172
X35187Y32857
X34966Y32660
X35006Y32266
X34888Y31912
X34848Y31322
X35435Y31172
X36738Y30810
X36738Y30455
X36777Y29944
X36344Y30062
X35911Y30062
X35439Y30022
X36895Y31322
X37525Y31322
X37840Y31322
X38707Y31361
X39100Y31125
X39415Y31322
X39691Y31203
X39927Y31322
X40360Y31322
X40006Y30849
X40006Y30337
X39651Y29944
X40399Y29156
X40045Y28448
X40045Y27266
X40714Y27109
X41226Y27109
X42368Y27109
X41699Y25888
X41895Y25140
X41069Y25180
X40163Y25140
X40754Y24117
X40754Y23841
X40793Y23448
X41187Y23251
X41541Y24117
X41147Y24274
X40045Y22896
X39651Y22424
X39573Y23290
X39140Y23644
X38667Y24314
X38352Y23290
X37801Y22424
X38037Y21558
X36922Y21597
X35754Y21440
X35518Y20770
X36344Y20259
X36344Y19786
X36462Y19353
X35990Y18841
X35439Y18841
X35872Y18014
X35895Y17739
X36974Y17306
X37132Y17699
X38116Y17306
X37801Y16558
X37604Y15692
X38313Y15022
X38667Y15101
X38037Y14707
X37447Y14392
X36620Y13762
X35163Y14353
X34848Y14589
X35084Y14825
X34888Y13841
X33982Y15259
X33569Y15731
X33077Y15140
X32604Y14629
X32099Y15140
X32092Y16282
X31620Y16282
X32171Y16912
X31029Y16912
X30557Y16361
X29061Y16085
X28325Y16058
X28037Y15692
X28116Y15101
X27998Y14511
X26502Y16085
X25557Y16558
X25439Y16991
X25321Y17542
X28313Y17345
X30084Y18684
X30596Y18684
X31101Y18688
X31147Y17542
X32171Y19314
X32604Y20101
X33392Y19707
X33451Y19018
X33785Y18920
X34730Y17896
X35006Y16715
X34061Y16715
X34494Y15888
X35636Y15849
X36581Y15140
X38864Y14353
X39494Y14707
X40124Y14392
X40203Y13762
X41147Y14235
X40518Y15105
X40360Y15849
X39179Y15849
X40714Y17070
X41462Y17070
X42407Y17188
X43077Y17188
X42407Y15613
X42132Y15219
X43195Y14274
X42210Y13802
X42210Y12542
X43234Y12030
X44179Y11912
X46069Y11125
X46974Y11479
X48943Y11479
X48943Y13448
X50911Y13448
X50911Y15416
X48943Y15416
X48943Y17385
X50911Y17385
X46600Y17660
X46601Y15140
X46108Y14707
X46974Y13448
X44218Y14274
X41108Y12070
X40596Y12030
X39730Y11479
X38313Y12030
X37132Y11479
X36029Y12581
X35163Y11479
X33195Y11479
X32447Y12581
X31738Y12581
X31226Y11479
X29218Y12503
X28864Y11558
X28825Y10534
X26856Y12109
X27368Y13093
X26187Y13105
X24848Y12857
X24612Y14077
X21541Y16597
X20754Y16282
X20203Y15770
X19336Y16164
X19297Y16558
X19297Y17070
X18470Y17070
X17880Y17857
X16974Y17424
X16974Y16164
X18549Y15849
X19061Y15849
X19888Y17857
X21738Y19392
X23037Y20574
X24612Y20574
X24888Y22660
X24888Y23487
X25084Y24117
X24848Y24392
X24573Y24511
X24061Y24511
X23334Y24453
X23116Y24707
X22880Y24550
X22250Y24589
X22329Y25101
X21856Y25395
X22722Y25574
X22722Y26085
X23234Y26085
X23234Y25574
X23746Y25574
X23746Y26085
X23746Y26597
X23234Y26597
X22722Y26597
X21925Y26351
X21758Y26577
X21699Y26833
X20321Y26400
X20281Y27188
X20281Y27778
X20399Y28762
X21738Y28762
X22683Y29629
X23273Y28841
X23785Y28841
X23746Y27621
X23929Y27414
X24179Y27070
X23352Y27424
X24927Y26794
X25439Y27306
X26266Y26951
X26266Y26479
X26266Y26007
X26266Y25534
X26266Y25101
X25124Y25770
X25006Y25534
X24770Y25416
X24770Y25967
X24573Y26164
X27092Y26951
X27289Y27148
X27762Y27306
X28431Y27503
X29021Y27503
X29287Y27503
X29545Y27503
X29809Y27503
X30321Y27503
X30832Y27503
X31817Y27581
X32289Y27581
X30557Y26558
X30045Y26558
X29573Y26046
X29809Y25888
X30045Y25692
X30321Y25534
X30557Y25298
X31069Y25298
X31069Y24117
X30754Y24117
X29455Y24196
X28982Y24196
X28549Y24196
X28234Y24983
X28982Y25337
X29297Y25337
X28785Y26518
X28234Y26715
X28470Y28064
X27919Y28054
X27407Y28369
X27604Y28881
X26777Y28762
X26699Y28093
X25872Y29314
X25557Y29471
X24770Y29944
X25203Y30416
X25242Y30810
X26344Y30416
X26856Y30613
X27132Y30062
X27732Y30377
X28785Y31479
X29100Y31203
X29297Y31479
X29297Y32699
X29533Y32857
X28825Y32660
X28470Y32581
X27683Y32385
X27683Y31912
X27683Y31558
X28470Y33684
X28903Y34117
X29415Y34117
X29927Y33644
X30321Y33920
X31147Y33133
X30518Y32660
X31817Y32660
X32289Y32660
X32958Y32896
X33470Y33093
X33758Y33172
X33746Y33605
X33430Y34197
X33470Y34992
X32998Y35022
X32210Y34235
X33469Y35794
X34494Y36243
X36147Y35613
X36423Y35574
X36423Y35888
X36738Y35888
X36738Y35574
X37053Y35574
X37053Y35888
X37368Y35888
X37368Y35574
X37683Y35888
X37683Y36203
X37998Y36203
X38313Y36203
X38313Y35888
X38352Y35574
X37998Y35298
X38116Y35062
X38470Y35062
X38825Y35062
X39258Y35298
X39573Y34999
X39494Y34786
X39490Y34487
X39612Y34255
X39258Y33959
X38943Y33959
X38825Y34196
X38470Y34196
X38155Y34196
X37958Y33999
X38037Y33684
X37998Y33369
X37683Y33369
X37368Y33369
X37368Y33684
X37053Y33684
X37053Y33999
X37053Y34314
X36738Y34314
X36423Y34314
X36423Y33999
X36738Y33999
X36738Y33684
X36423Y33684
X36029Y33762
X36029Y33329
X36029Y32857
X36423Y32739
X36423Y33054
X36738Y33054
X36738Y33369
X37053Y33369
X37053Y33054
X37368Y33054
X37683Y33054
X37998Y33054
X38313Y33054
X38313Y32739
X38313Y32424
X38510Y32188
X38943Y32424
X39258Y32424
X39573Y32424
X39888Y32424
X40203Y32424
X40518Y32424
X40832Y32424
X40832Y32739
X40518Y32739
X40518Y33054
X40832Y33054
X40832Y33369
X40518Y33369
X40203Y33369
X40203Y33684
X40203Y33999
X40518Y33999
X40203Y34314
X40203Y34944
X40518Y34944
X40518Y35259
X40832Y35259
X40832Y35574
X40832Y35888
X40518Y35888
X40518Y35574
X40203Y35574
X40203Y35888
X39888Y35888
X39888Y35574
X39573Y35888
X39573Y36203
X39888Y36203
X40203Y36203
X40518Y36203
X40832Y36203
X41069Y36361
X40832Y36518
X40518Y36518
X40518Y36833
X40832Y36833
X40675Y37306
X41266Y37306
X41462Y36991
X41659Y37188
X42092Y37463
X42329Y37621
X42762Y37818
X42958Y38014
X43431Y38526
X43864Y36833
X43195Y36676
X43667Y36203
X44455Y35888
X44179Y35416
X44651Y35259
X43431Y35101
X42132Y34786
X42132Y34392
X42132Y33881
X42132Y33369
X42132Y32896
X43352Y33369
X43943Y32385
X44455Y32385
X43352Y31991
X45478Y30455
X46974Y31125
X46974Y32424
X47447Y32424
X49455Y34904
X49100Y36007
X47171Y36046
X46541Y35574
X46974Y37070
X45006Y37070
X41974Y36203
X41266Y35731
X41266Y34786
X41266Y34392
X41266Y33881
X40203Y33054
X40203Y32739
X39888Y32739
X39888Y33054
X39888Y33369
X39888Y33684
X39573Y33369
X39573Y33054
X39573Y32739
X39258Y32739
X39258Y33054
X38943Y33054
X38943Y32739
X37998Y32739
X37998Y32424
X37683Y32424
X37683Y32739
X37368Y32739
X37053Y32739
X36738Y32739
X36738Y32424
X36423Y32424
X37053Y32424
X37368Y32424
X37644Y34629
X37683Y34983
X37053Y34944
X37053Y35259
X36738Y35259
X36423Y35259
X36423Y34944
X36738Y34944
X36738Y36203
X36423Y36203
X36423Y36518
X36738Y36518
X37053Y36518
X37053Y36203
X37368Y36203
X37368Y36518
X37683Y36518
X37998Y36518
X38313Y36518
X38313Y36833
X37998Y36833
X37683Y36833
X37368Y36833
X37053Y36833
X36738Y36833
X36423Y36833
X37329Y37345
X37014Y38014
X37329Y38219
X37840Y38172
X38352Y38211
X37683Y38723
X37565Y39077
X37329Y38881
X36974Y38999
X35714Y38999
X35321Y38920
X34612Y38959
X33313Y41361
X38667Y39353
X39218Y38329
X39651Y38211
X40045Y38133
X40360Y38133
X40045Y37542
X39651Y37365
X39573Y36833
X39573Y36518
X39888Y36518
X40203Y36518
X40203Y36833
X39888Y36833
X39258Y36833
X39258Y36518
X39258Y36203
X38943Y36203
X38943Y36518
X38943Y36833
X38549Y37148
X38352Y37345
X39100Y37385
X40203Y35259
X41738Y37975
X41069Y41007
X43037Y41007
X45006Y41007
X46974Y41007
X48943Y41007
X49100Y38881
X48785Y38723
X49966Y38014
X51344Y35062
X51108Y34550
X50832Y31755
X48195Y29668
X47447Y27385
X46974Y27385
X47998Y27070
X48431Y26912
X48588Y27227
X49179Y27148
X49179Y26597
X48785Y26085
X49179Y25613
X48431Y25101
X49179Y24629
X48195Y24117
X47998Y23605
X48588Y23133
X47447Y22345
X47132Y23054
X45793Y23251
X45439Y23251
X45439Y24274
X46163Y25148
X47092Y25298
X46974Y26715
X44179Y26558
X43972Y27424
X44455Y28644
X43667Y28959
X42525Y29117
X41935Y29786
X42092Y28369
X42762Y25298
X44336Y25298
X44297Y23054
X44573Y22109
X44297Y21007
X43746Y20613
X43392Y20810
X43352Y20495
X42998Y20810
X42486Y21046
X41817Y20652
X42683Y22739
X42486Y23054
X42958Y23014
X43155Y22621
X39179Y18723
X34179Y20495
X33785Y20613
X33785Y21794
X33116Y21597
X31738Y21085
X30006Y19825
X28549Y19944
X28077Y20692
X27289Y21322
X29021Y22109
X32053Y24156
X33943Y24629
X34651Y24589
X34691Y23251
X33943Y23290
X37329Y24629
X37722Y25613
X35714Y27936
X37486Y28841
X37998Y28841
X37998Y29944
X38431Y30377
X33510Y31912
X33510Y32660
X32289Y31282
X31777Y31282
X31817Y28920
X32329Y28920
X29297Y28841
X28815Y28851
X23785Y29944
X24140Y32424
X24455Y32424
X24455Y32739
X24455Y33054
X24140Y33054
X24140Y32739
X24770Y35888
X24140Y36518
X22525Y37227
X21935Y36833
X21620Y36833
X17644Y38762
X16935Y38605
X15478Y41007
X13510Y41007
X11541Y41007
X9573Y41007
X7604Y41007
X5636Y41007
X3667Y39038
X3667Y37070
X5636Y37070
X6895Y37660
X8431Y36243
X9327Y35928
X10360Y35180
X10636Y35377
X9533Y35022
X9651Y34156
X8628Y33881
X8431Y34550
X10990Y33133
X11935Y32542
X12210Y32385
X5636Y35101
X3667Y35101
X13628Y38644
X14140Y38251
X18313Y41440
X27880Y34550
X18943Y28093
X18155Y26636
X18313Y25613
X17289Y24629
X18155Y23802
X18313Y23448
X17289Y23605
X17289Y22621
X17525Y22306
X19021Y22739
X20242Y21085
X21817Y23172
X22250Y23172
X23313Y23014
X20321Y25377
X10124Y17896
X9494Y17070
X9533Y16558
X9494Y16125
X9691Y15495
X8840Y15849
X8785Y17070
X8077Y17896
X7171Y17424
X7171Y16125
X6935Y13211
X7250Y12621
X7604Y11479
X9573Y11479
X12762Y14314
X13549Y14766
X14730Y14353
X14376Y13448
X14966Y13211
X14966Y12621
X15478Y11479
X17447Y11479
X17880Y13054
X13746Y16164
X11738Y16518
X13510Y9511
X15478Y9511
X17447Y9511
X19415Y9511
X19415Y7542
X17447Y7542
X15478Y7542
X13510Y7542
X15478Y5574
X17447Y5574
X19415Y5574
X21856Y4707
X21384Y7542
X24258Y10140
X24691Y11205
X23746Y11794
X25557Y10810
X31226Y9511
X33195Y9511
X35163Y9511
X38273Y6440
X35163Y5574
X33195Y5574
X31226Y5574
X40754Y8802
X41344Y10022
X43549Y8251
X43510Y6479
X41974Y6440
X48943Y5574
X30596Y15140
X49218Y22621
X49612Y21873
X51856Y22621
X51856Y23133
X51856Y23605
X51856Y24117
X51856Y25613
X51856Y26085
X51856Y26597
X51856Y27109
X39100Y41007
T02
X39494Y4392
X40281Y4392
X41029Y4392
T03
X37210Y40613
X35478Y40613
X22250Y40613
X20518Y40613
T04
X46614Y8925
X48504Y7705
X46614Y6524
T05
X50949Y9555
X50949Y10555
X51116Y36018
X51116Y37018
T06
X33638Y27818
X37624Y18566
X13116Y22798
T07
X6378Y5180
X12768Y5180
X14252Y5180
X20642Y5180
X20642Y10180
X14252Y10180
X12768Y10180
X6378Y10180
X30000Y10180
X30000Y7680
X30000Y5180
X36390Y5180
X36390Y7680
X36390Y10180
X10655Y39432
X8490Y39432
T08
X15872Y27715
X15872Y22015
X38667Y4392
X41935Y4392
X50518Y22015
X50518Y27715
T09
X25321Y7148
X25321Y4786
T10
X55557Y23014
X55557Y24865
X55557Y26715
T11
X50911Y41007
X3470Y41007
X3667Y5574
X50911Y5574
M30
