G75*
G70*
%OFA0B0*%
%FSLAX24Y24*%
%IPPOS*%
%LPD*%
%AMOC8*
5,1,8,0,0,1.08239X$1,22.5*
%
%ADD10C,0.0039*%
%ADD11R,0.0493X0.0505*%
%ADD12C,0.0218*%
%ADD13R,0.0444X0.0371*%
%ADD14R,0.0395X0.0552*%
%ADD15R,0.0552X0.0316*%
%ADD16C,0.0316*%
%ADD17R,0.0434X0.0356*%
%ADD18R,0.0277X0.1064*%
%ADD19R,0.0867X0.1064*%
%ADD20C,0.0000*%
%ADD21C,0.0434*%
%ADD22R,0.1080X0.1080*%
%ADD23R,0.0400X0.0200*%
%ADD24R,0.0200X0.0400*%
%ADD25R,0.1400X0.1400*%
%ADD26R,0.0513X0.0474*%
%ADD27R,0.0505X0.0493*%
%ADD28R,0.0356X0.0434*%
%ADD29R,0.0220X0.0660*%
%ADD30R,0.0336X0.0415*%
%ADD31R,0.0552X0.0395*%
%ADD32R,0.0966X0.1025*%
%ADD33R,0.0966X0.1222*%
%ADD34R,0.0769X0.0789*%
%ADD35R,0.0769X0.0907*%
%ADD36R,0.0769X0.1222*%
%ADD37C,0.0710*%
%ADD38R,0.0958X0.0789*%
%ADD39R,0.0340X0.0880*%
%ADD40R,0.0300X0.0580*%
%ADD41R,0.0371X0.0444*%
%ADD42R,0.0474X0.1143*%
%ADD43R,0.0867X0.0671*%
%ADD44R,0.1222X0.0671*%
%ADD45R,0.0220X0.0540*%
%ADD46R,0.0710X0.0198*%
%ADD47R,0.0198X0.0710*%
%ADD48R,0.1419X0.2458*%
%ADD49R,0.0356X0.1261*%
%ADD50C,0.0631*%
%ADD51R,0.0157X0.0423*%
%ADD52R,0.0520X0.0180*%
%ADD53R,0.0520X0.0200*%
%ADD54R,0.0580X0.0300*%
%ADD55R,0.0671X0.0671*%
%ADD56R,0.0631X0.0631*%
%ADD57R,0.0395X0.0395*%
%ADD58R,0.0316X0.0946*%
%ADD59R,0.0592X0.0710*%
%ADD60R,0.0790X0.0710*%
%ADD61R,0.0631X0.0474*%
%ADD62R,0.0474X0.0552*%
%ADD63R,0.1261X0.0631*%
%ADD64R,0.0631X0.1261*%
%ADD65C,0.0867*%
%ADD66C,0.0744*%
%ADD67R,0.0946X0.0316*%
%ADD68R,0.0474X0.0631*%
%ADD69R,0.0710X0.0592*%
%ADD70R,0.0710X0.0790*%
%ADD71C,0.0995*%
%ADD72R,0.0433X0.0315*%
%ADD73C,0.0640*%
%ADD74C,0.1060*%
%ADD75R,0.0320X0.0950*%
%ADD76C,0.0500*%
%ADD77C,0.0474*%
%ADD78C,0.2380*%
%ADD79R,0.1080X0.0430*%
%ADD80C,0.0671*%
%ADD81R,0.0671X0.0867*%
%ADD82C,0.0552*%
%ADD83C,0.1256*%
%ADD84OC8,0.0943*%
%ADD85C,0.0257*%
D10*
X001699Y003605D02*
X001699Y042975D01*
X052880Y042975D01*
X052880Y028014D01*
X058392Y028014D01*
X058392Y021715D01*
X052880Y021715D01*
X052880Y003605D01*
X001699Y003605D01*
D11*
X020724Y025377D03*
X021413Y025377D03*
X021374Y026400D03*
X020685Y026400D03*
X020685Y027188D03*
X020685Y027778D03*
X021374Y027778D03*
X021374Y027188D03*
X019799Y032581D03*
X019110Y032581D03*
X019149Y034874D03*
X019838Y034874D03*
X019730Y035672D03*
X019041Y035672D03*
X019189Y037385D03*
X019878Y037385D03*
X009612Y032446D03*
X008923Y032446D03*
X008623Y035513D03*
X009312Y035513D03*
X009602Y025928D03*
X008913Y025928D03*
X033874Y032660D03*
X034563Y032660D03*
X034563Y034992D03*
X033874Y034992D03*
X033873Y035794D03*
X034562Y035794D03*
X034681Y037385D03*
X033992Y037385D03*
D12*
X036581Y036676D03*
X036895Y036676D03*
X036895Y036361D03*
X036581Y036361D03*
X036581Y036046D03*
X036895Y036046D03*
X036895Y035731D03*
X036581Y035731D03*
X036581Y035416D03*
X036895Y035416D03*
X036895Y035101D03*
X036581Y035101D03*
X036581Y034786D03*
X036895Y034786D03*
X036895Y034471D03*
X036581Y034471D03*
X036581Y034156D03*
X036895Y034156D03*
X036895Y033841D03*
X036581Y033841D03*
X036581Y033526D03*
X036895Y033526D03*
X036895Y033211D03*
X036581Y033211D03*
X036581Y032896D03*
X036895Y032896D03*
X036895Y032581D03*
X036581Y032581D03*
X037210Y032581D03*
X037210Y032896D03*
X037210Y033211D03*
X037210Y033526D03*
X037210Y033841D03*
X037210Y034156D03*
X037210Y034471D03*
X037210Y034786D03*
X037210Y035101D03*
X037210Y035416D03*
X037210Y035731D03*
X037210Y036046D03*
X037210Y036361D03*
X037210Y036676D03*
X037525Y036676D03*
X037525Y036361D03*
X037525Y036046D03*
X037525Y035731D03*
X037525Y035416D03*
X037840Y035731D03*
X037840Y036046D03*
X037840Y036361D03*
X037840Y036676D03*
X038155Y036676D03*
X038155Y036361D03*
X038155Y036046D03*
X038470Y036046D03*
X038470Y036361D03*
X038470Y036676D03*
X038785Y036676D03*
X038785Y036361D03*
X038785Y036046D03*
X039100Y036046D03*
X039100Y036361D03*
X039100Y036676D03*
X039415Y036676D03*
X039415Y036361D03*
X039415Y036046D03*
X039415Y035731D03*
X039730Y035731D03*
X039730Y036046D03*
X039730Y036361D03*
X039730Y036676D03*
X040045Y036676D03*
X040360Y036676D03*
X040675Y036676D03*
X040675Y036361D03*
X040360Y036361D03*
X040045Y036361D03*
X040045Y036046D03*
X040045Y035731D03*
X040045Y035416D03*
X039730Y035416D03*
X040045Y035101D03*
X040045Y034786D03*
X040045Y034471D03*
X040045Y034156D03*
X040045Y033841D03*
X040045Y033526D03*
X040045Y033211D03*
X040045Y032896D03*
X040045Y032581D03*
X039730Y032581D03*
X039415Y032581D03*
X039100Y032581D03*
X038785Y032581D03*
X038470Y032581D03*
X038155Y032581D03*
X037840Y032581D03*
X037525Y032581D03*
X037525Y032896D03*
X037525Y033211D03*
X037525Y033526D03*
X037525Y033841D03*
X037840Y033526D03*
X037840Y033211D03*
X037840Y032896D03*
X038155Y032896D03*
X038470Y032896D03*
X038785Y032896D03*
X039100Y032896D03*
X039415Y032896D03*
X039730Y032896D03*
X039730Y033211D03*
X039415Y033211D03*
X039100Y033211D03*
X038785Y033211D03*
X038470Y033211D03*
X038155Y033211D03*
X039415Y033526D03*
X039730Y033526D03*
X039730Y033841D03*
X040360Y033841D03*
X040360Y033526D03*
X040360Y033211D03*
X040360Y032896D03*
X040360Y032581D03*
X040675Y032581D03*
X040675Y032896D03*
X040675Y033211D03*
X040675Y033526D03*
X040675Y033841D03*
X040675Y034156D03*
X040360Y034156D03*
X040360Y034471D03*
X040675Y034471D03*
X040675Y034786D03*
X040360Y034786D03*
X040360Y035101D03*
X040675Y035101D03*
X040675Y035416D03*
X040360Y035416D03*
X040360Y035731D03*
X040360Y036046D03*
X040675Y036046D03*
X040675Y035731D03*
X025872Y035731D03*
X025872Y036046D03*
X025872Y036361D03*
X025872Y036676D03*
X025557Y036676D03*
X025242Y036676D03*
X024927Y036676D03*
X024612Y036676D03*
X024297Y036676D03*
X023982Y036676D03*
X023667Y036676D03*
X023352Y036676D03*
X023037Y036676D03*
X022722Y036676D03*
X022407Y036676D03*
X022092Y036676D03*
X021777Y036676D03*
X021777Y036361D03*
X021777Y036046D03*
X021777Y035731D03*
X021777Y035416D03*
X021777Y035101D03*
X021777Y034786D03*
X021777Y034471D03*
X021777Y034156D03*
X021777Y033841D03*
X021777Y033526D03*
X021777Y033211D03*
X021777Y032896D03*
X021777Y032581D03*
X022092Y032581D03*
X022407Y032581D03*
X022722Y032581D03*
X023037Y032581D03*
X023352Y032581D03*
X023667Y032581D03*
X023982Y032581D03*
X024297Y032581D03*
X024612Y032581D03*
X024927Y032581D03*
X025242Y032581D03*
X025557Y032581D03*
X025872Y032581D03*
X025872Y032896D03*
X025557Y032896D03*
X025242Y032896D03*
X024927Y032896D03*
X024612Y032896D03*
X024297Y032896D03*
X023982Y032896D03*
X023667Y032896D03*
X023352Y032896D03*
X023037Y032896D03*
X022722Y032896D03*
X022407Y032896D03*
X022092Y032896D03*
X022092Y033211D03*
X022092Y033526D03*
X022092Y033841D03*
X022092Y034156D03*
X022092Y034471D03*
X022092Y034786D03*
X022092Y035101D03*
X022092Y035416D03*
X022092Y035731D03*
X022092Y036046D03*
X022092Y036361D03*
X022407Y036361D03*
X022407Y036046D03*
X022407Y035731D03*
X022407Y035416D03*
X022407Y035101D03*
X022407Y034786D03*
X022407Y034471D03*
X022407Y034156D03*
X022407Y033841D03*
X022407Y033526D03*
X022407Y033211D03*
X022722Y033211D03*
X023037Y033211D03*
X023352Y033211D03*
X023667Y033211D03*
X023982Y033211D03*
X024297Y033211D03*
X024612Y033211D03*
X024927Y033211D03*
X025242Y033211D03*
X025557Y033211D03*
X025872Y033211D03*
X025872Y033526D03*
X025557Y033526D03*
X025242Y033526D03*
X024927Y033526D03*
X024612Y033526D03*
X024927Y033841D03*
X025242Y033841D03*
X025557Y033841D03*
X025872Y033841D03*
X025872Y034156D03*
X025557Y034156D03*
X025242Y034156D03*
X025242Y034471D03*
X025557Y034471D03*
X025872Y034471D03*
X025872Y034786D03*
X025872Y035101D03*
X025872Y035416D03*
X025557Y035416D03*
X025557Y035101D03*
X025557Y034786D03*
X025242Y034786D03*
X025242Y035101D03*
X025242Y035416D03*
X025242Y035731D03*
X025557Y035731D03*
X025557Y036046D03*
X025557Y036361D03*
X025242Y036361D03*
X024927Y036361D03*
X024612Y036361D03*
X024297Y036361D03*
X023982Y036361D03*
X023667Y036361D03*
X023352Y036361D03*
X023037Y036361D03*
X022722Y036361D03*
X022722Y036046D03*
X022722Y035731D03*
X022722Y035416D03*
X023037Y035731D03*
X023037Y036046D03*
X023352Y036046D03*
X023667Y036046D03*
X023982Y036046D03*
X024297Y036046D03*
X024612Y036046D03*
X024927Y036046D03*
X025242Y036046D03*
X024927Y035731D03*
X024927Y035416D03*
X024612Y035731D03*
X022722Y033841D03*
X022722Y033526D03*
X023037Y033526D03*
D13*
X019730Y034077D03*
X019258Y034077D03*
X019312Y036571D03*
X019785Y036571D03*
X009494Y030574D03*
X009021Y030574D03*
X009183Y035004D03*
X008711Y035004D03*
X009021Y023959D03*
X009494Y023959D03*
X033981Y034197D03*
X034454Y034197D03*
X034453Y036588D03*
X033980Y036588D03*
X035762Y021805D03*
X036235Y021805D03*
D14*
X034573Y031912D03*
X033864Y031912D03*
X021423Y028762D03*
X020714Y028762D03*
X019848Y031991D03*
X019140Y031991D03*
D15*
X022342Y030802D03*
X022342Y030448D03*
X024822Y030448D03*
X024822Y030802D03*
X037132Y030810D03*
X037132Y030455D03*
X039612Y030455D03*
X039612Y030810D03*
D16*
X040203Y031833D03*
X040557Y031833D03*
X036579Y037351D03*
X036861Y037548D03*
X037118Y037773D03*
X037482Y038442D03*
X037882Y038442D03*
X038243Y038442D03*
X039482Y038442D03*
X040061Y038442D03*
X040360Y038448D03*
X031244Y034448D03*
X026266Y037818D03*
X025951Y038014D03*
X025714Y037778D03*
X025124Y038408D03*
X024455Y038369D03*
X024143Y038045D03*
X030141Y040051D03*
X025712Y031791D03*
X025399Y031794D03*
X016777Y035455D03*
X039966Y022424D03*
X044297Y022621D03*
D17*
X043667Y022719D03*
X043667Y022207D03*
X042486Y020751D03*
X042486Y020239D03*
X039777Y018412D03*
X039179Y018412D03*
X039179Y017900D03*
X039777Y017900D03*
X042399Y016461D03*
X042399Y015949D03*
X043099Y015949D03*
X043099Y016461D03*
X044199Y013961D03*
X044199Y013449D03*
X044199Y012761D03*
X044199Y012249D03*
X040199Y012949D03*
X040199Y013461D03*
X039299Y011161D03*
X039299Y010649D03*
X034499Y016229D03*
X034499Y016741D03*
X035520Y017349D03*
X035520Y017861D03*
X033799Y019749D03*
X033799Y020261D03*
X033799Y020949D03*
X033799Y021461D03*
X033099Y021161D03*
X033099Y020649D03*
X032499Y020749D03*
X032499Y021261D03*
X037801Y020790D03*
X037801Y020278D03*
X025499Y015561D03*
X025499Y015049D03*
X024499Y013361D03*
X024499Y012849D03*
X023899Y010661D03*
X023899Y010149D03*
X027299Y009861D03*
X027299Y009349D03*
X016999Y016549D03*
X016999Y017061D03*
X016399Y017061D03*
X016399Y016549D03*
X015799Y014261D03*
X015799Y013749D03*
X007699Y013749D03*
X007699Y014261D03*
X007199Y016549D03*
X007199Y017061D03*
X006599Y017061D03*
X006599Y016549D03*
X009258Y022640D03*
X009258Y023152D03*
X009258Y029255D03*
X009258Y029766D03*
X027872Y033735D03*
X027872Y034247D03*
X028903Y034451D03*
X028903Y034963D03*
X029421Y034970D03*
X029921Y034970D03*
X029921Y034459D03*
X029421Y034459D03*
X030721Y034459D03*
X030721Y034970D03*
X032604Y034759D03*
X032604Y034247D03*
X031306Y038042D03*
X031306Y038554D03*
X030121Y038859D03*
X030121Y039370D03*
X029421Y039370D03*
X029421Y038859D03*
X028355Y037933D03*
X028355Y037422D03*
X049100Y036995D03*
X049100Y036483D03*
D18*
X036974Y039629D03*
X036659Y039629D03*
X036344Y039629D03*
X036029Y039629D03*
X035714Y039629D03*
X022014Y039629D03*
X021699Y039629D03*
X021384Y039629D03*
X021069Y039629D03*
X020754Y039629D03*
D19*
X019612Y039629D03*
X019612Y041794D03*
X023155Y041794D03*
X023155Y039629D03*
X034573Y039629D03*
X034573Y041794D03*
X038116Y041794D03*
X038116Y039629D03*
D20*
X037033Y040613D02*
X037035Y040639D01*
X037041Y040665D01*
X037051Y040690D01*
X037064Y040713D01*
X037080Y040733D01*
X037100Y040751D01*
X037122Y040766D01*
X037145Y040778D01*
X037171Y040786D01*
X037197Y040790D01*
X037223Y040790D01*
X037249Y040786D01*
X037275Y040778D01*
X037299Y040766D01*
X037320Y040751D01*
X037340Y040733D01*
X037356Y040713D01*
X037369Y040690D01*
X037379Y040665D01*
X037385Y040639D01*
X037387Y040613D01*
X037385Y040587D01*
X037379Y040561D01*
X037369Y040536D01*
X037356Y040513D01*
X037340Y040493D01*
X037320Y040475D01*
X037298Y040460D01*
X037275Y040448D01*
X037249Y040440D01*
X037223Y040436D01*
X037197Y040436D01*
X037171Y040440D01*
X037145Y040448D01*
X037121Y040460D01*
X037100Y040475D01*
X037080Y040493D01*
X037064Y040513D01*
X037051Y040536D01*
X037041Y040561D01*
X037035Y040587D01*
X037033Y040613D01*
X035301Y040613D02*
X035303Y040639D01*
X035309Y040665D01*
X035319Y040690D01*
X035332Y040713D01*
X035348Y040733D01*
X035368Y040751D01*
X035390Y040766D01*
X035413Y040778D01*
X035439Y040786D01*
X035465Y040790D01*
X035491Y040790D01*
X035517Y040786D01*
X035543Y040778D01*
X035567Y040766D01*
X035588Y040751D01*
X035608Y040733D01*
X035624Y040713D01*
X035637Y040690D01*
X035647Y040665D01*
X035653Y040639D01*
X035655Y040613D01*
X035653Y040587D01*
X035647Y040561D01*
X035637Y040536D01*
X035624Y040513D01*
X035608Y040493D01*
X035588Y040475D01*
X035566Y040460D01*
X035543Y040448D01*
X035517Y040440D01*
X035491Y040436D01*
X035465Y040436D01*
X035439Y040440D01*
X035413Y040448D01*
X035389Y040460D01*
X035368Y040475D01*
X035348Y040493D01*
X035332Y040513D01*
X035319Y040536D01*
X035309Y040561D01*
X035303Y040587D01*
X035301Y040613D01*
X022073Y040613D02*
X022075Y040639D01*
X022081Y040665D01*
X022091Y040690D01*
X022104Y040713D01*
X022120Y040733D01*
X022140Y040751D01*
X022162Y040766D01*
X022185Y040778D01*
X022211Y040786D01*
X022237Y040790D01*
X022263Y040790D01*
X022289Y040786D01*
X022315Y040778D01*
X022339Y040766D01*
X022360Y040751D01*
X022380Y040733D01*
X022396Y040713D01*
X022409Y040690D01*
X022419Y040665D01*
X022425Y040639D01*
X022427Y040613D01*
X022425Y040587D01*
X022419Y040561D01*
X022409Y040536D01*
X022396Y040513D01*
X022380Y040493D01*
X022360Y040475D01*
X022338Y040460D01*
X022315Y040448D01*
X022289Y040440D01*
X022263Y040436D01*
X022237Y040436D01*
X022211Y040440D01*
X022185Y040448D01*
X022161Y040460D01*
X022140Y040475D01*
X022120Y040493D01*
X022104Y040513D01*
X022091Y040536D01*
X022081Y040561D01*
X022075Y040587D01*
X022073Y040613D01*
X020341Y040613D02*
X020343Y040639D01*
X020349Y040665D01*
X020359Y040690D01*
X020372Y040713D01*
X020388Y040733D01*
X020408Y040751D01*
X020430Y040766D01*
X020453Y040778D01*
X020479Y040786D01*
X020505Y040790D01*
X020531Y040790D01*
X020557Y040786D01*
X020583Y040778D01*
X020607Y040766D01*
X020628Y040751D01*
X020648Y040733D01*
X020664Y040713D01*
X020677Y040690D01*
X020687Y040665D01*
X020693Y040639D01*
X020695Y040613D01*
X020693Y040587D01*
X020687Y040561D01*
X020677Y040536D01*
X020664Y040513D01*
X020648Y040493D01*
X020628Y040475D01*
X020606Y040460D01*
X020583Y040448D01*
X020557Y040440D01*
X020531Y040436D01*
X020505Y040436D01*
X020479Y040440D01*
X020453Y040448D01*
X020429Y040460D01*
X020408Y040475D01*
X020388Y040493D01*
X020372Y040513D01*
X020359Y040536D01*
X020349Y040561D01*
X020343Y040587D01*
X020341Y040613D01*
X010379Y039432D02*
X010381Y039465D01*
X010387Y039497D01*
X010396Y039528D01*
X010409Y039558D01*
X010426Y039586D01*
X010446Y039612D01*
X010469Y039636D01*
X010494Y039656D01*
X010522Y039674D01*
X010551Y039688D01*
X010582Y039698D01*
X010614Y039705D01*
X010647Y039708D01*
X010680Y039707D01*
X010712Y039702D01*
X010743Y039693D01*
X010774Y039681D01*
X010802Y039665D01*
X010829Y039646D01*
X010853Y039624D01*
X010874Y039599D01*
X010893Y039572D01*
X010908Y039543D01*
X010919Y039513D01*
X010927Y039481D01*
X010931Y039448D01*
X010931Y039416D01*
X010927Y039383D01*
X010919Y039351D01*
X010908Y039321D01*
X010893Y039292D01*
X010874Y039265D01*
X010853Y039240D01*
X010829Y039218D01*
X010802Y039199D01*
X010774Y039183D01*
X010743Y039171D01*
X010712Y039162D01*
X010680Y039157D01*
X010647Y039156D01*
X010614Y039159D01*
X010582Y039166D01*
X010551Y039176D01*
X010522Y039190D01*
X010494Y039208D01*
X010469Y039228D01*
X010446Y039252D01*
X010426Y039278D01*
X010409Y039306D01*
X010396Y039336D01*
X010387Y039367D01*
X010381Y039399D01*
X010379Y039432D01*
X008214Y039432D02*
X008216Y039465D01*
X008222Y039497D01*
X008231Y039528D01*
X008244Y039558D01*
X008261Y039586D01*
X008281Y039612D01*
X008304Y039636D01*
X008329Y039656D01*
X008357Y039674D01*
X008386Y039688D01*
X008417Y039698D01*
X008449Y039705D01*
X008482Y039708D01*
X008515Y039707D01*
X008547Y039702D01*
X008578Y039693D01*
X008609Y039681D01*
X008637Y039665D01*
X008664Y039646D01*
X008688Y039624D01*
X008709Y039599D01*
X008728Y039572D01*
X008743Y039543D01*
X008754Y039513D01*
X008762Y039481D01*
X008766Y039448D01*
X008766Y039416D01*
X008762Y039383D01*
X008754Y039351D01*
X008743Y039321D01*
X008728Y039292D01*
X008709Y039265D01*
X008688Y039240D01*
X008664Y039218D01*
X008637Y039199D01*
X008609Y039183D01*
X008578Y039171D01*
X008547Y039162D01*
X008515Y039157D01*
X008482Y039156D01*
X008449Y039159D01*
X008417Y039166D01*
X008386Y039176D01*
X008357Y039190D01*
X008329Y039208D01*
X008304Y039228D01*
X008281Y039252D01*
X008261Y039278D01*
X008244Y039306D01*
X008231Y039336D01*
X008222Y039367D01*
X008216Y039399D01*
X008214Y039432D01*
X015577Y027715D02*
X015579Y027749D01*
X015585Y027783D01*
X015595Y027816D01*
X015608Y027847D01*
X015626Y027877D01*
X015646Y027905D01*
X015670Y027930D01*
X015696Y027952D01*
X015724Y027970D01*
X015755Y027986D01*
X015787Y027998D01*
X015821Y028006D01*
X015855Y028010D01*
X015889Y028010D01*
X015923Y028006D01*
X015957Y027998D01*
X015989Y027986D01*
X016019Y027970D01*
X016048Y027952D01*
X016074Y027930D01*
X016098Y027905D01*
X016118Y027877D01*
X016136Y027847D01*
X016149Y027816D01*
X016159Y027783D01*
X016165Y027749D01*
X016167Y027715D01*
X016165Y027681D01*
X016159Y027647D01*
X016149Y027614D01*
X016136Y027583D01*
X016118Y027553D01*
X016098Y027525D01*
X016074Y027500D01*
X016048Y027478D01*
X016020Y027460D01*
X015989Y027444D01*
X015957Y027432D01*
X015923Y027424D01*
X015889Y027420D01*
X015855Y027420D01*
X015821Y027424D01*
X015787Y027432D01*
X015755Y027444D01*
X015724Y027460D01*
X015696Y027478D01*
X015670Y027500D01*
X015646Y027525D01*
X015626Y027553D01*
X015608Y027583D01*
X015595Y027614D01*
X015585Y027647D01*
X015579Y027681D01*
X015577Y027715D01*
X015577Y022015D02*
X015579Y022049D01*
X015585Y022083D01*
X015595Y022116D01*
X015608Y022147D01*
X015626Y022177D01*
X015646Y022205D01*
X015670Y022230D01*
X015696Y022252D01*
X015724Y022270D01*
X015755Y022286D01*
X015787Y022298D01*
X015821Y022306D01*
X015855Y022310D01*
X015889Y022310D01*
X015923Y022306D01*
X015957Y022298D01*
X015989Y022286D01*
X016019Y022270D01*
X016048Y022252D01*
X016074Y022230D01*
X016098Y022205D01*
X016118Y022177D01*
X016136Y022147D01*
X016149Y022116D01*
X016159Y022083D01*
X016165Y022049D01*
X016167Y022015D01*
X016165Y021981D01*
X016159Y021947D01*
X016149Y021914D01*
X016136Y021883D01*
X016118Y021853D01*
X016098Y021825D01*
X016074Y021800D01*
X016048Y021778D01*
X016020Y021760D01*
X015989Y021744D01*
X015957Y021732D01*
X015923Y021724D01*
X015889Y021720D01*
X015855Y021720D01*
X015821Y021724D01*
X015787Y021732D01*
X015755Y021744D01*
X015724Y021760D01*
X015696Y021778D01*
X015670Y021800D01*
X015646Y021825D01*
X015626Y021853D01*
X015608Y021883D01*
X015595Y021914D01*
X015585Y021947D01*
X015579Y021981D01*
X015577Y022015D01*
X025006Y007148D02*
X025008Y007183D01*
X025014Y007218D01*
X025024Y007252D01*
X025037Y007285D01*
X025054Y007316D01*
X025075Y007344D01*
X025098Y007371D01*
X025125Y007394D01*
X025153Y007415D01*
X025184Y007432D01*
X025217Y007445D01*
X025251Y007455D01*
X025286Y007461D01*
X025321Y007463D01*
X025356Y007461D01*
X025391Y007455D01*
X025425Y007445D01*
X025458Y007432D01*
X025489Y007415D01*
X025517Y007394D01*
X025544Y007371D01*
X025567Y007344D01*
X025588Y007316D01*
X025605Y007285D01*
X025618Y007252D01*
X025628Y007218D01*
X025634Y007183D01*
X025636Y007148D01*
X025634Y007113D01*
X025628Y007078D01*
X025618Y007044D01*
X025605Y007011D01*
X025588Y006980D01*
X025567Y006952D01*
X025544Y006925D01*
X025517Y006902D01*
X025489Y006881D01*
X025458Y006864D01*
X025425Y006851D01*
X025391Y006841D01*
X025356Y006835D01*
X025321Y006833D01*
X025286Y006835D01*
X025251Y006841D01*
X025217Y006851D01*
X025184Y006864D01*
X025153Y006881D01*
X025125Y006902D01*
X025098Y006925D01*
X025075Y006952D01*
X025054Y006980D01*
X025037Y007011D01*
X025024Y007044D01*
X025014Y007078D01*
X025008Y007113D01*
X025006Y007148D01*
X025006Y004786D02*
X025008Y004821D01*
X025014Y004856D01*
X025024Y004890D01*
X025037Y004923D01*
X025054Y004954D01*
X025075Y004982D01*
X025098Y005009D01*
X025125Y005032D01*
X025153Y005053D01*
X025184Y005070D01*
X025217Y005083D01*
X025251Y005093D01*
X025286Y005099D01*
X025321Y005101D01*
X025356Y005099D01*
X025391Y005093D01*
X025425Y005083D01*
X025458Y005070D01*
X025489Y005053D01*
X025517Y005032D01*
X025544Y005009D01*
X025567Y004982D01*
X025588Y004954D01*
X025605Y004923D01*
X025618Y004890D01*
X025628Y004856D01*
X025634Y004821D01*
X025636Y004786D01*
X025634Y004751D01*
X025628Y004716D01*
X025618Y004682D01*
X025605Y004649D01*
X025588Y004618D01*
X025567Y004590D01*
X025544Y004563D01*
X025517Y004540D01*
X025489Y004519D01*
X025458Y004502D01*
X025425Y004489D01*
X025391Y004479D01*
X025356Y004473D01*
X025321Y004471D01*
X025286Y004473D01*
X025251Y004479D01*
X025217Y004489D01*
X025184Y004502D01*
X025153Y004519D01*
X025125Y004540D01*
X025098Y004563D01*
X025075Y004590D01*
X025054Y004618D01*
X025037Y004649D01*
X025024Y004682D01*
X025014Y004716D01*
X025008Y004751D01*
X025006Y004786D01*
X050223Y022015D02*
X050225Y022049D01*
X050231Y022083D01*
X050241Y022116D01*
X050254Y022147D01*
X050272Y022177D01*
X050292Y022205D01*
X050316Y022230D01*
X050342Y022252D01*
X050370Y022270D01*
X050401Y022286D01*
X050433Y022298D01*
X050467Y022306D01*
X050501Y022310D01*
X050535Y022310D01*
X050569Y022306D01*
X050603Y022298D01*
X050635Y022286D01*
X050665Y022270D01*
X050694Y022252D01*
X050720Y022230D01*
X050744Y022205D01*
X050764Y022177D01*
X050782Y022147D01*
X050795Y022116D01*
X050805Y022083D01*
X050811Y022049D01*
X050813Y022015D01*
X050811Y021981D01*
X050805Y021947D01*
X050795Y021914D01*
X050782Y021883D01*
X050764Y021853D01*
X050744Y021825D01*
X050720Y021800D01*
X050694Y021778D01*
X050666Y021760D01*
X050635Y021744D01*
X050603Y021732D01*
X050569Y021724D01*
X050535Y021720D01*
X050501Y021720D01*
X050467Y021724D01*
X050433Y021732D01*
X050401Y021744D01*
X050370Y021760D01*
X050342Y021778D01*
X050316Y021800D01*
X050292Y021825D01*
X050272Y021853D01*
X050254Y021883D01*
X050241Y021914D01*
X050231Y021947D01*
X050225Y021981D01*
X050223Y022015D01*
X050223Y027715D02*
X050225Y027749D01*
X050231Y027783D01*
X050241Y027816D01*
X050254Y027847D01*
X050272Y027877D01*
X050292Y027905D01*
X050316Y027930D01*
X050342Y027952D01*
X050370Y027970D01*
X050401Y027986D01*
X050433Y027998D01*
X050467Y028006D01*
X050501Y028010D01*
X050535Y028010D01*
X050569Y028006D01*
X050603Y027998D01*
X050635Y027986D01*
X050665Y027970D01*
X050694Y027952D01*
X050720Y027930D01*
X050744Y027905D01*
X050764Y027877D01*
X050782Y027847D01*
X050795Y027816D01*
X050805Y027783D01*
X050811Y027749D01*
X050813Y027715D01*
X050811Y027681D01*
X050805Y027647D01*
X050795Y027614D01*
X050782Y027583D01*
X050764Y027553D01*
X050744Y027525D01*
X050720Y027500D01*
X050694Y027478D01*
X050666Y027460D01*
X050635Y027444D01*
X050603Y027432D01*
X050569Y027424D01*
X050535Y027420D01*
X050501Y027420D01*
X050467Y027424D01*
X050433Y027432D01*
X050401Y027444D01*
X050370Y027460D01*
X050342Y027478D01*
X050316Y027500D01*
X050292Y027525D01*
X050272Y027553D01*
X050254Y027583D01*
X050241Y027614D01*
X050231Y027647D01*
X050225Y027681D01*
X050223Y027715D01*
D21*
X037210Y040613D03*
X035478Y040613D03*
X022250Y040613D03*
X020518Y040613D03*
D22*
X018304Y040584D03*
X018304Y038734D03*
X033298Y038700D03*
X033298Y040550D03*
X039324Y006427D03*
X041174Y006427D03*
D23*
X024214Y025395D03*
X024214Y025595D03*
X024214Y025785D03*
X024214Y025985D03*
X024214Y026185D03*
X024214Y026385D03*
X024214Y026575D03*
X024214Y026775D03*
X022254Y026775D03*
X022254Y026575D03*
X022254Y026385D03*
X022254Y026185D03*
X022254Y025985D03*
X022254Y025785D03*
X022254Y025595D03*
X022254Y025395D03*
D24*
X022544Y025105D03*
X022744Y025105D03*
X022934Y025105D03*
X023134Y025105D03*
X023334Y025105D03*
X023534Y025105D03*
X023724Y025105D03*
X023924Y025105D03*
X023924Y027065D03*
X023724Y027065D03*
X023534Y027065D03*
X023334Y027065D03*
X023134Y027065D03*
X022934Y027065D03*
X022744Y027065D03*
X022544Y027065D03*
D25*
X023234Y026105D03*
D26*
X023844Y023487D03*
X024514Y023487D03*
X024514Y022660D03*
X023844Y022660D03*
D27*
X023313Y023379D03*
X023313Y024068D03*
X022250Y024225D03*
X022250Y023536D03*
X025675Y025780D03*
X025675Y026469D03*
X031221Y036570D03*
X031221Y037259D03*
D28*
X025936Y026955D03*
X025425Y026955D03*
X024597Y024110D03*
X024085Y024110D03*
X021255Y017705D03*
X020743Y017705D03*
X020743Y017105D03*
X021255Y017105D03*
X021255Y015808D03*
X020743Y015808D03*
X019055Y015505D03*
X018543Y015505D03*
X015755Y013205D03*
X015243Y013205D03*
X015246Y012605D03*
X015758Y012605D03*
X016743Y012605D03*
X017255Y012605D03*
X018043Y012605D03*
X018555Y012605D03*
X014255Y015105D03*
X013743Y015105D03*
X013743Y015705D03*
X014255Y015705D03*
X011455Y016005D03*
X010943Y016005D03*
X010943Y017105D03*
X011455Y017105D03*
X011455Y017705D03*
X010943Y017705D03*
X009355Y015505D03*
X008843Y015505D03*
X007755Y013205D03*
X007243Y013205D03*
X007543Y012605D03*
X008055Y012605D03*
X008743Y012605D03*
X009255Y012605D03*
X010043Y012605D03*
X010555Y012605D03*
X023743Y011205D03*
X024255Y011205D03*
X025043Y011205D03*
X025555Y011205D03*
X026263Y011205D03*
X026775Y011205D03*
X028343Y011905D03*
X028855Y011905D03*
X028855Y012505D03*
X028343Y012505D03*
X028194Y013105D03*
X027682Y013105D03*
X027655Y014505D03*
X027143Y014505D03*
X027263Y015105D03*
X027775Y015105D03*
X027655Y015705D03*
X027143Y015705D03*
X026555Y015105D03*
X026043Y015105D03*
X026055Y016105D03*
X025543Y016105D03*
X034464Y017305D03*
X034976Y017305D03*
X036143Y017305D03*
X036655Y017305D03*
X037323Y017305D03*
X037835Y017305D03*
X035955Y019205D03*
X035443Y019205D03*
X038647Y021558D03*
X039159Y021558D03*
X039159Y022109D03*
X038647Y022109D03*
X038647Y022699D03*
X039159Y022699D03*
X039159Y023290D03*
X038647Y023290D03*
X038647Y023999D03*
X039159Y023999D03*
X043175Y019589D03*
X043687Y019589D03*
X036171Y013590D03*
X035659Y013590D03*
X039343Y010005D03*
X039855Y010005D03*
X040543Y010005D03*
X041055Y010005D03*
X009514Y025219D03*
X009002Y025219D03*
X009041Y031833D03*
X009553Y031833D03*
D29*
X028871Y035714D03*
X029131Y035714D03*
X029391Y035714D03*
X029641Y035714D03*
X029901Y035714D03*
X030151Y035714D03*
X030411Y035714D03*
X030671Y035714D03*
X030671Y038014D03*
X030411Y038014D03*
X030151Y038014D03*
X029901Y038014D03*
X029641Y038014D03*
X029391Y038014D03*
X029131Y038014D03*
X028871Y038014D03*
X028777Y026999D03*
X029027Y026999D03*
X029287Y026999D03*
X029547Y026999D03*
X029797Y026999D03*
X030057Y026999D03*
X030307Y026999D03*
X030567Y026999D03*
X030827Y026999D03*
X031077Y026999D03*
X031077Y024699D03*
X030827Y024699D03*
X030567Y024699D03*
X030307Y024699D03*
X030057Y024699D03*
X029797Y024699D03*
X029547Y024699D03*
X029287Y024699D03*
X029027Y024699D03*
X028777Y024699D03*
D30*
X030775Y039595D03*
X030775Y040205D03*
X031457Y040205D03*
X031441Y039595D03*
D31*
X038825Y038644D03*
X038825Y037936D03*
X034684Y024288D03*
X033950Y024299D03*
X033950Y023591D03*
X034684Y023579D03*
X007720Y035481D03*
X007720Y036189D03*
D32*
X027535Y005534D03*
D33*
X027535Y007266D03*
D34*
X023008Y006007D03*
D35*
X023008Y007207D03*
D36*
X023008Y004707D03*
D37*
X025321Y004786D03*
X025321Y007148D03*
D38*
X024626Y018707D03*
X024626Y019857D03*
X023023Y019896D03*
X023023Y018746D03*
D39*
X030099Y018115D03*
X030599Y018115D03*
X031099Y018115D03*
X031599Y018115D03*
X032099Y018115D03*
X032599Y018115D03*
X033099Y018115D03*
X033099Y015695D03*
X032599Y015695D03*
X032099Y015695D03*
X031599Y015695D03*
X031099Y015695D03*
X030599Y015695D03*
X030099Y015695D03*
X043964Y027974D03*
X044464Y027974D03*
X044964Y027974D03*
X045464Y027974D03*
X045964Y027974D03*
X046464Y027974D03*
X046964Y027974D03*
X047464Y027974D03*
X047464Y031834D03*
X046964Y031834D03*
X046464Y031834D03*
X045964Y031834D03*
X045464Y031834D03*
X044964Y031834D03*
X044464Y031834D03*
X043964Y031834D03*
X032307Y032070D03*
X031807Y032070D03*
X031307Y032070D03*
X030807Y032070D03*
X030307Y032070D03*
X029807Y032070D03*
X029307Y032070D03*
X028807Y032070D03*
X028807Y028210D03*
X029307Y028210D03*
X029807Y028210D03*
X030307Y028210D03*
X030807Y028210D03*
X031307Y028210D03*
X031807Y028210D03*
X032307Y028210D03*
D40*
X041171Y024706D03*
X041541Y024706D03*
X041911Y024706D03*
X041911Y023686D03*
X041541Y023686D03*
X041171Y023686D03*
X043022Y021241D03*
X043392Y021241D03*
X043762Y021241D03*
X043762Y020221D03*
X043022Y020221D03*
X045423Y023686D03*
X045793Y023686D03*
X046163Y023686D03*
X046163Y024706D03*
X045793Y024706D03*
X045423Y024706D03*
D41*
X044297Y020652D03*
X044297Y020180D03*
X035099Y015641D03*
X035099Y015169D03*
X040045Y027621D03*
X040045Y028093D03*
X049958Y038392D03*
X049958Y038865D03*
D42*
X045872Y022503D03*
X045006Y022503D03*
X041502Y022385D03*
X040636Y022385D03*
D43*
X040149Y023464D03*
X040149Y024646D03*
X044376Y024786D03*
X044376Y023605D03*
D44*
X042919Y023605D03*
X042919Y024786D03*
X047092Y024786D03*
X047092Y023605D03*
D45*
X026544Y030023D03*
X026024Y030023D03*
X026024Y030843D03*
X026284Y030843D03*
X026544Y030843D03*
D46*
X017840Y030908D03*
X017840Y030711D03*
X017840Y031105D03*
X017840Y031302D03*
X017840Y031499D03*
X017840Y031696D03*
X017840Y031892D03*
X017840Y032089D03*
X017840Y032286D03*
X017840Y032483D03*
X017840Y032680D03*
X017840Y032877D03*
X017840Y033074D03*
X017840Y033270D03*
X017840Y033467D03*
X017840Y033664D03*
X013431Y033664D03*
X013431Y033467D03*
X013431Y033270D03*
X013431Y033074D03*
X013431Y032877D03*
X013431Y032680D03*
X013431Y032483D03*
X013431Y032286D03*
X013431Y032089D03*
X013431Y031892D03*
X013431Y031696D03*
X013431Y031499D03*
X013431Y031302D03*
X013431Y031105D03*
X013431Y030908D03*
X013431Y030711D03*
D47*
X014159Y029983D03*
X014356Y029983D03*
X014553Y029983D03*
X014750Y029983D03*
X014947Y029983D03*
X015144Y029983D03*
X015340Y029983D03*
X015537Y029983D03*
X015734Y029983D03*
X015931Y029983D03*
X016128Y029983D03*
X016325Y029983D03*
X016521Y029983D03*
X016718Y029983D03*
X016915Y029983D03*
X017112Y029983D03*
X017112Y034392D03*
X016915Y034392D03*
X016718Y034392D03*
X016521Y034392D03*
X016325Y034392D03*
X016128Y034392D03*
X015931Y034392D03*
X015734Y034392D03*
X015537Y034392D03*
X015340Y034392D03*
X015144Y034392D03*
X014947Y034392D03*
X014750Y034392D03*
X014553Y034392D03*
X014356Y034392D03*
X014159Y034392D03*
D48*
X012250Y039203D03*
X006895Y039203D03*
D49*
X008834Y036676D03*
X009327Y036676D03*
X009819Y036676D03*
X010311Y036676D03*
D50*
X010655Y039432D03*
X008490Y039432D03*
D51*
X014149Y037675D03*
X014405Y037675D03*
X014661Y037675D03*
X014917Y037675D03*
X014917Y035362D03*
X014661Y035362D03*
X014405Y035362D03*
X014149Y035362D03*
D52*
X011577Y032935D03*
X011577Y032735D03*
X011577Y032535D03*
D53*
X010997Y032535D03*
X010997Y032935D03*
D54*
X012094Y027991D03*
X012094Y027621D03*
X012094Y027251D03*
X013114Y027251D03*
X013114Y027621D03*
X013114Y027991D03*
D55*
X016167Y036912D03*
X017545Y036912D03*
D56*
X009211Y034153D03*
X007715Y034153D03*
X046599Y017103D03*
X046599Y015607D03*
D57*
X022995Y037577D03*
X022995Y038168D03*
X035316Y038006D03*
X035316Y038597D03*
D58*
X040712Y029129D03*
X041212Y029129D03*
X041712Y029129D03*
X042212Y029129D03*
X042212Y026507D03*
X041712Y026507D03*
X041212Y026507D03*
X040712Y026507D03*
X037149Y016429D03*
X036649Y016429D03*
X036149Y016429D03*
X035649Y016429D03*
X035649Y014381D03*
X036149Y014381D03*
X036649Y014381D03*
X037149Y014381D03*
D59*
X037292Y012605D03*
X036505Y012605D03*
X021492Y018505D03*
X020705Y018505D03*
X011692Y018405D03*
X010905Y018405D03*
D60*
X038099Y011165D03*
X038099Y010045D03*
D61*
X034371Y013831D03*
X033426Y014205D03*
X034371Y014579D03*
X031732Y019931D03*
X030866Y020305D03*
X031732Y020679D03*
X029971Y020305D03*
X029026Y019931D03*
X029026Y020679D03*
X010732Y013805D03*
X009866Y013431D03*
X009866Y014179D03*
X042744Y005711D03*
X044279Y005711D03*
D62*
X043511Y005357D03*
X043511Y006066D03*
D63*
X043556Y008824D03*
X041666Y008824D03*
D64*
X046114Y011977D03*
X046114Y013866D03*
D65*
X046221Y008925D02*
X047008Y008925D01*
X048504Y008099D02*
X048504Y007311D01*
X047008Y006524D02*
X046221Y006524D01*
D66*
X050617Y009555D02*
X051281Y009555D01*
X051281Y010555D02*
X050617Y010555D01*
X050784Y036018D02*
X051448Y036018D01*
X051448Y037018D02*
X050784Y037018D01*
D67*
X036922Y021255D03*
X036922Y020755D03*
X036922Y020255D03*
X036922Y019755D03*
X034875Y019755D03*
X034875Y020255D03*
X034875Y020755D03*
X034875Y021255D03*
X041175Y013955D03*
X041175Y013455D03*
X041175Y012955D03*
X041175Y012455D03*
X043222Y012455D03*
X043222Y012955D03*
X043222Y013455D03*
X043222Y013955D03*
X019922Y016055D03*
X019922Y016555D03*
X019922Y017055D03*
X019922Y017555D03*
X017875Y017555D03*
X017875Y017055D03*
X017875Y016555D03*
X017875Y016055D03*
X010122Y016055D03*
X010122Y016555D03*
X010122Y017055D03*
X010122Y017555D03*
X008075Y017555D03*
X008075Y017055D03*
X008075Y016555D03*
X008075Y016055D03*
D68*
X013525Y014338D03*
X014273Y014338D03*
X013899Y013472D03*
X025625Y009472D03*
X026373Y009472D03*
X025999Y010338D03*
X031725Y013033D03*
X032473Y013033D03*
X032099Y013977D03*
X029073Y016533D03*
X028325Y016533D03*
X028699Y017477D03*
X040225Y011538D03*
X040973Y011538D03*
X040599Y010672D03*
X041099Y015633D03*
X041473Y016577D03*
X040725Y016577D03*
D69*
X039179Y016251D03*
X039179Y017038D03*
X038841Y013707D03*
X038841Y012920D03*
X028299Y011299D03*
X027399Y011299D03*
X027399Y010511D03*
X028299Y010511D03*
X016499Y013411D03*
X016499Y014199D03*
X008499Y014199D03*
X008499Y013411D03*
D70*
X011339Y012605D03*
X012458Y012605D03*
X019339Y012605D03*
X020458Y012605D03*
D71*
X020642Y010180D03*
X014252Y010180D03*
X012768Y010180D03*
X006378Y010180D03*
X006378Y005180D03*
X012768Y005180D03*
X014252Y005180D03*
X020642Y005180D03*
X030000Y005180D03*
X030000Y007680D03*
X030000Y010180D03*
X036390Y010180D03*
X036390Y007680D03*
X036390Y005180D03*
D72*
X039087Y014731D03*
X039087Y015105D03*
X039087Y015479D03*
X040110Y015479D03*
X040110Y015105D03*
X040110Y014731D03*
D73*
X040281Y004392D03*
X039494Y004392D03*
X041029Y004392D03*
D74*
X041935Y004392D03*
X038667Y004392D03*
D75*
X026532Y012090D03*
X026032Y012090D03*
X025532Y012090D03*
X025032Y012090D03*
X025032Y014150D03*
X025532Y014150D03*
X026032Y014150D03*
X026532Y014150D03*
D76*
X004888Y007148D02*
X004890Y007185D01*
X004896Y007222D01*
X004905Y007257D01*
X004919Y007292D01*
X004935Y007325D01*
X004956Y007356D01*
X004979Y007385D01*
X005005Y007411D01*
X005034Y007434D01*
X005065Y007455D01*
X005098Y007471D01*
X005133Y007485D01*
X005168Y007494D01*
X005205Y007500D01*
X005242Y007502D01*
X005279Y007500D01*
X005316Y007494D01*
X005351Y007485D01*
X005386Y007471D01*
X005419Y007455D01*
X005450Y007434D01*
X005479Y007411D01*
X005505Y007385D01*
X005528Y007356D01*
X005549Y007325D01*
X005565Y007292D01*
X005579Y007257D01*
X005588Y007222D01*
X005594Y007185D01*
X005596Y007148D01*
X005594Y007111D01*
X005588Y007074D01*
X005579Y007039D01*
X005565Y007004D01*
X005549Y006971D01*
X005528Y006940D01*
X005505Y006911D01*
X005479Y006885D01*
X005450Y006862D01*
X005419Y006841D01*
X005386Y006825D01*
X005351Y006811D01*
X005316Y006802D01*
X005279Y006796D01*
X005242Y006794D01*
X005205Y006796D01*
X005168Y006802D01*
X005133Y006811D01*
X005098Y006825D01*
X005065Y006841D01*
X005034Y006862D01*
X005005Y006885D01*
X004979Y006911D01*
X004956Y006940D01*
X004935Y006971D01*
X004919Y007004D01*
X004905Y007039D01*
X004896Y007074D01*
X004890Y007111D01*
X004888Y007148D01*
X004888Y039432D02*
X004890Y039469D01*
X004896Y039506D01*
X004905Y039541D01*
X004919Y039576D01*
X004935Y039609D01*
X004956Y039640D01*
X004979Y039669D01*
X005005Y039695D01*
X005034Y039718D01*
X005065Y039739D01*
X005098Y039755D01*
X005133Y039769D01*
X005168Y039778D01*
X005205Y039784D01*
X005242Y039786D01*
X005279Y039784D01*
X005316Y039778D01*
X005351Y039769D01*
X005386Y039755D01*
X005419Y039739D01*
X005450Y039718D01*
X005479Y039695D01*
X005505Y039669D01*
X005528Y039640D01*
X005549Y039609D01*
X005565Y039576D01*
X005579Y039541D01*
X005588Y039506D01*
X005594Y039469D01*
X005596Y039432D01*
X005594Y039395D01*
X005588Y039358D01*
X005579Y039323D01*
X005565Y039288D01*
X005549Y039255D01*
X005528Y039224D01*
X005505Y039195D01*
X005479Y039169D01*
X005450Y039146D01*
X005419Y039125D01*
X005386Y039109D01*
X005351Y039095D01*
X005316Y039086D01*
X005279Y039080D01*
X005242Y039078D01*
X005205Y039080D01*
X005168Y039086D01*
X005133Y039095D01*
X005098Y039109D01*
X005065Y039125D01*
X005034Y039146D01*
X005005Y039169D01*
X004979Y039195D01*
X004956Y039224D01*
X004935Y039255D01*
X004919Y039288D01*
X004905Y039323D01*
X004896Y039358D01*
X004890Y039395D01*
X004888Y039432D01*
X048982Y039432D02*
X048984Y039469D01*
X048990Y039506D01*
X048999Y039541D01*
X049013Y039576D01*
X049029Y039609D01*
X049050Y039640D01*
X049073Y039669D01*
X049099Y039695D01*
X049128Y039718D01*
X049159Y039739D01*
X049192Y039755D01*
X049227Y039769D01*
X049262Y039778D01*
X049299Y039784D01*
X049336Y039786D01*
X049373Y039784D01*
X049410Y039778D01*
X049445Y039769D01*
X049480Y039755D01*
X049513Y039739D01*
X049544Y039718D01*
X049573Y039695D01*
X049599Y039669D01*
X049622Y039640D01*
X049643Y039609D01*
X049659Y039576D01*
X049673Y039541D01*
X049682Y039506D01*
X049688Y039469D01*
X049690Y039432D01*
X049688Y039395D01*
X049682Y039358D01*
X049673Y039323D01*
X049659Y039288D01*
X049643Y039255D01*
X049622Y039224D01*
X049599Y039195D01*
X049573Y039169D01*
X049544Y039146D01*
X049513Y039125D01*
X049480Y039109D01*
X049445Y039095D01*
X049410Y039086D01*
X049373Y039080D01*
X049336Y039078D01*
X049299Y039080D01*
X049262Y039086D01*
X049227Y039095D01*
X049192Y039109D01*
X049159Y039125D01*
X049128Y039146D01*
X049099Y039169D01*
X049073Y039195D01*
X049050Y039224D01*
X049029Y039255D01*
X049013Y039288D01*
X048999Y039323D01*
X048990Y039358D01*
X048984Y039395D01*
X048982Y039432D01*
X048982Y007148D02*
X048984Y007185D01*
X048990Y007222D01*
X048999Y007257D01*
X049013Y007292D01*
X049029Y007325D01*
X049050Y007356D01*
X049073Y007385D01*
X049099Y007411D01*
X049128Y007434D01*
X049159Y007455D01*
X049192Y007471D01*
X049227Y007485D01*
X049262Y007494D01*
X049299Y007500D01*
X049336Y007502D01*
X049373Y007500D01*
X049410Y007494D01*
X049445Y007485D01*
X049480Y007471D01*
X049513Y007455D01*
X049544Y007434D01*
X049573Y007411D01*
X049599Y007385D01*
X049622Y007356D01*
X049643Y007325D01*
X049659Y007292D01*
X049673Y007257D01*
X049682Y007222D01*
X049688Y007185D01*
X049690Y007148D01*
X049688Y007111D01*
X049682Y007074D01*
X049673Y007039D01*
X049659Y007004D01*
X049643Y006971D01*
X049622Y006940D01*
X049599Y006911D01*
X049573Y006885D01*
X049544Y006862D01*
X049513Y006841D01*
X049480Y006825D01*
X049445Y006811D01*
X049410Y006802D01*
X049373Y006796D01*
X049336Y006794D01*
X049299Y006796D01*
X049262Y006802D01*
X049227Y006811D01*
X049192Y006825D01*
X049159Y006841D01*
X049128Y006862D01*
X049099Y006885D01*
X049073Y006911D01*
X049050Y006940D01*
X049029Y006971D01*
X049013Y007004D01*
X048999Y007039D01*
X048990Y007074D01*
X048984Y007111D01*
X048982Y007148D01*
D77*
X049336Y007148D03*
X049336Y039432D03*
X005242Y039432D03*
X005242Y007148D03*
D78*
X003667Y005574D03*
X050911Y005574D03*
X050911Y041007D03*
X003470Y041007D03*
D79*
X015272Y027115D03*
X015272Y026615D03*
X015272Y026115D03*
X015272Y025615D03*
X015272Y025115D03*
X015272Y024615D03*
X015272Y024115D03*
X015272Y023615D03*
X015272Y023115D03*
X015272Y022615D03*
X016472Y022615D03*
X016472Y023115D03*
X016472Y023615D03*
X016472Y024115D03*
X016472Y024615D03*
X016472Y025115D03*
X016472Y025615D03*
X016472Y026115D03*
X016472Y026615D03*
X016472Y027115D03*
X049918Y027115D03*
X049918Y026615D03*
X049918Y026115D03*
X049918Y025615D03*
X049918Y025115D03*
X049918Y024615D03*
X049918Y024115D03*
X049918Y023615D03*
X049918Y023115D03*
X049918Y022615D03*
X051118Y022615D03*
X051118Y023115D03*
X051118Y023615D03*
X051118Y024115D03*
X051118Y024615D03*
X051118Y025115D03*
X051118Y025615D03*
X051118Y026115D03*
X051118Y026615D03*
X051118Y027115D03*
D80*
X050518Y027715D03*
X050518Y022015D03*
X015872Y022015D03*
X015872Y027715D03*
D81*
X040541Y018408D03*
X041722Y018408D03*
D82*
X017793Y023101D03*
X017793Y024140D03*
X017793Y025148D03*
X017762Y026125D03*
X017762Y027133D03*
D83*
X055557Y026715D03*
X055557Y024865D03*
X055557Y023014D03*
D84*
X037624Y018566D03*
X033638Y027818D03*
X013116Y022798D03*
D85*
X014415Y023093D03*
X014533Y022581D03*
X014218Y021636D03*
X011541Y021322D03*
X009848Y021794D03*
X009848Y022227D03*
X008667Y022227D03*
X008667Y021794D03*
X008707Y022660D03*
X008707Y023093D03*
X008667Y023526D03*
X008667Y023959D03*
X008667Y024392D03*
X008667Y024825D03*
X008707Y025219D03*
X008549Y025928D03*
X009966Y025928D03*
X009809Y025219D03*
X009809Y024825D03*
X009809Y024392D03*
X009848Y023959D03*
X009809Y023526D03*
X005636Y023290D03*
X003667Y023290D03*
X003667Y021322D03*
X005636Y021322D03*
X003667Y019353D03*
X003667Y017385D03*
X003667Y015416D03*
X003667Y013448D03*
X003667Y011479D03*
X003667Y009511D03*
X007604Y009511D03*
X009573Y009511D03*
X009573Y007542D03*
X011541Y007542D03*
X013510Y007542D03*
X015478Y007542D03*
X017447Y007542D03*
X019415Y007542D03*
X019415Y009511D03*
X017447Y009511D03*
X015478Y009511D03*
X013510Y009511D03*
X015478Y011479D03*
X014966Y012621D03*
X014966Y013211D03*
X014376Y013448D03*
X014730Y014353D03*
X013549Y014766D03*
X012762Y014314D03*
X013746Y016164D03*
X011738Y016518D03*
X010124Y017896D03*
X009494Y017070D03*
X009533Y016558D03*
X009494Y016125D03*
X009691Y015495D03*
X008840Y015849D03*
X008785Y017070D03*
X008077Y017896D03*
X007171Y017424D03*
X007171Y016125D03*
X006935Y013211D03*
X007250Y012621D03*
X007604Y011479D03*
X009573Y011479D03*
X007604Y007542D03*
X007604Y005574D03*
X009573Y005574D03*
X011541Y005574D03*
X015478Y005574D03*
X017447Y005574D03*
X019415Y005574D03*
X021856Y004707D03*
X021384Y007542D03*
X024258Y010140D03*
X024691Y011205D03*
X023746Y011794D03*
X024848Y012857D03*
X024612Y014077D03*
X026187Y013105D03*
X027368Y013093D03*
X026856Y012109D03*
X025557Y010810D03*
X028825Y010534D03*
X028864Y011558D03*
X029218Y012503D03*
X031226Y011479D03*
X031738Y012581D03*
X032447Y012581D03*
X033195Y011479D03*
X035163Y011479D03*
X036029Y012581D03*
X037132Y011479D03*
X038313Y012030D03*
X039730Y011479D03*
X040596Y012030D03*
X041108Y012070D03*
X042210Y012542D03*
X043234Y012030D03*
X044179Y011912D03*
X046069Y011125D03*
X046974Y011479D03*
X048943Y011479D03*
X048943Y013448D03*
X050911Y013448D03*
X050911Y015416D03*
X048943Y015416D03*
X048943Y017385D03*
X050911Y017385D03*
X046600Y017660D03*
X046601Y015140D03*
X046108Y014707D03*
X046974Y013448D03*
X044218Y014274D03*
X043195Y014274D03*
X042210Y013802D03*
X041147Y014235D03*
X040124Y014392D03*
X040203Y013762D03*
X039494Y014707D03*
X038864Y014353D03*
X038037Y014707D03*
X038313Y015022D03*
X038667Y015101D03*
X039179Y015849D03*
X040360Y015849D03*
X040518Y015105D03*
X042132Y015219D03*
X042407Y015613D03*
X041462Y017070D03*
X040714Y017070D03*
X042407Y017188D03*
X043077Y017188D03*
X039179Y018723D03*
X038116Y017306D03*
X037801Y016558D03*
X037604Y015692D03*
X036581Y015140D03*
X037447Y014392D03*
X036620Y013762D03*
X035163Y014353D03*
X034848Y014589D03*
X035084Y014825D03*
X034888Y013841D03*
X033982Y015259D03*
X033569Y015731D03*
X033077Y015140D03*
X032604Y014629D03*
X032099Y015140D03*
X032092Y016282D03*
X031620Y016282D03*
X032171Y016912D03*
X031029Y016912D03*
X030557Y016361D03*
X029061Y016085D03*
X028325Y016058D03*
X028037Y015692D03*
X028116Y015101D03*
X027998Y014511D03*
X026502Y016085D03*
X025557Y016558D03*
X025439Y016991D03*
X025321Y017542D03*
X028313Y017345D03*
X030084Y018684D03*
X030596Y018684D03*
X031101Y018688D03*
X031147Y017542D03*
X032171Y019314D03*
X032604Y020101D03*
X033392Y019707D03*
X033451Y019018D03*
X033785Y018920D03*
X034730Y017896D03*
X035872Y018014D03*
X035895Y017739D03*
X036974Y017306D03*
X037132Y017699D03*
X035990Y018841D03*
X035439Y018841D03*
X036462Y019353D03*
X036344Y019786D03*
X036344Y020259D03*
X035518Y020770D03*
X035754Y021440D03*
X036922Y021597D03*
X038037Y021558D03*
X037801Y022424D03*
X038352Y023290D03*
X039140Y023644D03*
X039573Y023290D03*
X040045Y022896D03*
X039651Y022424D03*
X040793Y023448D03*
X040754Y023841D03*
X040754Y024117D03*
X041147Y024274D03*
X041541Y024117D03*
X041187Y023251D03*
X042486Y023054D03*
X042683Y022739D03*
X042958Y023014D03*
X043155Y022621D03*
X044297Y023054D03*
X044573Y022109D03*
X044297Y021007D03*
X043746Y020613D03*
X043392Y020810D03*
X043352Y020495D03*
X042998Y020810D03*
X042486Y021046D03*
X041817Y020652D03*
X045439Y023251D03*
X045793Y023251D03*
X045439Y024274D03*
X046163Y025148D03*
X047092Y025298D03*
X048431Y025101D03*
X049179Y024629D03*
X048195Y024117D03*
X047998Y023605D03*
X048588Y023133D03*
X047447Y022345D03*
X047132Y023054D03*
X049218Y022621D03*
X049612Y021873D03*
X051856Y022621D03*
X051856Y023133D03*
X051856Y023605D03*
X051856Y024117D03*
X051856Y025613D03*
X051856Y026085D03*
X051856Y026597D03*
X051856Y027109D03*
X049179Y027148D03*
X049179Y026597D03*
X048785Y026085D03*
X049179Y025613D03*
X048431Y026912D03*
X048588Y027227D03*
X047998Y027070D03*
X047447Y027385D03*
X046974Y027385D03*
X046974Y026715D03*
X044179Y026558D03*
X043972Y027424D03*
X044455Y028644D03*
X043667Y028959D03*
X042525Y029117D03*
X041935Y029786D03*
X040399Y029156D03*
X040045Y028448D03*
X040045Y027266D03*
X040714Y027109D03*
X041226Y027109D03*
X042368Y027109D03*
X041699Y025888D03*
X041895Y025140D03*
X041069Y025180D03*
X040163Y025140D03*
X038667Y024314D03*
X037329Y024629D03*
X037722Y025613D03*
X035714Y027936D03*
X037486Y028841D03*
X037998Y028841D03*
X037998Y029944D03*
X038431Y030377D03*
X039100Y031125D03*
X039415Y031322D03*
X039691Y031203D03*
X039927Y031322D03*
X040360Y031322D03*
X040006Y030849D03*
X040006Y030337D03*
X039651Y029944D03*
X038707Y031361D03*
X037840Y031322D03*
X037525Y031322D03*
X036895Y031322D03*
X036738Y030810D03*
X036738Y030455D03*
X036777Y029944D03*
X036344Y030062D03*
X035911Y030062D03*
X035439Y030022D03*
X035435Y031172D03*
X034848Y031322D03*
X034888Y031912D03*
X035006Y032266D03*
X034966Y032660D03*
X035187Y032857D03*
X034903Y033172D03*
X035175Y033329D03*
X035175Y034235D03*
X034887Y034197D03*
X035163Y034629D03*
X034966Y034992D03*
X035045Y035377D03*
X035163Y035613D03*
X035163Y036046D03*
X035006Y036322D03*
X035183Y036518D03*
X035518Y037070D03*
X035084Y037385D03*
X034966Y037975D03*
X034651Y037975D03*
X034612Y038959D03*
X035321Y038920D03*
X035714Y038999D03*
X036974Y038999D03*
X037329Y038881D03*
X037565Y039077D03*
X037683Y038723D03*
X037840Y038172D03*
X037329Y038219D03*
X037014Y038014D03*
X037329Y037345D03*
X038352Y037345D03*
X039100Y037385D03*
X039651Y037365D03*
X040045Y037542D03*
X040675Y037306D03*
X041266Y037306D03*
X041462Y036991D03*
X041659Y037188D03*
X042092Y037463D03*
X042329Y037621D03*
X042762Y037818D03*
X042958Y038014D03*
X043431Y038526D03*
X043864Y036833D03*
X043195Y036676D03*
X043667Y036203D03*
X044455Y035888D03*
X044179Y035416D03*
X044651Y035259D03*
X043431Y035101D03*
X042132Y034786D03*
X042132Y034392D03*
X042132Y033881D03*
X042132Y033369D03*
X042132Y032896D03*
X043352Y033369D03*
X043943Y032385D03*
X044455Y032385D03*
X043352Y031991D03*
X045478Y030455D03*
X046974Y031125D03*
X046974Y032424D03*
X047447Y032424D03*
X049455Y034904D03*
X049100Y036007D03*
X047171Y036046D03*
X046541Y035574D03*
X046974Y037070D03*
X045006Y037070D03*
X041974Y036203D03*
X041266Y035731D03*
X041266Y034786D03*
X041266Y034392D03*
X041266Y033881D03*
X041738Y037975D03*
X040360Y038133D03*
X040045Y038133D03*
X039651Y038211D03*
X039218Y038329D03*
X038352Y038211D03*
X038667Y039353D03*
X039100Y041007D03*
X041069Y041007D03*
X043037Y041007D03*
X045006Y041007D03*
X046974Y041007D03*
X048943Y041007D03*
X049100Y038881D03*
X048785Y038723D03*
X049966Y038014D03*
X051344Y035062D03*
X051108Y034550D03*
X050832Y031755D03*
X048195Y029668D03*
X044336Y025298D03*
X042762Y025298D03*
X042092Y028369D03*
X034651Y024589D03*
X033943Y024629D03*
X033943Y023290D03*
X034691Y023251D03*
X033785Y021794D03*
X033116Y021597D03*
X033785Y020613D03*
X034179Y020495D03*
X031738Y021085D03*
X030006Y019825D03*
X028549Y019944D03*
X028077Y020692D03*
X027289Y021322D03*
X029021Y022109D03*
X028982Y024196D03*
X028549Y024196D03*
X029455Y024196D03*
X029297Y025337D03*
X028982Y025337D03*
X028234Y024983D03*
X029573Y026046D03*
X029809Y025888D03*
X030045Y025692D03*
X030321Y025534D03*
X030557Y025298D03*
X031069Y025298D03*
X031069Y024117D03*
X030754Y024117D03*
X032053Y024156D03*
X030557Y026558D03*
X030045Y026558D03*
X029809Y027503D03*
X029545Y027503D03*
X029287Y027503D03*
X029021Y027503D03*
X028431Y027503D03*
X027762Y027306D03*
X027289Y027148D03*
X027092Y026951D03*
X026266Y026951D03*
X026266Y026479D03*
X026266Y026007D03*
X026266Y025534D03*
X026266Y025101D03*
X025124Y025770D03*
X025006Y025534D03*
X024770Y025416D03*
X024770Y025967D03*
X024573Y026164D03*
X023746Y026085D03*
X023746Y025574D03*
X023234Y025574D03*
X023234Y026085D03*
X022722Y026085D03*
X022722Y025574D03*
X022329Y025101D03*
X022250Y024589D03*
X022880Y024550D03*
X023116Y024707D03*
X023334Y024453D03*
X024061Y024511D03*
X024573Y024511D03*
X024848Y024392D03*
X025084Y024117D03*
X024888Y023487D03*
X024888Y022660D03*
X023313Y023014D03*
X022250Y023172D03*
X021817Y023172D03*
X020242Y021085D03*
X019021Y022739D03*
X018313Y023448D03*
X018155Y023802D03*
X017289Y023605D03*
X017289Y022621D03*
X017525Y022306D03*
X014455Y024117D03*
X014218Y024589D03*
X014258Y025101D03*
X014533Y025613D03*
X014533Y026125D03*
X014533Y026636D03*
X014533Y027148D03*
X013510Y027266D03*
X013510Y027621D03*
X013510Y028014D03*
X012644Y027857D03*
X013116Y028644D03*
X014061Y029274D03*
X014573Y029314D03*
X014691Y028920D03*
X015163Y029196D03*
X015596Y028999D03*
X015911Y028999D03*
X016069Y029353D03*
X016738Y029314D03*
X017053Y029353D03*
X017486Y029353D03*
X017289Y030534D03*
X017014Y030534D03*
X016541Y030534D03*
X016108Y030534D03*
X015793Y030534D03*
X015478Y030534D03*
X015163Y030495D03*
X014770Y030495D03*
X014376Y030534D03*
X013982Y030692D03*
X013785Y030337D03*
X013155Y030062D03*
X013155Y029550D03*
X012329Y028762D03*
X011699Y027975D03*
X011699Y027621D03*
X012092Y026991D03*
X009809Y028408D03*
X009809Y028841D03*
X008667Y028841D03*
X008667Y028408D03*
X008667Y029274D03*
X008707Y029707D03*
X008667Y030140D03*
X008667Y030574D03*
X008628Y031007D03*
X008628Y031440D03*
X008628Y031833D03*
X008549Y032424D03*
X009966Y032463D03*
X009848Y031833D03*
X009848Y031440D03*
X009848Y031007D03*
X009848Y030574D03*
X009809Y030140D03*
X012525Y030888D03*
X012762Y031125D03*
X012840Y030692D03*
X012762Y031597D03*
X012762Y032070D03*
X012525Y032463D03*
X012762Y032621D03*
X012762Y033093D03*
X012722Y033526D03*
X013903Y033644D03*
X014140Y033841D03*
X013982Y033093D03*
X013982Y032621D03*
X013982Y032070D03*
X013982Y031597D03*
X013982Y031125D03*
X015872Y030928D03*
X015832Y031715D03*
X015832Y032621D03*
X015872Y033408D03*
X015675Y033841D03*
X016699Y033723D03*
X017132Y033762D03*
X017250Y034983D03*
X016817Y034983D03*
X016029Y034944D03*
X014966Y034904D03*
X014927Y035810D03*
X014612Y035810D03*
X013825Y034668D03*
X012998Y035888D03*
X012368Y035574D03*
X012092Y035967D03*
X011659Y036164D03*
X011266Y036322D03*
X011029Y036518D03*
X011462Y037188D03*
X010832Y037385D03*
X010596Y037621D03*
X012250Y037857D03*
X012250Y036951D03*
X014140Y037030D03*
X014927Y037227D03*
X016187Y037424D03*
X017171Y037424D03*
X017880Y037699D03*
X018313Y037699D03*
X018588Y037621D03*
X018825Y037424D03*
X019258Y036931D03*
X018825Y036597D03*
X017840Y036046D03*
X018677Y035672D03*
X018746Y034874D03*
X018785Y034511D03*
X018746Y034077D03*
X018943Y033566D03*
X018746Y033054D03*
X018431Y032857D03*
X018746Y032581D03*
X018588Y032424D03*
X018362Y032090D03*
X018530Y031893D03*
X018352Y031695D03*
X018785Y031991D03*
X018352Y031125D03*
X017299Y031500D03*
X017289Y032424D03*
X018352Y033487D03*
X018352Y034786D03*
X019809Y034471D03*
X020203Y034038D03*
X020360Y034274D03*
X020360Y034944D03*
X020949Y034924D03*
X020399Y035652D03*
X020134Y035672D03*
X019848Y036223D03*
X020636Y036794D03*
X020242Y037345D03*
X020754Y038920D03*
X022014Y038959D03*
X022407Y039235D03*
X022525Y038448D03*
X022998Y038487D03*
X023588Y038408D03*
X024179Y038369D03*
X024809Y038369D03*
X025399Y038408D03*
X026108Y038290D03*
X025951Y037424D03*
X026266Y037424D03*
X026817Y036479D03*
X027407Y037030D03*
X027722Y037030D03*
X028077Y036203D03*
X028077Y035692D03*
X027644Y035337D03*
X027250Y035140D03*
X027250Y034786D03*
X027250Y034353D03*
X027250Y033959D03*
X027250Y033369D03*
X027565Y033448D03*
X027250Y032896D03*
X027683Y032385D03*
X027683Y031912D03*
X027683Y031558D03*
X026581Y031558D03*
X026305Y031243D03*
X026023Y031236D03*
X025557Y031322D03*
X025006Y031333D03*
X024770Y031164D03*
X024573Y031345D03*
X024297Y031148D03*
X023785Y031361D03*
X023155Y031302D03*
X022801Y031345D03*
X022092Y031282D03*
X021935Y030810D03*
X021935Y030455D03*
X021541Y030062D03*
X021069Y030062D03*
X020636Y030022D03*
X020636Y031203D03*
X020203Y031361D03*
X020203Y031715D03*
X020163Y031991D03*
X020163Y032581D03*
X020384Y032975D03*
X020163Y033172D03*
X020384Y033408D03*
X023785Y029944D03*
X024770Y029944D03*
X025203Y030416D03*
X025242Y030810D03*
X026344Y030416D03*
X026856Y030613D03*
X027132Y030062D03*
X027732Y030377D03*
X028785Y031479D03*
X029100Y031203D03*
X029297Y031479D03*
X029297Y032699D03*
X029533Y032857D03*
X028825Y032660D03*
X028470Y032581D03*
X028470Y033684D03*
X028903Y034117D03*
X029415Y034117D03*
X029927Y033644D03*
X030321Y033920D03*
X031147Y033133D03*
X030518Y032660D03*
X031817Y032660D03*
X032289Y032660D03*
X032958Y032896D03*
X033470Y033093D03*
X033758Y033172D03*
X033746Y033605D03*
X033430Y034197D03*
X033470Y034992D03*
X032998Y035022D03*
X032210Y034235D03*
X031462Y035455D03*
X032210Y035888D03*
X031226Y036203D03*
X030636Y036558D03*
X030124Y036164D03*
X029455Y036164D03*
X029140Y036164D03*
X028628Y036676D03*
X028825Y036912D03*
X029130Y037581D03*
X029637Y037581D03*
X029905Y037585D03*
X030399Y037581D03*
X031187Y037621D03*
X031699Y038014D03*
X032447Y038526D03*
X032053Y038566D03*
X031305Y038841D03*
X030872Y038959D03*
X031738Y039589D03*
X031462Y040534D03*
X030793Y040534D03*
X029258Y041007D03*
X027289Y041007D03*
X025321Y041007D03*
X023825Y039629D03*
X024140Y037739D03*
X027329Y038526D03*
X027781Y038782D03*
X028234Y038762D03*
X028431Y038566D03*
X031620Y037030D03*
X032762Y036873D03*
X033470Y036597D03*
X033980Y036943D03*
X033588Y037385D03*
X033234Y037936D03*
X034494Y036243D03*
X033469Y035794D03*
X030321Y035219D03*
X029651Y035259D03*
X027880Y034550D03*
X026620Y035416D03*
X026581Y032385D03*
X025557Y029471D03*
X025872Y029314D03*
X026777Y028762D03*
X026699Y028093D03*
X027407Y028369D03*
X027604Y028881D03*
X027919Y028054D03*
X028470Y028064D03*
X028815Y028851D03*
X029297Y028841D03*
X030321Y027503D03*
X030832Y027503D03*
X031817Y027581D03*
X032289Y027581D03*
X032329Y028920D03*
X031817Y028920D03*
X031777Y031282D03*
X032289Y031282D03*
X033510Y031912D03*
X033510Y032660D03*
X028785Y026518D03*
X028234Y026715D03*
X025439Y027306D03*
X024927Y026794D03*
X024179Y027070D03*
X023929Y027414D03*
X023746Y027621D03*
X023352Y027424D03*
X023234Y026597D03*
X022722Y026597D03*
X021925Y026351D03*
X021758Y026577D03*
X021699Y026833D03*
X020321Y026400D03*
X020281Y027188D03*
X020281Y027778D03*
X020399Y028762D03*
X021738Y028762D03*
X022683Y029629D03*
X023273Y028841D03*
X023785Y028841D03*
X023746Y026597D03*
X021856Y025395D03*
X020321Y025377D03*
X018313Y025613D03*
X018155Y026636D03*
X018943Y028093D03*
X015557Y028369D03*
X017289Y024629D03*
X023037Y020574D03*
X021738Y019392D03*
X019888Y017857D03*
X019297Y017070D03*
X019297Y016558D03*
X019336Y016164D03*
X019061Y015849D03*
X018549Y015849D03*
X018470Y017070D03*
X017880Y017857D03*
X016974Y017424D03*
X016974Y016164D03*
X020203Y015770D03*
X020754Y016282D03*
X021541Y016597D03*
X017880Y013054D03*
X017447Y011479D03*
X024612Y020574D03*
X030596Y015140D03*
X034061Y016715D03*
X034494Y015888D03*
X035006Y016715D03*
X035636Y015849D03*
X041344Y010022D03*
X040754Y008802D03*
X043549Y008251D03*
X043510Y006479D03*
X041974Y006440D03*
X038273Y006440D03*
X035163Y005574D03*
X033195Y005574D03*
X031226Y005574D03*
X031226Y009511D03*
X033195Y009511D03*
X035163Y009511D03*
X048943Y005574D03*
X012210Y032385D03*
X011935Y032542D03*
X010990Y033133D03*
X009651Y034156D03*
X009533Y035022D03*
X010360Y035180D03*
X010636Y035377D03*
X009327Y035928D03*
X008431Y036243D03*
X006895Y037660D03*
X005636Y037070D03*
X003667Y037070D03*
X003667Y035101D03*
X005636Y035101D03*
X005636Y033133D03*
X004061Y032542D03*
X003667Y033133D03*
X003667Y031164D03*
X005636Y031164D03*
X005636Y029196D03*
X003667Y029196D03*
X005636Y027227D03*
X004061Y025928D03*
X008628Y033881D03*
X008431Y034550D03*
X014140Y038251D03*
X013628Y038644D03*
X013510Y041007D03*
X011541Y041007D03*
X009573Y041007D03*
X007604Y041007D03*
X005636Y041007D03*
X003667Y039038D03*
X015478Y041007D03*
X018313Y041440D03*
X017644Y038762D03*
X016935Y038605D03*
X033313Y041361D03*
M02*
