G75*
G70*
%OFA0B0*%
%FSLAX24Y24*%
%IPPOS*%
%LPD*%
%AMOC8*
5,1,8,0,0,1.08239X$1,22.5*
%
%ADD10C,0.0039*%
%ADD11R,0.0513X0.0474*%
%ADD12R,0.0371X0.0444*%
%ADD13R,0.0300X0.0320*%
%ADD14R,0.0320X0.0300*%
%ADD15R,0.0444X0.0371*%
%ADD16R,0.0395X0.0552*%
%ADD17R,0.0434X0.0356*%
%ADD18R,0.0356X0.0434*%
%ADD19C,0.0000*%
%ADD20C,0.0434*%
%ADD21R,0.0505X0.0493*%
%ADD22C,0.0710*%
%ADD23R,0.0631X0.0474*%
%ADD24R,0.0631X0.0356*%
%ADD25R,0.0552X0.0356*%
%ADD26R,0.0828X0.0671*%
%ADD27R,0.1340X0.0552*%
%ADD28C,0.0001*%
%ADD29R,0.0552X0.0552*%
%ADD30C,0.0631*%
%ADD31R,0.0493X0.0505*%
%ADD32R,0.0631X0.0631*%
%ADD33C,0.0867*%
%ADD34C,0.0744*%
%ADD35R,0.0474X0.0631*%
%ADD36C,0.0995*%
%ADD37C,0.0640*%
%ADD38C,0.1060*%
%ADD39C,0.2380*%
%ADD40C,0.0671*%
%ADD41C,0.1256*%
%ADD42OC8,0.0943*%
%ADD43C,0.0257*%
D10*
X001699Y003605D02*
X001699Y042975D01*
X052880Y042975D01*
X052880Y028014D01*
X058392Y028014D01*
X058392Y021715D01*
X052880Y021715D01*
X052880Y003605D01*
X001699Y003605D01*
D11*
X019159Y034077D03*
X019829Y034077D03*
X019829Y034874D03*
X019159Y034874D03*
X019091Y035672D03*
X019760Y035672D03*
X019883Y036571D03*
X019214Y036571D03*
X019199Y037385D03*
X019868Y037385D03*
X033882Y036588D03*
X034551Y036588D03*
X034552Y035794D03*
X033882Y035794D03*
X033884Y034992D03*
X034553Y034992D03*
X034513Y034197D03*
X033844Y034197D03*
X034002Y037385D03*
X034671Y037385D03*
D12*
X029621Y037978D03*
X029621Y038451D03*
X029121Y035790D03*
X029121Y035318D03*
X031799Y032116D03*
X031799Y031644D03*
X035439Y030849D03*
X035439Y030377D03*
X039691Y030377D03*
X039691Y030849D03*
X040321Y030849D03*
X040321Y030377D03*
X046974Y031479D03*
X046974Y031951D03*
X031049Y024966D03*
X031049Y024494D03*
X023313Y023959D03*
X023313Y023487D03*
X022250Y023644D03*
X022250Y024117D03*
X017014Y029707D03*
X017014Y030180D03*
X014651Y030140D03*
X014651Y029668D03*
X012644Y028762D03*
X012644Y028290D03*
X016799Y034155D03*
X017249Y034155D03*
X017249Y034627D03*
X016799Y034627D03*
X015675Y034668D03*
X015675Y034196D03*
X014140Y034196D03*
X014140Y034668D03*
X012599Y036944D03*
X012599Y037416D03*
X014140Y037385D03*
X014140Y037857D03*
X022525Y038054D03*
X022525Y037581D03*
X023588Y037581D03*
X023588Y038054D03*
X024809Y038014D03*
X024809Y037542D03*
X024899Y030827D03*
X024899Y030355D03*
X025599Y030394D03*
X025599Y030866D03*
X020636Y030849D03*
X020636Y030377D03*
X042199Y013441D03*
X042199Y012969D03*
D13*
X041859Y032896D03*
X041539Y032896D03*
X041539Y033369D03*
X041859Y033369D03*
X041859Y033881D03*
X041539Y033881D03*
X041539Y034392D03*
X041859Y034392D03*
X041859Y034786D03*
X041539Y034786D03*
X037370Y034629D03*
X037050Y034629D03*
X036741Y034629D03*
X036421Y034629D03*
X035756Y034629D03*
X035436Y034629D03*
X035436Y034235D03*
X035756Y034235D03*
X035756Y033762D03*
X035436Y033762D03*
X035436Y033329D03*
X035756Y033329D03*
X035756Y032857D03*
X035436Y032857D03*
X035436Y035140D03*
X035756Y035140D03*
X035756Y035613D03*
X035436Y035613D03*
X035436Y036046D03*
X035756Y036046D03*
X035756Y036518D03*
X035436Y036518D03*
X026977Y035140D03*
X026657Y035140D03*
X026657Y034786D03*
X026977Y034786D03*
X026977Y034353D03*
X026657Y034353D03*
X026657Y033959D03*
X026977Y033959D03*
X026977Y033369D03*
X026657Y033369D03*
X026657Y032896D03*
X026977Y032896D03*
X022567Y034629D03*
X022247Y034629D03*
X021937Y034629D03*
X021617Y034629D03*
X020953Y034629D03*
X020633Y034629D03*
X020633Y034235D03*
X020953Y034235D03*
X020959Y033791D03*
X020639Y033791D03*
X020633Y033408D03*
X020953Y033408D03*
X020953Y032975D03*
X020633Y032975D03*
X020633Y035219D03*
X020953Y035219D03*
X020992Y035652D03*
X020672Y035652D03*
X020633Y036046D03*
X020953Y036046D03*
X020953Y036518D03*
X020633Y036518D03*
D14*
X022525Y035261D03*
X022525Y034941D03*
X022880Y035256D03*
X022880Y035576D03*
X023234Y035571D03*
X023234Y035891D03*
X023825Y035891D03*
X023825Y035571D03*
X024455Y035571D03*
X024770Y035576D03*
X024770Y035256D03*
X025084Y035261D03*
X025084Y034941D03*
X025084Y034316D03*
X025084Y033996D03*
X024770Y034001D03*
X024770Y033681D03*
X024455Y033686D03*
X024140Y033686D03*
X024140Y033366D03*
X024455Y033366D03*
X023510Y033366D03*
X023510Y033686D03*
X022880Y033681D03*
X022880Y034001D03*
X022565Y033996D03*
X022565Y034316D03*
X023392Y034469D03*
X023392Y034789D03*
X023746Y034789D03*
X023746Y034469D03*
X024100Y034469D03*
X024100Y034789D03*
X024455Y034789D03*
X024455Y034469D03*
X024455Y035891D03*
X024573Y031915D03*
X024573Y031595D03*
X025006Y031595D03*
X025006Y031915D03*
X025557Y031915D03*
X025557Y031595D03*
X024021Y031595D03*
X024021Y031915D03*
X023588Y031915D03*
X023588Y031595D03*
X023155Y031595D03*
X023155Y031915D03*
X022801Y031915D03*
X022801Y031595D03*
X022092Y031595D03*
X022092Y031915D03*
X036895Y031915D03*
X036895Y031595D03*
X037525Y031595D03*
X037840Y031595D03*
X037840Y031915D03*
X037525Y031915D03*
X038510Y031915D03*
X038510Y031595D03*
X038903Y031595D03*
X038903Y031915D03*
X039415Y031915D03*
X039415Y031595D03*
X039848Y031595D03*
X039848Y031915D03*
X040360Y031915D03*
X040360Y031595D03*
X039258Y033366D03*
X038943Y033366D03*
X038943Y033686D03*
X039258Y033686D03*
X039573Y033681D03*
X039573Y034001D03*
X039888Y033996D03*
X039888Y034316D03*
X039888Y034941D03*
X039888Y035261D03*
X039573Y035256D03*
X039573Y035576D03*
X039258Y035571D03*
X039258Y035891D03*
X038628Y035891D03*
X038628Y035571D03*
X037998Y035571D03*
X037683Y035576D03*
X037683Y035256D03*
X037368Y035261D03*
X037368Y034941D03*
X037368Y034316D03*
X037368Y033996D03*
X037683Y034001D03*
X037683Y033681D03*
X038313Y033686D03*
X038313Y033366D03*
X038470Y034469D03*
X038470Y034789D03*
X038116Y034789D03*
X038116Y034469D03*
X038825Y034469D03*
X038825Y034789D03*
X039218Y034789D03*
X039218Y034469D03*
X037998Y035891D03*
X038352Y037618D03*
X038352Y037938D03*
X038825Y037938D03*
X038825Y037618D03*
X039651Y037618D03*
X039651Y037938D03*
X037329Y037938D03*
X037329Y037618D03*
D15*
X037542Y039419D03*
X037070Y039419D03*
X031337Y040205D03*
X030864Y040205D03*
X029621Y036914D03*
X029148Y036914D03*
X029662Y035605D03*
X030135Y035605D03*
X034100Y033605D03*
X034100Y033172D03*
X034573Y033172D03*
X034573Y033605D03*
X025911Y026951D03*
X025439Y026951D03*
X021266Y026400D03*
X020793Y026400D03*
X020832Y025377D03*
X021305Y025377D03*
X018116Y031400D03*
X017644Y031400D03*
X017683Y032424D03*
X018155Y032424D03*
X019336Y033172D03*
X019336Y033566D03*
X019809Y033566D03*
X019809Y033172D03*
X013588Y033093D03*
X013116Y033093D03*
X013155Y032070D03*
X013628Y032070D03*
X013628Y031597D03*
X013155Y031597D03*
X009262Y036237D03*
X008790Y036237D03*
X021942Y040165D03*
X022415Y040165D03*
X041069Y023802D03*
X041541Y023802D03*
X042958Y021322D03*
X043431Y021322D03*
X043635Y020105D03*
X043162Y020105D03*
X045321Y023802D03*
X045793Y023802D03*
X039835Y015105D03*
X039362Y015105D03*
X031835Y016905D03*
X031362Y016905D03*
D16*
X033825Y031322D03*
X033825Y031912D03*
X034533Y031912D03*
X034533Y031322D03*
X034573Y032660D03*
X033864Y032660D03*
X019848Y031991D03*
X019809Y032581D03*
X019100Y032581D03*
X019140Y031991D03*
X019179Y031361D03*
X019888Y031361D03*
X015518Y031715D03*
X014809Y031715D03*
X014809Y032621D03*
X015518Y032621D03*
X004061Y032148D03*
X004061Y025534D03*
D17*
X013116Y026656D03*
X013116Y027168D03*
X013116Y027837D03*
X013116Y028349D03*
X013864Y027877D03*
X013864Y027365D03*
X014376Y028388D03*
X014376Y028900D03*
X015163Y028900D03*
X015163Y028388D03*
X015163Y029688D03*
X015636Y029688D03*
X016069Y029688D03*
X016541Y029688D03*
X016541Y030199D03*
X016069Y030199D03*
X015636Y030199D03*
X015163Y030199D03*
X014061Y030081D03*
X014061Y029570D03*
X013510Y029570D03*
X013510Y030081D03*
X017486Y030199D03*
X017486Y029688D03*
X021069Y030357D03*
X021541Y030357D03*
X021541Y030869D03*
X021069Y030869D03*
X022299Y030886D03*
X022799Y030886D03*
X023299Y030886D03*
X023299Y030374D03*
X022799Y030374D03*
X022299Y030374D03*
X023273Y029648D03*
X023273Y029136D03*
X023785Y029136D03*
X023785Y029648D03*
X024049Y030374D03*
X024049Y030886D03*
X026023Y030925D03*
X026023Y030413D03*
X028799Y031774D03*
X029299Y031774D03*
X029299Y032286D03*
X028799Y032286D03*
X030321Y034419D03*
X030321Y034931D03*
X032299Y032136D03*
X032299Y031624D03*
X035911Y030869D03*
X036344Y030869D03*
X036344Y030357D03*
X035911Y030357D03*
X037092Y030357D03*
X037092Y030869D03*
X037604Y030869D03*
X038077Y030869D03*
X038077Y030357D03*
X037604Y030357D03*
X037486Y029648D03*
X037486Y029136D03*
X037998Y029136D03*
X037998Y029648D03*
X038825Y030357D03*
X038825Y030869D03*
X040714Y026774D03*
X041187Y026774D03*
X041187Y026262D03*
X040714Y026262D03*
X043972Y027759D03*
X043972Y028270D03*
X046974Y028388D03*
X046974Y027877D03*
X047486Y027877D03*
X047486Y028388D03*
X047447Y031459D03*
X047447Y031971D03*
X044455Y032089D03*
X043953Y032089D03*
X043953Y031577D03*
X044455Y031577D03*
X035316Y037996D03*
X035316Y038507D03*
X030421Y038470D03*
X030421Y037959D03*
X025399Y038034D03*
X025399Y037522D03*
X022995Y037617D03*
X022995Y038129D03*
X028815Y028566D03*
X028815Y028054D03*
X031799Y028124D03*
X032299Y028124D03*
X032299Y028636D03*
X031799Y028636D03*
X030649Y024986D03*
X030649Y024474D03*
X029439Y024474D03*
X028999Y024474D03*
X028559Y024474D03*
X028559Y024986D03*
X028999Y024986D03*
X029439Y024986D03*
X033817Y021497D03*
X033817Y020985D03*
X033099Y020749D03*
X033099Y021261D03*
X033799Y019761D03*
X033799Y019249D03*
X035999Y019249D03*
X035999Y019761D03*
X035999Y020449D03*
X035999Y020961D03*
X037199Y020261D03*
X037199Y019749D03*
X036659Y018261D03*
X036219Y018261D03*
X036219Y017749D03*
X036659Y017749D03*
X036659Y016941D03*
X037119Y016941D03*
X037119Y016429D03*
X036659Y016429D03*
X036159Y015673D03*
X036159Y015161D03*
X035639Y015161D03*
X035639Y014649D03*
X036640Y014608D03*
X036640Y014096D03*
X036139Y013941D03*
X036139Y013429D03*
X039699Y013361D03*
X040199Y013361D03*
X040199Y012849D03*
X039699Y012849D03*
X032086Y015471D03*
X032086Y015983D03*
X031138Y017855D03*
X031138Y018367D03*
X028299Y017061D03*
X028299Y016549D03*
X020199Y016761D03*
X020199Y016249D03*
X018899Y016349D03*
X018899Y016861D03*
X010399Y016761D03*
X010399Y016249D03*
X009099Y016349D03*
X009099Y016861D03*
X021817Y023625D03*
X021817Y024136D03*
D18*
X024081Y024117D03*
X024592Y024117D03*
X024592Y024825D03*
X024081Y024825D03*
X025419Y025101D03*
X025419Y025534D03*
X025419Y026007D03*
X025419Y026479D03*
X025931Y026479D03*
X025931Y026007D03*
X025931Y025534D03*
X025931Y025101D03*
X023867Y027071D03*
X023355Y027071D03*
X023332Y027896D03*
X023332Y028369D03*
X022821Y028369D03*
X022821Y027896D03*
X021285Y027778D03*
X020773Y027778D03*
X020773Y026912D03*
X021285Y026912D03*
X016915Y031400D03*
X016403Y031400D03*
X016403Y031912D03*
X016915Y031912D03*
X016915Y032424D03*
X016403Y032424D03*
X017624Y032857D03*
X018136Y032857D03*
X015065Y035455D03*
X014553Y035455D03*
X014356Y036440D03*
X014868Y036440D03*
X017151Y036912D03*
X017663Y036912D03*
X021893Y039630D03*
X022405Y039630D03*
X027270Y036203D03*
X027262Y035731D03*
X027773Y035731D03*
X027781Y036203D03*
X030129Y036914D03*
X030640Y036914D03*
X028474Y033369D03*
X028474Y032896D03*
X027962Y032896D03*
X027962Y033369D03*
X027388Y032385D03*
X027388Y031971D03*
X027388Y031558D03*
X026876Y031558D03*
X026876Y031971D03*
X026876Y032385D03*
X037050Y039903D03*
X037562Y039903D03*
X041431Y036521D03*
X041942Y036521D03*
X042543Y033377D03*
X042545Y032896D03*
X042545Y032424D03*
X042545Y031991D03*
X043057Y031991D03*
X043057Y032424D03*
X043057Y032896D03*
X043055Y033377D03*
X042781Y024786D03*
X042270Y024786D03*
X041561Y024786D03*
X041049Y024786D03*
X045458Y024747D03*
X045970Y024747D03*
X046663Y024726D03*
X047175Y024726D03*
X035576Y017905D03*
X035064Y017905D03*
X035064Y017305D03*
X035576Y017305D03*
X036731Y015698D03*
X037243Y015698D03*
X038343Y015505D03*
X038855Y015505D03*
X038855Y014705D03*
X038343Y014705D03*
X040343Y014705D03*
X040855Y014705D03*
X040855Y015505D03*
X040343Y015505D03*
X040255Y012285D03*
X039743Y012285D03*
X039743Y011805D03*
X040255Y011805D03*
X030595Y018332D03*
X030083Y018332D03*
X026155Y016105D03*
X025643Y016105D03*
X025855Y013105D03*
X025343Y013105D03*
X026543Y013105D03*
X027055Y013105D03*
X025655Y011205D03*
X025143Y011205D03*
X021255Y016605D03*
X020743Y016605D03*
X016955Y016505D03*
X016443Y016505D03*
X016443Y017105D03*
X016955Y017105D03*
X011455Y016505D03*
X010943Y016505D03*
X007155Y016505D03*
X006643Y016505D03*
X006643Y017105D03*
X007155Y017105D03*
X009041Y021794D03*
X009041Y022227D03*
X009553Y022227D03*
X009553Y021794D03*
X009514Y023526D03*
X009002Y023526D03*
X009002Y024392D03*
X009002Y024825D03*
X009514Y024825D03*
X009514Y024392D03*
X009514Y028408D03*
X009514Y028841D03*
X009002Y028841D03*
X009002Y028408D03*
X009002Y030140D03*
X009514Y030140D03*
X009553Y031007D03*
X009553Y031440D03*
X009041Y031440D03*
X009041Y031007D03*
X013136Y031125D03*
X013136Y030692D03*
X013647Y030692D03*
X013647Y031125D03*
X013569Y032621D03*
X013057Y032621D03*
X013096Y033526D03*
X013608Y033526D03*
X034558Y020805D03*
X035070Y020805D03*
D19*
X050223Y022015D02*
X050225Y022049D01*
X050231Y022083D01*
X050241Y022116D01*
X050254Y022147D01*
X050272Y022177D01*
X050292Y022205D01*
X050316Y022230D01*
X050342Y022252D01*
X050370Y022270D01*
X050401Y022286D01*
X050433Y022298D01*
X050467Y022306D01*
X050501Y022310D01*
X050535Y022310D01*
X050569Y022306D01*
X050603Y022298D01*
X050635Y022286D01*
X050665Y022270D01*
X050694Y022252D01*
X050720Y022230D01*
X050744Y022205D01*
X050764Y022177D01*
X050782Y022147D01*
X050795Y022116D01*
X050805Y022083D01*
X050811Y022049D01*
X050813Y022015D01*
X050811Y021981D01*
X050805Y021947D01*
X050795Y021914D01*
X050782Y021883D01*
X050764Y021853D01*
X050744Y021825D01*
X050720Y021800D01*
X050694Y021778D01*
X050666Y021760D01*
X050635Y021744D01*
X050603Y021732D01*
X050569Y021724D01*
X050535Y021720D01*
X050501Y021720D01*
X050467Y021724D01*
X050433Y021732D01*
X050401Y021744D01*
X050370Y021760D01*
X050342Y021778D01*
X050316Y021800D01*
X050292Y021825D01*
X050272Y021853D01*
X050254Y021883D01*
X050241Y021914D01*
X050231Y021947D01*
X050225Y021981D01*
X050223Y022015D01*
X050223Y027715D02*
X050225Y027749D01*
X050231Y027783D01*
X050241Y027816D01*
X050254Y027847D01*
X050272Y027877D01*
X050292Y027905D01*
X050316Y027930D01*
X050342Y027952D01*
X050370Y027970D01*
X050401Y027986D01*
X050433Y027998D01*
X050467Y028006D01*
X050501Y028010D01*
X050535Y028010D01*
X050569Y028006D01*
X050603Y027998D01*
X050635Y027986D01*
X050665Y027970D01*
X050694Y027952D01*
X050720Y027930D01*
X050744Y027905D01*
X050764Y027877D01*
X050782Y027847D01*
X050795Y027816D01*
X050805Y027783D01*
X050811Y027749D01*
X050813Y027715D01*
X050811Y027681D01*
X050805Y027647D01*
X050795Y027614D01*
X050782Y027583D01*
X050764Y027553D01*
X050744Y027525D01*
X050720Y027500D01*
X050694Y027478D01*
X050666Y027460D01*
X050635Y027444D01*
X050603Y027432D01*
X050569Y027424D01*
X050535Y027420D01*
X050501Y027420D01*
X050467Y027424D01*
X050433Y027432D01*
X050401Y027444D01*
X050370Y027460D01*
X050342Y027478D01*
X050316Y027500D01*
X050292Y027525D01*
X050272Y027553D01*
X050254Y027583D01*
X050241Y027614D01*
X050231Y027647D01*
X050225Y027681D01*
X050223Y027715D01*
X037033Y040613D02*
X037035Y040639D01*
X037041Y040665D01*
X037051Y040690D01*
X037064Y040713D01*
X037080Y040733D01*
X037100Y040751D01*
X037122Y040766D01*
X037145Y040778D01*
X037171Y040786D01*
X037197Y040790D01*
X037223Y040790D01*
X037249Y040786D01*
X037275Y040778D01*
X037299Y040766D01*
X037320Y040751D01*
X037340Y040733D01*
X037356Y040713D01*
X037369Y040690D01*
X037379Y040665D01*
X037385Y040639D01*
X037387Y040613D01*
X037385Y040587D01*
X037379Y040561D01*
X037369Y040536D01*
X037356Y040513D01*
X037340Y040493D01*
X037320Y040475D01*
X037298Y040460D01*
X037275Y040448D01*
X037249Y040440D01*
X037223Y040436D01*
X037197Y040436D01*
X037171Y040440D01*
X037145Y040448D01*
X037121Y040460D01*
X037100Y040475D01*
X037080Y040493D01*
X037064Y040513D01*
X037051Y040536D01*
X037041Y040561D01*
X037035Y040587D01*
X037033Y040613D01*
X035301Y040613D02*
X035303Y040639D01*
X035309Y040665D01*
X035319Y040690D01*
X035332Y040713D01*
X035348Y040733D01*
X035368Y040751D01*
X035390Y040766D01*
X035413Y040778D01*
X035439Y040786D01*
X035465Y040790D01*
X035491Y040790D01*
X035517Y040786D01*
X035543Y040778D01*
X035567Y040766D01*
X035588Y040751D01*
X035608Y040733D01*
X035624Y040713D01*
X035637Y040690D01*
X035647Y040665D01*
X035653Y040639D01*
X035655Y040613D01*
X035653Y040587D01*
X035647Y040561D01*
X035637Y040536D01*
X035624Y040513D01*
X035608Y040493D01*
X035588Y040475D01*
X035566Y040460D01*
X035543Y040448D01*
X035517Y040440D01*
X035491Y040436D01*
X035465Y040436D01*
X035439Y040440D01*
X035413Y040448D01*
X035389Y040460D01*
X035368Y040475D01*
X035348Y040493D01*
X035332Y040513D01*
X035319Y040536D01*
X035309Y040561D01*
X035303Y040587D01*
X035301Y040613D01*
X022073Y040613D02*
X022075Y040639D01*
X022081Y040665D01*
X022091Y040690D01*
X022104Y040713D01*
X022120Y040733D01*
X022140Y040751D01*
X022162Y040766D01*
X022185Y040778D01*
X022211Y040786D01*
X022237Y040790D01*
X022263Y040790D01*
X022289Y040786D01*
X022315Y040778D01*
X022339Y040766D01*
X022360Y040751D01*
X022380Y040733D01*
X022396Y040713D01*
X022409Y040690D01*
X022419Y040665D01*
X022425Y040639D01*
X022427Y040613D01*
X022425Y040587D01*
X022419Y040561D01*
X022409Y040536D01*
X022396Y040513D01*
X022380Y040493D01*
X022360Y040475D01*
X022338Y040460D01*
X022315Y040448D01*
X022289Y040440D01*
X022263Y040436D01*
X022237Y040436D01*
X022211Y040440D01*
X022185Y040448D01*
X022161Y040460D01*
X022140Y040475D01*
X022120Y040493D01*
X022104Y040513D01*
X022091Y040536D01*
X022081Y040561D01*
X022075Y040587D01*
X022073Y040613D01*
X020341Y040613D02*
X020343Y040639D01*
X020349Y040665D01*
X020359Y040690D01*
X020372Y040713D01*
X020388Y040733D01*
X020408Y040751D01*
X020430Y040766D01*
X020453Y040778D01*
X020479Y040786D01*
X020505Y040790D01*
X020531Y040790D01*
X020557Y040786D01*
X020583Y040778D01*
X020607Y040766D01*
X020628Y040751D01*
X020648Y040733D01*
X020664Y040713D01*
X020677Y040690D01*
X020687Y040665D01*
X020693Y040639D01*
X020695Y040613D01*
X020693Y040587D01*
X020687Y040561D01*
X020677Y040536D01*
X020664Y040513D01*
X020648Y040493D01*
X020628Y040475D01*
X020606Y040460D01*
X020583Y040448D01*
X020557Y040440D01*
X020531Y040436D01*
X020505Y040436D01*
X020479Y040440D01*
X020453Y040448D01*
X020429Y040460D01*
X020408Y040475D01*
X020388Y040493D01*
X020372Y040513D01*
X020359Y040536D01*
X020349Y040561D01*
X020343Y040587D01*
X020341Y040613D01*
X010379Y039432D02*
X010381Y039465D01*
X010387Y039497D01*
X010396Y039528D01*
X010409Y039558D01*
X010426Y039586D01*
X010446Y039612D01*
X010469Y039636D01*
X010494Y039656D01*
X010522Y039674D01*
X010551Y039688D01*
X010582Y039698D01*
X010614Y039705D01*
X010647Y039708D01*
X010680Y039707D01*
X010712Y039702D01*
X010743Y039693D01*
X010774Y039681D01*
X010802Y039665D01*
X010829Y039646D01*
X010853Y039624D01*
X010874Y039599D01*
X010893Y039572D01*
X010908Y039543D01*
X010919Y039513D01*
X010927Y039481D01*
X010931Y039448D01*
X010931Y039416D01*
X010927Y039383D01*
X010919Y039351D01*
X010908Y039321D01*
X010893Y039292D01*
X010874Y039265D01*
X010853Y039240D01*
X010829Y039218D01*
X010802Y039199D01*
X010774Y039183D01*
X010743Y039171D01*
X010712Y039162D01*
X010680Y039157D01*
X010647Y039156D01*
X010614Y039159D01*
X010582Y039166D01*
X010551Y039176D01*
X010522Y039190D01*
X010494Y039208D01*
X010469Y039228D01*
X010446Y039252D01*
X010426Y039278D01*
X010409Y039306D01*
X010396Y039336D01*
X010387Y039367D01*
X010381Y039399D01*
X010379Y039432D01*
X008214Y039432D02*
X008216Y039465D01*
X008222Y039497D01*
X008231Y039528D01*
X008244Y039558D01*
X008261Y039586D01*
X008281Y039612D01*
X008304Y039636D01*
X008329Y039656D01*
X008357Y039674D01*
X008386Y039688D01*
X008417Y039698D01*
X008449Y039705D01*
X008482Y039708D01*
X008515Y039707D01*
X008547Y039702D01*
X008578Y039693D01*
X008609Y039681D01*
X008637Y039665D01*
X008664Y039646D01*
X008688Y039624D01*
X008709Y039599D01*
X008728Y039572D01*
X008743Y039543D01*
X008754Y039513D01*
X008762Y039481D01*
X008766Y039448D01*
X008766Y039416D01*
X008762Y039383D01*
X008754Y039351D01*
X008743Y039321D01*
X008728Y039292D01*
X008709Y039265D01*
X008688Y039240D01*
X008664Y039218D01*
X008637Y039199D01*
X008609Y039183D01*
X008578Y039171D01*
X008547Y039162D01*
X008515Y039157D01*
X008482Y039156D01*
X008449Y039159D01*
X008417Y039166D01*
X008386Y039176D01*
X008357Y039190D01*
X008329Y039208D01*
X008304Y039228D01*
X008281Y039252D01*
X008261Y039278D01*
X008244Y039306D01*
X008231Y039336D01*
X008222Y039367D01*
X008216Y039399D01*
X008214Y039432D01*
X015577Y027715D02*
X015579Y027749D01*
X015585Y027783D01*
X015595Y027816D01*
X015608Y027847D01*
X015626Y027877D01*
X015646Y027905D01*
X015670Y027930D01*
X015696Y027952D01*
X015724Y027970D01*
X015755Y027986D01*
X015787Y027998D01*
X015821Y028006D01*
X015855Y028010D01*
X015889Y028010D01*
X015923Y028006D01*
X015957Y027998D01*
X015989Y027986D01*
X016019Y027970D01*
X016048Y027952D01*
X016074Y027930D01*
X016098Y027905D01*
X016118Y027877D01*
X016136Y027847D01*
X016149Y027816D01*
X016159Y027783D01*
X016165Y027749D01*
X016167Y027715D01*
X016165Y027681D01*
X016159Y027647D01*
X016149Y027614D01*
X016136Y027583D01*
X016118Y027553D01*
X016098Y027525D01*
X016074Y027500D01*
X016048Y027478D01*
X016020Y027460D01*
X015989Y027444D01*
X015957Y027432D01*
X015923Y027424D01*
X015889Y027420D01*
X015855Y027420D01*
X015821Y027424D01*
X015787Y027432D01*
X015755Y027444D01*
X015724Y027460D01*
X015696Y027478D01*
X015670Y027500D01*
X015646Y027525D01*
X015626Y027553D01*
X015608Y027583D01*
X015595Y027614D01*
X015585Y027647D01*
X015579Y027681D01*
X015577Y027715D01*
X015577Y022015D02*
X015579Y022049D01*
X015585Y022083D01*
X015595Y022116D01*
X015608Y022147D01*
X015626Y022177D01*
X015646Y022205D01*
X015670Y022230D01*
X015696Y022252D01*
X015724Y022270D01*
X015755Y022286D01*
X015787Y022298D01*
X015821Y022306D01*
X015855Y022310D01*
X015889Y022310D01*
X015923Y022306D01*
X015957Y022298D01*
X015989Y022286D01*
X016019Y022270D01*
X016048Y022252D01*
X016074Y022230D01*
X016098Y022205D01*
X016118Y022177D01*
X016136Y022147D01*
X016149Y022116D01*
X016159Y022083D01*
X016165Y022049D01*
X016167Y022015D01*
X016165Y021981D01*
X016159Y021947D01*
X016149Y021914D01*
X016136Y021883D01*
X016118Y021853D01*
X016098Y021825D01*
X016074Y021800D01*
X016048Y021778D01*
X016020Y021760D01*
X015989Y021744D01*
X015957Y021732D01*
X015923Y021724D01*
X015889Y021720D01*
X015855Y021720D01*
X015821Y021724D01*
X015787Y021732D01*
X015755Y021744D01*
X015724Y021760D01*
X015696Y021778D01*
X015670Y021800D01*
X015646Y021825D01*
X015626Y021853D01*
X015608Y021883D01*
X015595Y021914D01*
X015585Y021947D01*
X015579Y021981D01*
X015577Y022015D01*
X002663Y020633D02*
X002663Y019963D01*
X001836Y019963D01*
X001836Y020829D01*
X002112Y020829D01*
X002112Y020692D01*
X002114Y020676D01*
X002120Y020662D01*
X002129Y020650D01*
X002142Y020640D01*
X002156Y020635D01*
X002171Y020633D01*
X002663Y020633D01*
X002663Y026577D02*
X001836Y026577D01*
X001836Y027444D01*
X002112Y027444D01*
X002112Y027306D01*
X002114Y027291D01*
X002120Y027276D01*
X002129Y027264D01*
X002142Y027255D01*
X002156Y027249D01*
X002171Y027247D01*
X002663Y027247D01*
X002663Y026577D01*
X025006Y007148D02*
X025008Y007183D01*
X025014Y007218D01*
X025024Y007252D01*
X025037Y007285D01*
X025054Y007316D01*
X025075Y007344D01*
X025098Y007371D01*
X025125Y007394D01*
X025153Y007415D01*
X025184Y007432D01*
X025217Y007445D01*
X025251Y007455D01*
X025286Y007461D01*
X025321Y007463D01*
X025356Y007461D01*
X025391Y007455D01*
X025425Y007445D01*
X025458Y007432D01*
X025489Y007415D01*
X025517Y007394D01*
X025544Y007371D01*
X025567Y007344D01*
X025588Y007316D01*
X025605Y007285D01*
X025618Y007252D01*
X025628Y007218D01*
X025634Y007183D01*
X025636Y007148D01*
X025634Y007113D01*
X025628Y007078D01*
X025618Y007044D01*
X025605Y007011D01*
X025588Y006980D01*
X025567Y006952D01*
X025544Y006925D01*
X025517Y006902D01*
X025489Y006881D01*
X025458Y006864D01*
X025425Y006851D01*
X025391Y006841D01*
X025356Y006835D01*
X025321Y006833D01*
X025286Y006835D01*
X025251Y006841D01*
X025217Y006851D01*
X025184Y006864D01*
X025153Y006881D01*
X025125Y006902D01*
X025098Y006925D01*
X025075Y006952D01*
X025054Y006980D01*
X025037Y007011D01*
X025024Y007044D01*
X025014Y007078D01*
X025008Y007113D01*
X025006Y007148D01*
X025006Y004786D02*
X025008Y004821D01*
X025014Y004856D01*
X025024Y004890D01*
X025037Y004923D01*
X025054Y004954D01*
X025075Y004982D01*
X025098Y005009D01*
X025125Y005032D01*
X025153Y005053D01*
X025184Y005070D01*
X025217Y005083D01*
X025251Y005093D01*
X025286Y005099D01*
X025321Y005101D01*
X025356Y005099D01*
X025391Y005093D01*
X025425Y005083D01*
X025458Y005070D01*
X025489Y005053D01*
X025517Y005032D01*
X025544Y005009D01*
X025567Y004982D01*
X025588Y004954D01*
X025605Y004923D01*
X025618Y004890D01*
X025628Y004856D01*
X025634Y004821D01*
X025636Y004786D01*
X025634Y004751D01*
X025628Y004716D01*
X025618Y004682D01*
X025605Y004649D01*
X025588Y004618D01*
X025567Y004590D01*
X025544Y004563D01*
X025517Y004540D01*
X025489Y004519D01*
X025458Y004502D01*
X025425Y004489D01*
X025391Y004479D01*
X025356Y004473D01*
X025321Y004471D01*
X025286Y004473D01*
X025251Y004479D01*
X025217Y004489D01*
X025184Y004502D01*
X025153Y004519D01*
X025125Y004540D01*
X025098Y004563D01*
X025075Y004590D01*
X025054Y004618D01*
X025037Y004649D01*
X025024Y004682D01*
X025014Y004716D01*
X025008Y004751D01*
X025006Y004786D01*
D20*
X022250Y040613D03*
X020518Y040613D03*
X035478Y040613D03*
X037210Y040613D03*
D21*
X036499Y040075D03*
X036499Y039386D03*
X021399Y039286D03*
X021399Y039975D03*
D22*
X025321Y007148D03*
X025321Y004786D03*
D23*
X017832Y013431D03*
X017832Y014179D03*
X016966Y013805D03*
X008155Y021046D03*
X008155Y027660D03*
X032166Y019705D03*
X033032Y020079D03*
X033032Y019331D03*
D24*
X008155Y021794D03*
X008155Y022227D03*
X008155Y022660D03*
X008155Y023093D03*
X008155Y023526D03*
X008155Y023959D03*
X008155Y024392D03*
X008155Y024825D03*
X008155Y028408D03*
X008155Y028841D03*
X008155Y029274D03*
X008155Y029707D03*
X008155Y030140D03*
X008155Y030574D03*
X008155Y031007D03*
X008155Y031440D03*
D25*
X008195Y031814D03*
X008195Y025199D03*
D26*
X002250Y026912D03*
X002250Y020298D03*
D27*
X002644Y025534D03*
X002644Y032148D03*
D28*
X002112Y027444D02*
X001836Y027444D01*
X001836Y027443D02*
X002112Y027443D01*
X002112Y027442D02*
X001836Y027442D01*
X001836Y027441D02*
X002112Y027441D01*
X002112Y027440D02*
X001836Y027440D01*
X001836Y027439D02*
X002112Y027439D01*
X002112Y027438D02*
X001836Y027438D01*
X001836Y027437D02*
X002112Y027437D01*
X002112Y027436D02*
X001836Y027436D01*
X001836Y027435D02*
X002112Y027435D01*
X002112Y027434D02*
X001836Y027434D01*
X001836Y027433D02*
X002112Y027433D01*
X002112Y027432D02*
X001836Y027432D01*
X001836Y027431D02*
X002112Y027431D01*
X002112Y027430D02*
X001836Y027430D01*
X001836Y027429D02*
X002112Y027429D01*
X002112Y027428D02*
X001836Y027428D01*
X001836Y027427D02*
X002112Y027427D01*
X002112Y027426D02*
X001836Y027426D01*
X001836Y027425D02*
X002112Y027425D01*
X002112Y027424D02*
X001836Y027424D01*
X001836Y027423D02*
X002112Y027423D01*
X002112Y027422D02*
X001836Y027422D01*
X001836Y027421D02*
X002112Y027421D01*
X002112Y027420D02*
X001836Y027420D01*
X001836Y027419D02*
X002112Y027419D01*
X002112Y027418D02*
X001836Y027418D01*
X001836Y027417D02*
X002112Y027417D01*
X002112Y027416D02*
X001836Y027416D01*
X001836Y027415D02*
X002112Y027415D01*
X002112Y027414D02*
X001836Y027414D01*
X001836Y027413D02*
X002112Y027413D01*
X002112Y027412D02*
X001836Y027412D01*
X001836Y027411D02*
X002112Y027411D01*
X002112Y027410D02*
X001836Y027410D01*
X001836Y027409D02*
X002112Y027409D01*
X002112Y027408D02*
X001836Y027408D01*
X001836Y027407D02*
X002112Y027407D01*
X002112Y027406D02*
X001836Y027406D01*
X001836Y027405D02*
X002112Y027405D01*
X002112Y027404D02*
X001836Y027404D01*
X001836Y027403D02*
X002112Y027403D01*
X002112Y027402D02*
X001836Y027402D01*
X001836Y027401D02*
X002112Y027401D01*
X002112Y027400D02*
X001836Y027400D01*
X001836Y027399D02*
X002112Y027399D01*
X002112Y027398D02*
X001836Y027398D01*
X001836Y027397D02*
X002112Y027397D01*
X002112Y027396D02*
X001836Y027396D01*
X001836Y027395D02*
X002112Y027395D01*
X002112Y027394D02*
X001836Y027394D01*
X001836Y027393D02*
X002112Y027393D01*
X002112Y027392D02*
X001836Y027392D01*
X001836Y027391D02*
X002112Y027391D01*
X002112Y027390D02*
X001836Y027390D01*
X001836Y027389D02*
X002112Y027389D01*
X002112Y027388D02*
X001836Y027388D01*
X001836Y027387D02*
X002112Y027387D01*
X002112Y027386D02*
X001836Y027386D01*
X001836Y027385D02*
X002112Y027385D01*
X002112Y027384D02*
X001836Y027384D01*
X001836Y027383D02*
X002112Y027383D01*
X002112Y027382D02*
X001836Y027382D01*
X001836Y027381D02*
X002112Y027381D01*
X002112Y027380D02*
X001836Y027380D01*
X001836Y027379D02*
X002112Y027379D01*
X002112Y027378D02*
X001836Y027378D01*
X001836Y027377D02*
X002112Y027377D01*
X002112Y027376D02*
X001836Y027376D01*
X001836Y027375D02*
X002112Y027375D01*
X002112Y027374D02*
X001836Y027374D01*
X001836Y027373D02*
X002112Y027373D01*
X002112Y027372D02*
X001836Y027372D01*
X001836Y027371D02*
X002112Y027371D01*
X002112Y027370D02*
X001836Y027370D01*
X001836Y027369D02*
X002112Y027369D01*
X002112Y027368D02*
X001836Y027368D01*
X001836Y027367D02*
X002112Y027367D01*
X002112Y027366D02*
X001836Y027366D01*
X001836Y027365D02*
X002112Y027365D01*
X002112Y027364D02*
X001836Y027364D01*
X001836Y027363D02*
X002112Y027363D01*
X002112Y027362D02*
X001836Y027362D01*
X001836Y027361D02*
X002112Y027361D01*
X002112Y027360D02*
X001836Y027360D01*
X001836Y027359D02*
X002112Y027359D01*
X002112Y027358D02*
X001836Y027358D01*
X001836Y027357D02*
X002112Y027357D01*
X002112Y027356D02*
X001836Y027356D01*
X001836Y027355D02*
X002112Y027355D01*
X002112Y027354D02*
X001836Y027354D01*
X001836Y027353D02*
X002112Y027353D01*
X002112Y027352D02*
X001836Y027352D01*
X001836Y027351D02*
X002112Y027351D01*
X002112Y027350D02*
X001836Y027350D01*
X001836Y027349D02*
X002112Y027349D01*
X002112Y027348D02*
X001836Y027348D01*
X001836Y027347D02*
X002112Y027347D01*
X002112Y027346D02*
X001836Y027346D01*
X001836Y027345D02*
X002112Y027345D01*
X002112Y027344D02*
X001836Y027344D01*
X001836Y027343D02*
X002112Y027343D01*
X002112Y027342D02*
X001836Y027342D01*
X001836Y027341D02*
X002112Y027341D01*
X002112Y027340D02*
X001836Y027340D01*
X001836Y027339D02*
X002112Y027339D01*
X002112Y027338D02*
X001836Y027338D01*
X001836Y027337D02*
X002112Y027337D01*
X002112Y027336D02*
X001836Y027336D01*
X001836Y027335D02*
X002112Y027335D01*
X002112Y027334D02*
X001836Y027334D01*
X001836Y027333D02*
X002112Y027333D01*
X002112Y027332D02*
X001836Y027332D01*
X001836Y027331D02*
X002112Y027331D01*
X002112Y027330D02*
X001836Y027330D01*
X001836Y027329D02*
X002112Y027329D01*
X002112Y027328D02*
X001836Y027328D01*
X001836Y027327D02*
X002112Y027327D01*
X002112Y027326D02*
X001836Y027326D01*
X001836Y027325D02*
X002112Y027325D01*
X002112Y027324D02*
X001836Y027324D01*
X001836Y027323D02*
X002112Y027323D01*
X002112Y027322D02*
X001836Y027322D01*
X001836Y027321D02*
X002112Y027321D01*
X002112Y027320D02*
X001836Y027320D01*
X001836Y027319D02*
X002112Y027319D01*
X002112Y027318D02*
X001836Y027318D01*
X001836Y027317D02*
X002112Y027317D01*
X002112Y027316D02*
X001836Y027316D01*
X001836Y027315D02*
X002112Y027315D01*
X002112Y027314D02*
X001836Y027314D01*
X001836Y027313D02*
X002112Y027313D01*
X002112Y027312D02*
X001836Y027312D01*
X001836Y027311D02*
X002112Y027311D01*
X002112Y027310D02*
X001836Y027310D01*
X001836Y027309D02*
X002112Y027309D01*
X002112Y027308D02*
X001836Y027308D01*
X001836Y027307D02*
X002112Y027307D01*
X002112Y027306D02*
X001836Y027306D01*
X001836Y027305D02*
X002112Y027305D01*
X002112Y027304D02*
X001836Y027304D01*
X001836Y027303D02*
X002112Y027303D01*
X002113Y027302D02*
X001836Y027302D01*
X001836Y027301D02*
X002113Y027301D01*
X002113Y027300D02*
X001836Y027300D01*
X001836Y027299D02*
X002113Y027299D01*
X002113Y027298D02*
X001836Y027298D01*
X001836Y027297D02*
X002113Y027297D01*
X002113Y027296D02*
X001836Y027296D01*
X001836Y027295D02*
X002113Y027295D01*
X002114Y027294D02*
X001836Y027294D01*
X001836Y027293D02*
X002114Y027293D01*
X002114Y027292D02*
X001836Y027292D01*
X001836Y027291D02*
X002114Y027291D01*
X002114Y027290D02*
X001836Y027290D01*
X001836Y027289D02*
X002115Y027289D01*
X002115Y027288D02*
X001836Y027288D01*
X001836Y027287D02*
X002116Y027287D01*
X002116Y027286D02*
X001836Y027286D01*
X001836Y027285D02*
X002116Y027285D01*
X002117Y027284D02*
X001836Y027284D01*
X001836Y027283D02*
X002117Y027283D01*
X002118Y027282D02*
X001836Y027282D01*
X001836Y027281D02*
X002118Y027281D01*
X002119Y027280D02*
X001836Y027280D01*
X001836Y027279D02*
X002119Y027279D01*
X002119Y027278D02*
X001836Y027278D01*
X001836Y027277D02*
X002120Y027277D01*
X002120Y027276D02*
X001836Y027276D01*
X001836Y027275D02*
X002121Y027275D01*
X002122Y027274D02*
X001836Y027274D01*
X001836Y027273D02*
X002123Y027273D01*
X002123Y027272D02*
X001836Y027272D01*
X001836Y027271D02*
X002124Y027271D01*
X002125Y027270D02*
X001836Y027270D01*
X001836Y027269D02*
X002126Y027269D01*
X002127Y027268D02*
X001836Y027268D01*
X001836Y027267D02*
X002127Y027267D01*
X002128Y027266D02*
X001836Y027266D01*
X001836Y027265D02*
X002129Y027265D01*
X002130Y027264D02*
X001836Y027264D01*
X001836Y027263D02*
X002131Y027263D01*
X002132Y027262D02*
X001836Y027262D01*
X001836Y027261D02*
X002134Y027261D01*
X002135Y027260D02*
X001836Y027260D01*
X001836Y027259D02*
X002136Y027259D01*
X002138Y027258D02*
X001836Y027258D01*
X001836Y027257D02*
X002139Y027257D01*
X002140Y027256D02*
X001836Y027256D01*
X001836Y027255D02*
X002141Y027255D01*
X002144Y027254D02*
X001836Y027254D01*
X001836Y027253D02*
X002146Y027253D01*
X002149Y027252D02*
X001836Y027252D01*
X001836Y027251D02*
X002151Y027251D01*
X002153Y027250D02*
X001836Y027250D01*
X001836Y027249D02*
X002156Y027249D01*
X002164Y027248D02*
X001836Y027248D01*
X001836Y027247D02*
X002663Y027247D01*
X002663Y027246D02*
X001836Y027246D01*
X001836Y027245D02*
X002663Y027245D01*
X002663Y027244D02*
X001836Y027244D01*
X001836Y027243D02*
X002663Y027243D01*
X002663Y027242D02*
X001836Y027242D01*
X001836Y027241D02*
X002663Y027241D01*
X002663Y027240D02*
X001836Y027240D01*
X001836Y027239D02*
X002663Y027239D01*
X002663Y027238D02*
X001836Y027238D01*
X001836Y027237D02*
X002663Y027237D01*
X002663Y027236D02*
X001836Y027236D01*
X001836Y027235D02*
X002663Y027235D01*
X002663Y027234D02*
X001836Y027234D01*
X001836Y027233D02*
X002663Y027233D01*
X002663Y027232D02*
X001836Y027232D01*
X001836Y027231D02*
X002663Y027231D01*
X002663Y027230D02*
X001836Y027230D01*
X001836Y027229D02*
X002663Y027229D01*
X002663Y027228D02*
X001836Y027228D01*
X001836Y027227D02*
X002663Y027227D01*
X002663Y027226D02*
X001836Y027226D01*
X001836Y027225D02*
X002663Y027225D01*
X002663Y027224D02*
X001836Y027224D01*
X001836Y027223D02*
X002663Y027223D01*
X002663Y027222D02*
X001836Y027222D01*
X001836Y027221D02*
X002663Y027221D01*
X002663Y027220D02*
X001836Y027220D01*
X001836Y027219D02*
X002663Y027219D01*
X002663Y027218D02*
X001836Y027218D01*
X001836Y027217D02*
X002663Y027217D01*
X002663Y027216D02*
X001836Y027216D01*
X001836Y027215D02*
X002663Y027215D01*
X002663Y027214D02*
X001836Y027214D01*
X001836Y027213D02*
X002663Y027213D01*
X002663Y027212D02*
X001836Y027212D01*
X001836Y027211D02*
X002663Y027211D01*
X002663Y027210D02*
X001836Y027210D01*
X001836Y027209D02*
X002663Y027209D01*
X002663Y027208D02*
X001836Y027208D01*
X001836Y027207D02*
X002663Y027207D01*
X002663Y027206D02*
X001836Y027206D01*
X001836Y027205D02*
X002663Y027205D01*
X002663Y027204D02*
X001836Y027204D01*
X001836Y027203D02*
X002663Y027203D01*
X002663Y027202D02*
X001836Y027202D01*
X001836Y027201D02*
X002663Y027201D01*
X002663Y027200D02*
X001836Y027200D01*
X001836Y027199D02*
X002663Y027199D01*
X002663Y027198D02*
X001836Y027198D01*
X001836Y027197D02*
X002663Y027197D01*
X002663Y027196D02*
X001836Y027196D01*
X001836Y027195D02*
X002663Y027195D01*
X002663Y027194D02*
X001836Y027194D01*
X001836Y027193D02*
X002663Y027193D01*
X002663Y027192D02*
X001836Y027192D01*
X001836Y027191D02*
X002663Y027191D01*
X002663Y027190D02*
X001836Y027190D01*
X001836Y027189D02*
X002663Y027189D01*
X002663Y027188D02*
X001836Y027188D01*
X001836Y027187D02*
X002663Y027187D01*
X002663Y027186D02*
X001836Y027186D01*
X001836Y027185D02*
X002663Y027185D01*
X002663Y027184D02*
X001836Y027184D01*
X001836Y027183D02*
X002663Y027183D01*
X002663Y027182D02*
X001836Y027182D01*
X001836Y027181D02*
X002663Y027181D01*
X002663Y027180D02*
X001836Y027180D01*
X001836Y027179D02*
X002663Y027179D01*
X002663Y027178D02*
X001836Y027178D01*
X001836Y027177D02*
X002663Y027177D01*
X002663Y027176D02*
X001836Y027176D01*
X001836Y027175D02*
X002663Y027175D01*
X002663Y027174D02*
X001836Y027174D01*
X001836Y027173D02*
X002663Y027173D01*
X002663Y027172D02*
X001836Y027172D01*
X001836Y027171D02*
X002663Y027171D01*
X002663Y027170D02*
X001836Y027170D01*
X001836Y027169D02*
X002663Y027169D01*
X002663Y027168D02*
X001836Y027168D01*
X001836Y027167D02*
X002663Y027167D01*
X002663Y027166D02*
X001836Y027166D01*
X001836Y027165D02*
X002663Y027165D01*
X002663Y027164D02*
X001836Y027164D01*
X001836Y027163D02*
X002663Y027163D01*
X002663Y027162D02*
X001836Y027162D01*
X001836Y027161D02*
X002663Y027161D01*
X002663Y027160D02*
X001836Y027160D01*
X001836Y027159D02*
X002663Y027159D01*
X002663Y027158D02*
X001836Y027158D01*
X001836Y027157D02*
X002663Y027157D01*
X002663Y027156D02*
X001836Y027156D01*
X001836Y027155D02*
X002663Y027155D01*
X002663Y027154D02*
X001836Y027154D01*
X001836Y027153D02*
X002663Y027153D01*
X002663Y027152D02*
X001836Y027152D01*
X001836Y027151D02*
X002663Y027151D01*
X002663Y027150D02*
X001836Y027150D01*
X001836Y027149D02*
X002663Y027149D01*
X002663Y027148D02*
X001836Y027148D01*
X001836Y027147D02*
X002663Y027147D01*
X002663Y027146D02*
X001836Y027146D01*
X001836Y027145D02*
X002663Y027145D01*
X002663Y027144D02*
X001836Y027144D01*
X001836Y027143D02*
X002663Y027143D01*
X002663Y027142D02*
X001836Y027142D01*
X001836Y027141D02*
X002663Y027141D01*
X002663Y027140D02*
X001836Y027140D01*
X001836Y027139D02*
X002663Y027139D01*
X002663Y027138D02*
X001836Y027138D01*
X001836Y027137D02*
X002663Y027137D01*
X002663Y027136D02*
X001836Y027136D01*
X001836Y027135D02*
X002663Y027135D01*
X002663Y027134D02*
X001836Y027134D01*
X001836Y027133D02*
X002663Y027133D01*
X002663Y027132D02*
X001836Y027132D01*
X001836Y027131D02*
X002663Y027131D01*
X002663Y027130D02*
X001836Y027130D01*
X001836Y027129D02*
X002663Y027129D01*
X002663Y027128D02*
X001836Y027128D01*
X001836Y027127D02*
X002663Y027127D01*
X002663Y027126D02*
X001836Y027126D01*
X001836Y027125D02*
X002663Y027125D01*
X002663Y027124D02*
X001836Y027124D01*
X001836Y027123D02*
X002663Y027123D01*
X002663Y027122D02*
X001836Y027122D01*
X001836Y027121D02*
X002663Y027121D01*
X002663Y027120D02*
X001836Y027120D01*
X001836Y027119D02*
X002663Y027119D01*
X002663Y027118D02*
X001836Y027118D01*
X001836Y027117D02*
X002663Y027117D01*
X002663Y027116D02*
X001836Y027116D01*
X001836Y027115D02*
X002663Y027115D01*
X002663Y027114D02*
X001836Y027114D01*
X001836Y027113D02*
X002663Y027113D01*
X002663Y027112D02*
X001836Y027112D01*
X001836Y027111D02*
X002663Y027111D01*
X002663Y027110D02*
X001836Y027110D01*
X001836Y027109D02*
X002663Y027109D01*
X002663Y027108D02*
X001836Y027108D01*
X001836Y027107D02*
X002663Y027107D01*
X002663Y027106D02*
X001836Y027106D01*
X001836Y027105D02*
X002663Y027105D01*
X002663Y027104D02*
X001836Y027104D01*
X001836Y027103D02*
X002663Y027103D01*
X002663Y027102D02*
X001836Y027102D01*
X001836Y027101D02*
X002663Y027101D01*
X002663Y027100D02*
X001836Y027100D01*
X001836Y027099D02*
X002663Y027099D01*
X002663Y027098D02*
X001836Y027098D01*
X001836Y027097D02*
X002663Y027097D01*
X002663Y027096D02*
X001836Y027096D01*
X001836Y027095D02*
X002663Y027095D01*
X002663Y027094D02*
X001836Y027094D01*
X001836Y027093D02*
X002663Y027093D01*
X002663Y027092D02*
X001836Y027092D01*
X001836Y027091D02*
X002663Y027091D01*
X002663Y027090D02*
X001836Y027090D01*
X001836Y027089D02*
X002663Y027089D01*
X002663Y027088D02*
X001836Y027088D01*
X001836Y027087D02*
X002663Y027087D01*
X002663Y027086D02*
X001836Y027086D01*
X001836Y027085D02*
X002663Y027085D01*
X002663Y027084D02*
X001836Y027084D01*
X001836Y027083D02*
X002663Y027083D01*
X002663Y027082D02*
X001836Y027082D01*
X001836Y027081D02*
X002663Y027081D01*
X002663Y027080D02*
X001836Y027080D01*
X001836Y027079D02*
X002663Y027079D01*
X002663Y027078D02*
X001836Y027078D01*
X001836Y027077D02*
X002663Y027077D01*
X002663Y027076D02*
X001836Y027076D01*
X001836Y027075D02*
X002663Y027075D01*
X002663Y027074D02*
X001836Y027074D01*
X001836Y027073D02*
X002663Y027073D01*
X002663Y027072D02*
X001836Y027072D01*
X001836Y027071D02*
X002663Y027071D01*
X002663Y027070D02*
X001836Y027070D01*
X001836Y027069D02*
X002663Y027069D01*
X002663Y027068D02*
X001836Y027068D01*
X001836Y027067D02*
X002663Y027067D01*
X002663Y027066D02*
X001836Y027066D01*
X001836Y027065D02*
X002663Y027065D01*
X002663Y027064D02*
X001836Y027064D01*
X001836Y027063D02*
X002663Y027063D01*
X002663Y027062D02*
X001836Y027062D01*
X001836Y027061D02*
X002663Y027061D01*
X002663Y027060D02*
X001836Y027060D01*
X001836Y027059D02*
X002663Y027059D01*
X002663Y027058D02*
X001836Y027058D01*
X001836Y027057D02*
X002663Y027057D01*
X002663Y027056D02*
X001836Y027056D01*
X001836Y027055D02*
X002663Y027055D01*
X002663Y027054D02*
X001836Y027054D01*
X001836Y027053D02*
X002663Y027053D01*
X002663Y027052D02*
X001836Y027052D01*
X001836Y027051D02*
X002663Y027051D01*
X002663Y027050D02*
X001836Y027050D01*
X001836Y027049D02*
X002663Y027049D01*
X002663Y027048D02*
X001836Y027048D01*
X001836Y027047D02*
X002663Y027047D01*
X002663Y027046D02*
X001836Y027046D01*
X001836Y027045D02*
X002663Y027045D01*
X002663Y027044D02*
X001836Y027044D01*
X001836Y027043D02*
X002663Y027043D01*
X002663Y027042D02*
X001836Y027042D01*
X001836Y027041D02*
X002663Y027041D01*
X002663Y027040D02*
X001836Y027040D01*
X001836Y027039D02*
X002663Y027039D01*
X002663Y027038D02*
X001836Y027038D01*
X001836Y027037D02*
X002663Y027037D01*
X002663Y027036D02*
X001836Y027036D01*
X001836Y027035D02*
X002663Y027035D01*
X002663Y027034D02*
X001836Y027034D01*
X001836Y027033D02*
X002663Y027033D01*
X002663Y027032D02*
X001836Y027032D01*
X001836Y027031D02*
X002663Y027031D01*
X002663Y027030D02*
X001836Y027030D01*
X001836Y027029D02*
X002663Y027029D01*
X002663Y027028D02*
X001836Y027028D01*
X001836Y027027D02*
X002663Y027027D01*
X002663Y027026D02*
X001836Y027026D01*
X001836Y027025D02*
X002663Y027025D01*
X002663Y027024D02*
X001836Y027024D01*
X001836Y027023D02*
X002663Y027023D01*
X002663Y027022D02*
X001836Y027022D01*
X001836Y027021D02*
X002663Y027021D01*
X002663Y027020D02*
X001836Y027020D01*
X001836Y027019D02*
X002663Y027019D01*
X002663Y027018D02*
X001836Y027018D01*
X001836Y027017D02*
X002663Y027017D01*
X002663Y027016D02*
X001836Y027016D01*
X001836Y027015D02*
X002663Y027015D01*
X002663Y027014D02*
X001836Y027014D01*
X001836Y027013D02*
X002663Y027013D01*
X002663Y027012D02*
X001836Y027012D01*
X001836Y027011D02*
X002663Y027011D01*
X002663Y027010D02*
X001836Y027010D01*
X001836Y027009D02*
X002663Y027009D01*
X002663Y027008D02*
X001836Y027008D01*
X001836Y027007D02*
X002663Y027007D01*
X002663Y027006D02*
X001836Y027006D01*
X001836Y027005D02*
X002663Y027005D01*
X002663Y027004D02*
X001836Y027004D01*
X001836Y027003D02*
X002663Y027003D01*
X002663Y027002D02*
X001836Y027002D01*
X001836Y027001D02*
X002663Y027001D01*
X002663Y027000D02*
X001836Y027000D01*
X001836Y026999D02*
X002663Y026999D01*
X002663Y026998D02*
X001836Y026998D01*
X001836Y026997D02*
X002663Y026997D01*
X002663Y026996D02*
X001836Y026996D01*
X001836Y026995D02*
X002663Y026995D01*
X002663Y026994D02*
X001836Y026994D01*
X001836Y026993D02*
X002663Y026993D01*
X002663Y026992D02*
X001836Y026992D01*
X001836Y026991D02*
X002663Y026991D01*
X002663Y026990D02*
X001836Y026990D01*
X001836Y026989D02*
X002663Y026989D01*
X002663Y026988D02*
X001836Y026988D01*
X001836Y026987D02*
X002663Y026987D01*
X002663Y026986D02*
X001836Y026986D01*
X001836Y026985D02*
X002663Y026985D01*
X002663Y026984D02*
X001836Y026984D01*
X001836Y026983D02*
X002663Y026983D01*
X002663Y026982D02*
X001836Y026982D01*
X001836Y026981D02*
X002663Y026981D01*
X002663Y026980D02*
X001836Y026980D01*
X001836Y026979D02*
X002663Y026979D01*
X002663Y026978D02*
X001836Y026978D01*
X001836Y026977D02*
X002663Y026977D01*
X002663Y026976D02*
X001836Y026976D01*
X001836Y026975D02*
X002663Y026975D01*
X002663Y026974D02*
X001836Y026974D01*
X001836Y026973D02*
X002663Y026973D01*
X002663Y026972D02*
X001836Y026972D01*
X001836Y026971D02*
X002663Y026971D01*
X002663Y026970D02*
X001836Y026970D01*
X001836Y026969D02*
X002663Y026969D01*
X002663Y026968D02*
X001836Y026968D01*
X001836Y026967D02*
X002663Y026967D01*
X002663Y026966D02*
X001836Y026966D01*
X001836Y026965D02*
X002663Y026965D01*
X002663Y026964D02*
X001836Y026964D01*
X001836Y026963D02*
X002663Y026963D01*
X002663Y026962D02*
X001836Y026962D01*
X001836Y026961D02*
X002663Y026961D01*
X002663Y026960D02*
X001836Y026960D01*
X001836Y026959D02*
X002663Y026959D01*
X002663Y026958D02*
X001836Y026958D01*
X001836Y026957D02*
X002663Y026957D01*
X002663Y026956D02*
X001836Y026956D01*
X001836Y026955D02*
X002663Y026955D01*
X002663Y026954D02*
X001836Y026954D01*
X001836Y026953D02*
X002663Y026953D01*
X002663Y026952D02*
X001836Y026952D01*
X001836Y026951D02*
X002663Y026951D01*
X002663Y026950D02*
X001836Y026950D01*
X001836Y026949D02*
X002663Y026949D01*
X002663Y026948D02*
X001836Y026948D01*
X001836Y026947D02*
X002663Y026947D01*
X002663Y026946D02*
X001836Y026946D01*
X001836Y026945D02*
X002663Y026945D01*
X002663Y026944D02*
X001836Y026944D01*
X001836Y026943D02*
X002663Y026943D01*
X002663Y026942D02*
X001836Y026942D01*
X001836Y026941D02*
X002663Y026941D01*
X002663Y026940D02*
X001836Y026940D01*
X001836Y026939D02*
X002663Y026939D01*
X002663Y026938D02*
X001836Y026938D01*
X001836Y026937D02*
X002663Y026937D01*
X002663Y026936D02*
X001836Y026936D01*
X001836Y026935D02*
X002663Y026935D01*
X002663Y026934D02*
X001836Y026934D01*
X001836Y026933D02*
X002663Y026933D01*
X002663Y026932D02*
X001836Y026932D01*
X001836Y026931D02*
X002663Y026931D01*
X002663Y026930D02*
X001836Y026930D01*
X001836Y026929D02*
X002663Y026929D01*
X002663Y026928D02*
X001836Y026928D01*
X001836Y026927D02*
X002663Y026927D01*
X002663Y026926D02*
X001836Y026926D01*
X001836Y026925D02*
X002663Y026925D01*
X002663Y026924D02*
X001836Y026924D01*
X001836Y026923D02*
X002663Y026923D01*
X002663Y026922D02*
X001836Y026922D01*
X001836Y026921D02*
X002663Y026921D01*
X002663Y026920D02*
X001836Y026920D01*
X001836Y026919D02*
X002663Y026919D01*
X002663Y026918D02*
X001836Y026918D01*
X001836Y026917D02*
X002663Y026917D01*
X002663Y026916D02*
X001836Y026916D01*
X001836Y026915D02*
X002663Y026915D01*
X002663Y026914D02*
X001836Y026914D01*
X001836Y026913D02*
X002663Y026913D01*
X002663Y026912D02*
X001836Y026912D01*
X001836Y026911D02*
X002663Y026911D01*
X002663Y026910D02*
X001836Y026910D01*
X001836Y026909D02*
X002663Y026909D01*
X002663Y026908D02*
X001836Y026908D01*
X001836Y026907D02*
X002663Y026907D01*
X002663Y026906D02*
X001836Y026906D01*
X001836Y026905D02*
X002663Y026905D01*
X002663Y026904D02*
X001836Y026904D01*
X001836Y026903D02*
X002663Y026903D01*
X002663Y026902D02*
X001836Y026902D01*
X001836Y026901D02*
X002663Y026901D01*
X002663Y026900D02*
X001836Y026900D01*
X001836Y026899D02*
X002663Y026899D01*
X002663Y026898D02*
X001836Y026898D01*
X001836Y026897D02*
X002663Y026897D01*
X002663Y026896D02*
X001836Y026896D01*
X001836Y026895D02*
X002663Y026895D01*
X002663Y026894D02*
X001836Y026894D01*
X001836Y026893D02*
X002663Y026893D01*
X002663Y026892D02*
X001836Y026892D01*
X001836Y026891D02*
X002663Y026891D01*
X002663Y026890D02*
X001836Y026890D01*
X001836Y026889D02*
X002663Y026889D01*
X002663Y026888D02*
X001836Y026888D01*
X001836Y026887D02*
X002663Y026887D01*
X002663Y026886D02*
X001836Y026886D01*
X001836Y026885D02*
X002663Y026885D01*
X002663Y026884D02*
X001836Y026884D01*
X001836Y026883D02*
X002663Y026883D01*
X002663Y026882D02*
X001836Y026882D01*
X001836Y026881D02*
X002663Y026881D01*
X002663Y026880D02*
X001836Y026880D01*
X001836Y026879D02*
X002663Y026879D01*
X002663Y026878D02*
X001836Y026878D01*
X001836Y026877D02*
X002663Y026877D01*
X002663Y026876D02*
X001836Y026876D01*
X001836Y026875D02*
X002663Y026875D01*
X002663Y026874D02*
X001836Y026874D01*
X001836Y026873D02*
X002663Y026873D01*
X002663Y026872D02*
X001836Y026872D01*
X001836Y026871D02*
X002663Y026871D01*
X002663Y026870D02*
X001836Y026870D01*
X001836Y026869D02*
X002663Y026869D01*
X002663Y026868D02*
X001836Y026868D01*
X001836Y026867D02*
X002663Y026867D01*
X002663Y026866D02*
X001836Y026866D01*
X001836Y026865D02*
X002663Y026865D01*
X002663Y026864D02*
X001836Y026864D01*
X001836Y026863D02*
X002663Y026863D01*
X002663Y026862D02*
X001836Y026862D01*
X001836Y026861D02*
X002663Y026861D01*
X002663Y026860D02*
X001836Y026860D01*
X001836Y026859D02*
X002663Y026859D01*
X002663Y026858D02*
X001836Y026858D01*
X001836Y026857D02*
X002663Y026857D01*
X002663Y026856D02*
X001836Y026856D01*
X001836Y026855D02*
X002663Y026855D01*
X002663Y026854D02*
X001836Y026854D01*
X001836Y026853D02*
X002663Y026853D01*
X002663Y026852D02*
X001836Y026852D01*
X001836Y026851D02*
X002663Y026851D01*
X002663Y026850D02*
X001836Y026850D01*
X001836Y026849D02*
X002663Y026849D01*
X002663Y026848D02*
X001836Y026848D01*
X001836Y026847D02*
X002663Y026847D01*
X002663Y026846D02*
X001836Y026846D01*
X001836Y026845D02*
X002663Y026845D01*
X002663Y026844D02*
X001836Y026844D01*
X001836Y026843D02*
X002663Y026843D01*
X002663Y026842D02*
X001836Y026842D01*
X001836Y026841D02*
X002663Y026841D01*
X002663Y026840D02*
X001836Y026840D01*
X001836Y026839D02*
X002663Y026839D01*
X002663Y026838D02*
X001836Y026838D01*
X001836Y026837D02*
X002663Y026837D01*
X002663Y026836D02*
X001836Y026836D01*
X001836Y026835D02*
X002663Y026835D01*
X002663Y026834D02*
X001836Y026834D01*
X001836Y026833D02*
X002663Y026833D01*
X002663Y026832D02*
X001836Y026832D01*
X001836Y026831D02*
X002663Y026831D01*
X002663Y026830D02*
X001836Y026830D01*
X001836Y026829D02*
X002663Y026829D01*
X002663Y026828D02*
X001836Y026828D01*
X001836Y026827D02*
X002663Y026827D01*
X002663Y026826D02*
X001836Y026826D01*
X001836Y026825D02*
X002663Y026825D01*
X002663Y026824D02*
X001836Y026824D01*
X001836Y026823D02*
X002663Y026823D01*
X002663Y026822D02*
X001836Y026822D01*
X001836Y026821D02*
X002663Y026821D01*
X002663Y026820D02*
X001836Y026820D01*
X001836Y026819D02*
X002663Y026819D01*
X002663Y026818D02*
X001836Y026818D01*
X001836Y026817D02*
X002663Y026817D01*
X002663Y026816D02*
X001836Y026816D01*
X001836Y026815D02*
X002663Y026815D01*
X002663Y026814D02*
X001836Y026814D01*
X001836Y026813D02*
X002663Y026813D01*
X002663Y026812D02*
X001836Y026812D01*
X001836Y026811D02*
X002663Y026811D01*
X002663Y026810D02*
X001836Y026810D01*
X001836Y026809D02*
X002663Y026809D01*
X002663Y026808D02*
X001836Y026808D01*
X001836Y026807D02*
X002663Y026807D01*
X002663Y026806D02*
X001836Y026806D01*
X001836Y026805D02*
X002663Y026805D01*
X002663Y026804D02*
X001836Y026804D01*
X001836Y026803D02*
X002663Y026803D01*
X002663Y026802D02*
X001836Y026802D01*
X001836Y026801D02*
X002663Y026801D01*
X002663Y026800D02*
X001836Y026800D01*
X001836Y026799D02*
X002663Y026799D01*
X002663Y026798D02*
X001836Y026798D01*
X001836Y026797D02*
X002663Y026797D01*
X002663Y026796D02*
X001836Y026796D01*
X001836Y026795D02*
X002663Y026795D01*
X002663Y026794D02*
X001836Y026794D01*
X001836Y026793D02*
X002663Y026793D01*
X002663Y026792D02*
X001836Y026792D01*
X001836Y026791D02*
X002663Y026791D01*
X002663Y026790D02*
X001836Y026790D01*
X001836Y026789D02*
X002663Y026789D01*
X002663Y026788D02*
X001836Y026788D01*
X001836Y026787D02*
X002663Y026787D01*
X002663Y026786D02*
X001836Y026786D01*
X001836Y026785D02*
X002663Y026785D01*
X002663Y026784D02*
X001836Y026784D01*
X001836Y026783D02*
X002663Y026783D01*
X002663Y026782D02*
X001836Y026782D01*
X001836Y026781D02*
X002663Y026781D01*
X002663Y026780D02*
X001836Y026780D01*
X001836Y026779D02*
X002663Y026779D01*
X002663Y026778D02*
X001836Y026778D01*
X001836Y026777D02*
X002663Y026777D01*
X002663Y026776D02*
X001836Y026776D01*
X001836Y026775D02*
X002663Y026775D01*
X002663Y026774D02*
X001836Y026774D01*
X001836Y026773D02*
X002663Y026773D01*
X002663Y026772D02*
X001836Y026772D01*
X001836Y026771D02*
X002663Y026771D01*
X002663Y026770D02*
X001836Y026770D01*
X001836Y026769D02*
X002663Y026769D01*
X002663Y026768D02*
X001836Y026768D01*
X001836Y026767D02*
X002663Y026767D01*
X002663Y026766D02*
X001836Y026766D01*
X001836Y026765D02*
X002663Y026765D01*
X002663Y026764D02*
X001836Y026764D01*
X001836Y026763D02*
X002663Y026763D01*
X002663Y026762D02*
X001836Y026762D01*
X001836Y026761D02*
X002663Y026761D01*
X002663Y026760D02*
X001836Y026760D01*
X001836Y026759D02*
X002663Y026759D01*
X002663Y026758D02*
X001836Y026758D01*
X001836Y026757D02*
X002663Y026757D01*
X002663Y026756D02*
X001836Y026756D01*
X001836Y026755D02*
X002663Y026755D01*
X002663Y026754D02*
X001836Y026754D01*
X001836Y026753D02*
X002663Y026753D01*
X002663Y026752D02*
X001836Y026752D01*
X001836Y026751D02*
X002663Y026751D01*
X002663Y026750D02*
X001836Y026750D01*
X001836Y026749D02*
X002663Y026749D01*
X002663Y026748D02*
X001836Y026748D01*
X001836Y026747D02*
X002663Y026747D01*
X002663Y026746D02*
X001836Y026746D01*
X001836Y026745D02*
X002663Y026745D01*
X002663Y026744D02*
X001836Y026744D01*
X001836Y026743D02*
X002663Y026743D01*
X002663Y026742D02*
X001836Y026742D01*
X001836Y026741D02*
X002663Y026741D01*
X002663Y026740D02*
X001836Y026740D01*
X001836Y026739D02*
X002663Y026739D01*
X002663Y026738D02*
X001836Y026738D01*
X001836Y026737D02*
X002663Y026737D01*
X002663Y026736D02*
X001836Y026736D01*
X001836Y026735D02*
X002663Y026735D01*
X002663Y026734D02*
X001836Y026734D01*
X001836Y026733D02*
X002663Y026733D01*
X002663Y026732D02*
X001836Y026732D01*
X001836Y026731D02*
X002663Y026731D01*
X002663Y026730D02*
X001836Y026730D01*
X001836Y026729D02*
X002663Y026729D01*
X002663Y026728D02*
X001836Y026728D01*
X001836Y026727D02*
X002663Y026727D01*
X002663Y026726D02*
X001836Y026726D01*
X001836Y026725D02*
X002663Y026725D01*
X002663Y026724D02*
X001836Y026724D01*
X001836Y026723D02*
X002663Y026723D01*
X002663Y026722D02*
X001836Y026722D01*
X001836Y026721D02*
X002663Y026721D01*
X002663Y026720D02*
X001836Y026720D01*
X001836Y026719D02*
X002663Y026719D01*
X002663Y026718D02*
X001836Y026718D01*
X001836Y026717D02*
X002663Y026717D01*
X002663Y026716D02*
X001836Y026716D01*
X001836Y026715D02*
X002663Y026715D01*
X002663Y026714D02*
X001836Y026714D01*
X001836Y026713D02*
X002663Y026713D01*
X002663Y026712D02*
X001836Y026712D01*
X001836Y026711D02*
X002663Y026711D01*
X002663Y026710D02*
X001836Y026710D01*
X001836Y026709D02*
X002663Y026709D01*
X002663Y026708D02*
X001836Y026708D01*
X001836Y026707D02*
X002663Y026707D01*
X002663Y026706D02*
X001836Y026706D01*
X001836Y026705D02*
X002663Y026705D01*
X002663Y026704D02*
X001836Y026704D01*
X001836Y026703D02*
X002663Y026703D01*
X002663Y026702D02*
X001836Y026702D01*
X001836Y026701D02*
X002663Y026701D01*
X002663Y026700D02*
X001836Y026700D01*
X001836Y026699D02*
X002663Y026699D01*
X002663Y026698D02*
X001836Y026698D01*
X001836Y026697D02*
X002663Y026697D01*
X002663Y026696D02*
X001836Y026696D01*
X001836Y026695D02*
X002663Y026695D01*
X002663Y026694D02*
X001836Y026694D01*
X001836Y026693D02*
X002663Y026693D01*
X002663Y026692D02*
X001836Y026692D01*
X001836Y026691D02*
X002663Y026691D01*
X002663Y026690D02*
X001836Y026690D01*
X001836Y026689D02*
X002663Y026689D01*
X002663Y026688D02*
X001836Y026688D01*
X001836Y026687D02*
X002663Y026687D01*
X002663Y026686D02*
X001836Y026686D01*
X001836Y026685D02*
X002663Y026685D01*
X002663Y026684D02*
X001836Y026684D01*
X001836Y026683D02*
X002663Y026683D01*
X002663Y026682D02*
X001836Y026682D01*
X001836Y026681D02*
X002663Y026681D01*
X002663Y026680D02*
X001836Y026680D01*
X001836Y026679D02*
X002663Y026679D01*
X002663Y026678D02*
X001836Y026678D01*
X001836Y026677D02*
X002663Y026677D01*
X002663Y026676D02*
X001836Y026676D01*
X001836Y026675D02*
X002663Y026675D01*
X002663Y026674D02*
X001836Y026674D01*
X001836Y026673D02*
X002663Y026673D01*
X002663Y026672D02*
X001836Y026672D01*
X001836Y026671D02*
X002663Y026671D01*
X002663Y026670D02*
X001836Y026670D01*
X001836Y026669D02*
X002663Y026669D01*
X002663Y026668D02*
X001836Y026668D01*
X001836Y026667D02*
X002663Y026667D01*
X002663Y026666D02*
X001836Y026666D01*
X001836Y026665D02*
X002663Y026665D01*
X002663Y026664D02*
X001836Y026664D01*
X001836Y026663D02*
X002663Y026663D01*
X002663Y026662D02*
X001836Y026662D01*
X001836Y026661D02*
X002663Y026661D01*
X002663Y026660D02*
X001836Y026660D01*
X001836Y026659D02*
X002663Y026659D01*
X002663Y026658D02*
X001836Y026658D01*
X001836Y026657D02*
X002663Y026657D01*
X002663Y026656D02*
X001836Y026656D01*
X001836Y026655D02*
X002663Y026655D01*
X002663Y026654D02*
X001836Y026654D01*
X001836Y026653D02*
X002663Y026653D01*
X002663Y026652D02*
X001836Y026652D01*
X001836Y026651D02*
X002663Y026651D01*
X002663Y026650D02*
X001836Y026650D01*
X001836Y026649D02*
X002663Y026649D01*
X002663Y026648D02*
X001836Y026648D01*
X001836Y026647D02*
X002663Y026647D01*
X002663Y026646D02*
X001836Y026646D01*
X001836Y026645D02*
X002663Y026645D01*
X002663Y026644D02*
X001836Y026644D01*
X001836Y026643D02*
X002663Y026643D01*
X002663Y026642D02*
X001836Y026642D01*
X001836Y026641D02*
X002663Y026641D01*
X002663Y026640D02*
X001836Y026640D01*
X001836Y026639D02*
X002663Y026639D01*
X002663Y026638D02*
X001836Y026638D01*
X001836Y026637D02*
X002663Y026637D01*
X002663Y026636D02*
X001836Y026636D01*
X001836Y026635D02*
X002663Y026635D01*
X002663Y026634D02*
X001836Y026634D01*
X001836Y026633D02*
X002663Y026633D01*
X002663Y026632D02*
X001836Y026632D01*
X001836Y026631D02*
X002663Y026631D01*
X002663Y026630D02*
X001836Y026630D01*
X001836Y026629D02*
X002663Y026629D01*
X002663Y026628D02*
X001836Y026628D01*
X001836Y026627D02*
X002663Y026627D01*
X002663Y026626D02*
X001836Y026626D01*
X001836Y026625D02*
X002663Y026625D01*
X002663Y026624D02*
X001836Y026624D01*
X001836Y026623D02*
X002663Y026623D01*
X002663Y026622D02*
X001836Y026622D01*
X001836Y026621D02*
X002663Y026621D01*
X002663Y026620D02*
X001836Y026620D01*
X001836Y026619D02*
X002663Y026619D01*
X002663Y026618D02*
X001836Y026618D01*
X001836Y026617D02*
X002663Y026617D01*
X002663Y026616D02*
X001836Y026616D01*
X001836Y026615D02*
X002663Y026615D01*
X002663Y026614D02*
X001836Y026614D01*
X001836Y026613D02*
X002663Y026613D01*
X002663Y026612D02*
X001836Y026612D01*
X001836Y026611D02*
X002663Y026611D01*
X002663Y026610D02*
X001836Y026610D01*
X001836Y026609D02*
X002663Y026609D01*
X002663Y026608D02*
X001836Y026608D01*
X001836Y026607D02*
X002663Y026607D01*
X002663Y026606D02*
X001836Y026606D01*
X001836Y026605D02*
X002663Y026605D01*
X002663Y026604D02*
X001836Y026604D01*
X001836Y026603D02*
X002663Y026603D01*
X002663Y026602D02*
X001836Y026602D01*
X001836Y026601D02*
X002663Y026601D01*
X002663Y026600D02*
X001836Y026600D01*
X001836Y026599D02*
X002663Y026599D01*
X002663Y026598D02*
X001836Y026598D01*
X001836Y026597D02*
X002663Y026597D01*
X002663Y026596D02*
X001836Y026596D01*
X001836Y026595D02*
X002663Y026595D01*
X002663Y026594D02*
X001836Y026594D01*
X001836Y026593D02*
X002663Y026593D01*
X002663Y026592D02*
X001836Y026592D01*
X001836Y026591D02*
X002663Y026591D01*
X002663Y026590D02*
X001836Y026590D01*
X001836Y026589D02*
X002663Y026589D01*
X002663Y026588D02*
X001836Y026588D01*
X001836Y026587D02*
X002663Y026587D01*
X002663Y026586D02*
X001836Y026586D01*
X001836Y026585D02*
X002663Y026585D01*
X002663Y026584D02*
X001836Y026584D01*
X001836Y026583D02*
X002663Y026583D01*
X002663Y026582D02*
X001836Y026582D01*
X001836Y026581D02*
X002663Y026581D01*
X002663Y026580D02*
X001836Y026580D01*
X001836Y026579D02*
X002663Y026579D01*
X002663Y026578D02*
X001836Y026578D01*
X001836Y020829D02*
X002112Y020829D01*
X002112Y020828D02*
X001836Y020828D01*
X001836Y020827D02*
X002112Y020827D01*
X002112Y020826D02*
X001836Y020826D01*
X001836Y020825D02*
X002112Y020825D01*
X002112Y020824D02*
X001836Y020824D01*
X001836Y020823D02*
X002112Y020823D01*
X002112Y020822D02*
X001836Y020822D01*
X001836Y020821D02*
X002112Y020821D01*
X002112Y020820D02*
X001836Y020820D01*
X001836Y020819D02*
X002112Y020819D01*
X002112Y020818D02*
X001836Y020818D01*
X001836Y020817D02*
X002112Y020817D01*
X002112Y020816D02*
X001836Y020816D01*
X001836Y020815D02*
X002112Y020815D01*
X002112Y020814D02*
X001836Y020814D01*
X001836Y020813D02*
X002112Y020813D01*
X002112Y020812D02*
X001836Y020812D01*
X001836Y020811D02*
X002112Y020811D01*
X002112Y020810D02*
X001836Y020810D01*
X001836Y020809D02*
X002112Y020809D01*
X002112Y020808D02*
X001836Y020808D01*
X001836Y020807D02*
X002112Y020807D01*
X002112Y020806D02*
X001836Y020806D01*
X001836Y020805D02*
X002112Y020805D01*
X002112Y020804D02*
X001836Y020804D01*
X001836Y020803D02*
X002112Y020803D01*
X002112Y020802D02*
X001836Y020802D01*
X001836Y020801D02*
X002112Y020801D01*
X002112Y020800D02*
X001836Y020800D01*
X001836Y020799D02*
X002112Y020799D01*
X002112Y020798D02*
X001836Y020798D01*
X001836Y020797D02*
X002112Y020797D01*
X002112Y020796D02*
X001836Y020796D01*
X001836Y020795D02*
X002112Y020795D01*
X002112Y020794D02*
X001836Y020794D01*
X001836Y020793D02*
X002112Y020793D01*
X002112Y020792D02*
X001836Y020792D01*
X001836Y020791D02*
X002112Y020791D01*
X002112Y020790D02*
X001836Y020790D01*
X001836Y020789D02*
X002112Y020789D01*
X002112Y020788D02*
X001836Y020788D01*
X001836Y020787D02*
X002112Y020787D01*
X002112Y020786D02*
X001836Y020786D01*
X001836Y020785D02*
X002112Y020785D01*
X002112Y020784D02*
X001836Y020784D01*
X001836Y020783D02*
X002112Y020783D01*
X002112Y020782D02*
X001836Y020782D01*
X001836Y020781D02*
X002112Y020781D01*
X002112Y020780D02*
X001836Y020780D01*
X001836Y020779D02*
X002112Y020779D01*
X002112Y020778D02*
X001836Y020778D01*
X001836Y020777D02*
X002112Y020777D01*
X002112Y020776D02*
X001836Y020776D01*
X001836Y020775D02*
X002112Y020775D01*
X002112Y020774D02*
X001836Y020774D01*
X001836Y020773D02*
X002112Y020773D01*
X002112Y020772D02*
X001836Y020772D01*
X001836Y020771D02*
X002112Y020771D01*
X002112Y020770D02*
X001836Y020770D01*
X001836Y020769D02*
X002112Y020769D01*
X002112Y020768D02*
X001836Y020768D01*
X001836Y020767D02*
X002112Y020767D01*
X002112Y020766D02*
X001836Y020766D01*
X001836Y020765D02*
X002112Y020765D01*
X002112Y020764D02*
X001836Y020764D01*
X001836Y020763D02*
X002112Y020763D01*
X002112Y020762D02*
X001836Y020762D01*
X001836Y020761D02*
X002112Y020761D01*
X002112Y020760D02*
X001836Y020760D01*
X001836Y020759D02*
X002112Y020759D01*
X002112Y020758D02*
X001836Y020758D01*
X001836Y020757D02*
X002112Y020757D01*
X002112Y020756D02*
X001836Y020756D01*
X001836Y020755D02*
X002112Y020755D01*
X002112Y020754D02*
X001836Y020754D01*
X001836Y020753D02*
X002112Y020753D01*
X002112Y020752D02*
X001836Y020752D01*
X001836Y020751D02*
X002112Y020751D01*
X002112Y020750D02*
X001836Y020750D01*
X001836Y020749D02*
X002112Y020749D01*
X002112Y020748D02*
X001836Y020748D01*
X001836Y020747D02*
X002112Y020747D01*
X002112Y020746D02*
X001836Y020746D01*
X001836Y020745D02*
X002112Y020745D01*
X002112Y020744D02*
X001836Y020744D01*
X001836Y020743D02*
X002112Y020743D01*
X002112Y020742D02*
X001836Y020742D01*
X001836Y020741D02*
X002112Y020741D01*
X002112Y020740D02*
X001836Y020740D01*
X001836Y020739D02*
X002112Y020739D01*
X002112Y020738D02*
X001836Y020738D01*
X001836Y020737D02*
X002112Y020737D01*
X002112Y020736D02*
X001836Y020736D01*
X001836Y020735D02*
X002112Y020735D01*
X002112Y020734D02*
X001836Y020734D01*
X001836Y020733D02*
X002112Y020733D01*
X002112Y020732D02*
X001836Y020732D01*
X001836Y020731D02*
X002112Y020731D01*
X002112Y020730D02*
X001836Y020730D01*
X001836Y020729D02*
X002112Y020729D01*
X002112Y020728D02*
X001836Y020728D01*
X001836Y020727D02*
X002112Y020727D01*
X002112Y020726D02*
X001836Y020726D01*
X001836Y020725D02*
X002112Y020725D01*
X002112Y020724D02*
X001836Y020724D01*
X001836Y020723D02*
X002112Y020723D01*
X002112Y020722D02*
X001836Y020722D01*
X001836Y020721D02*
X002112Y020721D01*
X002112Y020720D02*
X001836Y020720D01*
X001836Y020719D02*
X002112Y020719D01*
X002112Y020718D02*
X001836Y020718D01*
X001836Y020717D02*
X002112Y020717D01*
X002112Y020716D02*
X001836Y020716D01*
X001836Y020715D02*
X002112Y020715D01*
X002112Y020714D02*
X001836Y020714D01*
X001836Y020713D02*
X002112Y020713D01*
X002112Y020712D02*
X001836Y020712D01*
X001836Y020711D02*
X002112Y020711D01*
X002112Y020710D02*
X001836Y020710D01*
X001836Y020709D02*
X002112Y020709D01*
X002112Y020708D02*
X001836Y020708D01*
X001836Y020707D02*
X002112Y020707D01*
X002112Y020706D02*
X001836Y020706D01*
X001836Y020705D02*
X002112Y020705D01*
X002112Y020704D02*
X001836Y020704D01*
X001836Y020703D02*
X002112Y020703D01*
X002112Y020702D02*
X001836Y020702D01*
X001836Y020701D02*
X002112Y020701D01*
X002112Y020700D02*
X001836Y020700D01*
X001836Y020699D02*
X002112Y020699D01*
X002112Y020698D02*
X001836Y020698D01*
X001836Y020697D02*
X002112Y020697D01*
X002112Y020696D02*
X001836Y020696D01*
X001836Y020695D02*
X002112Y020695D01*
X002112Y020694D02*
X001836Y020694D01*
X001836Y020693D02*
X002112Y020693D01*
X002112Y020692D02*
X001836Y020692D01*
X001836Y020691D02*
X002112Y020691D01*
X002112Y020690D02*
X001836Y020690D01*
X001836Y020689D02*
X002112Y020689D01*
X002112Y020688D02*
X001836Y020688D01*
X001836Y020687D02*
X002113Y020687D01*
X002113Y020686D02*
X001836Y020686D01*
X001836Y020685D02*
X002113Y020685D01*
X002113Y020684D02*
X001836Y020684D01*
X001836Y020683D02*
X002113Y020683D01*
X002113Y020682D02*
X001836Y020682D01*
X001836Y020681D02*
X002113Y020681D01*
X002114Y020680D02*
X001836Y020680D01*
X001836Y020679D02*
X002114Y020679D01*
X002114Y020678D02*
X001836Y020678D01*
X001836Y020677D02*
X002114Y020677D01*
X002114Y020676D02*
X001836Y020676D01*
X001836Y020675D02*
X002115Y020675D01*
X002115Y020674D02*
X001836Y020674D01*
X001836Y020673D02*
X002115Y020673D01*
X002116Y020672D02*
X001836Y020672D01*
X001836Y020671D02*
X002116Y020671D01*
X002117Y020670D02*
X001836Y020670D01*
X001836Y020669D02*
X002117Y020669D01*
X002117Y020668D02*
X001836Y020668D01*
X001836Y020667D02*
X002118Y020667D01*
X002118Y020666D02*
X001836Y020666D01*
X001836Y020665D02*
X002119Y020665D01*
X002119Y020664D02*
X001836Y020664D01*
X001836Y020663D02*
X002119Y020663D01*
X002120Y020662D02*
X001836Y020662D01*
X001836Y020661D02*
X002121Y020661D01*
X002121Y020660D02*
X001836Y020660D01*
X001836Y020659D02*
X002122Y020659D01*
X002123Y020658D02*
X001836Y020658D01*
X001836Y020657D02*
X002124Y020657D01*
X002124Y020656D02*
X001836Y020656D01*
X001836Y020655D02*
X002125Y020655D01*
X002126Y020654D02*
X001836Y020654D01*
X001836Y020653D02*
X002127Y020653D01*
X002128Y020652D02*
X001836Y020652D01*
X001836Y020651D02*
X002128Y020651D01*
X002129Y020650D02*
X001836Y020650D01*
X001836Y020649D02*
X002130Y020649D01*
X002131Y020648D02*
X001836Y020648D01*
X001836Y020647D02*
X002133Y020647D01*
X002134Y020646D02*
X001836Y020646D01*
X001836Y020645D02*
X002135Y020645D01*
X002137Y020644D02*
X001836Y020644D01*
X001836Y020643D02*
X002138Y020643D01*
X002139Y020642D02*
X001836Y020642D01*
X001836Y020641D02*
X002141Y020641D01*
X002142Y020640D02*
X001836Y020640D01*
X001836Y020639D02*
X002145Y020639D01*
X002147Y020638D02*
X001836Y020638D01*
X001836Y020637D02*
X002149Y020637D01*
X002152Y020636D02*
X001836Y020636D01*
X001836Y020635D02*
X002154Y020635D01*
X002158Y020634D02*
X001836Y020634D01*
X001836Y020633D02*
X002166Y020633D01*
X001836Y020632D02*
X002663Y020632D01*
X002663Y020631D02*
X001836Y020631D01*
X001836Y020630D02*
X002663Y020630D01*
X002663Y020629D02*
X001836Y020629D01*
X001836Y020628D02*
X002663Y020628D01*
X002663Y020627D02*
X001836Y020627D01*
X001836Y020626D02*
X002663Y020626D01*
X002663Y020625D02*
X001836Y020625D01*
X001836Y020624D02*
X002663Y020624D01*
X002663Y020623D02*
X001836Y020623D01*
X001836Y020622D02*
X002663Y020622D01*
X002663Y020621D02*
X001836Y020621D01*
X001836Y020620D02*
X002663Y020620D01*
X002663Y020619D02*
X001836Y020619D01*
X001836Y020618D02*
X002663Y020618D01*
X002663Y020617D02*
X001836Y020617D01*
X001836Y020616D02*
X002663Y020616D01*
X002663Y020615D02*
X001836Y020615D01*
X001836Y020614D02*
X002663Y020614D01*
X002663Y020613D02*
X001836Y020613D01*
X001836Y020612D02*
X002663Y020612D01*
X002663Y020611D02*
X001836Y020611D01*
X001836Y020610D02*
X002663Y020610D01*
X002663Y020609D02*
X001836Y020609D01*
X001836Y020608D02*
X002663Y020608D01*
X002663Y020607D02*
X001836Y020607D01*
X001836Y020606D02*
X002663Y020606D01*
X002663Y020605D02*
X001836Y020605D01*
X001836Y020604D02*
X002663Y020604D01*
X002663Y020603D02*
X001836Y020603D01*
X001836Y020602D02*
X002663Y020602D01*
X002663Y020601D02*
X001836Y020601D01*
X001836Y020600D02*
X002663Y020600D01*
X002663Y020599D02*
X001836Y020599D01*
X001836Y020598D02*
X002663Y020598D01*
X002663Y020597D02*
X001836Y020597D01*
X001836Y020596D02*
X002663Y020596D01*
X002663Y020595D02*
X001836Y020595D01*
X001836Y020594D02*
X002663Y020594D01*
X002663Y020593D02*
X001836Y020593D01*
X001836Y020592D02*
X002663Y020592D01*
X002663Y020591D02*
X001836Y020591D01*
X001836Y020590D02*
X002663Y020590D01*
X002663Y020589D02*
X001836Y020589D01*
X001836Y020588D02*
X002663Y020588D01*
X002663Y020587D02*
X001836Y020587D01*
X001836Y020586D02*
X002663Y020586D01*
X002663Y020585D02*
X001836Y020585D01*
X001836Y020584D02*
X002663Y020584D01*
X002663Y020583D02*
X001836Y020583D01*
X001836Y020582D02*
X002663Y020582D01*
X002663Y020581D02*
X001836Y020581D01*
X001836Y020580D02*
X002663Y020580D01*
X002663Y020579D02*
X001836Y020579D01*
X001836Y020578D02*
X002663Y020578D01*
X002663Y020577D02*
X001836Y020577D01*
X001836Y020576D02*
X002663Y020576D01*
X002663Y020575D02*
X001836Y020575D01*
X001836Y020574D02*
X002663Y020574D01*
X002663Y020573D02*
X001836Y020573D01*
X001836Y020572D02*
X002663Y020572D01*
X002663Y020571D02*
X001836Y020571D01*
X001836Y020570D02*
X002663Y020570D01*
X002663Y020569D02*
X001836Y020569D01*
X001836Y020568D02*
X002663Y020568D01*
X002663Y020567D02*
X001836Y020567D01*
X001836Y020566D02*
X002663Y020566D01*
X002663Y020565D02*
X001836Y020565D01*
X001836Y020564D02*
X002663Y020564D01*
X002663Y020563D02*
X001836Y020563D01*
X001836Y020562D02*
X002663Y020562D01*
X002663Y020561D02*
X001836Y020561D01*
X001836Y020560D02*
X002663Y020560D01*
X002663Y020559D02*
X001836Y020559D01*
X001836Y020558D02*
X002663Y020558D01*
X002663Y020557D02*
X001836Y020557D01*
X001836Y020556D02*
X002663Y020556D01*
X002663Y020555D02*
X001836Y020555D01*
X001836Y020554D02*
X002663Y020554D01*
X002663Y020553D02*
X001836Y020553D01*
X001836Y020552D02*
X002663Y020552D01*
X002663Y020551D02*
X001836Y020551D01*
X001836Y020550D02*
X002663Y020550D01*
X002663Y020549D02*
X001836Y020549D01*
X001836Y020548D02*
X002663Y020548D01*
X002663Y020547D02*
X001836Y020547D01*
X001836Y020546D02*
X002663Y020546D01*
X002663Y020545D02*
X001836Y020545D01*
X001836Y020544D02*
X002663Y020544D01*
X002663Y020543D02*
X001836Y020543D01*
X001836Y020542D02*
X002663Y020542D01*
X002663Y020541D02*
X001836Y020541D01*
X001836Y020540D02*
X002663Y020540D01*
X002663Y020539D02*
X001836Y020539D01*
X001836Y020538D02*
X002663Y020538D01*
X002663Y020537D02*
X001836Y020537D01*
X001836Y020536D02*
X002663Y020536D01*
X002663Y020535D02*
X001836Y020535D01*
X001836Y020534D02*
X002663Y020534D01*
X002663Y020533D02*
X001836Y020533D01*
X001836Y020532D02*
X002663Y020532D01*
X002663Y020531D02*
X001836Y020531D01*
X001836Y020530D02*
X002663Y020530D01*
X002663Y020529D02*
X001836Y020529D01*
X001836Y020528D02*
X002663Y020528D01*
X002663Y020527D02*
X001836Y020527D01*
X001836Y020526D02*
X002663Y020526D01*
X002663Y020525D02*
X001836Y020525D01*
X001836Y020524D02*
X002663Y020524D01*
X002663Y020523D02*
X001836Y020523D01*
X001836Y020522D02*
X002663Y020522D01*
X002663Y020521D02*
X001836Y020521D01*
X001836Y020520D02*
X002663Y020520D01*
X002663Y020519D02*
X001836Y020519D01*
X001836Y020518D02*
X002663Y020518D01*
X002663Y020517D02*
X001836Y020517D01*
X001836Y020516D02*
X002663Y020516D01*
X002663Y020515D02*
X001836Y020515D01*
X001836Y020514D02*
X002663Y020514D01*
X002663Y020513D02*
X001836Y020513D01*
X001836Y020512D02*
X002663Y020512D01*
X002663Y020511D02*
X001836Y020511D01*
X001836Y020510D02*
X002663Y020510D01*
X002663Y020509D02*
X001836Y020509D01*
X001836Y020508D02*
X002663Y020508D01*
X002663Y020507D02*
X001836Y020507D01*
X001836Y020506D02*
X002663Y020506D01*
X002663Y020505D02*
X001836Y020505D01*
X001836Y020504D02*
X002663Y020504D01*
X002663Y020503D02*
X001836Y020503D01*
X001836Y020502D02*
X002663Y020502D01*
X002663Y020501D02*
X001836Y020501D01*
X001836Y020500D02*
X002663Y020500D01*
X002663Y020499D02*
X001836Y020499D01*
X001836Y020498D02*
X002663Y020498D01*
X002663Y020497D02*
X001836Y020497D01*
X001836Y020496D02*
X002663Y020496D01*
X002663Y020495D02*
X001836Y020495D01*
X001836Y020494D02*
X002663Y020494D01*
X002663Y020493D02*
X001836Y020493D01*
X001836Y020492D02*
X002663Y020492D01*
X002663Y020491D02*
X001836Y020491D01*
X001836Y020490D02*
X002663Y020490D01*
X002663Y020489D02*
X001836Y020489D01*
X001836Y020488D02*
X002663Y020488D01*
X002663Y020487D02*
X001836Y020487D01*
X001836Y020486D02*
X002663Y020486D01*
X002663Y020485D02*
X001836Y020485D01*
X001836Y020484D02*
X002663Y020484D01*
X002663Y020483D02*
X001836Y020483D01*
X001836Y020482D02*
X002663Y020482D01*
X002663Y020481D02*
X001836Y020481D01*
X001836Y020480D02*
X002663Y020480D01*
X002663Y020479D02*
X001836Y020479D01*
X001836Y020478D02*
X002663Y020478D01*
X002663Y020477D02*
X001836Y020477D01*
X001836Y020476D02*
X002663Y020476D01*
X002663Y020475D02*
X001836Y020475D01*
X001836Y020474D02*
X002663Y020474D01*
X002663Y020473D02*
X001836Y020473D01*
X001836Y020472D02*
X002663Y020472D01*
X002663Y020471D02*
X001836Y020471D01*
X001836Y020470D02*
X002663Y020470D01*
X002663Y020469D02*
X001836Y020469D01*
X001836Y020468D02*
X002663Y020468D01*
X002663Y020467D02*
X001836Y020467D01*
X001836Y020466D02*
X002663Y020466D01*
X002663Y020465D02*
X001836Y020465D01*
X001836Y020464D02*
X002663Y020464D01*
X002663Y020463D02*
X001836Y020463D01*
X001836Y020462D02*
X002663Y020462D01*
X002663Y020461D02*
X001836Y020461D01*
X001836Y020460D02*
X002663Y020460D01*
X002663Y020459D02*
X001836Y020459D01*
X001836Y020458D02*
X002663Y020458D01*
X002663Y020457D02*
X001836Y020457D01*
X001836Y020456D02*
X002663Y020456D01*
X002663Y020455D02*
X001836Y020455D01*
X001836Y020454D02*
X002663Y020454D01*
X002663Y020453D02*
X001836Y020453D01*
X001836Y020452D02*
X002663Y020452D01*
X002663Y020451D02*
X001836Y020451D01*
X001836Y020450D02*
X002663Y020450D01*
X002663Y020449D02*
X001836Y020449D01*
X001836Y020448D02*
X002663Y020448D01*
X002663Y020447D02*
X001836Y020447D01*
X001836Y020446D02*
X002663Y020446D01*
X002663Y020445D02*
X001836Y020445D01*
X001836Y020444D02*
X002663Y020444D01*
X002663Y020443D02*
X001836Y020443D01*
X001836Y020442D02*
X002663Y020442D01*
X002663Y020441D02*
X001836Y020441D01*
X001836Y020440D02*
X002663Y020440D01*
X002663Y020439D02*
X001836Y020439D01*
X001836Y020438D02*
X002663Y020438D01*
X002663Y020437D02*
X001836Y020437D01*
X001836Y020436D02*
X002663Y020436D01*
X002663Y020435D02*
X001836Y020435D01*
X001836Y020434D02*
X002663Y020434D01*
X002663Y020433D02*
X001836Y020433D01*
X001836Y020432D02*
X002663Y020432D01*
X002663Y020431D02*
X001836Y020431D01*
X001836Y020430D02*
X002663Y020430D01*
X002663Y020429D02*
X001836Y020429D01*
X001836Y020428D02*
X002663Y020428D01*
X002663Y020427D02*
X001836Y020427D01*
X001836Y020426D02*
X002663Y020426D01*
X002663Y020425D02*
X001836Y020425D01*
X001836Y020424D02*
X002663Y020424D01*
X002663Y020423D02*
X001836Y020423D01*
X001836Y020422D02*
X002663Y020422D01*
X002663Y020421D02*
X001836Y020421D01*
X001836Y020420D02*
X002663Y020420D01*
X002663Y020419D02*
X001836Y020419D01*
X001836Y020418D02*
X002663Y020418D01*
X002663Y020417D02*
X001836Y020417D01*
X001836Y020416D02*
X002663Y020416D01*
X002663Y020415D02*
X001836Y020415D01*
X001836Y020414D02*
X002663Y020414D01*
X002663Y020413D02*
X001836Y020413D01*
X001836Y020412D02*
X002663Y020412D01*
X002663Y020411D02*
X001836Y020411D01*
X001836Y020410D02*
X002663Y020410D01*
X002663Y020409D02*
X001836Y020409D01*
X001836Y020408D02*
X002663Y020408D01*
X002663Y020407D02*
X001836Y020407D01*
X001836Y020406D02*
X002663Y020406D01*
X002663Y020405D02*
X001836Y020405D01*
X001836Y020404D02*
X002663Y020404D01*
X002663Y020403D02*
X001836Y020403D01*
X001836Y020402D02*
X002663Y020402D01*
X002663Y020401D02*
X001836Y020401D01*
X001836Y020400D02*
X002663Y020400D01*
X002663Y020399D02*
X001836Y020399D01*
X001836Y020398D02*
X002663Y020398D01*
X002663Y020397D02*
X001836Y020397D01*
X001836Y020396D02*
X002663Y020396D01*
X002663Y020395D02*
X001836Y020395D01*
X001836Y020394D02*
X002663Y020394D01*
X002663Y020393D02*
X001836Y020393D01*
X001836Y020392D02*
X002663Y020392D01*
X002663Y020391D02*
X001836Y020391D01*
X001836Y020390D02*
X002663Y020390D01*
X002663Y020389D02*
X001836Y020389D01*
X001836Y020388D02*
X002663Y020388D01*
X002663Y020387D02*
X001836Y020387D01*
X001836Y020386D02*
X002663Y020386D01*
X002663Y020385D02*
X001836Y020385D01*
X001836Y020384D02*
X002663Y020384D01*
X002663Y020383D02*
X001836Y020383D01*
X001836Y020382D02*
X002663Y020382D01*
X002663Y020381D02*
X001836Y020381D01*
X001836Y020380D02*
X002663Y020380D01*
X002663Y020379D02*
X001836Y020379D01*
X001836Y020378D02*
X002663Y020378D01*
X002663Y020377D02*
X001836Y020377D01*
X001836Y020376D02*
X002663Y020376D01*
X002663Y020375D02*
X001836Y020375D01*
X001836Y020374D02*
X002663Y020374D01*
X002663Y020373D02*
X001836Y020373D01*
X001836Y020372D02*
X002663Y020372D01*
X002663Y020371D02*
X001836Y020371D01*
X001836Y020370D02*
X002663Y020370D01*
X002663Y020369D02*
X001836Y020369D01*
X001836Y020368D02*
X002663Y020368D01*
X002663Y020367D02*
X001836Y020367D01*
X001836Y020366D02*
X002663Y020366D01*
X002663Y020365D02*
X001836Y020365D01*
X001836Y020364D02*
X002663Y020364D01*
X002663Y020363D02*
X001836Y020363D01*
X001836Y020362D02*
X002663Y020362D01*
X002663Y020361D02*
X001836Y020361D01*
X001836Y020360D02*
X002663Y020360D01*
X002663Y020359D02*
X001836Y020359D01*
X001836Y020358D02*
X002663Y020358D01*
X002663Y020357D02*
X001836Y020357D01*
X001836Y020356D02*
X002663Y020356D01*
X002663Y020355D02*
X001836Y020355D01*
X001836Y020354D02*
X002663Y020354D01*
X002663Y020353D02*
X001836Y020353D01*
X002663Y020353D01*
X002663Y020352D02*
X001836Y020352D01*
X001836Y020351D02*
X002663Y020351D01*
X002663Y020350D02*
X001836Y020350D01*
X001836Y020349D02*
X002663Y020349D01*
X002663Y020348D02*
X001836Y020348D01*
X001836Y020347D02*
X002663Y020347D01*
X002663Y020346D02*
X001836Y020346D01*
X001836Y020345D02*
X002663Y020345D01*
X002663Y020344D02*
X001836Y020344D01*
X001836Y020343D02*
X002663Y020343D01*
X002663Y020342D02*
X001836Y020342D01*
X001836Y020341D02*
X002663Y020341D01*
X002663Y020340D02*
X001836Y020340D01*
X001836Y020339D02*
X002663Y020339D01*
X002663Y020338D02*
X001836Y020338D01*
X001836Y020337D02*
X002663Y020337D01*
X002663Y020336D02*
X001836Y020336D01*
X001836Y020335D02*
X002663Y020335D01*
X002663Y020334D02*
X001836Y020334D01*
X001836Y020333D02*
X002663Y020333D01*
X002663Y020332D02*
X001836Y020332D01*
X001836Y020331D02*
X002663Y020331D01*
X002663Y020330D02*
X001836Y020330D01*
X001836Y020329D02*
X002663Y020329D01*
X002663Y020328D02*
X001836Y020328D01*
X001836Y020327D02*
X002663Y020327D01*
X002663Y020326D02*
X001836Y020326D01*
X001836Y020325D02*
X002663Y020325D01*
X002663Y020324D02*
X001836Y020324D01*
X001836Y020323D02*
X002663Y020323D01*
X002663Y020322D02*
X001836Y020322D01*
X001836Y020321D02*
X002663Y020321D01*
X002663Y020320D02*
X001836Y020320D01*
X001836Y020319D02*
X002663Y020319D01*
X002663Y020318D02*
X001836Y020318D01*
X001836Y020317D02*
X002663Y020317D01*
X002663Y020316D02*
X001836Y020316D01*
X001836Y020315D02*
X002663Y020315D01*
X002663Y020314D02*
X001836Y020314D01*
X001836Y020313D02*
X002663Y020313D01*
X002663Y020312D02*
X001836Y020312D01*
X001836Y020311D02*
X002663Y020311D01*
X002663Y020310D02*
X001836Y020310D01*
X001836Y020309D02*
X002663Y020309D01*
X002663Y020308D02*
X001836Y020308D01*
X001836Y020307D02*
X002663Y020307D01*
X002663Y020306D02*
X001836Y020306D01*
X001836Y020305D02*
X002663Y020305D01*
X002663Y020304D02*
X001836Y020304D01*
X001836Y020303D02*
X002663Y020303D01*
X002663Y020302D02*
X001836Y020302D01*
X001836Y020301D02*
X002663Y020301D01*
X002663Y020300D02*
X001836Y020300D01*
X001836Y020299D02*
X002663Y020299D01*
X002663Y020298D02*
X001836Y020298D01*
X001836Y020297D02*
X002663Y020297D01*
X002663Y020296D02*
X001836Y020296D01*
X001836Y020295D02*
X002663Y020295D01*
X002663Y020294D02*
X001836Y020294D01*
X001836Y020293D02*
X002663Y020293D01*
X002663Y020292D02*
X001836Y020292D01*
X001836Y020291D02*
X002663Y020291D01*
X002663Y020290D02*
X001836Y020290D01*
X001836Y020289D02*
X002663Y020289D01*
X002663Y020288D02*
X001836Y020288D01*
X001836Y020287D02*
X002663Y020287D01*
X002663Y020286D02*
X001836Y020286D01*
X001836Y020285D02*
X002663Y020285D01*
X002663Y020284D02*
X001836Y020284D01*
X001836Y020283D02*
X002663Y020283D01*
X002663Y020282D02*
X001836Y020282D01*
X001836Y020281D02*
X002663Y020281D01*
X002663Y020280D02*
X001836Y020280D01*
X001836Y020279D02*
X002663Y020279D01*
X002663Y020278D02*
X001836Y020278D01*
X001836Y020277D02*
X002663Y020277D01*
X002663Y020276D02*
X001836Y020276D01*
X001836Y020275D02*
X002663Y020275D01*
X002663Y020274D02*
X001836Y020274D01*
X001836Y020273D02*
X002663Y020273D01*
X002663Y020272D02*
X001836Y020272D01*
X001836Y020271D02*
X002663Y020271D01*
X002663Y020270D02*
X001836Y020270D01*
X001836Y020269D02*
X002663Y020269D01*
X002663Y020268D02*
X001836Y020268D01*
X001836Y020267D02*
X002663Y020267D01*
X002663Y020266D02*
X001836Y020266D01*
X001836Y020265D02*
X002663Y020265D01*
X002663Y020264D02*
X001836Y020264D01*
X001836Y020263D02*
X002663Y020263D01*
X002663Y020262D02*
X001836Y020262D01*
X001836Y020261D02*
X002663Y020261D01*
X002663Y020260D02*
X001836Y020260D01*
X001836Y020259D02*
X002663Y020259D01*
X002663Y020258D02*
X001836Y020258D01*
X001836Y020257D02*
X002663Y020257D01*
X002663Y020256D02*
X001836Y020256D01*
X001836Y020255D02*
X002663Y020255D01*
X002663Y020254D02*
X001836Y020254D01*
X001836Y020253D02*
X002663Y020253D01*
X002663Y020252D02*
X001836Y020252D01*
X001836Y020251D02*
X002663Y020251D01*
X002663Y020250D02*
X001836Y020250D01*
X001836Y020249D02*
X002663Y020249D01*
X002663Y020248D02*
X001836Y020248D01*
X001836Y020247D02*
X002663Y020247D01*
X002663Y020246D02*
X001836Y020246D01*
X001836Y020245D02*
X002663Y020245D01*
X002663Y020244D02*
X001836Y020244D01*
X001836Y020243D02*
X002663Y020243D01*
X002663Y020242D02*
X001836Y020242D01*
X001836Y020241D02*
X002663Y020241D01*
X002663Y020240D02*
X001836Y020240D01*
X001836Y020239D02*
X002663Y020239D01*
X002663Y020238D02*
X001836Y020238D01*
X001836Y020237D02*
X002663Y020237D01*
X002663Y020236D02*
X001836Y020236D01*
X001836Y020235D02*
X002663Y020235D01*
X002663Y020234D02*
X001836Y020234D01*
X001836Y020233D02*
X002663Y020233D01*
X002663Y020232D02*
X001836Y020232D01*
X001836Y020231D02*
X002663Y020231D01*
X002663Y020230D02*
X001836Y020230D01*
X001836Y020229D02*
X002663Y020229D01*
X002663Y020228D02*
X001836Y020228D01*
X001836Y020227D02*
X002663Y020227D01*
X002663Y020226D02*
X001836Y020226D01*
X001836Y020225D02*
X002663Y020225D01*
X002663Y020224D02*
X001836Y020224D01*
X001836Y020223D02*
X002663Y020223D01*
X002663Y020222D02*
X001836Y020222D01*
X001836Y020221D02*
X002663Y020221D01*
X002663Y020220D02*
X001836Y020220D01*
X001836Y020219D02*
X002663Y020219D01*
X002663Y020218D02*
X001836Y020218D01*
X001836Y020217D02*
X002663Y020217D01*
X002663Y020216D02*
X001836Y020216D01*
X001836Y020215D02*
X002663Y020215D01*
X002663Y020214D02*
X001836Y020214D01*
X001836Y020213D02*
X002663Y020213D01*
X002663Y020212D02*
X001836Y020212D01*
X001836Y020211D02*
X002663Y020211D01*
X002663Y020210D02*
X001836Y020210D01*
X001836Y020209D02*
X002663Y020209D01*
X002663Y020208D02*
X001836Y020208D01*
X001836Y020207D02*
X002663Y020207D01*
X002663Y020206D02*
X001836Y020206D01*
X001836Y020205D02*
X002663Y020205D01*
X002663Y020204D02*
X001836Y020204D01*
X001836Y020203D02*
X002663Y020203D01*
X002663Y020202D02*
X001836Y020202D01*
X001836Y020201D02*
X002663Y020201D01*
X002663Y020200D02*
X001836Y020200D01*
X001836Y020199D02*
X002663Y020199D01*
X002663Y020198D02*
X001836Y020198D01*
X001836Y020197D02*
X002663Y020197D01*
X002663Y020196D02*
X001836Y020196D01*
X001836Y020195D02*
X002663Y020195D01*
X002663Y020194D02*
X001836Y020194D01*
X001836Y020193D02*
X002663Y020193D01*
X002663Y020192D02*
X001836Y020192D01*
X001836Y020191D02*
X002663Y020191D01*
X002663Y020190D02*
X001836Y020190D01*
X001836Y020189D02*
X002663Y020189D01*
X002663Y020188D02*
X001836Y020188D01*
X001836Y020187D02*
X002663Y020187D01*
X002663Y020186D02*
X001836Y020186D01*
X001836Y020185D02*
X002663Y020185D01*
X002663Y020184D02*
X001836Y020184D01*
X001836Y020183D02*
X002663Y020183D01*
X002663Y020182D02*
X001836Y020182D01*
X001836Y020181D02*
X002663Y020181D01*
X002663Y020180D02*
X001836Y020180D01*
X001836Y020179D02*
X002663Y020179D01*
X002663Y020178D02*
X001836Y020178D01*
X001836Y020177D02*
X002663Y020177D01*
X002663Y020176D02*
X001836Y020176D01*
X001836Y020175D02*
X002663Y020175D01*
X002663Y020174D02*
X001836Y020174D01*
X001836Y020173D02*
X002663Y020173D01*
X002663Y020172D02*
X001836Y020172D01*
X001836Y020171D02*
X002663Y020171D01*
X002663Y020170D02*
X001836Y020170D01*
X001836Y020169D02*
X002663Y020169D01*
X002663Y020168D02*
X001836Y020168D01*
X001836Y020167D02*
X002663Y020167D01*
X002663Y020166D02*
X001836Y020166D01*
X001836Y020165D02*
X002663Y020165D01*
X002663Y020164D02*
X001836Y020164D01*
X001836Y020163D02*
X002663Y020163D01*
X002663Y020162D02*
X001836Y020162D01*
X001836Y020161D02*
X002663Y020161D01*
X002663Y020160D02*
X001836Y020160D01*
X001836Y020159D02*
X002663Y020159D01*
X002663Y020158D02*
X001836Y020158D01*
X001836Y020157D02*
X002663Y020157D01*
X002663Y020156D02*
X001836Y020156D01*
X001836Y020155D02*
X002663Y020155D01*
X002663Y020154D02*
X001836Y020154D01*
X001836Y020153D02*
X002663Y020153D01*
X002663Y020152D02*
X001836Y020152D01*
X001836Y020151D02*
X002663Y020151D01*
X002663Y020150D02*
X001836Y020150D01*
X001836Y020149D02*
X002663Y020149D01*
X002663Y020148D02*
X001836Y020148D01*
X001836Y020147D02*
X002663Y020147D01*
X002663Y020146D02*
X001836Y020146D01*
X001836Y020145D02*
X002663Y020145D01*
X002663Y020144D02*
X001836Y020144D01*
X001836Y020143D02*
X002663Y020143D01*
X002663Y020142D02*
X001836Y020142D01*
X001836Y020141D02*
X002663Y020141D01*
X002663Y020140D02*
X001836Y020140D01*
X001836Y020139D02*
X002663Y020139D01*
X002663Y020138D02*
X001836Y020138D01*
X001836Y020137D02*
X002663Y020137D01*
X002663Y020136D02*
X001836Y020136D01*
X001836Y020135D02*
X002663Y020135D01*
X002663Y020134D02*
X001836Y020134D01*
X001836Y020133D02*
X002663Y020133D01*
X002663Y020132D02*
X001836Y020132D01*
X001836Y020131D02*
X002663Y020131D01*
X002663Y020130D02*
X001836Y020130D01*
X001836Y020129D02*
X002663Y020129D01*
X002663Y020128D02*
X001836Y020128D01*
X001836Y020127D02*
X002663Y020127D01*
X002663Y020126D02*
X001836Y020126D01*
X001836Y020125D02*
X002663Y020125D01*
X002663Y020124D02*
X001836Y020124D01*
X001836Y020123D02*
X002663Y020123D01*
X002663Y020122D02*
X001836Y020122D01*
X001836Y020121D02*
X002663Y020121D01*
X002663Y020120D02*
X001836Y020120D01*
X001836Y020119D02*
X002663Y020119D01*
X002663Y020118D02*
X001836Y020118D01*
X001836Y020117D02*
X002663Y020117D01*
X002663Y020116D02*
X001836Y020116D01*
X001836Y020115D02*
X002663Y020115D01*
X002663Y020114D02*
X001836Y020114D01*
X001836Y020113D02*
X002663Y020113D01*
X002663Y020112D02*
X001836Y020112D01*
X001836Y020111D02*
X002663Y020111D01*
X002663Y020110D02*
X001836Y020110D01*
X001836Y020109D02*
X002663Y020109D01*
X002663Y020108D02*
X001836Y020108D01*
X001836Y020107D02*
X002663Y020107D01*
X002663Y020106D02*
X001836Y020106D01*
X001836Y020105D02*
X002663Y020105D01*
X002663Y020104D02*
X001836Y020104D01*
X001836Y020103D02*
X002663Y020103D01*
X002663Y020102D02*
X001836Y020102D01*
X001836Y020101D02*
X002663Y020101D01*
X002663Y020100D02*
X001836Y020100D01*
X001836Y020099D02*
X002663Y020099D01*
X002663Y020098D02*
X001836Y020098D01*
X001836Y020097D02*
X002663Y020097D01*
X002663Y020096D02*
X001836Y020096D01*
X001836Y020095D02*
X002663Y020095D01*
X002663Y020094D02*
X001836Y020094D01*
X001836Y020093D02*
X002663Y020093D01*
X002663Y020092D02*
X001836Y020092D01*
X001836Y020091D02*
X002663Y020091D01*
X002663Y020090D02*
X001836Y020090D01*
X001836Y020089D02*
X002663Y020089D01*
X002663Y020088D02*
X001836Y020088D01*
X001836Y020087D02*
X002663Y020087D01*
X002663Y020086D02*
X001836Y020086D01*
X001836Y020085D02*
X002663Y020085D01*
X002663Y020084D02*
X001836Y020084D01*
X001836Y020083D02*
X002663Y020083D01*
X002663Y020082D02*
X001836Y020082D01*
X001836Y020081D02*
X002663Y020081D01*
X002663Y020080D02*
X001836Y020080D01*
X001836Y020079D02*
X002663Y020079D01*
X002663Y020078D02*
X001836Y020078D01*
X001836Y020077D02*
X002663Y020077D01*
X002663Y020076D02*
X001836Y020076D01*
X001836Y020075D02*
X002663Y020075D01*
X002663Y020074D02*
X001836Y020074D01*
X001836Y020073D02*
X002663Y020073D01*
X002663Y020072D02*
X001836Y020072D01*
X001836Y020071D02*
X002663Y020071D01*
X002663Y020070D02*
X001836Y020070D01*
X001836Y020069D02*
X002663Y020069D01*
X002663Y020068D02*
X001836Y020068D01*
X001836Y020067D02*
X002663Y020067D01*
X002663Y020066D02*
X001836Y020066D01*
X001836Y020065D02*
X002663Y020065D01*
X002663Y020064D02*
X001836Y020064D01*
X001836Y020063D02*
X002663Y020063D01*
X002663Y020062D02*
X001836Y020062D01*
X001836Y020061D02*
X002663Y020061D01*
X002663Y020060D02*
X001836Y020060D01*
X001836Y020059D02*
X002663Y020059D01*
X002663Y020058D02*
X001836Y020058D01*
X001836Y020057D02*
X002663Y020057D01*
X002663Y020056D02*
X001836Y020056D01*
X001836Y020055D02*
X002663Y020055D01*
X002663Y020054D02*
X001836Y020054D01*
X001836Y020053D02*
X002663Y020053D01*
X002663Y020052D02*
X001836Y020052D01*
X001836Y020051D02*
X002663Y020051D01*
X002663Y020050D02*
X001836Y020050D01*
X001836Y020049D02*
X002663Y020049D01*
X002663Y020048D02*
X001836Y020048D01*
X001836Y020047D02*
X002663Y020047D01*
X002663Y020046D02*
X001836Y020046D01*
X001836Y020045D02*
X002663Y020045D01*
X002663Y020044D02*
X001836Y020044D01*
X001836Y020043D02*
X002663Y020043D01*
X002663Y020042D02*
X001836Y020042D01*
X001836Y020041D02*
X002663Y020041D01*
X002663Y020040D02*
X001836Y020040D01*
X001836Y020039D02*
X002663Y020039D01*
X002663Y020038D02*
X001836Y020038D01*
X001836Y020037D02*
X002663Y020037D01*
X002663Y020036D02*
X001836Y020036D01*
X001836Y020035D02*
X002663Y020035D01*
X002663Y020034D02*
X001836Y020034D01*
X001836Y020033D02*
X002663Y020033D01*
X002663Y020032D02*
X001836Y020032D01*
X001836Y020031D02*
X002663Y020031D01*
X002663Y020030D02*
X001836Y020030D01*
X001836Y020029D02*
X002663Y020029D01*
X002663Y020028D02*
X001836Y020028D01*
X001836Y020027D02*
X002663Y020027D01*
X002663Y020026D02*
X001836Y020026D01*
X001836Y020025D02*
X002663Y020025D01*
X002663Y020024D02*
X001836Y020024D01*
X001836Y020023D02*
X002663Y020023D01*
X002663Y020022D02*
X001836Y020022D01*
X001836Y020021D02*
X002663Y020021D01*
X002663Y020020D02*
X001836Y020020D01*
X001836Y020019D02*
X002663Y020019D01*
X002663Y020018D02*
X001836Y020018D01*
X001836Y020017D02*
X002663Y020017D01*
X002663Y020016D02*
X001836Y020016D01*
X001836Y020015D02*
X002663Y020015D01*
X002663Y020014D02*
X001836Y020014D01*
X001836Y020013D02*
X002663Y020013D01*
X002663Y020012D02*
X001836Y020012D01*
X001836Y020011D02*
X002663Y020011D01*
X002663Y020010D02*
X001836Y020010D01*
X001836Y020009D02*
X002663Y020009D01*
X002663Y020008D02*
X001836Y020008D01*
X001836Y020007D02*
X002663Y020007D01*
X002663Y020006D02*
X001836Y020006D01*
X001836Y020005D02*
X002663Y020005D01*
X002663Y020004D02*
X001836Y020004D01*
X001836Y020003D02*
X002663Y020003D01*
X002663Y020002D02*
X001836Y020002D01*
X001836Y020001D02*
X002663Y020001D01*
X002663Y020000D02*
X001836Y020000D01*
X001836Y019999D02*
X002663Y019999D01*
X002663Y019998D02*
X001836Y019998D01*
X001836Y019997D02*
X002663Y019997D01*
X002663Y019996D02*
X001836Y019996D01*
X001836Y019995D02*
X002663Y019995D01*
X002663Y019994D02*
X001836Y019994D01*
X001836Y019993D02*
X002663Y019993D01*
X002663Y019992D02*
X001836Y019992D01*
X001836Y019991D02*
X002663Y019991D01*
X002663Y019990D02*
X001836Y019990D01*
X001836Y019989D02*
X002663Y019989D01*
X002663Y019988D02*
X001836Y019988D01*
X001836Y019987D02*
X002663Y019987D01*
X002663Y019986D02*
X001836Y019986D01*
X001836Y019985D02*
X002663Y019985D01*
X002663Y019984D02*
X001836Y019984D01*
X001836Y019983D02*
X002663Y019983D01*
X002663Y019982D02*
X001836Y019982D01*
X001836Y019981D02*
X002663Y019981D01*
X002663Y019980D02*
X001836Y019980D01*
X001836Y019979D02*
X002663Y019979D01*
X002663Y019978D02*
X001836Y019978D01*
X001836Y019977D02*
X002663Y019977D01*
X002663Y019976D02*
X001836Y019976D01*
X001836Y019975D02*
X002663Y019975D01*
X002663Y019974D02*
X001836Y019974D01*
X001836Y019973D02*
X002663Y019973D01*
X002663Y019972D02*
X001836Y019972D01*
X001836Y019971D02*
X002663Y019971D01*
X002663Y019970D02*
X001836Y019970D01*
X001836Y019969D02*
X002663Y019969D01*
X002663Y019968D02*
X001836Y019968D01*
X001836Y019967D02*
X002663Y019967D01*
X002663Y019966D02*
X001836Y019966D01*
X001836Y019965D02*
X002663Y019965D01*
X002663Y019964D02*
X001836Y019964D01*
D29*
X006502Y025534D03*
X006502Y032148D03*
D30*
X008490Y039432D03*
X010655Y039432D03*
D31*
X014819Y033408D03*
X015508Y033408D03*
X015508Y030928D03*
X014819Y030928D03*
D32*
X016949Y039082D03*
X016949Y040578D03*
X032061Y040542D03*
X032061Y039046D03*
D33*
X046221Y008925D02*
X047008Y008925D01*
X048504Y008099D02*
X048504Y007311D01*
X047008Y006524D02*
X046221Y006524D01*
D34*
X050617Y009555D02*
X051281Y009555D01*
X051281Y010555D02*
X050617Y010555D01*
X050784Y036018D02*
X051448Y036018D01*
X051448Y037018D02*
X050784Y037018D01*
D35*
X033599Y016677D03*
X033973Y015733D03*
X033225Y015733D03*
D36*
X036390Y010180D03*
X036390Y007680D03*
X036390Y005180D03*
X030000Y005180D03*
X030000Y007680D03*
X030000Y010180D03*
X020642Y010180D03*
X014252Y010180D03*
X012768Y010180D03*
X006378Y010180D03*
X006378Y005180D03*
X012768Y005180D03*
X014252Y005180D03*
X020642Y005180D03*
D37*
X039494Y004392D03*
X040281Y004392D03*
X041029Y004392D03*
D38*
X041935Y004392D03*
X038667Y004392D03*
D39*
X050911Y005574D03*
X003667Y005574D03*
X003470Y041007D03*
X050911Y041007D03*
D40*
X050518Y027715D03*
X050518Y022015D03*
X015872Y022015D03*
X015872Y027715D03*
D41*
X055557Y026715D03*
X055557Y024865D03*
X055557Y023014D03*
D42*
X037624Y018566D03*
X033638Y027818D03*
X013116Y022798D03*
D43*
X014415Y023093D03*
X014533Y022581D03*
X014218Y021636D03*
X011541Y021322D03*
X009848Y021794D03*
X009848Y022227D03*
X008667Y022227D03*
X008667Y021794D03*
X008707Y022660D03*
X008707Y023093D03*
X008667Y023526D03*
X008667Y023959D03*
X008667Y024392D03*
X008667Y024825D03*
X008707Y025219D03*
X008549Y025928D03*
X009966Y025928D03*
X009809Y025219D03*
X009809Y024825D03*
X009809Y024392D03*
X009848Y023959D03*
X009809Y023526D03*
X005636Y023290D03*
X003667Y023290D03*
X003667Y021322D03*
X005636Y021322D03*
X003667Y019353D03*
X003667Y017385D03*
X003667Y015416D03*
X003667Y013448D03*
X003667Y011479D03*
X003667Y009511D03*
X007604Y009511D03*
X009573Y009511D03*
X009573Y007542D03*
X011541Y007542D03*
X013510Y007542D03*
X015478Y007542D03*
X017447Y007542D03*
X019415Y007542D03*
X019415Y009511D03*
X017447Y009511D03*
X015478Y009511D03*
X013510Y009511D03*
X015478Y011479D03*
X014966Y012621D03*
X014966Y013211D03*
X014376Y013448D03*
X014730Y014353D03*
X013549Y014766D03*
X012762Y014314D03*
X013746Y016164D03*
X011738Y016518D03*
X010124Y017896D03*
X009494Y017070D03*
X009533Y016558D03*
X009494Y016125D03*
X009691Y015495D03*
X008840Y015849D03*
X008785Y017070D03*
X008077Y017896D03*
X007171Y017424D03*
X007171Y016125D03*
X006935Y013211D03*
X007250Y012621D03*
X007604Y011479D03*
X009573Y011479D03*
X007604Y007542D03*
X007604Y005574D03*
X009573Y005574D03*
X011541Y005574D03*
X015478Y005574D03*
X017447Y005574D03*
X019415Y005574D03*
X021856Y004707D03*
X021384Y007542D03*
X024258Y010140D03*
X024691Y011205D03*
X023746Y011794D03*
X024848Y012857D03*
X024612Y014077D03*
X026187Y013105D03*
X027368Y013093D03*
X026856Y012109D03*
X025557Y010810D03*
X028825Y010534D03*
X028864Y011558D03*
X029218Y012503D03*
X031226Y011479D03*
X031738Y012581D03*
X032447Y012581D03*
X033195Y011479D03*
X035163Y011479D03*
X036029Y012581D03*
X037132Y011479D03*
X038313Y012030D03*
X039730Y011479D03*
X040596Y012030D03*
X041108Y012070D03*
X042210Y012542D03*
X043234Y012030D03*
X044179Y011912D03*
X046069Y011125D03*
X046974Y011479D03*
X048943Y011479D03*
X048943Y013448D03*
X050911Y013448D03*
X050911Y015416D03*
X048943Y015416D03*
X048943Y017385D03*
X050911Y017385D03*
X046600Y017660D03*
X046601Y015140D03*
X046108Y014707D03*
X046974Y013448D03*
X044218Y014274D03*
X043195Y014274D03*
X042210Y013802D03*
X041147Y014235D03*
X040124Y014392D03*
X040203Y013762D03*
X039494Y014707D03*
X038864Y014353D03*
X038037Y014707D03*
X038313Y015022D03*
X038667Y015101D03*
X039179Y015849D03*
X040360Y015849D03*
X040518Y015105D03*
X042132Y015219D03*
X042407Y015613D03*
X041462Y017070D03*
X040714Y017070D03*
X042407Y017188D03*
X043077Y017188D03*
X039179Y018723D03*
X038116Y017306D03*
X037801Y016558D03*
X037604Y015692D03*
X036581Y015140D03*
X037447Y014392D03*
X036620Y013762D03*
X035163Y014353D03*
X034848Y014589D03*
X035084Y014825D03*
X034888Y013841D03*
X033982Y015259D03*
X033569Y015731D03*
X033077Y015140D03*
X032604Y014629D03*
X032099Y015140D03*
X032092Y016282D03*
X031620Y016282D03*
X032171Y016912D03*
X031029Y016912D03*
X030557Y016361D03*
X029061Y016085D03*
X028325Y016058D03*
X028037Y015692D03*
X028116Y015101D03*
X027998Y014511D03*
X026502Y016085D03*
X025557Y016558D03*
X025439Y016991D03*
X025321Y017542D03*
X028313Y017345D03*
X030084Y018684D03*
X030596Y018684D03*
X031101Y018688D03*
X031147Y017542D03*
X032171Y019314D03*
X032604Y020101D03*
X033392Y019707D03*
X033451Y019018D03*
X033785Y018920D03*
X034730Y017896D03*
X035872Y018014D03*
X035895Y017739D03*
X036974Y017306D03*
X037132Y017699D03*
X035990Y018841D03*
X035439Y018841D03*
X036462Y019353D03*
X036344Y019786D03*
X036344Y020259D03*
X035518Y020770D03*
X035754Y021440D03*
X036922Y021597D03*
X038037Y021558D03*
X037801Y022424D03*
X038352Y023290D03*
X039140Y023644D03*
X039573Y023290D03*
X040045Y022896D03*
X039651Y022424D03*
X040793Y023448D03*
X040754Y023841D03*
X040754Y024117D03*
X041147Y024274D03*
X041541Y024117D03*
X041187Y023251D03*
X042486Y023054D03*
X042683Y022739D03*
X042958Y023014D03*
X043155Y022621D03*
X044297Y023054D03*
X044573Y022109D03*
X044297Y021007D03*
X043746Y020613D03*
X043392Y020810D03*
X043352Y020495D03*
X042998Y020810D03*
X042486Y021046D03*
X041817Y020652D03*
X045439Y023251D03*
X045793Y023251D03*
X045439Y024274D03*
X046163Y025148D03*
X047092Y025298D03*
X048431Y025101D03*
X049179Y024629D03*
X048195Y024117D03*
X047998Y023605D03*
X048588Y023133D03*
X047447Y022345D03*
X047132Y023054D03*
X049218Y022621D03*
X049612Y021873D03*
X051856Y022621D03*
X051856Y023133D03*
X051856Y023605D03*
X051856Y024117D03*
X051856Y025613D03*
X051856Y026085D03*
X051856Y026597D03*
X051856Y027109D03*
X049179Y027148D03*
X049179Y026597D03*
X048785Y026085D03*
X049179Y025613D03*
X048431Y026912D03*
X048588Y027227D03*
X047998Y027070D03*
X047447Y027385D03*
X046974Y027385D03*
X046974Y026715D03*
X044179Y026558D03*
X043972Y027424D03*
X044455Y028644D03*
X043667Y028959D03*
X042525Y029117D03*
X041935Y029786D03*
X040399Y029156D03*
X040045Y028448D03*
X040045Y027266D03*
X040714Y027109D03*
X041226Y027109D03*
X042368Y027109D03*
X041699Y025888D03*
X041895Y025140D03*
X041069Y025180D03*
X040163Y025140D03*
X038667Y024314D03*
X037329Y024629D03*
X037722Y025613D03*
X035714Y027936D03*
X037486Y028841D03*
X037998Y028841D03*
X037998Y029944D03*
X038431Y030377D03*
X039100Y031125D03*
X039415Y031322D03*
X039691Y031203D03*
X039927Y031322D03*
X040360Y031322D03*
X040006Y030849D03*
X040006Y030337D03*
X039651Y029944D03*
X038707Y031361D03*
X037840Y031322D03*
X037525Y031322D03*
X036895Y031322D03*
X036738Y030810D03*
X036738Y030455D03*
X036777Y029944D03*
X036344Y030062D03*
X035911Y030062D03*
X035439Y030022D03*
X035435Y031172D03*
X034848Y031322D03*
X034888Y031912D03*
X035006Y032266D03*
X034966Y032660D03*
X035187Y032857D03*
X034903Y033172D03*
X035175Y033329D03*
X035175Y034235D03*
X034887Y034197D03*
X035163Y034629D03*
X034966Y034992D03*
X035045Y035377D03*
X035163Y035613D03*
X035163Y036046D03*
X035006Y036322D03*
X035183Y036518D03*
X035518Y037070D03*
X035084Y037385D03*
X034966Y037975D03*
X034651Y037975D03*
X034612Y038959D03*
X035321Y038920D03*
X035714Y038999D03*
X036974Y038999D03*
X037329Y038881D03*
X037565Y039077D03*
X037683Y038723D03*
X037840Y038172D03*
X037329Y038219D03*
X037014Y038014D03*
X037329Y037345D03*
X038352Y037345D03*
X039100Y037385D03*
X039651Y037365D03*
X040045Y037542D03*
X040675Y037306D03*
X041266Y037306D03*
X041462Y036991D03*
X041659Y037188D03*
X042092Y037463D03*
X042329Y037621D03*
X042762Y037818D03*
X042958Y038014D03*
X043431Y038526D03*
X043864Y036833D03*
X043195Y036676D03*
X043667Y036203D03*
X044455Y035888D03*
X044179Y035416D03*
X044651Y035259D03*
X043431Y035101D03*
X042132Y034786D03*
X042132Y034392D03*
X042132Y033881D03*
X042132Y033369D03*
X042132Y032896D03*
X043352Y033369D03*
X043943Y032385D03*
X044455Y032385D03*
X043352Y031991D03*
X045478Y030455D03*
X046974Y031125D03*
X046974Y032424D03*
X047447Y032424D03*
X049455Y034904D03*
X049100Y036007D03*
X047171Y036046D03*
X046541Y035574D03*
X046974Y037070D03*
X045006Y037070D03*
X041974Y036203D03*
X041266Y035731D03*
X041266Y034786D03*
X041266Y034392D03*
X041266Y033881D03*
X041738Y037975D03*
X040360Y038133D03*
X040045Y038133D03*
X039651Y038211D03*
X039218Y038329D03*
X038352Y038211D03*
X038667Y039353D03*
X039100Y041007D03*
X041069Y041007D03*
X043037Y041007D03*
X045006Y041007D03*
X046974Y041007D03*
X048943Y041007D03*
X049100Y038881D03*
X048785Y038723D03*
X049966Y038014D03*
X051344Y035062D03*
X051108Y034550D03*
X050832Y031755D03*
X048195Y029668D03*
X044336Y025298D03*
X042762Y025298D03*
X042092Y028369D03*
X034651Y024589D03*
X033943Y024629D03*
X033943Y023290D03*
X034691Y023251D03*
X033785Y021794D03*
X033116Y021597D03*
X033785Y020613D03*
X034179Y020495D03*
X031738Y021085D03*
X030006Y019825D03*
X028549Y019944D03*
X028077Y020692D03*
X027289Y021322D03*
X029021Y022109D03*
X028982Y024196D03*
X028549Y024196D03*
X029455Y024196D03*
X029297Y025337D03*
X028982Y025337D03*
X028234Y024983D03*
X029573Y026046D03*
X029809Y025888D03*
X030045Y025692D03*
X030321Y025534D03*
X030557Y025298D03*
X031069Y025298D03*
X031069Y024117D03*
X030754Y024117D03*
X032053Y024156D03*
X030557Y026558D03*
X030045Y026558D03*
X029809Y027503D03*
X029545Y027503D03*
X029287Y027503D03*
X029021Y027503D03*
X028431Y027503D03*
X027762Y027306D03*
X027289Y027148D03*
X027092Y026951D03*
X026266Y026951D03*
X026266Y026479D03*
X026266Y026007D03*
X026266Y025534D03*
X026266Y025101D03*
X025124Y025770D03*
X025006Y025534D03*
X024770Y025416D03*
X024770Y025967D03*
X024573Y026164D03*
X023746Y026085D03*
X023746Y025574D03*
X023234Y025574D03*
X023234Y026085D03*
X022722Y026085D03*
X022722Y025574D03*
X022329Y025101D03*
X022250Y024589D03*
X022880Y024550D03*
X023116Y024707D03*
X023334Y024453D03*
X024061Y024511D03*
X024573Y024511D03*
X024848Y024392D03*
X025084Y024117D03*
X024888Y023487D03*
X024888Y022660D03*
X023313Y023014D03*
X022250Y023172D03*
X021817Y023172D03*
X020242Y021085D03*
X019021Y022739D03*
X018313Y023448D03*
X018155Y023802D03*
X017289Y023605D03*
X017289Y022621D03*
X017525Y022306D03*
X014455Y024117D03*
X014218Y024589D03*
X014258Y025101D03*
X014533Y025613D03*
X014533Y026125D03*
X014533Y026636D03*
X014533Y027148D03*
X013510Y027266D03*
X013510Y027621D03*
X013510Y028014D03*
X012644Y027857D03*
X013116Y028644D03*
X014061Y029274D03*
X014573Y029314D03*
X014691Y028920D03*
X015163Y029196D03*
X015596Y028999D03*
X015911Y028999D03*
X016069Y029353D03*
X016738Y029314D03*
X017053Y029353D03*
X017486Y029353D03*
X017289Y030534D03*
X017014Y030534D03*
X016541Y030534D03*
X016108Y030534D03*
X015793Y030534D03*
X015478Y030534D03*
X015163Y030495D03*
X014770Y030495D03*
X014376Y030534D03*
X013982Y030692D03*
X013785Y030337D03*
X013155Y030062D03*
X013155Y029550D03*
X012329Y028762D03*
X011699Y027975D03*
X011699Y027621D03*
X012092Y026991D03*
X009809Y028408D03*
X009809Y028841D03*
X008667Y028841D03*
X008667Y028408D03*
X008667Y029274D03*
X008707Y029707D03*
X008667Y030140D03*
X008667Y030574D03*
X008628Y031007D03*
X008628Y031440D03*
X008628Y031833D03*
X008549Y032424D03*
X009966Y032463D03*
X009848Y031833D03*
X009848Y031440D03*
X009848Y031007D03*
X009848Y030574D03*
X009809Y030140D03*
X012525Y030888D03*
X012762Y031125D03*
X012840Y030692D03*
X012762Y031597D03*
X012762Y032070D03*
X012525Y032463D03*
X012762Y032621D03*
X012762Y033093D03*
X012722Y033526D03*
X013903Y033644D03*
X014140Y033841D03*
X013982Y033093D03*
X013982Y032621D03*
X013982Y032070D03*
X013982Y031597D03*
X013982Y031125D03*
X015872Y030928D03*
X015832Y031715D03*
X015832Y032621D03*
X015872Y033408D03*
X015675Y033841D03*
X016699Y033723D03*
X017132Y033762D03*
X017250Y034983D03*
X016817Y034983D03*
X016029Y034944D03*
X014966Y034904D03*
X014927Y035810D03*
X014612Y035810D03*
X013825Y034668D03*
X012998Y035888D03*
X012368Y035574D03*
X012092Y035967D03*
X011659Y036164D03*
X011266Y036322D03*
X011029Y036518D03*
X011462Y037188D03*
X010832Y037385D03*
X010596Y037621D03*
X012250Y037857D03*
X012250Y036951D03*
X014140Y037030D03*
X014927Y037227D03*
X016187Y037424D03*
X017171Y037424D03*
X017880Y037699D03*
X018313Y037699D03*
X018588Y037621D03*
X018825Y037424D03*
X019258Y036931D03*
X018825Y036597D03*
X017840Y036046D03*
X018677Y035672D03*
X018746Y034874D03*
X018785Y034511D03*
X018746Y034077D03*
X018943Y033566D03*
X018746Y033054D03*
X018431Y032857D03*
X018746Y032581D03*
X018588Y032424D03*
X018362Y032090D03*
X018530Y031893D03*
X018352Y031695D03*
X018785Y031991D03*
X018352Y031125D03*
X017299Y031500D03*
X017289Y032424D03*
X018352Y033487D03*
X018352Y034786D03*
X019809Y034471D03*
X020203Y034038D03*
X020360Y034274D03*
X020360Y034944D03*
X020949Y034924D03*
X020399Y035652D03*
X020134Y035672D03*
X019848Y036223D03*
X020636Y036794D03*
X020242Y037345D03*
X020754Y038920D03*
X022014Y038959D03*
X022407Y039235D03*
X022525Y038448D03*
X022998Y038487D03*
X023588Y038408D03*
X024179Y038369D03*
X024809Y038369D03*
X025399Y038408D03*
X026108Y038290D03*
X025951Y037424D03*
X026266Y037424D03*
X026817Y036479D03*
X027407Y037030D03*
X027722Y037030D03*
X028077Y036203D03*
X028077Y035692D03*
X027644Y035337D03*
X027250Y035140D03*
X027250Y034786D03*
X027250Y034353D03*
X027250Y033959D03*
X027250Y033369D03*
X027565Y033448D03*
X027250Y032896D03*
X027683Y032385D03*
X027683Y031912D03*
X027683Y031558D03*
X026581Y031558D03*
X026305Y031243D03*
X026023Y031236D03*
X025557Y031322D03*
X025006Y031333D03*
X024770Y031164D03*
X024573Y031345D03*
X024297Y031148D03*
X023785Y031361D03*
X023155Y031302D03*
X022801Y031345D03*
X022092Y031282D03*
X021935Y030810D03*
X021935Y030455D03*
X021541Y030062D03*
X021069Y030062D03*
X020636Y030022D03*
X020636Y031203D03*
X020203Y031361D03*
X020203Y031715D03*
X020163Y031991D03*
X020163Y032581D03*
X020384Y032975D03*
X020163Y033172D03*
X020384Y033408D03*
X023785Y029944D03*
X024770Y029944D03*
X025203Y030416D03*
X025242Y030810D03*
X026344Y030416D03*
X026856Y030613D03*
X027132Y030062D03*
X027732Y030377D03*
X028785Y031479D03*
X029100Y031203D03*
X029297Y031479D03*
X029297Y032699D03*
X029533Y032857D03*
X028825Y032660D03*
X028470Y032581D03*
X028470Y033684D03*
X028903Y034117D03*
X029415Y034117D03*
X029927Y033644D03*
X030321Y033920D03*
X031147Y033133D03*
X030518Y032660D03*
X031817Y032660D03*
X032289Y032660D03*
X032958Y032896D03*
X033470Y033093D03*
X033758Y033172D03*
X033746Y033605D03*
X033430Y034197D03*
X033470Y034992D03*
X032998Y035022D03*
X032210Y034235D03*
X031462Y035455D03*
X032210Y035888D03*
X031226Y036203D03*
X030636Y036558D03*
X030124Y036164D03*
X029455Y036164D03*
X029140Y036164D03*
X028628Y036676D03*
X028825Y036912D03*
X029130Y037581D03*
X029637Y037581D03*
X029905Y037585D03*
X030399Y037581D03*
X031187Y037621D03*
X031699Y038014D03*
X032447Y038526D03*
X032053Y038566D03*
X031305Y038841D03*
X030872Y038959D03*
X031738Y039589D03*
X031462Y040534D03*
X030793Y040534D03*
X029258Y041007D03*
X027289Y041007D03*
X025321Y041007D03*
X023825Y039629D03*
X024140Y037739D03*
X027329Y038526D03*
X027781Y038782D03*
X028234Y038762D03*
X028431Y038566D03*
X031620Y037030D03*
X032762Y036873D03*
X033470Y036597D03*
X033980Y036943D03*
X033588Y037385D03*
X033234Y037936D03*
X034494Y036243D03*
X033469Y035794D03*
X030321Y035219D03*
X029651Y035259D03*
X027880Y034550D03*
X026620Y035416D03*
X026581Y032385D03*
X025557Y029471D03*
X025872Y029314D03*
X026777Y028762D03*
X026699Y028093D03*
X027407Y028369D03*
X027604Y028881D03*
X027919Y028054D03*
X028470Y028064D03*
X028815Y028851D03*
X029297Y028841D03*
X030321Y027503D03*
X030832Y027503D03*
X031817Y027581D03*
X032289Y027581D03*
X032329Y028920D03*
X031817Y028920D03*
X031777Y031282D03*
X032289Y031282D03*
X033510Y031912D03*
X033510Y032660D03*
X028785Y026518D03*
X028234Y026715D03*
X025439Y027306D03*
X024927Y026794D03*
X024179Y027070D03*
X023929Y027414D03*
X023746Y027621D03*
X023352Y027424D03*
X023234Y026597D03*
X022722Y026597D03*
X021925Y026351D03*
X021758Y026577D03*
X021699Y026833D03*
X020321Y026400D03*
X020281Y027188D03*
X020281Y027778D03*
X020399Y028762D03*
X021738Y028762D03*
X022683Y029629D03*
X023273Y028841D03*
X023785Y028841D03*
X023746Y026597D03*
X021856Y025395D03*
X020321Y025377D03*
X018313Y025613D03*
X018155Y026636D03*
X018943Y028093D03*
X015557Y028369D03*
X017289Y024629D03*
X023037Y020574D03*
X021738Y019392D03*
X019888Y017857D03*
X019297Y017070D03*
X019297Y016558D03*
X019336Y016164D03*
X019061Y015849D03*
X018549Y015849D03*
X018470Y017070D03*
X017880Y017857D03*
X016974Y017424D03*
X016974Y016164D03*
X020203Y015770D03*
X020754Y016282D03*
X021541Y016597D03*
X017880Y013054D03*
X017447Y011479D03*
X024612Y020574D03*
X030596Y015140D03*
X034061Y016715D03*
X034494Y015888D03*
X035006Y016715D03*
X035636Y015849D03*
X041344Y010022D03*
X040754Y008802D03*
X043549Y008251D03*
X043510Y006479D03*
X041974Y006440D03*
X038273Y006440D03*
X035163Y005574D03*
X033195Y005574D03*
X031226Y005574D03*
X031226Y009511D03*
X033195Y009511D03*
X035163Y009511D03*
X048943Y005574D03*
X012210Y032385D03*
X011935Y032542D03*
X010990Y033133D03*
X009651Y034156D03*
X009533Y035022D03*
X010360Y035180D03*
X010636Y035377D03*
X009327Y035928D03*
X008431Y036243D03*
X006895Y037660D03*
X005636Y037070D03*
X003667Y037070D03*
X003667Y035101D03*
X005636Y035101D03*
X005636Y033133D03*
X004061Y032542D03*
X003667Y033133D03*
X003667Y031164D03*
X005636Y031164D03*
X005636Y029196D03*
X003667Y029196D03*
X005636Y027227D03*
X004061Y025928D03*
X008628Y033881D03*
X008431Y034550D03*
X014140Y038251D03*
X013628Y038644D03*
X013510Y041007D03*
X011541Y041007D03*
X009573Y041007D03*
X007604Y041007D03*
X005636Y041007D03*
X003667Y039038D03*
X015478Y041007D03*
X018313Y041440D03*
X017644Y038762D03*
X016935Y038605D03*
X033313Y041361D03*
M02*
