G75*
G70*
%OFA0B0*%
%FSLAX24Y24*%
%IPPOS*%
%LPD*%
%AMOC8*
5,1,8,0,0,1.08239X$1,22.5*
%
%ADD10C,0.0039*%
%ADD11C,0.0000*%
D10*
X001699Y003605D02*
X001699Y042975D01*
X052880Y042975D01*
X052880Y028014D01*
X058392Y028014D01*
X058392Y021715D01*
X052880Y021715D01*
X052880Y003605D01*
X001699Y003605D01*
D11*
X025006Y004786D02*
X025008Y004821D01*
X025014Y004856D01*
X025024Y004890D01*
X025037Y004923D01*
X025054Y004954D01*
X025075Y004982D01*
X025098Y005009D01*
X025125Y005032D01*
X025153Y005053D01*
X025184Y005070D01*
X025217Y005083D01*
X025251Y005093D01*
X025286Y005099D01*
X025321Y005101D01*
X025356Y005099D01*
X025391Y005093D01*
X025425Y005083D01*
X025458Y005070D01*
X025489Y005053D01*
X025517Y005032D01*
X025544Y005009D01*
X025567Y004982D01*
X025588Y004954D01*
X025605Y004923D01*
X025618Y004890D01*
X025628Y004856D01*
X025634Y004821D01*
X025636Y004786D01*
X025634Y004751D01*
X025628Y004716D01*
X025618Y004682D01*
X025605Y004649D01*
X025588Y004618D01*
X025567Y004590D01*
X025544Y004563D01*
X025517Y004540D01*
X025489Y004519D01*
X025458Y004502D01*
X025425Y004489D01*
X025391Y004479D01*
X025356Y004473D01*
X025321Y004471D01*
X025286Y004473D01*
X025251Y004479D01*
X025217Y004489D01*
X025184Y004502D01*
X025153Y004519D01*
X025125Y004540D01*
X025098Y004563D01*
X025075Y004590D01*
X025054Y004618D01*
X025037Y004649D01*
X025024Y004682D01*
X025014Y004716D01*
X025008Y004751D01*
X025006Y004786D01*
X025006Y007148D02*
X025008Y007183D01*
X025014Y007218D01*
X025024Y007252D01*
X025037Y007285D01*
X025054Y007316D01*
X025075Y007344D01*
X025098Y007371D01*
X025125Y007394D01*
X025153Y007415D01*
X025184Y007432D01*
X025217Y007445D01*
X025251Y007455D01*
X025286Y007461D01*
X025321Y007463D01*
X025356Y007461D01*
X025391Y007455D01*
X025425Y007445D01*
X025458Y007432D01*
X025489Y007415D01*
X025517Y007394D01*
X025544Y007371D01*
X025567Y007344D01*
X025588Y007316D01*
X025605Y007285D01*
X025618Y007252D01*
X025628Y007218D01*
X025634Y007183D01*
X025636Y007148D01*
X025634Y007113D01*
X025628Y007078D01*
X025618Y007044D01*
X025605Y007011D01*
X025588Y006980D01*
X025567Y006952D01*
X025544Y006925D01*
X025517Y006902D01*
X025489Y006881D01*
X025458Y006864D01*
X025425Y006851D01*
X025391Y006841D01*
X025356Y006835D01*
X025321Y006833D01*
X025286Y006835D01*
X025251Y006841D01*
X025217Y006851D01*
X025184Y006864D01*
X025153Y006881D01*
X025125Y006902D01*
X025098Y006925D01*
X025075Y006952D01*
X025054Y006980D01*
X025037Y007011D01*
X025024Y007044D01*
X025014Y007078D01*
X025008Y007113D01*
X025006Y007148D01*
X015577Y022015D02*
X015579Y022049D01*
X015585Y022083D01*
X015595Y022116D01*
X015608Y022147D01*
X015626Y022177D01*
X015646Y022205D01*
X015670Y022230D01*
X015696Y022252D01*
X015724Y022270D01*
X015755Y022286D01*
X015787Y022298D01*
X015821Y022306D01*
X015855Y022310D01*
X015889Y022310D01*
X015923Y022306D01*
X015957Y022298D01*
X015989Y022286D01*
X016019Y022270D01*
X016048Y022252D01*
X016074Y022230D01*
X016098Y022205D01*
X016118Y022177D01*
X016136Y022147D01*
X016149Y022116D01*
X016159Y022083D01*
X016165Y022049D01*
X016167Y022015D01*
X016165Y021981D01*
X016159Y021947D01*
X016149Y021914D01*
X016136Y021883D01*
X016118Y021853D01*
X016098Y021825D01*
X016074Y021800D01*
X016048Y021778D01*
X016020Y021760D01*
X015989Y021744D01*
X015957Y021732D01*
X015923Y021724D01*
X015889Y021720D01*
X015855Y021720D01*
X015821Y021724D01*
X015787Y021732D01*
X015755Y021744D01*
X015724Y021760D01*
X015696Y021778D01*
X015670Y021800D01*
X015646Y021825D01*
X015626Y021853D01*
X015608Y021883D01*
X015595Y021914D01*
X015585Y021947D01*
X015579Y021981D01*
X015577Y022015D01*
X015577Y027715D02*
X015579Y027749D01*
X015585Y027783D01*
X015595Y027816D01*
X015608Y027847D01*
X015626Y027877D01*
X015646Y027905D01*
X015670Y027930D01*
X015696Y027952D01*
X015724Y027970D01*
X015755Y027986D01*
X015787Y027998D01*
X015821Y028006D01*
X015855Y028010D01*
X015889Y028010D01*
X015923Y028006D01*
X015957Y027998D01*
X015989Y027986D01*
X016019Y027970D01*
X016048Y027952D01*
X016074Y027930D01*
X016098Y027905D01*
X016118Y027877D01*
X016136Y027847D01*
X016149Y027816D01*
X016159Y027783D01*
X016165Y027749D01*
X016167Y027715D01*
X016165Y027681D01*
X016159Y027647D01*
X016149Y027614D01*
X016136Y027583D01*
X016118Y027553D01*
X016098Y027525D01*
X016074Y027500D01*
X016048Y027478D01*
X016020Y027460D01*
X015989Y027444D01*
X015957Y027432D01*
X015923Y027424D01*
X015889Y027420D01*
X015855Y027420D01*
X015821Y027424D01*
X015787Y027432D01*
X015755Y027444D01*
X015724Y027460D01*
X015696Y027478D01*
X015670Y027500D01*
X015646Y027525D01*
X015626Y027553D01*
X015608Y027583D01*
X015595Y027614D01*
X015585Y027647D01*
X015579Y027681D01*
X015577Y027715D01*
X010379Y039432D02*
X010381Y039465D01*
X010387Y039497D01*
X010396Y039528D01*
X010409Y039558D01*
X010426Y039586D01*
X010446Y039612D01*
X010469Y039636D01*
X010494Y039656D01*
X010522Y039674D01*
X010551Y039688D01*
X010582Y039698D01*
X010614Y039705D01*
X010647Y039708D01*
X010680Y039707D01*
X010712Y039702D01*
X010743Y039693D01*
X010774Y039681D01*
X010802Y039665D01*
X010829Y039646D01*
X010853Y039624D01*
X010874Y039599D01*
X010893Y039572D01*
X010908Y039543D01*
X010919Y039513D01*
X010927Y039481D01*
X010931Y039448D01*
X010931Y039416D01*
X010927Y039383D01*
X010919Y039351D01*
X010908Y039321D01*
X010893Y039292D01*
X010874Y039265D01*
X010853Y039240D01*
X010829Y039218D01*
X010802Y039199D01*
X010774Y039183D01*
X010743Y039171D01*
X010712Y039162D01*
X010680Y039157D01*
X010647Y039156D01*
X010614Y039159D01*
X010582Y039166D01*
X010551Y039176D01*
X010522Y039190D01*
X010494Y039208D01*
X010469Y039228D01*
X010446Y039252D01*
X010426Y039278D01*
X010409Y039306D01*
X010396Y039336D01*
X010387Y039367D01*
X010381Y039399D01*
X010379Y039432D01*
X008214Y039432D02*
X008216Y039465D01*
X008222Y039497D01*
X008231Y039528D01*
X008244Y039558D01*
X008261Y039586D01*
X008281Y039612D01*
X008304Y039636D01*
X008329Y039656D01*
X008357Y039674D01*
X008386Y039688D01*
X008417Y039698D01*
X008449Y039705D01*
X008482Y039708D01*
X008515Y039707D01*
X008547Y039702D01*
X008578Y039693D01*
X008609Y039681D01*
X008637Y039665D01*
X008664Y039646D01*
X008688Y039624D01*
X008709Y039599D01*
X008728Y039572D01*
X008743Y039543D01*
X008754Y039513D01*
X008762Y039481D01*
X008766Y039448D01*
X008766Y039416D01*
X008762Y039383D01*
X008754Y039351D01*
X008743Y039321D01*
X008728Y039292D01*
X008709Y039265D01*
X008688Y039240D01*
X008664Y039218D01*
X008637Y039199D01*
X008609Y039183D01*
X008578Y039171D01*
X008547Y039162D01*
X008515Y039157D01*
X008482Y039156D01*
X008449Y039159D01*
X008417Y039166D01*
X008386Y039176D01*
X008357Y039190D01*
X008329Y039208D01*
X008304Y039228D01*
X008281Y039252D01*
X008261Y039278D01*
X008244Y039306D01*
X008231Y039336D01*
X008222Y039367D01*
X008216Y039399D01*
X008214Y039432D01*
X020341Y040613D02*
X020343Y040639D01*
X020349Y040665D01*
X020359Y040690D01*
X020372Y040713D01*
X020388Y040733D01*
X020408Y040751D01*
X020430Y040766D01*
X020453Y040778D01*
X020479Y040786D01*
X020505Y040790D01*
X020531Y040790D01*
X020557Y040786D01*
X020583Y040778D01*
X020607Y040766D01*
X020628Y040751D01*
X020648Y040733D01*
X020664Y040713D01*
X020677Y040690D01*
X020687Y040665D01*
X020693Y040639D01*
X020695Y040613D01*
X020693Y040587D01*
X020687Y040561D01*
X020677Y040536D01*
X020664Y040513D01*
X020648Y040493D01*
X020628Y040475D01*
X020606Y040460D01*
X020583Y040448D01*
X020557Y040440D01*
X020531Y040436D01*
X020505Y040436D01*
X020479Y040440D01*
X020453Y040448D01*
X020429Y040460D01*
X020408Y040475D01*
X020388Y040493D01*
X020372Y040513D01*
X020359Y040536D01*
X020349Y040561D01*
X020343Y040587D01*
X020341Y040613D01*
X022073Y040613D02*
X022075Y040639D01*
X022081Y040665D01*
X022091Y040690D01*
X022104Y040713D01*
X022120Y040733D01*
X022140Y040751D01*
X022162Y040766D01*
X022185Y040778D01*
X022211Y040786D01*
X022237Y040790D01*
X022263Y040790D01*
X022289Y040786D01*
X022315Y040778D01*
X022339Y040766D01*
X022360Y040751D01*
X022380Y040733D01*
X022396Y040713D01*
X022409Y040690D01*
X022419Y040665D01*
X022425Y040639D01*
X022427Y040613D01*
X022425Y040587D01*
X022419Y040561D01*
X022409Y040536D01*
X022396Y040513D01*
X022380Y040493D01*
X022360Y040475D01*
X022338Y040460D01*
X022315Y040448D01*
X022289Y040440D01*
X022263Y040436D01*
X022237Y040436D01*
X022211Y040440D01*
X022185Y040448D01*
X022161Y040460D01*
X022140Y040475D01*
X022120Y040493D01*
X022104Y040513D01*
X022091Y040536D01*
X022081Y040561D01*
X022075Y040587D01*
X022073Y040613D01*
X035301Y040613D02*
X035303Y040639D01*
X035309Y040665D01*
X035319Y040690D01*
X035332Y040713D01*
X035348Y040733D01*
X035368Y040751D01*
X035390Y040766D01*
X035413Y040778D01*
X035439Y040786D01*
X035465Y040790D01*
X035491Y040790D01*
X035517Y040786D01*
X035543Y040778D01*
X035567Y040766D01*
X035588Y040751D01*
X035608Y040733D01*
X035624Y040713D01*
X035637Y040690D01*
X035647Y040665D01*
X035653Y040639D01*
X035655Y040613D01*
X035653Y040587D01*
X035647Y040561D01*
X035637Y040536D01*
X035624Y040513D01*
X035608Y040493D01*
X035588Y040475D01*
X035566Y040460D01*
X035543Y040448D01*
X035517Y040440D01*
X035491Y040436D01*
X035465Y040436D01*
X035439Y040440D01*
X035413Y040448D01*
X035389Y040460D01*
X035368Y040475D01*
X035348Y040493D01*
X035332Y040513D01*
X035319Y040536D01*
X035309Y040561D01*
X035303Y040587D01*
X035301Y040613D01*
X037033Y040613D02*
X037035Y040639D01*
X037041Y040665D01*
X037051Y040690D01*
X037064Y040713D01*
X037080Y040733D01*
X037100Y040751D01*
X037122Y040766D01*
X037145Y040778D01*
X037171Y040786D01*
X037197Y040790D01*
X037223Y040790D01*
X037249Y040786D01*
X037275Y040778D01*
X037299Y040766D01*
X037320Y040751D01*
X037340Y040733D01*
X037356Y040713D01*
X037369Y040690D01*
X037379Y040665D01*
X037385Y040639D01*
X037387Y040613D01*
X037385Y040587D01*
X037379Y040561D01*
X037369Y040536D01*
X037356Y040513D01*
X037340Y040493D01*
X037320Y040475D01*
X037298Y040460D01*
X037275Y040448D01*
X037249Y040440D01*
X037223Y040436D01*
X037197Y040436D01*
X037171Y040440D01*
X037145Y040448D01*
X037121Y040460D01*
X037100Y040475D01*
X037080Y040493D01*
X037064Y040513D01*
X037051Y040536D01*
X037041Y040561D01*
X037035Y040587D01*
X037033Y040613D01*
X050223Y027715D02*
X050225Y027749D01*
X050231Y027783D01*
X050241Y027816D01*
X050254Y027847D01*
X050272Y027877D01*
X050292Y027905D01*
X050316Y027930D01*
X050342Y027952D01*
X050370Y027970D01*
X050401Y027986D01*
X050433Y027998D01*
X050467Y028006D01*
X050501Y028010D01*
X050535Y028010D01*
X050569Y028006D01*
X050603Y027998D01*
X050635Y027986D01*
X050665Y027970D01*
X050694Y027952D01*
X050720Y027930D01*
X050744Y027905D01*
X050764Y027877D01*
X050782Y027847D01*
X050795Y027816D01*
X050805Y027783D01*
X050811Y027749D01*
X050813Y027715D01*
X050811Y027681D01*
X050805Y027647D01*
X050795Y027614D01*
X050782Y027583D01*
X050764Y027553D01*
X050744Y027525D01*
X050720Y027500D01*
X050694Y027478D01*
X050666Y027460D01*
X050635Y027444D01*
X050603Y027432D01*
X050569Y027424D01*
X050535Y027420D01*
X050501Y027420D01*
X050467Y027424D01*
X050433Y027432D01*
X050401Y027444D01*
X050370Y027460D01*
X050342Y027478D01*
X050316Y027500D01*
X050292Y027525D01*
X050272Y027553D01*
X050254Y027583D01*
X050241Y027614D01*
X050231Y027647D01*
X050225Y027681D01*
X050223Y027715D01*
X050223Y022015D02*
X050225Y022049D01*
X050231Y022083D01*
X050241Y022116D01*
X050254Y022147D01*
X050272Y022177D01*
X050292Y022205D01*
X050316Y022230D01*
X050342Y022252D01*
X050370Y022270D01*
X050401Y022286D01*
X050433Y022298D01*
X050467Y022306D01*
X050501Y022310D01*
X050535Y022310D01*
X050569Y022306D01*
X050603Y022298D01*
X050635Y022286D01*
X050665Y022270D01*
X050694Y022252D01*
X050720Y022230D01*
X050744Y022205D01*
X050764Y022177D01*
X050782Y022147D01*
X050795Y022116D01*
X050805Y022083D01*
X050811Y022049D01*
X050813Y022015D01*
X050811Y021981D01*
X050805Y021947D01*
X050795Y021914D01*
X050782Y021883D01*
X050764Y021853D01*
X050744Y021825D01*
X050720Y021800D01*
X050694Y021778D01*
X050666Y021760D01*
X050635Y021744D01*
X050603Y021732D01*
X050569Y021724D01*
X050535Y021720D01*
X050501Y021720D01*
X050467Y021724D01*
X050433Y021732D01*
X050401Y021744D01*
X050370Y021760D01*
X050342Y021778D01*
X050316Y021800D01*
X050292Y021825D01*
X050272Y021853D01*
X050254Y021883D01*
X050241Y021914D01*
X050231Y021947D01*
X050225Y021981D01*
X050223Y022015D01*
X047264Y009122D02*
X045965Y009122D01*
X045965Y008729D01*
X047264Y008729D01*
X047264Y009122D01*
X048307Y008256D02*
X048307Y007154D01*
X048701Y007154D01*
X048701Y008256D01*
X048307Y008256D01*
X047166Y006721D02*
X047166Y006327D01*
X046063Y006327D01*
X046063Y006721D01*
X047166Y006721D01*
M02*
